<?xml version="1.0" standalone="no"?>
<!DOCTYPE svg PUBLIC "-//W3C//DTD SVG 1.1//EN" "http://www.w3.org/Graphics/SVG/1.1/DTD/svg11.dtd">
<svg width="96mm" height="271mm" viewBox="-48 -230 96 271" xmlns="http://www.w3.org/2000/svg" version="1.1">
<title>OpenSCAD Model</title>
<path d="
M 28.7637,-141.475 L 30.4015,-142.664 L 28.377,-142.664 L 27.7514,-144.59 L 29.3893,-145.78 L 31.0271,-144.59
 L 30.4015,-146.515 L 32.0393,-147.705 L 30.0148,-147.705 L 29.3893,-149.63 L 28.7637,-147.705 L 26.7392,-147.705
 L 26.1136,-149.63 L 27.7514,-150.82 L 25.727,-150.82 L 25.1014,-152.746 L 26.7392,-153.936 L 28.377,-152.746
 L 27.7514,-154.671 L 29.3893,-155.861 L 31.0271,-154.671 L 30.4015,-152.746 L 32.0393,-153.936 L 33.6771,-152.746
 L 33.0515,-154.671 L 34.6893,-155.861 L 32.6649,-155.861 L 32.0393,-157.786 L 33.6771,-158.976 L 35.3149,-157.786
 L 34.6893,-159.712 L 36.3271,-160.902 L 34.3027,-160.902 L 33.6771,-162.827 L 33.0515,-160.902 L 31.0271,-160.902
 L 30.4015,-162.827 L 32.0393,-164.017 L 30.0148,-164.017 L 29.3893,-165.942 L 28.7637,-164.017 L 26.7392,-164.017
 L 28.377,-162.827 L 27.7514,-160.902 L 25.727,-160.902 L 25.1014,-162.827 L 24.4758,-160.902 L 22.4514,-160.902
 L 21.8258,-162.827 L 23.4636,-164.017 L 21.4392,-164.017 L 20.8136,-165.942 L 22.4514,-167.132 L 24.0892,-165.942
 L 23.4636,-167.868 L 25.1014,-169.058 L 23.077,-169.058 L 22.4514,-170.983 L 21.8258,-169.058 L 19.8014,-169.058
 L 19.1758,-170.983 L 20.8136,-172.173 L 18.7891,-172.173 L 18.1636,-174.098 L 19.8014,-175.288 L 21.4392,-174.098
 L 20.8136,-176.024 L 22.4514,-177.214 L 24.0892,-176.024 L 23.4636,-174.098 L 25.1014,-175.288 L 26.7392,-174.098
 L 26.1136,-176.024 L 27.7514,-177.214 L 25.727,-177.214 L 25.1014,-179.139 L 26.7392,-180.329 L 28.377,-179.139
 L 27.7514,-181.064 L 29.3893,-182.254 L 31.0271,-181.064 L 30.4015,-179.139 L 32.0393,-180.329 L 33.6771,-179.139
 L 33.0515,-177.214 L 31.0271,-177.214 L 32.6649,-176.024 L 32.0393,-174.098 L 33.6771,-175.288 L 35.3149,-174.098
 L 34.6893,-176.024 L 36.3271,-177.214 L 37.9649,-176.024 L 37.3393,-174.098 L 38.9771,-175.288 L 40.6149,-174.098
 L 39.9894,-176.024 L 41.6272,-177.214 L 39.6027,-177.214 L 38.9771,-179.139 L 40.6149,-180.329 L 42.2528,-179.139
 L 41.6272,-181.064 L 43.265,-182.254 L 41.2405,-182.254 L 40.6149,-184.18 L 39.9894,-182.254 L 37.9649,-182.254
 L 37.3393,-184.18 L 38.9771,-185.37 L 36.9527,-185.37 L 36.3271,-187.295 L 37.9649,-188.485 L 39.6027,-187.295
 L 38.9771,-189.22 L 40.615,-190.41 L 42.2528,-189.22 L 41.6272,-187.295 L 43.265,-188.485 L 44.9028,-187.295
 L 44.2772,-189.22 L 45.915,-190.41 L 43.8906,-190.41 L 43.265,-192.336 L 44.9028,-193.525 L 46.5406,-192.336
 L 45.915,-194.261 L 47.5528,-195.451 L 45.5284,-195.451 L 44.9028,-197.376 L 44.2772,-195.451 L 42.2528,-195.451
 L 41.6272,-197.376 L 43.265,-198.566 L 41.2405,-198.566 L 40.615,-200.491 L 39.9894,-198.566 L 37.9649,-198.566
 L 39.6027,-197.376 L 38.9771,-195.451 L 36.9527,-195.451 L 36.3271,-197.376 L 35.7015,-195.451 L 33.6771,-195.451
 L 33.0515,-197.376 L 34.6893,-198.566 L 32.6649,-198.566 L 32.0393,-200.491 L 33.6771,-201.681 L 35.3149,-200.492
 L 34.6893,-202.417 L 36.3271,-203.607 L 34.3027,-203.607 L 33.6771,-205.532 L 33.0515,-203.607 L 31.0271,-203.607
 L 30.4015,-205.532 L 32.0393,-206.722 L 30.0148,-206.722 L 29.3893,-208.647 L 28.7637,-206.722 L 26.7392,-206.722
 L 28.377,-205.532 L 27.7514,-203.607 L 25.727,-203.607 L 25.1014,-205.532 L 24.4758,-203.607 L 22.4514,-203.607
 L 24.0892,-202.417 L 23.4636,-200.492 L 25.1014,-201.681 L 26.7392,-200.491 L 26.1136,-198.566 L 24.0892,-198.566
 L 25.727,-197.376 L 25.1014,-195.451 L 23.077,-195.451 L 22.4514,-197.376 L 21.8258,-195.451 L 19.8014,-195.451
 L 19.1758,-197.376 L 20.8136,-198.566 L 18.7891,-198.566 L 18.1636,-200.491 L 17.538,-198.566 L 15.5135,-198.566
 L 17.1513,-197.376 L 16.5258,-195.451 L 14.5013,-195.451 L 13.8757,-197.376 L 13.2501,-195.451 L 11.2257,-195.451
 L 10.6001,-197.376 L 12.2379,-198.566 L 10.2135,-198.566 L 9.58789,-200.492 L 11.2257,-201.681 L 12.8635,-200.492
 L 12.2379,-202.417 L 13.8757,-203.607 L 11.8513,-203.607 L 11.2257,-205.532 L 10.6001,-203.607 L 8.57567,-203.607
 L 7.95007,-205.532 L 9.58788,-206.722 L 7.56345,-206.722 L 6.93787,-208.647 L 8.57567,-209.837 L 10.2135,-208.647
 L 9.58789,-210.573 L 11.2257,-211.763 L 12.8635,-210.573 L 12.2379,-208.647 L 13.8757,-209.837 L 15.5135,-208.647
 L 14.8879,-210.573 L 16.5257,-211.763 L 14.5013,-211.763 L 13.8757,-213.688 L 15.5135,-214.878 L 17.1513,-213.688
 L 16.5257,-215.613 L 18.1635,-216.803 L 16.1391,-216.803 L 15.5135,-218.729 L 14.8879,-216.803 L 12.8635,-216.803
 L 12.2379,-218.729 L 13.8757,-219.919 L 11.8513,-219.919 L 11.2257,-221.844 L 10.6001,-219.919 L 8.57567,-219.919
 L 10.2135,-218.729 L 9.58789,-216.803 L 7.56345,-216.803 L 6.93785,-218.729 L 6.31227,-216.803 L 4.28784,-216.803
 L 3.66225,-218.729 L 5.30005,-219.919 L 3.27562,-219.919 L 2.65002,-221.844 L 4.28783,-223.034 L 5.92563,-221.844
 L 5.30005,-223.769 L 6.93785,-224.959 L 4.91341,-224.959 L 4.28783,-226.885 L 3.66225,-224.959 L 1.63782,-224.959
 L 1.01222,-226.885 L 2.65001,-228.075 L 0.625595,-228.075 L 0,-230 L -0.625595,-228.075 L -2.65001,-228.075
 L -1.01222,-226.885 L -1.63782,-224.959 L -3.66225,-224.959 L -4.28783,-226.885 L -4.91341,-224.959 L -6.93785,-224.959
 L -5.30005,-223.769 L -5.92563,-221.844 L -4.28783,-223.034 L -2.65002,-221.844 L -3.27562,-219.919 L -5.30005,-219.919
 L -3.66225,-218.729 L -4.28784,-216.803 L -6.31227,-216.803 L -6.93785,-218.729 L -7.56345,-216.803 L -9.58789,-216.803
 L -10.2135,-218.729 L -8.57567,-219.919 L -10.6001,-219.919 L -11.2257,-221.844 L -11.8513,-219.919 L -13.8757,-219.919
 L -12.2379,-218.729 L -12.8635,-216.803 L -14.8879,-216.803 L -15.5135,-218.729 L -16.1391,-216.803 L -18.1635,-216.803
 L -16.5257,-215.613 L -17.1513,-213.688 L -15.5135,-214.878 L -13.8757,-213.688 L -14.5013,-211.763 L -16.5257,-211.763
 L -14.8879,-210.573 L -15.5135,-208.647 L -13.8757,-209.837 L -12.2379,-208.647 L -12.8635,-210.573 L -11.2257,-211.763
 L -9.58789,-210.573 L -10.2135,-208.647 L -8.57567,-209.837 L -6.93787,-208.647 L -7.56345,-206.722 L -9.58788,-206.722
 L -7.95007,-205.532 L -8.57567,-203.607 L -10.6001,-203.607 L -11.2257,-205.532 L -11.8513,-203.607 L -13.8757,-203.607
 L -12.2379,-202.417 L -12.8635,-200.492 L -11.2257,-201.681 L -9.58789,-200.492 L -10.2135,-198.566 L -12.2379,-198.566
 L -10.6001,-197.376 L -11.2257,-195.451 L -13.2501,-195.451 L -13.8757,-197.376 L -14.5013,-195.451 L -16.5258,-195.451
 L -17.1513,-197.376 L -15.5135,-198.566 L -17.538,-198.566 L -18.1636,-200.491 L -18.7891,-198.566 L -20.8136,-198.566
 L -19.1758,-197.376 L -19.8014,-195.451 L -21.8258,-195.451 L -22.4514,-197.376 L -23.077,-195.451 L -25.1014,-195.451
 L -25.727,-197.376 L -24.0892,-198.566 L -26.1136,-198.566 L -26.7392,-200.491 L -25.1014,-201.681 L -23.4636,-200.492
 L -24.0892,-202.417 L -22.4514,-203.607 L -24.4758,-203.607 L -25.1014,-205.532 L -25.727,-203.607 L -27.7514,-203.607
 L -28.377,-205.532 L -26.7392,-206.722 L -28.7637,-206.722 L -29.3893,-208.647 L -30.0148,-206.722 L -32.0393,-206.722
 L -30.4015,-205.532 L -31.0271,-203.607 L -33.0515,-203.607 L -33.6771,-205.532 L -34.3027,-203.607 L -36.3271,-203.607
 L -34.6893,-202.417 L -35.3149,-200.492 L -33.6771,-201.681 L -32.0393,-200.491 L -32.6649,-198.566 L -34.6893,-198.566
 L -33.0515,-197.376 L -33.6771,-195.451 L -35.7015,-195.451 L -36.3271,-197.376 L -36.9527,-195.451 L -38.9771,-195.451
 L -39.6027,-197.376 L -37.9649,-198.566 L -39.9894,-198.566 L -40.615,-200.491 L -41.2405,-198.566 L -43.265,-198.566
 L -41.6272,-197.376 L -42.2528,-195.451 L -44.2772,-195.451 L -44.9028,-197.376 L -45.5284,-195.451 L -47.5528,-195.451
 L -45.915,-194.261 L -46.5406,-192.336 L -44.9028,-193.525 L -43.265,-192.336 L -43.8906,-190.41 L -45.915,-190.41
 L -44.2772,-189.22 L -44.9028,-187.295 L -43.265,-188.485 L -41.6272,-187.295 L -42.2528,-189.22 L -40.615,-190.41
 L -38.9771,-189.22 L -39.6027,-187.295 L -37.9649,-188.485 L -36.3271,-187.295 L -36.9527,-185.37 L -38.9771,-185.37
 L -37.3393,-184.18 L -37.9649,-182.254 L -39.9894,-182.254 L -40.6149,-184.18 L -41.2405,-182.254 L -43.265,-182.254
 L -41.6272,-181.064 L -42.2528,-179.139 L -40.6149,-180.329 L -38.9771,-179.139 L -39.6027,-177.214 L -41.6272,-177.214
 L -39.9894,-176.024 L -40.6149,-174.098 L -38.9771,-175.288 L -37.3393,-174.098 L -37.9649,-176.024 L -36.3271,-177.214
 L -34.6893,-176.024 L -35.3149,-174.098 L -33.6771,-175.288 L -32.0393,-174.098 L -32.6649,-176.024 L -31.0271,-177.214
 L -33.0515,-177.214 L -33.6771,-179.139 L -32.0393,-180.329 L -30.4015,-179.139 L -31.0271,-181.064 L -29.3893,-182.254
 L -27.7514,-181.064 L -28.377,-179.139 L -26.7392,-180.329 L -25.1014,-179.139 L -25.727,-177.214 L -27.7514,-177.214
 L -26.1136,-176.024 L -26.7392,-174.098 L -25.1014,-175.288 L -23.4636,-174.098 L -24.0892,-176.024 L -22.4514,-177.214
 L -20.8136,-176.024 L -21.4392,-174.098 L -19.8014,-175.288 L -18.1635,-174.098 L -18.7891,-172.173 L -20.8136,-172.173
 L -19.1758,-170.983 L -19.8014,-169.058 L -21.8258,-169.058 L -22.4514,-170.983 L -23.077,-169.058 L -25.1014,-169.058
 L -23.4636,-167.868 L -24.0892,-165.942 L -22.4514,-167.132 L -20.8136,-165.942 L -21.4392,-164.017 L -23.4636,-164.017
 L -21.8258,-162.827 L -22.4514,-160.902 L -24.4758,-160.902 L -25.1014,-162.827 L -25.727,-160.902 L -27.7514,-160.902
 L -28.377,-162.827 L -26.7392,-164.017 L -28.7637,-164.017 L -29.3893,-165.942 L -30.0148,-164.017 L -32.0393,-164.017
 L -30.4015,-162.827 L -31.0271,-160.902 L -33.0515,-160.902 L -33.6771,-162.827 L -34.3027,-160.902 L -36.3271,-160.902
 L -34.6893,-159.712 L -35.3149,-157.786 L -33.6771,-158.976 L -32.0393,-157.786 L -32.6649,-155.861 L -34.6893,-155.861
 L -33.0515,-154.671 L -33.6771,-152.746 L -32.0393,-153.936 L -30.4015,-152.746 L -31.0271,-154.671 L -29.3893,-155.861
 L -27.7514,-154.671 L -28.377,-152.746 L -26.7392,-153.936 L -25.1014,-152.746 L -25.727,-150.82 L -27.7514,-150.82
 L -26.1136,-149.63 L -26.7392,-147.705 L -28.7637,-147.705 L -29.3893,-149.63 L -30.0148,-147.705 L -32.0393,-147.705
 L -30.4015,-146.515 L -31.0271,-144.59 L -29.3893,-145.78 L -27.7514,-144.59 L -28.377,-142.664 L -30.4015,-142.664
 L -28.7637,-141.475 L -29.3893,-139.549 L -27.7514,-140.739 L -26.1136,-139.549 L -26.7392,-141.475 L -25.1014,-142.664
 L -23.4636,-141.475 L -24.0892,-139.549 L -22.4514,-140.739 L -20.8136,-139.549 L -21.4392,-141.475 L -19.8014,-142.664
 L -21.8258,-142.664 L -22.4514,-144.59 L -20.8136,-145.78 L -19.1758,-144.59 L -19.8014,-146.515 L -18.1636,-147.705
 L -16.5257,-146.515 L -17.1513,-144.59 L -15.5135,-145.78 L -13.8757,-144.59 L -14.5013,-142.664 L -16.5257,-142.664
 L -14.8879,-141.475 L -15.5135,-139.549 L -13.8757,-140.739 L -12.2379,-139.549 L -12.8635,-141.475 L -11.2257,-142.664
 L -9.58789,-141.475 L -10.2135,-139.549 L -8.57567,-140.739 L -6.93785,-139.549 L -7.56345,-141.475 L -5.92564,-142.664
 L -7.95007,-142.664 L -8.57567,-144.59 L -6.93787,-145.78 L -5.30005,-144.59 L -5.92564,-146.515 L -4.28784,-147.705
 L -6.31229,-147.705 L -6.93787,-149.63 L -7.56345,-147.705 L -9.58789,-147.705 L -10.2135,-149.63 L -8.57567,-150.82
 L -10.6001,-150.82 L -11.2257,-152.746 L -9.58789,-153.936 L -7.95009,-152.746 L -8.57567,-154.671 L -6.93787,-155.861
 L -5.30005,-154.671 L -5.92564,-152.746 L -4.28783,-153.936 L -2.65002,-152.746 L -3.27562,-154.671 L -1.6378,-155.861
 L -3.66225,-155.861 L -4.28784,-157.786 L -2.65002,-158.976 L -1.01222,-157.786 L -1.6378,-159.712 L 0,-160.902
 L 1.6378,-159.712 L 1.01222,-157.786 L 2.65002,-158.976 L 4.28784,-157.786 L 3.66225,-155.861 L 1.6378,-155.861
 L 3.27562,-154.671 L 2.65002,-152.746 L 4.28783,-153.936 L 5.92564,-152.746 L 5.30005,-154.671 L 6.93787,-155.861
 L 8.57567,-154.671 L 7.95009,-152.746 L 9.58789,-153.936 L 11.2257,-152.746 L 10.6001,-150.82 L 8.57567,-150.82
 L 10.2135,-149.63 L 9.58789,-147.705 L 7.56345,-147.705 L 6.93787,-149.63 L 6.31229,-147.705 L 4.28784,-147.705
 L 5.92564,-146.515 L 5.30005,-144.59 L 6.93787,-145.78 L 8.57567,-144.59 L 7.95007,-142.664 L 5.92564,-142.664
 L 7.56345,-141.475 L 6.93785,-139.549 L 8.57567,-140.739 L 10.2135,-139.549 L 9.58789,-141.475 L 11.2257,-142.664
 L 12.8635,-141.475 L 12.2379,-139.549 L 13.8757,-140.739 L 15.5135,-139.549 L 14.8879,-141.475 L 16.5257,-142.664
 L 14.5013,-142.664 L 13.8757,-144.59 L 15.5135,-145.78 L 17.1513,-144.59 L 16.5257,-146.515 L 18.1636,-147.705
 L 19.8014,-146.515 L 19.1758,-144.59 L 20.8136,-145.78 L 22.4514,-144.59 L 21.8258,-142.664 L 19.8014,-142.664
 L 21.4392,-141.475 L 20.8136,-139.549 L 22.4514,-140.739 L 24.0892,-139.549 L 23.4636,-141.475 L 25.1014,-142.664
 L 26.7392,-141.475 L 26.1136,-139.549 L 27.7514,-140.739 L 29.3893,-139.549 z
M 28.7637,-51.4745 L 30.4015,-52.6645 L 28.377,-52.6645 L 27.7514,-54.5898 L 29.3893,-55.7798 L 31.0271,-54.5898
 L 30.4015,-56.5152 L 32.0393,-57.7051 L 30.0148,-57.7051 L 29.3893,-59.6305 L 28.7637,-57.7051 L 26.7392,-57.7051
 L 26.1136,-59.6305 L 27.7514,-60.8204 L 25.727,-60.8204 L 25.1014,-62.7458 L 26.7392,-63.9357 L 28.377,-62.7458
 L 27.7514,-64.6711 L 29.3893,-65.8611 L 31.0271,-64.6711 L 30.4015,-62.7458 L 32.0393,-63.9357 L 33.6771,-62.7458
 L 33.0515,-64.6711 L 34.6893,-65.8611 L 32.6649,-65.8611 L 32.0393,-67.7864 L 33.6771,-68.9763 L 35.3149,-67.7864
 L 34.6893,-69.7118 L 36.3271,-70.9017 L 34.3027,-70.9017 L 33.6771,-72.8271 L 33.0515,-70.9017 L 31.0271,-70.9017
 L 30.4015,-72.8271 L 32.0393,-74.017 L 30.0148,-74.017 L 29.3893,-75.9424 L 28.7637,-74.017 L 26.7392,-74.017
 L 28.377,-72.8271 L 27.7514,-70.9017 L 25.727,-70.9017 L 25.1014,-72.8271 L 24.4758,-70.9017 L 22.4514,-70.9017
 L 21.8258,-72.8271 L 23.4636,-74.017 L 21.4392,-74.017 L 20.8136,-75.9424 L 22.4514,-77.1323 L 24.0892,-75.9424
 L 23.4636,-77.8677 L 25.1014,-79.0576 L 23.077,-79.0576 L 22.4514,-80.983 L 21.8258,-79.0576 L 19.8014,-79.0576
 L 19.1758,-80.983 L 20.8136,-82.1729 L 18.7891,-82.1729 L 18.1636,-84.0983 L 19.8014,-85.2883 L 21.4392,-84.0983
 L 20.8136,-86.0237 L 22.4514,-87.2136 L 24.0892,-86.0237 L 23.4636,-84.0983 L 25.1014,-85.2883 L 26.7392,-84.0983
 L 26.1136,-86.0237 L 27.7514,-87.2136 L 25.727,-87.2136 L 25.1014,-89.139 L 26.7392,-90.3289 L 28.377,-89.139
 L 27.7514,-91.0643 L 29.3893,-92.2542 L 31.0271,-91.0643 L 30.4015,-89.139 L 32.0393,-90.3289 L 33.6771,-89.1389
 L 33.0515,-87.2136 L 31.0271,-87.2136 L 32.6649,-86.0237 L 32.0393,-84.0983 L 33.6771,-85.2883 L 35.3149,-84.0983
 L 34.6893,-86.0237 L 36.3271,-87.2136 L 37.9649,-86.0237 L 37.3393,-84.0983 L 38.9771,-85.2882 L 40.6149,-84.0983
 L 39.9894,-86.0237 L 41.6272,-87.2136 L 39.6027,-87.2136 L 38.9771,-89.139 L 40.6149,-90.3289 L 42.2528,-89.139
 L 41.6272,-91.0643 L 43.265,-92.2542 L 41.2405,-92.2542 L 40.6149,-94.1796 L 39.9894,-92.2542 L 37.9649,-92.2542
 L 37.3393,-94.1796 L 38.9771,-95.3695 L 36.9527,-95.3695 L 36.3271,-97.2949 L 37.9649,-98.4848 L 39.6027,-97.2949
 L 38.9771,-99.2202 L 40.615,-100.41 L 42.2528,-99.2203 L 41.6272,-97.2949 L 43.265,-98.4848 L 44.9028,-97.2949
 L 44.2772,-99.2203 L 45.915,-100.41 L 43.8906,-100.41 L 43.265,-102.336 L 44.9028,-103.525 L 46.5406,-102.336
 L 45.915,-104.261 L 47.5528,-105.451 L 45.5284,-105.451 L 44.9028,-107.376 L 44.2772,-105.451 L 42.2528,-105.451
 L 41.6272,-107.376 L 43.265,-108.566 L 41.2405,-108.566 L 40.615,-110.491 L 39.9894,-108.566 L 37.9649,-108.566
 L 39.6027,-107.376 L 38.9771,-105.451 L 36.9527,-105.451 L 36.3271,-107.376 L 35.7015,-105.451 L 33.6771,-105.451
 L 33.0515,-107.376 L 34.6893,-108.566 L 32.6649,-108.566 L 32.0393,-110.491 L 33.6771,-111.681 L 35.3149,-110.492
 L 34.6893,-112.417 L 36.3271,-113.607 L 34.3027,-113.607 L 33.6771,-115.532 L 33.0515,-113.607 L 31.0271,-113.607
 L 30.4015,-115.532 L 32.0393,-116.722 L 30.0148,-116.722 L 29.3893,-118.647 L 28.7637,-116.722 L 26.7392,-116.722
 L 28.377,-115.532 L 27.7514,-113.607 L 25.727,-113.607 L 25.1014,-115.532 L 24.4758,-113.607 L 22.4514,-113.607
 L 24.0892,-112.417 L 23.4636,-110.492 L 25.1014,-111.681 L 26.7392,-110.491 L 26.1136,-108.566 L 24.0892,-108.566
 L 25.727,-107.376 L 25.1014,-105.451 L 23.077,-105.451 L 22.4514,-107.376 L 21.8258,-105.451 L 19.8014,-105.451
 L 19.1758,-107.376 L 20.8136,-108.566 L 18.7891,-108.566 L 18.1636,-110.491 L 17.538,-108.566 L 15.5135,-108.566
 L 17.1513,-107.376 L 16.5258,-105.451 L 14.5013,-105.451 L 13.8757,-107.376 L 13.2501,-105.451 L 11.2257,-105.451
 L 10.6001,-107.376 L 12.2379,-108.566 L 10.2135,-108.566 L 9.58789,-110.492 L 11.2257,-111.681 L 12.8635,-110.492
 L 12.2379,-112.417 L 13.8757,-113.607 L 11.8513,-113.607 L 11.2257,-115.532 L 10.6001,-113.607 L 8.57567,-113.607
 L 7.95007,-115.532 L 9.58788,-116.722 L 7.56345,-116.722 L 6.93787,-118.647 L 8.57567,-119.837 L 10.2135,-118.647
 L 9.58789,-120.573 L 11.2257,-121.763 L 12.8635,-120.573 L 12.2379,-118.647 L 13.8757,-119.837 L 15.5135,-118.647
 L 14.8879,-120.573 L 16.5257,-121.763 L 14.5013,-121.763 L 13.8757,-123.688 L 15.5135,-124.878 L 17.1513,-123.688
 L 16.5257,-125.613 L 18.1635,-126.803 L 16.1391,-126.803 L 15.5135,-128.729 L 14.8879,-126.803 L 12.8635,-126.803
 L 12.2379,-128.729 L 13.8757,-129.919 L 11.8513,-129.919 L 11.2257,-131.844 L 10.6001,-129.919 L 8.57567,-129.919
 L 10.2135,-128.729 L 9.58789,-126.803 L 7.56345,-126.803 L 6.93785,-128.729 L 6.31227,-126.803 L 4.28784,-126.803
 L 3.66225,-128.729 L 5.30005,-129.919 L 3.27562,-129.919 L 2.65002,-131.844 L 4.28783,-133.034 L 5.92563,-131.844
 L 5.30005,-133.769 L 6.93785,-134.959 L 4.91341,-134.959 L 4.28783,-136.885 L 3.66225,-134.959 L 1.63782,-134.959
 L 1.01222,-136.885 L 2.65001,-138.075 L 0.625595,-138.075 L 0,-140 L -0.625595,-138.075 L -2.65001,-138.075
 L -1.01222,-136.885 L -1.63782,-134.959 L -3.66225,-134.959 L -4.28783,-136.885 L -4.91341,-134.959 L -6.93785,-134.959
 L -5.30005,-133.769 L -5.92563,-131.844 L -4.28783,-133.034 L -2.65002,-131.844 L -3.27562,-129.919 L -5.30005,-129.919
 L -3.66225,-128.729 L -4.28784,-126.803 L -6.31227,-126.803 L -6.93785,-128.729 L -7.56345,-126.803 L -9.58789,-126.803
 L -10.2135,-128.729 L -8.57567,-129.919 L -10.6001,-129.919 L -11.2257,-131.844 L -11.8513,-129.919 L -13.8757,-129.919
 L -12.2379,-128.729 L -12.8635,-126.803 L -14.8879,-126.803 L -15.5135,-128.729 L -16.1391,-126.803 L -18.1635,-126.803
 L -16.5257,-125.613 L -17.1513,-123.688 L -15.5135,-124.878 L -13.8757,-123.688 L -14.5013,-121.763 L -16.5257,-121.763
 L -14.8879,-120.573 L -15.5135,-118.647 L -13.8757,-119.837 L -12.2379,-118.647 L -12.8635,-120.573 L -11.2257,-121.763
 L -9.58789,-120.573 L -10.2135,-118.647 L -8.57567,-119.837 L -6.93787,-118.647 L -7.56345,-116.722 L -9.58788,-116.722
 L -7.95007,-115.532 L -8.57567,-113.607 L -10.6001,-113.607 L -11.2257,-115.532 L -11.8513,-113.607 L -13.8757,-113.607
 L -12.2379,-112.417 L -12.8635,-110.492 L -11.2257,-111.681 L -9.58789,-110.492 L -10.2135,-108.566 L -12.2379,-108.566
 L -10.6001,-107.376 L -11.2257,-105.451 L -13.2501,-105.451 L -13.8757,-107.376 L -14.5013,-105.451 L -16.5258,-105.451
 L -17.1513,-107.376 L -15.5135,-108.566 L -17.538,-108.566 L -18.1636,-110.491 L -18.7891,-108.566 L -20.8136,-108.566
 L -19.1758,-107.376 L -19.8014,-105.451 L -21.8258,-105.451 L -22.4514,-107.376 L -23.077,-105.451 L -25.1014,-105.451
 L -25.727,-107.376 L -24.0892,-108.566 L -26.1136,-108.566 L -26.7392,-110.491 L -25.1014,-111.681 L -23.4636,-110.492
 L -24.0892,-112.417 L -22.4514,-113.607 L -24.4758,-113.607 L -25.1014,-115.532 L -25.727,-113.607 L -27.7514,-113.607
 L -28.377,-115.532 L -26.7392,-116.722 L -28.7637,-116.722 L -29.3893,-118.647 L -30.0148,-116.722 L -32.0393,-116.722
 L -30.4015,-115.532 L -31.0271,-113.607 L -33.0515,-113.607 L -33.6771,-115.532 L -34.3027,-113.607 L -36.3271,-113.607
 L -34.6893,-112.417 L -35.3149,-110.492 L -33.6771,-111.681 L -32.0393,-110.491 L -32.6649,-108.566 L -34.6893,-108.566
 L -33.0515,-107.376 L -33.6771,-105.451 L -35.7015,-105.451 L -36.3271,-107.376 L -36.9527,-105.451 L -38.9771,-105.451
 L -39.6027,-107.376 L -37.9649,-108.566 L -39.9894,-108.566 L -40.615,-110.491 L -41.2405,-108.566 L -43.265,-108.566
 L -41.6272,-107.376 L -42.2528,-105.451 L -44.2772,-105.451 L -44.9028,-107.376 L -45.5284,-105.451 L -47.5528,-105.451
 L -45.915,-104.261 L -46.5406,-102.336 L -44.9028,-103.525 L -43.265,-102.336 L -43.8906,-100.41 L -45.915,-100.41
 L -44.2772,-99.2203 L -44.9028,-97.2949 L -43.265,-98.4848 L -41.6272,-97.2949 L -42.2528,-99.2203 L -40.615,-100.41
 L -38.9771,-99.2202 L -39.6027,-97.2949 L -37.9649,-98.4848 L -36.3271,-97.2949 L -36.9527,-95.3695 L -38.9771,-95.3695
 L -37.3393,-94.1796 L -37.9649,-92.2542 L -39.9894,-92.2542 L -40.6149,-94.1796 L -41.2405,-92.2542 L -43.265,-92.2542
 L -41.6272,-91.0643 L -42.2528,-89.139 L -40.6149,-90.3289 L -38.9771,-89.139 L -39.6027,-87.2136 L -41.6272,-87.2136
 L -39.9894,-86.0237 L -40.6149,-84.0983 L -38.9771,-85.2882 L -37.3393,-84.0983 L -37.9649,-86.0237 L -36.3271,-87.2136
 L -34.6893,-86.0237 L -35.3149,-84.0983 L -33.6771,-85.2883 L -32.0393,-84.0983 L -32.6649,-86.0237 L -31.0271,-87.2136
 L -33.0515,-87.2136 L -33.6771,-89.1389 L -32.0393,-90.3289 L -30.4015,-89.139 L -31.0271,-91.0643 L -29.3893,-92.2542
 L -27.7514,-91.0643 L -28.377,-89.139 L -26.7392,-90.3289 L -25.1014,-89.139 L -25.727,-87.2136 L -27.7514,-87.2136
 L -26.1136,-86.0237 L -26.7392,-84.0983 L -25.1014,-85.2883 L -23.4636,-84.0983 L -24.0892,-86.0237 L -22.4514,-87.2136
 L -20.8136,-86.0237 L -21.4392,-84.0983 L -19.8014,-85.2883 L -18.1635,-84.0983 L -18.7891,-82.1729 L -20.8136,-82.1729
 L -19.1758,-80.983 L -19.8014,-79.0576 L -21.8258,-79.0576 L -22.4514,-80.983 L -23.077,-79.0576 L -25.1014,-79.0576
 L -23.4636,-77.8677 L -24.0892,-75.9424 L -22.4514,-77.1323 L -20.8136,-75.9424 L -21.4392,-74.017 L -23.4636,-74.017
 L -21.8258,-72.8271 L -22.4514,-70.9017 L -24.4758,-70.9017 L -25.1014,-72.8271 L -25.727,-70.9017 L -27.7514,-70.9017
 L -28.377,-72.8271 L -26.7392,-74.017 L -28.7637,-74.017 L -29.3893,-75.9424 L -30.0148,-74.017 L -32.0393,-74.017
 L -30.4015,-72.8271 L -31.0271,-70.9017 L -33.0515,-70.9017 L -33.6771,-72.8271 L -34.3027,-70.9017 L -36.3271,-70.9017
 L -34.6893,-69.7118 L -35.3149,-67.7864 L -33.6771,-68.9763 L -32.0393,-67.7864 L -32.6649,-65.8611 L -34.6893,-65.8611
 L -33.0515,-64.6711 L -33.6771,-62.7458 L -32.0393,-63.9357 L -30.4015,-62.7458 L -31.0271,-64.6711 L -29.3893,-65.8611
 L -27.7514,-64.6711 L -28.377,-62.7458 L -26.7392,-63.9357 L -25.1014,-62.7458 L -25.727,-60.8204 L -27.7514,-60.8204
 L -26.1136,-59.6305 L -26.7392,-57.7051 L -28.7637,-57.7051 L -29.3893,-59.6305 L -30.0148,-57.7051 L -32.0393,-57.7051
 L -30.4015,-56.5152 L -31.0271,-54.5898 L -29.3893,-55.7798 L -27.7514,-54.5898 L -28.377,-52.6645 L -30.4015,-52.6645
 L -28.7637,-51.4745 L -29.3893,-49.5492 L -27.7514,-50.7391 L -26.1136,-49.5492 L -26.7392,-51.4745 L -25.1014,-52.6645
 L -23.4636,-51.4745 L -24.0892,-49.5492 L -22.4514,-50.7391 L -20.8136,-49.5492 L -21.4392,-51.4745 L -19.8014,-52.6645
 L -21.8258,-52.6645 L -22.4514,-54.5898 L -20.8136,-55.7798 L -19.1758,-54.5898 L -19.8014,-56.5152 L -18.1636,-57.7051
 L -16.5257,-56.5152 L -17.1513,-54.5898 L -15.5135,-55.7798 L -13.8757,-54.5898 L -14.5013,-52.6645 L -16.5257,-52.6645
 L -14.8879,-51.4745 L -15.5135,-49.5492 L -13.8757,-50.7391 L -12.2379,-49.5492 L -12.8635,-51.4745 L -11.2257,-52.6645
 L -9.58789,-51.4745 L -10.2135,-49.5492 L -8.57567,-50.7391 L -6.93785,-49.5492 L -7.56345,-51.4745 L -5.92564,-52.6645
 L -7.95007,-52.6645 L -8.57567,-54.5898 L -6.93787,-55.7798 L -5.30005,-54.5898 L -5.92564,-56.5152 L -4.28784,-57.7051
 L -6.31229,-57.7051 L -6.93787,-59.6305 L -7.56345,-57.7051 L -9.58789,-57.7051 L -10.2135,-59.6305 L -8.57567,-60.8204
 L -10.6001,-60.8204 L -11.2257,-62.7458 L -9.58789,-63.9357 L -7.95009,-62.7458 L -8.57567,-64.6711 L -6.93787,-65.8611
 L -5.30005,-64.6711 L -5.92564,-62.7458 L -4.28783,-63.9357 L -2.65002,-62.7458 L -3.27562,-64.6711 L -1.6378,-65.8611
 L -3.66225,-65.8611 L -4.28784,-67.7864 L -2.65002,-68.9763 L -1.01222,-67.7864 L -1.6378,-69.7118 L 0,-70.9017
 L 1.6378,-69.7118 L 1.01222,-67.7864 L 2.65002,-68.9763 L 4.28784,-67.7864 L 3.66225,-65.8611 L 1.6378,-65.8611
 L 3.27562,-64.6711 L 2.65002,-62.7458 L 4.28783,-63.9357 L 5.92564,-62.7458 L 5.30005,-64.6711 L 6.93787,-65.8611
 L 8.57567,-64.6711 L 7.95009,-62.7458 L 9.58789,-63.9357 L 11.2257,-62.7458 L 10.6001,-60.8204 L 8.57567,-60.8204
 L 10.2135,-59.6305 L 9.58789,-57.7051 L 7.56345,-57.7051 L 6.93787,-59.6305 L 6.31229,-57.7051 L 4.28784,-57.7051
 L 5.92564,-56.5152 L 5.30005,-54.5898 L 6.93787,-55.7798 L 8.57567,-54.5898 L 7.95007,-52.6645 L 5.92564,-52.6645
 L 7.56345,-51.4745 L 6.93785,-49.5492 L 8.57567,-50.7391 L 10.2135,-49.5492 L 9.58789,-51.4745 L 11.2257,-52.6645
 L 12.8635,-51.4745 L 12.2379,-49.5492 L 13.8757,-50.7391 L 15.5135,-49.5492 L 14.8879,-51.4745 L 16.5257,-52.6645
 L 14.5013,-52.6645 L 13.8757,-54.5898 L 15.5135,-55.7798 L 17.1513,-54.5898 L 16.5257,-56.5152 L 18.1636,-57.7051
 L 19.8014,-56.5152 L 19.1758,-54.5898 L 20.8136,-55.7798 L 22.4514,-54.5898 L 21.8258,-52.6645 L 19.8014,-52.6645
 L 21.4392,-51.4745 L 20.8136,-49.5492 L 22.4514,-50.7391 L 24.0892,-49.5492 L 23.4636,-51.4745 L 25.1014,-52.6645
 L 26.7392,-51.4745 L 26.1136,-49.5492 L 27.7514,-50.7391 L 29.3893,-49.5492 z
M 26.7392,15.983 L 28.377,17.1729 L 27.7514,19.0983 L 25.727,19.0983 L 25.1014,17.1729 L 24.4758,19.0983
 L 22.4514,19.0983 L 21.8258,17.1729 L 23.4636,15.983 L 21.4392,15.983 L 20.8136,14.0576 L 22.4514,12.8677
 L 24.0892,14.0576 L 23.4636,12.1323 L 25.1014,10.9424 L 23.077,10.9424 L 22.4514,9.017 L 21.8258,10.9424
 L 19.8014,10.9424 L 19.1758,9.017 L 20.8136,7.82706 L 18.7891,7.82706 L 18.1636,5.90169 L 19.8014,4.71175
 L 21.4392,5.90169 L 20.8136,3.97633 L 22.4514,2.78639 L 24.0892,3.97633 L 23.4636,5.90169 L 25.1014,4.71175
 L 26.7392,5.90169 L 26.1136,3.97633 L 27.7514,2.78639 L 25.727,2.78639 L 25.1014,0.861038 L 26.7392,-0.328888
 L 28.377,0.861038 L 27.7514,-1.0643 L 29.3893,-2.25424 L 31.0271,-1.0643 L 30.4015,0.861038 L 32.0393,-0.328888
 L 33.6771,0.861053 L 33.0515,2.78639 L 31.0271,2.78639 L 32.6649,3.97632 L 32.0393,5.90169 L 33.6771,4.71175
 L 35.3149,5.90169 L 34.6893,3.97633 L 36.3271,2.78639 L 37.9649,3.97633 L 37.3393,5.90169 L 38.9771,4.71176
 L 40.6149,5.90169 L 39.9894,3.97633 L 41.6272,2.78639 L 39.6027,2.78639 L 38.9771,0.861038 L 40.6149,-0.328888
 L 42.2528,0.861038 L 41.6272,-1.0643 L 43.265,-2.25424 L 41.2405,-2.25424 L 40.6149,-4.1796 L 39.9894,-2.25424
 L 37.9649,-2.25424 L 37.3393,-4.1796 L 38.9771,-5.36954 L 36.9527,-5.36954 L 36.3271,-7.29489 L 37.9649,-8.48483
 L 39.6027,-7.29489 L 38.9771,-9.22025 L 40.615,-10.4102 L 42.2528,-9.22026 L 41.6272,-7.29491 L 43.265,-8.48483
 L 44.9028,-7.29491 L 44.2772,-9.22026 L 45.915,-10.4102 L 43.8906,-10.4102 L 43.265,-12.3355 L 44.9028,-13.5255
 L 46.5406,-12.3356 L 45.915,-14.2609 L 47.5528,-15.4508 L 45.5284,-15.4509 L 44.9028,-17.3762 L 44.2772,-15.4508
 L 42.2528,-15.4508 L 41.6272,-17.3762 L 43.265,-18.5661 L 41.2405,-18.5661 L 40.615,-20.4915 L 39.9894,-18.5661
 L 37.9649,-18.5661 L 39.6027,-17.3762 L 38.9771,-15.4508 L 36.9527,-15.4508 L 36.3271,-17.3762 L 35.7015,-15.4508
 L 33.6771,-15.4508 L 33.0515,-17.3762 L 34.6893,-18.5661 L 32.6649,-18.5661 L 32.0393,-20.4915 L 33.6771,-21.6814
 L 35.3149,-20.4915 L 34.6893,-22.4168 L 36.3271,-23.6068 L 34.3027,-23.6068 L 33.6771,-25.5322 L 33.0515,-23.6068
 L 31.0271,-23.6068 L 30.4015,-25.5321 L 32.0393,-26.7221 L 30.0148,-26.7221 L 29.3893,-28.6474 L 28.7637,-26.7221
 L 26.7392,-26.7221 L 28.377,-25.5322 L 27.7514,-23.6068 L 25.727,-23.6068 L 25.1014,-25.5321 L 24.4758,-23.6068
 L 22.4514,-23.6068 L 24.0892,-22.4168 L 23.4636,-20.4915 L 25.1014,-21.6814 L 26.7392,-20.4915 L 26.1136,-18.5661
 L 24.0892,-18.5661 L 25.727,-17.3762 L 25.1014,-15.4508 L 23.077,-15.4508 L 22.4514,-17.3762 L 21.8258,-15.4508
 L 19.8014,-15.4508 L 19.1758,-17.3762 L 20.8136,-18.5661 L 18.7891,-18.5661 L 18.1636,-20.4915 L 17.538,-18.5661
 L 15.5135,-18.5661 L 17.1513,-17.3762 L 16.5258,-15.4508 L 14.5013,-15.4508 L 13.8757,-17.3762 L 13.2501,-15.4508
 L 11.2257,-15.4508 L 10.6001,-17.3762 L 12.2379,-18.5661 L 10.2135,-18.5661 L 9.58789,-20.4915 L 11.2257,-21.6814
 L 12.8635,-20.4915 L 12.2379,-22.4169 L 13.8757,-23.6068 L 11.8513,-23.6068 L 11.2257,-25.5322 L 10.6001,-23.6068
 L 8.57567,-23.6068 L 7.95007,-25.5322 L 9.58788,-26.7221 L 7.56345,-26.7221 L 6.93787,-28.6474 L 8.57567,-29.8374
 L 10.2135,-28.6474 L 9.58789,-30.5728 L 11.2257,-31.7627 L 12.8635,-30.5728 L 12.2379,-28.6474 L 13.8757,-29.8374
 L 15.5135,-28.6474 L 14.8879,-30.5728 L 16.5257,-31.7627 L 14.5013,-31.7627 L 13.8757,-33.6881 L 15.5135,-34.878
 L 17.1513,-33.6881 L 16.5257,-35.6134 L 18.1635,-36.8034 L 16.1391,-36.8034 L 15.5135,-38.7287 L 14.8879,-36.8034
 L 12.8635,-36.8034 L 12.2379,-38.7287 L 13.8757,-39.9187 L 11.8513,-39.9187 L 11.2257,-41.844 L 10.6001,-39.9187
 L 8.57567,-39.9187 L 10.2135,-38.7287 L 9.58789,-36.8034 L 7.56345,-36.8034 L 6.93785,-38.7287 L 6.31227,-36.8034
 L 4.28784,-36.8034 L 3.66225,-38.7287 L 5.30005,-39.9187 L 3.27562,-39.9187 L 2.65002,-41.844 L 4.28783,-43.034
 L 5.92563,-41.844 L 5.30005,-43.7694 L 6.93785,-44.9593 L 4.91341,-44.9593 L 4.28783,-46.8847 L 3.66225,-44.9593
 L 1.63782,-44.9593 L 1.01222,-46.8847 L 2.65001,-48.0746 L 0.625595,-48.0746 L 0,-50 L -0.625595,-48.0746
 L -2.65001,-48.0746 L -1.01222,-46.8847 L -1.63782,-44.9593 L -3.66225,-44.9593 L -4.28783,-46.8847 L -4.91341,-44.9593
 L -6.93785,-44.9593 L -5.30005,-43.7694 L -5.92563,-41.844 L -4.28783,-43.034 L -2.65002,-41.844 L -3.27562,-39.9187
 L -5.30005,-39.9187 L -3.66225,-38.7287 L -4.28784,-36.8034 L -6.31227,-36.8034 L -6.93785,-38.7287 L -7.56345,-36.8034
 L -9.58789,-36.8034 L -10.2135,-38.7287 L -8.57567,-39.9187 L -10.6001,-39.9187 L -11.2257,-41.844 L -11.8513,-39.9187
 L -13.8757,-39.9187 L -12.2379,-38.7287 L -12.8635,-36.8034 L -14.8879,-36.8034 L -15.5135,-38.7287 L -16.1391,-36.8034
 L -18.1635,-36.8034 L -16.5257,-35.6134 L -17.1513,-33.6881 L -15.5135,-34.878 L -13.8757,-33.6881 L -14.5013,-31.7627
 L -16.5257,-31.7627 L -14.8879,-30.5728 L -15.5135,-28.6474 L -13.8757,-29.8374 L -12.2379,-28.6474 L -12.8635,-30.5728
 L -11.2257,-31.7627 L -9.58789,-30.5728 L -10.2135,-28.6474 L -8.57567,-29.8374 L -6.93787,-28.6474 L -7.56345,-26.7221
 L -9.58788,-26.7221 L -7.95007,-25.5322 L -8.57567,-23.6068 L -10.6001,-23.6068 L -11.2257,-25.5322 L -11.8513,-23.6068
 L -13.8757,-23.6068 L -12.2379,-22.4169 L -12.8635,-20.4915 L -11.2257,-21.6814 L -9.58789,-20.4915 L -10.2135,-18.5661
 L -12.2379,-18.5661 L -10.6001,-17.3762 L -11.2257,-15.4508 L -13.2501,-15.4508 L -13.8757,-17.3762 L -14.5013,-15.4508
 L -16.5258,-15.4508 L -17.1513,-17.3762 L -15.5135,-18.5661 L -17.538,-18.5661 L -18.1636,-20.4915 L -18.7891,-18.5661
 L -20.8136,-18.5661 L -19.1758,-17.3762 L -19.8014,-15.4508 L -21.8258,-15.4508 L -22.4514,-17.3762 L -23.077,-15.4508
 L -25.1014,-15.4508 L -25.727,-17.3762 L -24.0892,-18.5661 L -26.1136,-18.5661 L -26.7392,-20.4915 L -25.1014,-21.6814
 L -23.4636,-20.4915 L -24.0892,-22.4168 L -22.4514,-23.6068 L -24.4758,-23.6068 L -25.1014,-25.5321 L -25.727,-23.6068
 L -27.7514,-23.6068 L -28.377,-25.5322 L -26.7392,-26.7221 L -28.7637,-26.7221 L -29.3893,-28.6474 L -30.0148,-26.7221
 L -32.0393,-26.7221 L -30.4015,-25.5321 L -31.0271,-23.6068 L -33.0515,-23.6068 L -33.6771,-25.5322 L -34.3027,-23.6068
 L -36.3271,-23.6068 L -34.6893,-22.4168 L -35.3149,-20.4915 L -33.6771,-21.6814 L -32.0393,-20.4915 L -32.6649,-18.5661
 L -34.6893,-18.5661 L -33.0515,-17.3762 L -33.6771,-15.4508 L -35.7015,-15.4508 L -36.3271,-17.3762 L -36.9527,-15.4508
 L -38.9771,-15.4508 L -39.6027,-17.3762 L -37.9649,-18.5661 L -39.9894,-18.5661 L -40.615,-20.4915 L -41.2405,-18.5661
 L -43.265,-18.5661 L -41.6272,-17.3762 L -42.2528,-15.4508 L -44.2772,-15.4508 L -44.9028,-17.3762 L -45.5284,-15.4509
 L -47.5528,-15.4508 L -45.915,-14.2609 L -46.5406,-12.3356 L -44.9028,-13.5255 L -43.265,-12.3355 L -43.8906,-10.4102
 L -45.915,-10.4102 L -44.2772,-9.22026 L -44.9028,-7.29491 L -43.265,-8.48483 L -41.6272,-7.29491 L -42.2528,-9.22026
 L -40.615,-10.4102 L -38.9771,-9.22025 L -39.6027,-7.29489 L -37.9649,-8.48483 L -36.3271,-7.29489 L -36.9527,-5.36954
 L -38.9771,-5.36954 L -37.3393,-4.1796 L -37.9649,-2.25424 L -39.9894,-2.25424 L -40.6149,-4.1796 L -41.2405,-2.25424
 L -43.265,-2.25424 L -41.6272,-1.0643 L -42.2528,0.861038 L -40.6149,-0.328888 L -38.9771,0.861038 L -39.6027,2.78639
 L -41.6272,2.78639 L -39.9894,3.97633 L -40.6149,5.90169 L -38.9771,4.71176 L -37.3393,5.90169 L -37.9649,3.97633
 L -36.3271,2.78639 L -34.6893,3.97633 L -35.3149,5.90169 L -33.6771,4.71175 L -32.0393,5.90169 L -32.6649,3.97632
 L -31.0271,2.78639 L -33.0515,2.78639 L -33.6771,0.861053 L -32.0393,-0.328888 L -30.4015,0.861038 L -31.0271,-1.0643
 L -29.3893,-2.25424 L -27.7514,-1.0643 L -28.377,0.861038 L -26.7392,-0.328888 L -25.1014,0.861038 L -25.727,2.78639
 L -27.7514,2.78639 L -26.1136,3.97633 L -26.7392,5.90169 L -25.1014,4.71175 L -23.4636,5.90169 L -24.0892,3.97633
 L -22.4514,2.78639 L -20.8136,3.97633 L -21.4392,5.90169 L -19.8014,4.71175 L -18.1635,5.90169 L -18.7891,7.82706
 L -20.8136,7.82706 L -19.1758,9.017 L -19.8014,10.9424 L -21.8258,10.9424 L -22.4514,9.017 L -23.077,10.9424
 L -25.1014,10.9424 L -23.4636,12.1323 L -24.0892,14.0576 L -22.4514,12.8677 L -20.8136,14.0576 L -21.4392,15.983
 L -23.4636,15.983 L -21.8258,17.1729 L -22.4514,19.0983 L -24.4758,19.0983 L -25.1014,17.1729 L -25.727,19.0983
 L -27.7514,19.0983 L -28.377,17.1729 L -26.7392,15.983 L -28.7637,15.983 L -29.3893,14.0576 L -30.0148,15.983
 L -32.0393,15.983 L -30.4015,17.1729 L -31.0271,19.0983 L -33.0515,19.0983 L -33.6771,17.1729 L -34.3027,19.0983
 L -36.3271,19.0983 L -34.6893,20.2882 L -35.3149,22.2136 L -33.6771,21.0237 L -32.0393,22.2136 L -32.6649,24.1389
 L -34.6893,24.1389 L -33.0515,25.3289 L -33.6771,27.2542 L -32.0393,26.0643 L -30.4015,27.2542 L -31.0271,25.3289
 L -29.3893,24.1389 L -27.7514,25.3289 L -28.377,27.2542 L -26.7392,26.0643 L -25.1014,27.2542 L -25.727,29.1796
 L -27.7514,29.1796 L -26.1136,30.3695 L -26.7392,32.2949 L -28.7637,32.2949 L -29.3893,30.3695 L -30.0148,32.2949
 L -32.0393,32.2949 L -30.4015,33.4848 L -31.0271,35.4102 L -29.3893,34.2202 L -27.7514,35.4102 L -28.377,37.3355
 L -30.4015,37.3355 L -28.7637,38.5255 L -29.3893,40.4508 L -27.7514,39.2609 L -26.1136,40.4508 L -26.7392,38.5255
 L -25.1014,37.3355 L -23.4636,38.5255 L -24.0892,40.4508 L -22.4514,39.2609 L -20.8136,40.4508 L -21.4392,38.5255
 L -19.8014,37.3355 L -21.8258,37.3355 L -22.4514,35.4102 L -20.8136,34.2202 L -19.1758,35.4102 L -19.8014,33.4848
 L -18.1636,32.2949 L -16.5257,33.4848 L -17.1513,35.4102 L -15.5135,34.2202 L -13.8757,35.4102 L -14.5013,37.3355
 L -16.5257,37.3355 L -14.8879,38.5255 L -15.5135,40.4508 L -13.8757,39.2609 L -12.2379,40.4508 L -12.8635,38.5255
 L -11.2257,37.3355 L -9.58789,38.5255 L -10.2135,40.4508 L -8.57567,39.2609 L -6.93785,40.4508 L -7.56345,38.5255
 L -5.92564,37.3355 L -7.95007,37.3355 L -8.57567,35.4102 L -6.93787,34.2202 L -5.30005,35.4102 L -5.92564,33.4848
 L -4.28784,32.2949 L -6.31229,32.2949 L -6.93787,30.3695 L -7.56345,32.2949 L -9.58789,32.2949 L -10.2135,30.3695
 L -8.57567,29.1796 L -10.6001,29.1796 L -11.2257,27.2542 L -9.58789,26.0643 L -7.95009,27.2542 L -8.57567,25.3289
 L -6.93787,24.1389 L -5.30005,25.3289 L -5.92564,27.2542 L -4.28783,26.0643 L -2.65002,27.2542 L -3.27562,25.3289
 L -1.6378,24.1389 L -3.66225,24.1389 L -4.28784,22.2136 L -2.65002,21.0237 L -1.01222,22.2136 L -1.6378,20.2882
 L 0,19.0983 L 1.6378,20.2882 L 1.01222,22.2136 L 2.65002,21.0237 L 4.28784,22.2136 L 3.66225,24.1389
 L 1.6378,24.1389 L 3.27562,25.3289 L 2.65002,27.2542 L 4.28783,26.0643 L 5.92564,27.2542 L 5.30005,25.3289
 L 6.93787,24.1389 L 8.57567,25.3289 L 7.95009,27.2542 L 9.58789,26.0643 L 11.2257,27.2542 L 10.6001,29.1796
 L 8.57567,29.1796 L 10.2135,30.3695 L 9.58789,32.2949 L 7.56345,32.2949 L 6.93787,30.3695 L 6.31229,32.2949
 L 4.28784,32.2949 L 5.92564,33.4848 L 5.30005,35.4102 L 6.93787,34.2202 L 8.57567,35.4102 L 7.95007,37.3355
 L 5.92564,37.3355 L 7.56345,38.5255 L 6.93785,40.4508 L 8.57567,39.2609 L 10.2135,40.4508 L 9.58789,38.5255
 L 11.2257,37.3355 L 12.8635,38.5255 L 12.2379,40.4508 L 13.8757,39.2609 L 15.5135,40.4508 L 14.8879,38.5255
 L 16.5257,37.3355 L 14.5013,37.3355 L 13.8757,35.4102 L 15.5135,34.2202 L 17.1513,35.4102 L 16.5257,33.4848
 L 18.1636,32.2949 L 19.8014,33.4848 L 19.1758,35.4102 L 20.8136,34.2202 L 22.4514,35.4102 L 21.8258,37.3355
 L 19.8014,37.3355 L 21.4392,38.5255 L 20.8136,40.4508 L 22.4514,39.2609 L 24.0892,40.4508 L 23.4636,38.5255
 L 25.1014,37.3355 L 26.7392,38.5255 L 26.1136,40.4508 L 27.7514,39.2609 L 29.3893,40.4508 L 28.7637,38.5255
 L 30.4015,37.3355 L 28.377,37.3355 L 27.7514,35.4102 L 29.3893,34.2202 L 31.0271,35.4102 L 30.4015,33.4848
 L 32.0393,32.2949 L 30.0148,32.2949 L 29.3893,30.3695 L 28.7637,32.2949 L 26.7392,32.2949 L 26.1136,30.3695
 L 27.7514,29.1796 L 25.727,29.1796 L 25.1014,27.2542 L 26.7392,26.0643 L 28.377,27.2542 L 27.7514,25.3289
 L 29.3893,24.1389 L 31.0271,25.3289 L 30.4015,27.2542 L 32.0393,26.0643 L 33.6771,27.2542 L 33.0515,25.3289
 L 34.6893,24.1389 L 32.6649,24.1389 L 32.0393,22.2136 L 33.6771,21.0237 L 35.3149,22.2136 L 34.6893,20.2882
 L 36.3271,19.0983 L 34.3027,19.0983 L 33.6771,17.1729 L 33.0515,19.0983 L 31.0271,19.0983 L 30.4015,17.1729
 L 32.0393,15.983 L 30.0148,15.983 L 29.3893,14.0576 L 28.7637,15.983 z
" stroke="black" fill="lightgray" stroke-width="0.5"/>
</svg>
