<?xml version="1.0" standalone="no"?>
<!DOCTYPE svg PUBLIC "-//W3C//DTD SVG 1.1//EN" "http://www.w3.org/Graphics/SVG/1.1/DTD/svg11.dtd">
<svg width="90mm" height="87mm" viewBox="-45 -48 90 87" xmlns="http://www.w3.org/2000/svg" version="1.1">
<title>OpenSCAD Model</title>
<path d="
M -25.2491,-13.4662 L -25.6142,-14.5898 L -25.2491,-15.7134 L -24.884,-14.5898 L -23.7026,-14.5898 L -23.3375,-15.7134
 L -24.2933,-16.4079 L -23.1118,-16.4079 L -22.7468,-17.5315 L -23.7026,-18.2259 L -24.6584,-17.5315 L -24.2933,-18.6551
 L -25.2491,-19.3495 L -24.0677,-19.3495 L -23.7026,-20.4732 L -23.3375,-19.3495 L -22.156,-19.3495 L -21.7909,-20.4732
 L -22.7467,-21.1676 L -21.5653,-21.1676 L -21.2002,-22.2912 L -22.156,-22.9857 L -23.1118,-22.2912 L -22.7468,-23.4148
 L -23.7026,-24.1093 L -24.6584,-23.4149 L -24.2933,-22.2912 L -25.2491,-22.9857 L -26.2049,-22.2912 L -25.8398,-23.4149
 L -26.7956,-24.1093 L -25.6142,-24.1093 L -25.2491,-25.2329 L -26.2049,-25.9273 L -27.1607,-25.2329 L -26.7956,-26.3565
 L -27.7514,-27.051 L -28.7073,-26.3565 L -28.3422,-25.2329 L -29.298,-25.9274 L -30.2538,-25.2329 L -29.8887,-24.1093
 L -28.7073,-24.1093 L -29.6631,-23.4148 L -29.298,-22.2912 L -29.6631,-21.1676 L -28.7073,-20.4732 L -29.8887,-20.4732
 L -30.8445,-21.1676 L -29.6631,-21.1676 L -29.298,-22.2912 L -30.2538,-22.9857 L -31.2096,-22.2912 L -30.8445,-23.4148
 L -31.8003,-24.1093 L -32.7561,-23.4148 L -32.3911,-22.2912 L -33.3469,-22.9857 L -34.3027,-22.2912 L -33.9376,-21.1676
 L -32.7561,-21.1676 L -33.7119,-20.4732 L -33.3469,-19.3495 L -32.1654,-19.3495 L -31.8003,-20.4732 L -31.4352,-19.3495
 L -30.2538,-19.3495 L -31.2096,-18.6551 L -30.8445,-17.5315 L -31.8003,-18.2259 L -32.7561,-17.5315 L -32.3911,-16.4079
 L -31.2096,-16.4079 L -32.1654,-15.7134 L -31.8003,-14.5898 L -30.6189,-14.5898 L -30.2538,-15.7134 L -29.8887,-14.5898
 L -30.2538,-13.4662 L -30.6189,-14.5898 L -31.8003,-14.5898 L -32.7561,-15.2842 L -33.712,-14.5898 L -33.3469,-15.7134
 L -34.3027,-16.4079 L -35.2585,-15.7134 L -34.8934,-14.5898 L -35.8492,-15.2842 L -36.805,-14.5898 L -36.4399,-15.7134
 L -37.3958,-16.4079 L -36.2143,-16.4079 L -35.8492,-17.5315 L -36.805,-18.2259 L -37.7608,-17.5315 L -37.3958,-18.6551
 L -38.3516,-19.3495 L -39.3074,-18.6551 L -38.9423,-17.5315 L -39.8981,-18.2259 L -40.8539,-17.5315 L -40.4888,-16.4079
 L -39.3074,-16.4079 L -40.2632,-15.7134 L -39.8981,-14.5898 L -40.8539,-15.2842 L -41.8097,-14.5898 L -41.4446,-15.7134
 L -42.4004,-16.4079 L -43.3562,-15.7134 L -42.9912,-14.5898 L -43.947,-15.2842 L -44.9028,-14.5898 L -44.5377,-13.4662
 L -43.3562,-13.4662 L -44.3121,-12.7717 L -43.947,-11.6481 L -42.7655,-11.6481 L -42.4004,-12.7717 L -42.0354,-11.6481
 L -40.8539,-11.6481 L -41.8097,-10.9537 L -41.4446,-9.83005 L -42.4004,-10.5245 L -43.3562,-9.83005 L -42.9912,-8.70642
 L -41.8097,-8.70642 L -42.7655,-8.01199 L -42.4004,-6.88837 L -41.219,-6.88837 L -40.8539,-8.01199 L -40.4888,-6.88837
 L -39.3074,-6.88837 L -38.9423,-8.01199 L -39.8981,-8.70644 L -38.7166,-8.70644 L -38.3516,-9.83005 L -37.9865,-8.70644
 L -36.805,-8.70644 L -37.7608,-8.01199 L -37.3958,-6.88837 L -36.2143,-6.88837 L -35.8492,-8.01199 L -35.4841,-6.88837
 L -34.3027,-6.88837 L -35.2585,-6.19392 L -34.8934,-5.0703 L -35.8492,-5.76474 L -36.805,-5.0703 L -36.4399,-3.94667
 L -35.2585,-3.94667 L -36.2143,-3.25224 L -35.8492,-2.12862 L -36.805,-2.82304 L -37.7608,-2.12862 L -37.3958,-3.25224
 L -38.3516,-3.94667 L -39.3074,-3.25224 L -38.9423,-2.12862 L -39.8981,-2.82306 L -40.8539,-2.12862 L -40.4888,-1.005
 L -39.3074,-1.00499 L -40.2632,-0.310562 L -39.8981,0.813049 L -38.7166,0.813049 L -38.3516,-0.310562 L -37.9865,0.813049
 L -36.805,0.813049 L -36.4399,-0.310562 L -37.3957,-1.00499 L -36.2143,-1.00499 L -35.2585,-0.310547 L -36.4399,-0.310562
 L -36.805,0.813049 L -37.7608,1.50749 L -37.3958,2.63112 L -38.3516,1.93668 L -39.3074,2.63112 L -38.9423,3.75475
 L -37.7608,3.75475 L -38.7166,4.44917 L -38.3516,5.5728 L -37.1701,5.5728 L -36.805,4.44917 L -36.4399,5.5728
 L -35.2585,5.5728 L -34.8934,4.44917 L -35.8492,3.75475 L -34.6678,3.75475 L -34.3027,2.63112 L -33.9376,3.75475
 L -32.7561,3.75473 L -33.7119,4.44917 L -33.3469,5.5728 L -32.1654,5.5728 L -31.8003,4.44917 L -31.4352,5.5728
 L -30.2538,5.5728 L -29.8887,4.44917 L -30.8445,3.75473 L -29.6631,3.75473 L -29.298,2.63112 L -30.2538,1.93668
 L -31.2096,2.6311 L -30.8445,1.50749 L -31.8003,0.813049 L -30.6189,0.813049 L -30.2538,-0.310562 L -29.8887,0.813049
 L -28.7073,0.813049 L -28.3422,-0.310562 L -29.298,-1.00499 L -28.1165,-1.005 L -27.7514,-2.12862 L -27.3864,-1.005
 L -26.2049,-1.00499 L -27.1607,-0.310562 L -26.7956,0.813049 L -25.6142,0.813049 L -25.2491,-0.310562 L -24.884,0.813049
 L -23.7026,0.813049 L -24.6584,1.50749 L -24.2933,2.63112 L -25.2491,1.93668 L -26.2049,2.63112 L -25.8398,3.75475
 L -24.6584,3.75473 L -25.6142,4.44917 L -25.2491,5.5728 L -24.0677,5.5728 L -23.7026,4.44917 L -23.3375,5.5728
 L -22.156,5.5728 L -21.7909,4.44917 L -22.7467,3.75473 L -21.5653,3.75473 L -21.2002,2.6311 L -20.8351,3.75473
 L -19.6537,3.75473 L -20.6095,4.44917 L -20.2444,5.5728 L -19.063,5.5728 L -18.6979,4.44917 L -18.3328,5.5728
 L -17.1513,5.5728 L -16.7863,4.44917 L -17.7421,3.75473 L -16.5606,3.75473 L -16.1955,2.63112 L -17.1513,1.93668
 L -18.1071,2.63112 L -17.7421,1.50749 L -18.6979,0.813049 L -17.5164,0.813049 L -17.1513,-0.310562 L -16.7862,0.813049
 L -15.6048,0.813049 L -15.2397,-0.310562 L -16.1955,-1.005 L -15.0141,-1.005 L -14.649,-2.12862 L -15.6048,-2.82306
 L -16.5606,-2.12862 L -16.1955,-3.25224 L -17.1513,-3.94669 L -18.1071,-3.25224 L -17.7421,-2.12862 L -18.6979,-2.82306
 L -19.6537,-2.12862 L -19.2886,-3.25224 L -20.2444,-3.94669 L -19.063,-3.94669 L -18.6979,-5.0703 L -19.6537,-5.76474
 L -20.6095,-5.07031 L -20.2444,-6.19392 L -21.2002,-6.88837 L -22.156,-6.19392 L -21.7909,-5.07031 L -22.7467,-5.76474
 L -23.1118,-6.88837 L -22.156,-6.19394 L -21.2002,-6.88837 L -20.0188,-6.88837 L -19.6537,-8.01198 L -19.2886,-6.88837
 L -18.1071,-6.88837 L -17.7421,-8.01199 L -18.6979,-8.70642 L -17.5164,-8.70642 L -17.1513,-9.83005 L -16.7863,-8.70642
 L -15.6048,-8.70642 L -16.5606,-8.01198 L -16.1955,-6.88837 L -15.0141,-6.88837 L -14.649,-8.01199 L -14.2839,-6.88837
 L -13.1025,-6.88837 L -12.7374,-8.01198 L -13.6932,-8.70642 L -12.5117,-8.70642 L -12.1467,-9.83005 L -13.1024,-10.5245
 L -14.0583,-9.83005 L -13.6932,-10.9537 L -14.649,-11.6481 L -13.4675,-11.6481 L -13.1025,-12.7717 L -12.7374,-11.6481
 L -11.5559,-11.6481 L -11.1908,-12.7717 L -12.1467,-13.4662 L -10.9652,-13.4662 L -10.6001,-14.5898 L -11.5559,-15.2842
 L -12.5117,-14.5898 L -12.1467,-15.7134 L -13.1025,-16.4079 L -14.0583,-15.7134 L -13.6932,-14.5898 L -14.649,-15.2842
 L -15.6048,-14.5898 L -15.2397,-15.7134 L -16.1955,-16.4079 L -15.0141,-16.4079 L -14.649,-17.5315 L -15.6048,-18.2259
 L -16.5606,-17.5315 L -16.1955,-18.6551 L -17.1513,-19.3495 L -18.1071,-18.6551 L -17.7421,-17.5315 L -18.6979,-18.2259
 L -19.6537,-17.5315 L -19.2886,-16.4079 L -18.1071,-16.4079 L -19.063,-15.7134 L -18.6979,-14.5898 L -19.6537,-15.2842
 L -20.6095,-14.5898 L -20.2444,-15.7134 L -21.2002,-16.4079 L -22.156,-15.7134 L -21.7909,-14.5898 L -22.7467,-15.2842
 L -23.7026,-14.5898 L -24.884,-14.5898 z
M -29.6631,-2.12862 L -29.298,-3.25224 L -28.3422,-3.94669 L -28.7073,-2.82306 z
M -40.4888,-12.7717 L -41.4446,-13.4662 L -40.2632,-13.4662 L -39.3074,-12.7717 z
M -39.3074,-10.5245 L -40.2632,-9.83005 L -39.8981,-10.9537 L -38.9423,-11.6481 z
M -38.3516,-13.4662 L -38.7166,-14.5898 L -38.3515,-15.7134 L -37.9865,-14.5898 z
M -37.3957,-10.5245 L -37.7608,-11.6481 L -36.805,-10.9537 L -36.4399,-9.83005 z
M -36.2143,-12.7717 L -37.3958,-12.7717 L -36.4399,-13.4662 L -35.2585,-13.4662 z
M -35.2585,1.93668 L -36.2143,2.63112 L -35.8492,1.50749 L -34.8934,0.813049 z
M -31.4352,-9.83005 L -31.8003,-8.70642 L -32.1654,-9.83005 L -33.3469,-9.83005 L -34.3027,-10.5245 L -35.2585,-9.83005
 L -34.8934,-10.9537 L -35.8492,-11.6481 L -34.6678,-11.6481 L -34.3027,-12.7717 L -33.9376,-11.6481 L -32.7561,-11.6481
 L -31.8003,-10.9537 L -30.8445,-11.6481 L -31.2096,-10.5245 L -30.2538,-9.83005 z
M -33.9376,-8.01199 L -34.8934,-8.70642 L -33.7119,-8.70642 L -32.7561,-8.01199 z
M -34.3027,-1.00499 L -34.6678,-2.12862 L -34.3027,-3.25224 L -33.9376,-2.12862 z
M -33.3469,1.93668 L -33.7119,0.813049 L -32.7561,1.50749 L -32.3911,2.6311 z
M -32.3911,-12.7717 L -33.3469,-13.4662 L -32.1654,-13.4662 L -31.2096,-12.7717 z
M -32.1654,-0.310562 L -33.3469,-0.310562 L -32.3911,-1.00499 L -31.2096,-1.00499 z
M -29.6631,-8.01199 L -30.8445,-8.01199 L -29.8887,-8.70642 L -28.7073,-8.70642 z
M -29.298,-10.5245 L -29.6631,-11.6481 L -28.7073,-10.9537 L -28.3422,-9.83005 z
M -28.7073,-18.2259 L -29.6631,-17.5315 L -29.298,-18.6551 L -28.3422,-19.3495 z
M -27.7514,-5.76474 L -28.1165,-6.88837 L -27.7514,-8.01199 L -27.3864,-6.88837 z
M -27.7514,-21.1676 L -28.1165,-22.2912 L -27.7514,-23.4149 L -27.3864,-22.2912 z
M -26.2049,-10.5245 L -27.1607,-9.83005 L -26.7956,-10.9537 L -25.8398,-11.6481 z
M -26.7956,-18.2259 L -27.1607,-19.3495 L -26.2049,-18.6551 L -25.8398,-17.5315 z
M -26.7956,-2.82306 L -27.1607,-3.94669 L -26.2049,-3.25224 L -25.8398,-2.12862 z
M -23.1118,-3.25224 L -22.7467,-2.12862 L -23.7026,-2.82306 L -24.6584,-2.12862 L -24.2933,-3.25224 L -25.2491,-3.94669
 L -25.6142,-5.0703 L -26.7956,-5.0703 L -25.8398,-5.76474 L -26.2049,-6.88837 L -25.2491,-6.19392 L -24.2933,-6.88837
 L -24.6584,-5.76474 L -23.7026,-5.07031 L -23.3375,-3.94669 L -22.156,-3.94669 z
M -25.8398,-8.01199 L -26.7956,-8.70642 L -25.6142,-8.70642 L -24.6584,-8.01199 z
M -25.6142,-20.4732 L -26.7956,-20.4732 L -25.8398,-21.1676 L -24.6584,-21.1676 z
M -23.3375,-0.310562 L -24.2933,-1.00499 L -23.1118,-1.00499 L -22.156,-0.310562 z
M -22.156,1.93668 L -23.1118,2.63112 L -22.7467,1.50749 L -21.7909,0.813049 z
M -21.2002,-1.00499 L -21.5653,-2.12862 L -21.2002,-3.25224 L -20.8351,-2.12862 z
M -20.2444,1.93668 L -20.6095,0.813049 L -19.6537,1.50749 L -19.2886,2.6311 z
M -19.063,-0.310562 L -20.2444,-0.310562 L -19.2886,-1.005 L -18.1071,-1.00499 z
M -19.2886,-12.7717 L -20.2444,-13.4662 L -19.063,-13.4662 L -18.1071,-12.7717 z
M -18.1071,-10.5245 L -19.063,-9.83005 L -18.6979,-10.9537 L -17.7421,-11.6481 z
M -17.1513,-13.4662 L -17.5164,-14.5898 L -17.1513,-15.7134 L -16.7863,-14.5898 z
M -16.1955,-10.5245 L -16.5606,-11.6481 L -15.6048,-10.9537 L -15.2397,-9.83005 z
M -15.0141,-12.7717 L -16.1955,-12.7717 L -15.2397,-13.4662 L -14.0583,-13.4662 z
M -32.7561,-5.76474 L -31.8003,-5.07031 L -30.8445,-5.76474 L -31.2096,-6.88837 L -30.2538,-6.19392 L -29.298,-6.88837
 L -29.6631,-5.76474 L -28.7073,-5.07031 L -29.8887,-5.07031 L -30.2538,-3.94669 L -31.2096,-3.25224 L -30.8445,-2.12862
 L -31.8003,-2.82306 L -32.7561,-2.12862 L -32.3911,-3.25224 L -33.3469,-3.94669 L -32.1654,-3.94669 L -31.8003,-5.0703
 L -32.7561,-5.76474 L -33.7119,-5.0703 L -33.3469,-6.19392 L -32.3911,-6.88837 z
M -29.298,-16.4079 L -28.1165,-16.4079 L -27.7514,-17.5315 L -27.3864,-16.4079 L -26.2049,-16.4079 L -27.1607,-15.7134
 L -26.7956,-14.5898 L -27.1607,-13.4662 L -26.2049,-12.7717 L -27.3864,-12.7717 L -27.7514,-11.6481 L -28.1165,-12.7717
 L -29.298,-12.7717 L -28.3422,-13.4662 L -28.7073,-14.5898 L -28.3422,-15.7134 z
M -22.7468,-8.01198 L -21.7909,-8.70642 L -20.6095,-8.70642 L -21.5653,-8.01198 z
M -23.1118,-12.7717 L -22.7467,-11.6481 L -21.5653,-11.6481 L -21.2002,-12.7717 L -20.8351,-11.6481 L -19.6537,-11.6481
 L -20.6095,-10.9537 L -20.2444,-9.83005 L -21.2002,-10.5245 L -22.156,-9.83005 L -23.3375,-9.83005 L -23.7026,-8.70642
 L -24.0677,-9.83005 L -25.2491,-9.83005 L -24.2933,-10.5245 L -24.6584,-11.6481 L -23.7026,-10.9537 L -22.7468,-11.6481
 L -23.1118,-12.7717 L -24.2933,-12.7717 L -23.3375,-13.4662 L -22.156,-13.4662 z
M 20.6095,16.2159 L 21.7909,16.2159 L 22.156,15.0923 L 21.2002,14.3979 L 20.2444,15.0923 L 20.6095,13.9687
 L 19.6537,13.2742 L 20.8351,13.2742 L 21.2002,12.1506 L 21.5653,13.2742 L 22.7467,13.2742 L 23.1118,12.1506
 L 22.156,11.4562 L 23.3375,11.4562 L 23.7026,10.3326 L 22.7467,9.63812 L 21.7909,10.3326 L 22.156,9.20892
 L 21.2002,8.5145 L 20.2444,9.20892 L 20.6095,10.3326 L 19.6537,9.63812 L 18.6979,10.3326 L 19.063,9.20892
 L 18.1071,8.5145 L 19.2886,8.5145 L 19.6537,7.39087 L 18.6979,6.69643 L 17.7421,7.39087 L 18.1071,6.26724
 L 17.1513,5.5728 L 16.1955,6.26724 L 16.5606,7.39087 L 15.6048,6.69643 L 14.649,7.39087 L 15.0141,8.5145
 L 16.1955,8.5145 L 15.2397,9.20892 L 15.6048,10.3326 L 14.649,9.63812 L 13.6932,10.3326 L 14.0583,9.20892
 L 13.1024,8.5145 L 12.1466,9.20892 L 12.5117,10.3326 L 11.5559,9.63812 L 10.6001,10.3326 L 10.9652,11.4562
 L 12.1466,11.4562 L 11.1908,12.1506 L 11.5559,13.2742 L 12.7374,13.2742 L 13.1024,12.1506 L 13.4675,13.2742
 L 14.649,13.2742 L 13.6932,13.9687 L 14.0583,15.0923 L 13.1024,14.3979 L 12.1466,15.0923 L 12.5117,16.2159
 L 13.6932,16.2159 L 12.7374,16.9104 L 13.1024,18.034 L 12.1466,17.3396 L 11.1908,18.034 L 11.5559,16.9104
 L 10.6001,16.2159 L 9.6443,16.9104 L 10.0094,18.034 L 9.05357,17.3395 L 8.09776,18.034 L 8.46284,16.9104
 L 7.50703,16.2159 L 8.68848,16.2159 L 9.05357,15.0923 L 8.09776,14.3979 L 7.14195,15.0923 L 7.50703,13.9687
 L 6.55122,13.2742 L 6.18613,12.1506 L 5.00468,12.1506 L 5.96049,11.4562 L 5.59541,10.3326 L 4.41396,10.3326
 L 4.04887,11.4562 L 3.68378,10.3326 L 2.50233,10.3326 L 3.45815,9.63811 L 3.09306,8.51448 L 4.04887,9.20892
 L 5.00468,8.51448 L 4.63959,7.39087 L 3.45815,7.39087 L 4.41396,6.69643 L 4.04887,5.5728 L 5.00468,6.26723
 L 5.96049,5.5728 L 5.59541,6.69643 L 6.55122,7.39085 L 7.50703,6.69643 L 7.14195,5.5728 L 8.09776,6.26723
 L 9.05357,5.5728 L 8.68848,6.69643 L 9.64429,7.39085 L 8.46284,7.39087 L 8.09776,8.51448 L 9.05356,9.20892
 L 10.0094,8.51448 L 9.64429,9.63811 L 10.6001,10.3325 L 11.5559,9.63811 L 11.1908,8.51448 L 12.1466,9.20892
 L 13.1024,8.51448 L 12.7374,7.39087 L 11.5559,7.39087 L 12.5117,6.69643 L 12.1466,5.5728 L 13.1024,6.26723
 L 14.0583,5.5728 L 13.6932,6.69643 L 14.649,7.39085 L 15.6048,6.69643 L 15.2397,5.5728 L 16.1955,6.26723
 L 17.1513,5.5728 L 16.7862,4.44917 L 15.6048,4.44917 L 16.5606,3.75473 L 16.1955,2.63112 L 15.0141,2.63112
 L 14.649,3.75473 L 14.2839,2.63112 L 13.1024,2.63112 L 14.0583,1.93668 L 13.6932,0.813049 L 14.649,1.50749
 L 15.6048,0.813049 L 15.2397,-0.310547 L 14.0583,-0.310547 L 15.0141,-1.00499 L 14.649,-2.12862 L 13.4675,-2.12862
 L 13.1024,-1.00499 L 12.7374,-2.12862 L 11.5559,-2.12862 L 11.1908,-1.00499 L 12.1466,-0.310547 L 10.9652,-0.310547
 L 10.6001,0.813049 L 10.235,-0.310547 L 9.05356,-0.310547 L 10.0094,-1.00499 L 9.64429,-2.12862 L 8.46284,-2.12862
 L 8.09776,-1.00499 L 7.73267,-2.12862 L 6.55122,-2.12862 L 5.59541,-2.82304 L 4.63959,-2.12862 L 5.00468,-3.25223
 L 4.04887,-3.94667 L 3.09306,-3.25223 L 3.45815,-2.12862 L 2.50233,-2.82304 L 1.54652,-2.12862 L 1.91161,-3.25223
 L 0.955795,-3.94667 L 2.13725,-3.94667 L 2.50233,-5.0703 L 3.45815,-5.76474 L 3.09306,-6.88837 L 4.04887,-6.19392
 L 5.00468,-6.88837 L 4.63959,-5.76474 L 5.59541,-5.0703 L 4.41396,-5.0703 L 4.04887,-3.94667 L 5.00468,-3.25224
 L 5.96049,-3.94667 L 5.59541,-2.82306 L 6.55122,-2.12862 L 7.50703,-2.82306 L 7.14195,-3.94667 L 8.09775,-3.25224
 L 9.05356,-3.94667 L 8.68848,-5.0703 L 7.50703,-5.0703 L 8.46284,-5.76474 L 8.09775,-6.88837 L 9.05356,-6.19392
 L 10.0094,-6.88837 L 9.64429,-5.76474 L 10.6001,-5.0703 L 11.5559,-5.76474 L 11.1908,-6.88837 L 12.1466,-6.19392
 L 13.1024,-6.88837 L 12.7374,-8.01198 L 11.5559,-8.01198 L 12.5117,-8.70642 L 12.1466,-9.83005 L 10.9652,-9.83005
 L 10.6001,-8.70642 L 10.235,-9.83005 L 9.05356,-9.83005 L 10.0094,-10.5245 L 9.64429,-11.6481 L 10.6001,-10.9537
 L 11.5559,-11.6481 L 11.1908,-12.7717 L 10.0094,-12.7717 L 10.9652,-13.4662 L 10.6001,-14.5898 L 10.9652,-15.7134
 L 10.0094,-16.4079 L 11.1908,-16.4079 L 11.5559,-17.5315 L 10.6001,-18.2259 L 9.64429,-17.5315 L 10.0094,-18.6551
 L 9.05356,-19.3495 L 10.235,-19.3495 L 10.6001,-20.4732 L 10.9652,-19.3495 L 12.1466,-19.3495 L 12.5117,-20.4732
 L 11.5559,-21.1676 L 12.7374,-21.1676 L 13.1024,-22.2912 L 12.1466,-22.9857 L 11.1908,-22.2912 L 11.5559,-23.4149
 L 10.6001,-24.1093 L 9.64429,-23.4149 L 10.0094,-22.2912 L 9.05356,-22.9857 L 8.09775,-22.2912 L 8.46284,-23.4149
 L 7.50703,-24.1093 L 8.68848,-24.1093 L 9.05356,-25.2329 L 8.09775,-25.9274 L 7.14195,-25.2329 L 7.50703,-26.3565
 L 6.55122,-27.051 L 7.73267,-27.051 L 8.09776,-28.1746 L 8.46284,-27.051 L 9.64429,-27.051 L 10.0094,-28.1746
 L 9.05356,-28.869 L 10.235,-28.869 L 10.6001,-29.9927 L 10.9652,-28.869 L 12.1466,-28.869 L 11.1908,-28.1746
 L 11.5559,-27.051 L 12.7374,-27.051 L 13.1024,-28.1746 L 13.4675,-27.051 L 14.649,-27.051 L 15.0141,-28.1746
 L 14.0583,-28.869 L 15.2397,-28.869 L 15.6048,-29.9927 L 14.649,-30.6871 L 13.6932,-29.9927 L 14.0583,-31.1163
 L 13.1024,-31.8107 L 14.2839,-31.8107 L 14.649,-32.9343 L 15.0141,-31.8107 L 16.1955,-31.8107 L 16.5606,-32.9343
 L 15.6048,-33.6288 L 16.7862,-33.6288 L 17.1513,-34.7524 L 16.1955,-35.4468 L 15.2397,-34.7524 L 15.6048,-35.876
 L 14.649,-36.5705 L 13.6932,-35.876 L 14.0583,-34.7524 L 13.1024,-35.4468 L 12.1466,-34.7524 L 10.9652,-34.7524
 L 10.6001,-33.6288 L 10.235,-34.7524 L 10.6001,-35.876 L 10.9652,-34.7524 L 12.1466,-34.7524 L 12.5117,-35.876
 L 11.5559,-36.5705 L 12.7374,-36.5705 L 13.1024,-37.6941 L 12.1466,-38.3885 L 11.1908,-37.6941 L 11.5559,-38.8177
 L 10.6001,-39.5121 L 9.64429,-38.8177 L 10.0094,-37.6941 L 9.05356,-38.3885 L 8.09776,-37.6941 L 8.46284,-36.5705
 L 9.64429,-36.5705 L 8.68848,-35.876 L 9.05357,-34.7524 L 8.09776,-35.4468 L 7.14195,-34.7524 L 7.50703,-35.876
 L 6.55122,-36.5705 L 5.59541,-35.876 L 5.96049,-34.7524 L 5.00468,-35.4468 L 4.04887,-34.7524 L 4.41396,-35.876
 L 3.45815,-36.5705 L 4.63959,-36.5705 L 5.00468,-37.6941 L 4.04887,-38.3885 L 3.09306,-37.6941 L 3.45815,-38.8177
 L 2.50233,-39.5122 L 3.68378,-39.5122 L 4.04887,-40.6358 L 4.41396,-39.5122 L 5.59541,-39.5122 L 5.96049,-40.6358
 L 5.00468,-41.3302 L 6.18613,-41.3302 L 6.55122,-42.4538 L 5.59541,-43.1483 L 4.63959,-42.4538 L 5.00468,-43.5775
 L 4.04887,-44.2719 L 3.09306,-43.5775 L 3.45815,-42.4538 L 2.50233,-43.1483 L 1.54652,-42.4538 L 1.91161,-43.5775
 L 0.955795,-44.2719 L 2.13725,-44.2719 L 2.50233,-45.3955 L 1.54652,-46.09 L 0.590714,-45.3955 L 0.955795,-46.5191
 L 0,-47.2136 L -0.955795,-46.5191 L -0.590714,-45.3955 L -1.54652,-46.09 L -2.50233,-45.3955 L -2.13725,-44.2719
 L -0.955795,-44.2719 L -1.91161,-43.5775 L -1.54652,-42.4538 L -2.50233,-43.1483 L -3.45815,-42.4538 L -3.09306,-43.5775
 L -4.04887,-44.2719 L -5.00468,-43.5775 L -4.63959,-42.4538 L -5.59541,-43.1483 L -6.55122,-42.4538 L -6.18613,-41.3302
 L -5.00468,-41.3302 L -5.96049,-40.6358 L -5.59541,-39.5122 L -4.41396,-39.5122 L -4.04887,-40.6358 L -3.68378,-39.5122
 L -2.50233,-39.5122 L -3.45815,-38.8177 L -3.09306,-37.6941 L -4.04887,-38.3885 L -5.00468,-37.6941 L -4.63959,-36.5705
 L -3.45815,-36.5705 L -4.41396,-35.876 L -4.04887,-34.7524 L -5.00468,-35.4468 L -5.96049,-34.7524 L -5.59541,-35.876
 L -6.55122,-36.5705 L -7.50703,-35.876 L -7.14195,-34.7524 L -8.09776,-35.4468 L -9.05357,-34.7524 L -8.68848,-35.876
 L -9.64429,-36.5705 L -8.46284,-36.5705 L -8.09776,-37.6941 L -9.05356,-38.3885 L -10.0094,-37.6941 L -9.64429,-38.8177
 L -10.6001,-39.5121 L -11.5559,-38.8177 L -11.1908,-37.6941 L -12.1466,-38.3885 L -13.1024,-37.6941 L -12.7374,-36.5705
 L -11.5559,-36.5705 L -12.5117,-35.876 L -12.1466,-34.7524 L -10.9652,-34.7524 L -10.6001,-35.876 L -10.235,-34.7524
 L -10.6001,-33.6288 L -10.9652,-34.7524 L -12.1466,-34.7524 L -13.1024,-35.4468 L -14.0583,-34.7524 L -13.6932,-35.876
 L -14.649,-36.5705 L -15.6048,-35.876 L -15.2397,-34.7524 L -16.1955,-35.4468 L -17.1513,-34.7524 L -16.7862,-33.6288
 L -15.6048,-33.6288 L -16.5606,-32.9343 L -16.1955,-31.8107 L -15.0141,-31.8107 L -14.649,-32.9343 L -14.2839,-31.8107
 L -13.1024,-31.8107 L -14.0583,-31.1163 L -13.6932,-29.9927 L -14.649,-30.6871 L -15.6048,-29.9927 L -15.2397,-28.869
 L -14.0583,-28.869 L -15.0141,-28.1746 L -14.649,-27.051 L -13.4675,-27.051 L -13.1024,-28.1746 L -12.7374,-27.051
 L -11.5559,-27.051 L -11.1908,-28.1746 L -12.1466,-28.869 L -10.9652,-28.869 L -10.6001,-29.9927 L -10.235,-28.869
 L -9.05356,-28.869 L -10.0094,-28.1746 L -9.64429,-27.051 L -8.46284,-27.051 L -8.09776,-28.1746 L -7.73267,-27.051
 L -6.55122,-27.051 L -7.50703,-26.3565 L -7.14195,-25.2329 L -8.09775,-25.9274 L -9.05356,-25.2329 L -8.68848,-24.1093
 L -7.50703,-24.1093 L -8.46284,-23.4149 L -8.09775,-22.2912 L -9.05356,-22.9857 L -10.0094,-22.2912 L -9.64429,-23.4149
 L -10.6001,-24.1093 L -11.5559,-23.4149 L -11.1908,-22.2912 L -12.1466,-22.9857 L -13.1024,-22.2912 L -12.7374,-21.1676
 L -11.5559,-21.1676 L -12.5117,-20.4732 L -12.1466,-19.3495 L -10.9652,-19.3495 L -10.6001,-20.4732 L -10.235,-19.3495
 L -9.05356,-19.3495 L -10.0094,-18.6551 L -9.64429,-17.5315 L -10.6001,-18.2259 L -11.5559,-17.5315 L -11.1908,-16.4079
 L -10.0094,-16.4079 L -10.9652,-15.7134 L -10.6001,-14.5898 L -10.9652,-13.4662 L -10.0094,-12.7717 L -11.1908,-12.7717
 L -11.5559,-11.6481 L -10.6001,-10.9537 L -9.64429,-11.6481 L -10.0094,-10.5245 L -9.05356,-9.83005 L -10.235,-9.83005
 L -10.6001,-8.70642 L -10.9652,-9.83005 L -12.1466,-9.83005 L -12.5117,-8.70642 L -11.5559,-8.01198 L -12.7374,-8.01198
 L -13.1024,-6.88837 L -12.1466,-6.19392 L -11.1908,-6.88837 L -11.5559,-5.76474 L -10.6001,-5.0703 L -9.64429,-5.76474
 L -10.0094,-6.88837 L -9.05356,-6.19392 L -8.09775,-6.88837 L -8.46284,-5.76474 L -7.50703,-5.0703 L -8.68848,-5.0703
 L -9.05356,-3.94667 L -8.09775,-3.25224 L -7.14195,-3.94667 L -7.50703,-2.82306 L -6.55122,-2.12862 L -5.59541,-2.82306
 L -5.96049,-3.94667 L -5.00468,-3.25224 L -4.04887,-3.94667 L -4.41396,-5.0703 L -5.59541,-5.0703 L -4.63959,-5.76474
 L -5.00468,-6.88837 L -4.04887,-6.19392 L -3.09306,-6.88837 L -3.45815,-5.76474 L -2.50233,-5.0703 L -2.13725,-3.94667
 L -0.955795,-3.94667 L -1.91161,-3.25223 L -1.54652,-2.12862 L -2.50233,-2.82304 L -3.45815,-2.12862 L -3.09306,-3.25223
 L -4.04887,-3.94667 L -5.00468,-3.25223 L -4.63959,-2.12862 L -5.59541,-2.82304 L -6.55122,-2.12862 L -7.73267,-2.12862
 L -8.09776,-1.00499 L -8.46284,-2.12862 L -9.64429,-2.12862 L -10.0094,-1.00499 L -9.05356,-0.310547 L -10.235,-0.310547
 L -10.6001,0.813049 L -10.9652,-0.310547 L -12.1466,-0.310547 L -11.1908,-1.00499 L -11.5559,-2.12862 L -12.7374,-2.12862
 L -13.1024,-1.00499 L -13.4675,-2.12862 L -14.649,-2.12862 L -15.0141,-1.00499 L -14.0583,-0.310547 L -15.2397,-0.310547
 L -15.6048,0.813049 L -14.649,1.50749 L -13.6932,0.813049 L -14.0583,1.93668 L -13.1024,2.63112 L -14.2839,2.63112
 L -14.649,3.75473 L -15.0141,2.63112 L -16.1955,2.63112 L -16.5606,3.75473 L -15.6048,4.44917 L -16.7862,4.44917
 L -17.1513,5.5728 L -16.1955,6.26723 L -15.2397,5.5728 L -15.6048,6.69643 L -14.649,7.39085 L -13.6932,6.69643
 L -14.0583,5.5728 L -13.1024,6.26723 L -12.1466,5.5728 L -12.5117,6.69643 L -11.5559,7.39087 L -12.7374,7.39087
 L -13.1024,8.51448 L -12.1466,9.20892 L -11.1908,8.51448 L -11.5559,9.63811 L -10.6001,10.3325 L -9.64429,9.63811
 L -10.0094,8.51448 L -9.05356,9.20892 L -8.09776,8.51448 L -8.46284,7.39087 L -9.64429,7.39085 L -8.68848,6.69643
 L -9.05357,5.5728 L -8.09776,6.26723 L -7.14195,5.5728 L -7.50703,6.69643 L -6.55122,7.39085 L -5.59541,6.69643
 L -5.96049,5.5728 L -5.00468,6.26723 L -4.04887,5.5728 L -4.41396,6.69643 L -3.45815,7.39087 L -4.63959,7.39087
 L -5.00468,8.51448 L -4.04887,9.20892 L -3.09306,8.51448 L -3.45815,9.63811 L -2.50233,10.3326 L -3.68378,10.3326
 L -4.04887,11.4562 L -4.41396,10.3326 L -5.59541,10.3326 L -5.96049,11.4562 L -5.00468,12.1506 L -6.18613,12.1506
 L -6.55122,13.2742 L -7.50703,13.9687 L -7.14195,15.0923 L -8.09776,14.3979 L -9.05357,15.0923 L -8.68848,16.2159
 L -7.50703,16.2159 L -8.46284,16.9104 L -8.09776,18.034 L -9.05357,17.3395 L -10.0094,18.034 L -9.6443,16.9104
 L -10.6001,16.2159 L -11.5559,16.9104 L -11.1908,18.034 L -12.1466,17.3396 L -13.1024,18.034 L -12.7374,16.9104
 L -13.6932,16.2159 L -12.5117,16.2159 L -12.1466,15.0923 L -13.1024,14.3979 L -14.0583,15.0923 L -13.6932,13.9687
 L -14.649,13.2742 L -13.4675,13.2742 L -13.1024,12.1506 L -12.7374,13.2742 L -11.5559,13.2742 L -11.1908,12.1506
 L -12.1466,11.4562 L -10.9652,11.4562 L -10.6001,10.3326 L -11.5559,9.63812 L -12.5117,10.3326 L -12.1466,9.20892
 L -13.1024,8.5145 L -14.0583,9.20892 L -13.6932,10.3326 L -14.649,9.63812 L -15.6048,10.3326 L -15.2397,9.20892
 L -16.1955,8.5145 L -15.0141,8.5145 L -14.649,7.39087 L -15.6048,6.69643 L -16.5606,7.39087 L -16.1955,6.26724
 L -17.1513,5.5728 L -18.1071,6.26724 L -17.7421,7.39087 L -18.6979,6.69643 L -19.6537,7.39087 L -19.2886,8.5145
 L -18.1071,8.5145 L -19.063,9.20892 L -18.6979,10.3326 L -19.6537,9.63812 L -20.6095,10.3326 L -20.2444,9.20892
 L -21.2002,8.5145 L -22.156,9.20892 L -21.7909,10.3326 L -22.7467,9.63812 L -23.7026,10.3326 L -23.3375,11.4562
 L -22.156,11.4562 L -23.1118,12.1506 L -22.7467,13.2742 L -21.5653,13.2742 L -21.2002,12.1506 L -20.8351,13.2742
 L -19.6537,13.2742 L -20.6095,13.9687 L -20.2444,15.0923 L -21.2002,14.3979 L -22.156,15.0923 L -21.7909,16.2159
 L -20.6095,16.2159 L -21.5653,16.9104 L -21.2002,18.034 L -22.156,17.3396 L -23.1118,18.034 L -22.7467,16.9104
 L -23.7026,16.2159 L -24.6584,16.9104 L -24.2933,18.034 L -25.2491,17.3396 L -26.2049,18.034 L -25.8398,16.9104
 L -26.7956,16.2159 L -25.6142,16.2159 L -25.2491,15.0923 L -26.2049,14.3979 L -27.1607,15.0923 L -26.7956,13.9687
 L -27.7514,13.2742 L -28.7073,13.9687 L -28.3422,15.0923 L -29.298,14.3979 L -30.2538,15.0923 L -29.8887,16.2159
 L -28.7073,16.2159 L -29.6631,16.9104 L -29.298,18.034 L -30.2538,17.3395 L -31.2096,18.034 L -30.8445,16.9104
 L -31.8003,16.2159 L -32.7561,16.9104 L -32.3911,18.034 L -33.3469,17.3395 L -34.3027,18.034 L -33.9376,19.1576
 L -32.7561,19.1576 L -33.7119,19.852 L -33.3469,20.9757 L -32.1654,20.9757 L -31.8003,19.852 L -31.4352,20.9757
 L -30.2538,20.9757 L -31.2096,21.6701 L -30.8445,22.7937 L -31.8003,22.0993 L -32.7561,22.7937 L -32.3911,23.9174
 L -31.2096,23.9173 L -32.1654,24.6118 L -31.8003,25.7354 L -30.6189,25.7354 L -30.2538,24.6118 L -29.8887,25.7354
 L -28.7073,25.7354 L -28.3422,24.6118 L -29.298,23.9173 L -28.1165,23.9173 L -27.7514,22.7937 L -27.3864,23.9173
 L -26.2049,23.9174 L -27.1607,24.6118 L -26.7956,25.7354 L -25.6142,25.7354 L -25.2491,24.6118 L -24.884,25.7354
 L -23.7026,25.7354 L -23.3375,24.6118 L -24.2933,23.9173 L -23.1118,23.9174 L -22.156,24.6118 L -23.3375,24.6118
 L -23.7026,25.7354 L -24.6584,26.4299 L -24.2933,27.5535 L -25.2491,26.859 L -26.2049,27.5535 L -25.8398,28.6771
 L -24.6584,28.6771 L -25.6142,29.3715 L -25.2491,30.4952 L -26.2049,29.8007 L -27.1607,30.4952 L -26.7956,29.3715
 L -27.7514,28.6771 L -28.7073,29.3715 L -28.3422,30.4952 L -29.298,29.8007 L -30.2538,30.4952 L -29.8887,31.6188
 L -28.7072,31.6188 L -29.6631,32.3132 L -29.298,33.4368 L -28.1165,33.4368 L -27.7514,32.3132 L -27.3864,33.4368
 L -26.2049,33.4368 L -27.1607,34.1313 L -26.7956,35.2549 L -27.7514,34.5605 L -28.7073,35.2549 L -28.3422,36.3785
 L -27.1607,36.3785 L -28.1165,37.073 L -27.7514,38.1966 L -26.57,38.1966 L -26.2049,37.073 L -25.8398,38.1966
 L -24.6584,38.1966 L -24.2933,37.073 L -25.2491,36.3785 L -24.0677,36.3785 L -23.7026,35.2549 L -23.3375,36.3785
 L -22.156,36.3785 L -23.1118,37.073 L -22.7467,38.1966 L -21.5653,38.1966 L -21.2002,37.073 L -20.8351,38.1966
 L -19.6537,38.1966 L -19.2886,37.073 L -20.2444,36.3785 L -19.063,36.3785 L -18.6979,35.2549 L -19.6537,34.5605
 L -20.6095,35.2549 L -20.2444,34.1313 L -21.2002,33.4368 L -20.0188,33.4368 L -19.6537,32.3132 L -19.2886,33.4368
 L -18.1071,33.4368 L -17.7421,32.3132 L -18.6979,31.6188 L -17.5164,31.6188 L -17.1513,30.4952 L -16.7862,31.6188
 L -15.6048,31.6188 L -16.5606,32.3132 L -16.1955,33.4368 L -15.0141,33.4368 L -14.649,32.3132 L -14.2839,33.4368
 L -13.1024,33.4368 L -14.0583,34.1313 L -13.6932,35.2549 L -14.649,34.5605 L -15.6048,35.2549 L -15.2397,36.3785
 L -14.0583,36.3785 L -15.0141,37.073 L -14.649,38.1966 L -13.4675,38.1966 L -13.1024,37.073 L -12.7374,38.1966
 L -11.5559,38.1966 L -11.1908,37.073 L -12.1466,36.3785 L -10.9652,36.3785 L -10.6001,35.2549 L -11.5559,34.5605
 L -12.5117,35.2549 L -12.1466,34.1313 L -11.1908,33.4368 L -11.5559,34.5605 L -10.6001,35.2549 L -10.235,36.3785
 L -9.05357,36.3785 L -10.0094,37.073 L -9.64429,38.1966 L -8.46284,38.1966 L -8.09776,37.073 L -7.73267,38.1966
 L -6.55122,38.1966 L -6.18614,37.073 L -7.14195,36.3785 L -5.96049,36.3785 L -5.59541,35.2549 L -6.55122,34.5605
 L -7.50703,35.2549 L -7.14195,34.1313 L -8.09776,33.4368 L -6.91631,33.4368 L -6.55122,32.3132 L -6.18613,33.4368
 L -5.00468,33.4368 L -4.6396,32.3132 L -5.59543,31.6188 L -4.41397,31.6188 L -4.04887,30.4952 L -5.0047,29.8007
 L -5.96051,30.4952 L -5.59541,29.3715 L -6.55122,28.6771 L -7.50703,29.3715 L -7.14195,30.4952 L -8.09776,29.8007
 L -9.05357,30.4952 L -8.68849,29.3715 L -9.6443,28.6771 L -8.46284,28.6771 L -8.09776,27.5535 L -9.05357,26.859
 L -10.0094,27.5535 L -9.6443,26.4299 L -10.6001,25.7354 L -9.41866,25.7354 L -9.05357,24.6118 L -8.68849,25.7354
 L -7.50703,25.7354 L -7.14195,24.6118 L -8.09776,23.9173 L -6.91632,23.9173 L -6.55122,22.7937 L -6.18614,23.9173
 L -5.00468,23.9174 L -5.96049,24.6118 L -5.59541,25.7354 L -4.41397,25.7354 L -4.04889,24.6118 L -3.68379,25.7354
 L -2.50235,25.7354 L -2.13725,24.6118 L -3.09308,23.9174 L -1.91162,23.9173 L -1.54654,22.7937 L -2.50235,22.0993
 L -3.45816,22.7937 L -3.09308,21.6701 L -4.04887,20.9757 L -2.86743,20.9757 L -2.50235,19.852 L -2.13725,20.9757
 L -0.955811,20.9757 L -0.590729,19.852 L -1.54654,19.1576 L -0.365082,19.1576 L 0,18.034 L -0.955811,17.3395
 L -1.91162,18.034 L -1.54654,16.9104 L -2.50233,16.2159 L -3.45816,16.9104 L -3.09306,18.034 L -4.04887,17.3395
 L -5.00468,18.034 L -4.6396,16.9104 L -5.59541,16.2159 L -4.41397,16.2159 L -4.04889,15.0923 L -5.00468,14.3979
 L -5.96051,15.0923 L -5.59541,13.9687 L -4.63959,13.2742 L -5.00468,14.3979 L -4.04887,15.0923 L -3.09306,14.3979
 L -3.45815,13.2742 L -2.50233,13.9687 L -1.54652,13.2742 L -1.91161,14.3979 L -0.955795,15.0923 L -2.13725,15.0923
 L -2.50233,16.2159 L -1.54652,16.9104 L -0.590714,16.2159 L -0.955795,17.3395 L 0,18.034 L 0.955795,17.3395
 L 0.590714,16.2159 L 1.54652,16.9104 L 2.50233,16.2159 L 2.13725,15.0923 L 0.955795,15.0923 L 1.91161,14.3979
 L 1.54652,13.2742 L 2.50233,13.9687 L 3.45815,13.2742 L 3.09306,14.3979 L 4.04887,15.0923 L 5.00468,14.3979
 L 4.63959,13.2742 L 5.59541,13.9687 L 5.96051,15.0923 L 5.00468,14.3979 L 4.04889,15.0923 L 4.41397,16.2159
 L 5.59541,16.2159 L 4.6396,16.9104 L 5.00468,18.034 L 4.04887,17.3395 L 3.09306,18.034 L 3.45816,16.9104
 L 2.50233,16.2159 L 1.54654,16.9104 L 1.91162,18.034 L 0.955811,17.3395 L 0,18.034 L 0.365082,19.1576
 L 1.54654,19.1576 L 0.590729,19.852 L 0.955811,20.9757 L 2.13725,20.9757 L 2.50235,19.852 L 2.86743,20.9757
 L 4.04887,20.9757 L 3.09308,21.6701 L 3.45816,22.7937 L 2.50235,22.0993 L 1.54654,22.7937 L 1.91162,23.9173
 L 3.09308,23.9174 L 2.13725,24.6118 L 2.50235,25.7354 L 3.68379,25.7354 L 4.04889,24.6118 L 4.41397,25.7354
 L 5.59541,25.7354 L 5.96049,24.6118 L 5.00468,23.9174 L 6.18614,23.9173 L 6.55122,22.7937 L 6.91632,23.9173
 L 8.09776,23.9173 L 7.14195,24.6118 L 7.50703,25.7354 L 8.68849,25.7354 L 9.05357,24.6118 L 9.41866,25.7354
 L 10.6001,25.7354 L 9.6443,26.4299 L 10.0094,27.5535 L 9.05357,26.859 L 8.09776,27.5535 L 8.46284,28.6771
 L 9.6443,28.6771 L 8.68849,29.3715 L 9.05357,30.4952 L 8.09776,29.8007 L 7.14195,30.4952 L 7.50703,29.3715
 L 6.55122,28.6771 L 5.59541,29.3715 L 5.96051,30.4952 L 5.0047,29.8007 L 4.04887,30.4952 L 4.41397,31.6188
 L 5.59543,31.6188 L 4.6396,32.3132 L 5.00468,33.4368 L 6.18613,33.4368 L 6.55122,32.3132 L 6.91631,33.4368
 L 8.09776,33.4368 L 7.14195,34.1313 L 7.50703,35.2549 L 6.55122,34.5605 L 5.59541,35.2549 L 5.96049,36.3785
 L 7.14195,36.3785 L 6.18614,37.073 L 6.55122,38.1966 L 7.73267,38.1966 L 8.09776,37.073 L 8.46284,38.1966
 L 9.64429,38.1966 L 10.0094,37.073 L 9.05357,36.3785 L 10.235,36.3785 L 10.6001,35.2549 L 11.5559,34.5605
 L 11.1908,33.4368 L 12.1466,34.1313 L 12.5117,35.2549 L 11.5559,34.5605 L 10.6001,35.2549 L 10.9652,36.3785
 L 12.1466,36.3785 L 11.1908,37.073 L 11.5559,38.1966 L 12.7374,38.1966 L 13.1024,37.073 L 13.4675,38.1966
 L 14.649,38.1966 L 15.0141,37.073 L 14.0583,36.3785 L 15.2397,36.3785 L 15.6048,35.2549 L 14.649,34.5605
 L 13.6932,35.2549 L 14.0583,34.1313 L 13.1024,33.4368 L 14.2839,33.4368 L 14.649,32.3132 L 15.0141,33.4368
 L 16.1955,33.4368 L 16.5606,32.3132 L 15.6048,31.6188 L 16.7862,31.6188 L 17.1513,30.4952 L 17.5164,31.6188
 L 18.6979,31.6188 L 17.7421,32.3132 L 18.1071,33.4368 L 19.2886,33.4368 L 19.6537,32.3132 L 20.0188,33.4368
 L 21.2002,33.4368 L 20.2444,34.1313 L 20.6095,35.2549 L 19.6537,34.5605 L 18.6979,35.2549 L 19.063,36.3785
 L 20.2444,36.3785 L 19.2886,37.073 L 19.6537,38.1966 L 20.8351,38.1966 L 21.2002,37.073 L 21.5653,38.1966
 L 22.7467,38.1966 L 23.1118,37.073 L 22.156,36.3785 L 23.3375,36.3785 L 23.7026,35.2549 L 24.0677,36.3785
 L 25.2491,36.3785 L 24.2933,37.073 L 24.6584,38.1966 L 25.8398,38.1966 L 26.2049,37.073 L 26.57,38.1966
 L 27.7514,38.1966 L 28.1165,37.073 L 27.1607,36.3785 L 28.3422,36.3785 L 28.7073,35.2549 L 27.7514,34.5605
 L 26.7956,35.2549 L 27.1607,34.1313 L 26.2049,33.4368 L 27.3864,33.4368 L 27.7514,32.3132 L 28.1165,33.4368
 L 29.298,33.4368 L 29.6631,32.3132 L 28.7072,31.6188 L 29.8887,31.6188 L 30.2538,30.4952 L 29.298,29.8007
 L 28.3422,30.4952 L 28.7073,29.3715 L 27.7514,28.6771 L 26.7956,29.3715 L 27.1607,30.4952 L 26.2049,29.8007
 L 25.2491,30.4952 L 25.6142,29.3715 L 24.6584,28.6771 L 25.8398,28.6771 L 26.2049,27.5535 L 25.2491,26.859
 L 24.2933,27.5535 L 24.6584,26.4299 L 23.7026,25.7354 L 23.3375,24.6118 L 22.156,24.6118 L 23.1118,23.9174
 L 24.2933,23.9173 L 23.3375,24.6118 L 23.7026,25.7354 L 24.884,25.7354 L 25.2491,24.6118 L 25.6142,25.7354
 L 26.7956,25.7354 L 27.1607,24.6118 L 26.2049,23.9174 L 27.3864,23.9173 L 27.7514,22.7937 L 28.1165,23.9173
 L 29.298,23.9173 L 28.3422,24.6118 L 28.7073,25.7354 L 29.8887,25.7354 L 30.2538,24.6118 L 30.6189,25.7354
 L 31.8003,25.7354 L 32.1654,24.6118 L 31.2096,23.9173 L 32.3911,23.9174 L 32.7561,22.7937 L 31.8003,22.0993
 L 30.8445,22.7937 L 31.2096,21.6701 L 30.2538,20.9757 L 31.4352,20.9757 L 31.8003,19.852 L 32.1654,20.9757
 L 33.3469,20.9757 L 33.7119,19.852 L 32.7561,19.1576 L 33.9376,19.1576 L 34.3027,18.034 L 33.3469,17.3395
 L 32.3911,18.034 L 32.7561,16.9104 L 31.8003,16.2159 L 30.8445,16.9104 L 31.2096,18.034 L 30.2538,17.3395
 L 29.298,18.034 L 29.6631,16.9104 L 28.7073,16.2159 L 29.8887,16.2159 L 30.2538,15.0923 L 29.298,14.3979
 L 28.3422,15.0923 L 28.7073,13.9687 L 27.7514,13.2742 L 26.7956,13.9687 L 27.1607,15.0923 L 26.2049,14.3979
 L 25.2491,15.0923 L 25.6142,16.2159 L 26.7956,16.2159 L 25.8398,16.9104 L 26.2049,18.034 L 25.2491,17.3396
 L 24.2933,18.034 L 24.6584,16.9104 L 23.7026,16.2159 L 22.7467,16.9104 L 23.1118,18.034 L 22.156,17.3396
 L 21.2002,18.034 L 21.5653,16.9104 z
M -14.2839,18.034 L -14.649,19.1576 L -15.0141,18.034 L -14.649,16.9104 z
M -29.8887,19.852 L -30.8445,19.1576 L -29.6631,19.1576 L -28.7073,19.852 z
M -26.7956,22.0993 L -27.1607,20.9757 L -26.2049,21.6701 L -25.8398,22.7937 z
M -25.6142,19.8521 L -26.7956,19.8521 L -25.8398,19.1576 L -24.6584,19.1576 z
M -25.8398,32.3132 L -26.7956,31.6188 L -25.6142,31.6188 L -24.6584,32.3132 z
M -24.6584,34.5605 L -25.6142,35.2549 L -25.2491,34.1313 L -24.2933,33.4368 z
M -20.8351,22.7937 L -21.2002,23.9174 L -21.5653,22.7937 L -22.7467,22.7937 L -23.7026,22.0993 L -24.6584,22.7937
 L -24.2933,21.6701 L -25.2491,20.9757 L -24.0676,20.9757 L -23.7026,19.852 L -23.3375,20.9757 L -22.156,20.9757
 L -21.2002,21.6701 L -20.2444,20.9757 L -20.6095,22.0993 L -19.6537,22.7937 z
M -23.7026,31.6188 L -24.0676,30.4952 L -23.7026,29.3715 L -23.3375,30.4952 z
M -22.7467,34.5605 L -23.1118,33.4368 L -22.156,34.1313 L -21.7909,35.2549 z
M -22.156,26.859 L -23.1118,27.5535 L -22.7467,26.4299 L -21.7909,25.7354 z
M -21.7909,19.8521 L -22.7467,19.1576 L -21.5653,19.1576 L -20.6095,19.8521 z
M -21.5653,32.3132 L -22.7467,32.3132 L -21.7909,31.6188 L -20.6095,31.6188 z
M -19.2886,27.5535 L -19.6537,28.6771 L -20.6095,29.3715 L -20.2444,30.4952 L -21.2002,29.8007 L -22.156,30.4952
 L -21.7909,29.3715 L -22.7467,28.6771 L -21.5653,28.6771 L -21.2002,27.5535 L -20.2444,26.859 L -20.6095,25.7354
 L -19.6537,26.4299 L -18.6979,25.7354 L -19.063,26.859 L -18.1071,27.5535 z
M -19.2886,12.1506 L -20.2444,11.4562 L -19.063,11.4562 L -18.1071,12.1506 z
M -19.063,24.6118 L -20.2444,24.6118 L -19.2886,23.9173 L -18.1071,23.9174 z
M -18.1071,29.8007 L -19.063,30.4952 L -18.6979,29.3715 L -17.7421,28.6771 z
M -18.6979,22.0993 L -19.063,20.9757 L -18.1071,21.6701 L -17.7421,22.7937 z
M -18.1071,14.3979 L -19.063,15.0923 L -18.6979,13.9687 L -17.7421,13.2742 z
M -17.1513,26.859 L -17.5164,25.7354 L -17.1513,24.6118 L -16.7862,25.7354 z
M -17.1513,11.4562 L -17.5164,10.3326 L -17.1513,9.20892 L -16.7863,10.3326 z
M -8.68848,-14.5898 L -9.05356,-13.4662 L -9.41866,-14.5898 L -9.05356,-15.7134 z
M -16.1955,14.3979 L -16.5606,13.2742 L -15.6048,13.9687 L -15.2397,15.0923 z
M -15.6048,22.0993 L -16.5606,22.7937 L -16.1955,21.6701 L -15.2397,20.9757 z
M -16.1955,29.8007 L -16.5606,28.6771 L -15.6048,29.3715 L -15.2397,30.4951 z
M -15.0141,12.1506 L -16.1955,12.1506 L -15.2397,11.4562 L -14.0583,11.4562 z
M -15.2397,24.6118 L -16.1955,23.9174 L -15.0141,23.9174 L -14.0583,24.6118 z
M -12.5117,29.3715 L -12.1466,30.4952 L -13.1024,29.8007 L -14.0583,30.4952 L -13.6932,29.3715 L -14.649,28.6771
 L -15.0141,27.5535 L -16.1955,27.5535 L -15.2397,26.859 L -15.6048,25.7354 L -14.649,26.4298 L -13.6932,25.7354
 L -14.0583,26.859 L -13.1024,27.5535 L -12.7374,28.6771 L -11.5559,28.6771 z
M -12.7374,32.3132 L -13.6932,31.6188 L -12.5117,31.6188 L -11.5559,32.3132 z
M -12.5117,4.44917 L -13.6932,4.44917 L -12.7374,3.75473 L -11.5559,3.75473 z
M -12.7374,-32.9343 L -13.6932,-33.6288 L -12.5117,-33.6288 L -11.5559,-32.9343 z
M -12.1467,26.859 L -12.5117,25.7354 L -11.5559,26.4299 L -11.1908,27.5535 z
M -10.6001,31.6188 L -10.9652,30.4952 L -10.6001,29.3715 L -10.235,30.4952 z
M -9.64429,34.5605 L -10.0094,33.4368 L -9.05357,34.1313 L -8.68848,35.2549 z
M -9.05356,1.93668 L -10.0094,2.63112 L -9.64429,1.50749 L -8.68848,0.813049 z
M -9.64429,-30.6871 L -10.0094,-31.8107 L -9.05356,-31.1163 L -8.68848,-29.9927 z
M -8.68848,19.8521 L -9.6443,19.1576 L -8.46284,19.1576 L -7.50703,19.852 z
M -8.68848,4.44917 L -9.64429,3.75473 L -8.46284,3.75473 L -7.50703,4.44917 z
M -8.46284,-32.9343 L -9.64429,-32.9343 L -8.68848,-33.6288 L -7.50703,-33.6288 z
M -8.46284,-8.01198 L -9.64429,-8.01198 L -8.68848,-8.70642 L -7.50703,-8.70642 z
M -8.68848,-20.4732 L -9.64429,-21.1676 L -8.46284,-21.1676 L -7.50703,-20.4732 z
M -8.09775,-10.5245 L -8.46284,-11.6481 L -7.50703,-10.9537 L -7.14195,-9.83005 z
M -7.50703,22.0993 L -8.46284,22.7937 L -8.09776,21.6701 L -7.14195,20.9757 z
M -7.50703,-18.2259 L -8.46284,-17.5315 L -8.09775,-18.6551 L -7.14195,-19.3495 z
M -3.09306,-31.8107 L -3.45815,-30.6871 L -2.50233,-29.9927 L -3.68378,-29.9927 L -4.04887,-28.869 L -4.41396,-29.9927
 L -5.59541,-29.9927 L -6.55122,-30.6871 L -7.50703,-29.9927 L -7.14195,-31.1163 L -8.09776,-31.8107 L -6.91631,-31.8107
 L -6.55122,-32.9343 L -6.18613,-31.8107 L -5.00468,-31.8107 L -4.04887,-31.1163 z
M -6.18613,2.63112 L -6.55122,3.75473 L -6.91631,2.63112 L -8.09776,2.63112 L -7.14195,1.93668 L -7.50703,0.813049
 L -6.55122,1.50749 L -5.59541,0.813049 L -4.41396,0.813049 L -4.04887,-0.310547 L -3.68378,0.813049 L -2.50233,0.813049
 L -3.45815,1.50749 L -3.09306,2.63112 L -4.04887,1.93668 L -5.00468,2.63112 z
M -6.18613,-28.1746 L -7.14195,-28.869 L -5.96049,-28.869 L -5.00468,-28.1746 z
M -6.55122,19.1576 L -6.91632,18.034 L -6.55122,16.9104 L -6.18614,18.034 z
M -6.55122,-5.76474 L -6.91631,-6.88837 L -6.55122,-8.01199 L -6.18613,-6.88837 z
M -6.55122,-21.1676 L -6.91631,-22.2912 L -6.55122,-23.4149 L -6.18613,-22.2912 z
M -5.59541,22.0993 L -5.96051,20.9757 L -5.00468,21.6701 L -4.6396,22.7937 z
M -5.00468,-10.5245 L -5.96049,-9.83005 L -5.59541,-10.9537 L -4.63959,-11.6481 z
M -5.59541,-18.2259 L -5.96049,-19.3495 L -5.00468,-18.6551 L -4.63959,-17.5315 z
M -4.6396,-8.01198 L -5.59541,-8.70642 L -4.41396,-8.70642 L -3.45815,-8.01198 z
M -4.41397,19.852 L -5.59541,19.8521 L -4.6396,19.1576 L -3.45816,19.1576 z
M -4.63959,-32.9343 L -5.59541,-33.6288 L -4.41396,-33.6288 L -3.45815,-32.9343 z
M -4.41396,-20.4732 L -5.59541,-20.4732 L -4.6396,-21.1676 L -3.45815,-21.1676 z
M -1.91161,-28.1746 L -3.09306,-28.1746 L -2.13725,-28.869 L -0.955795,-28.869 z
M -2.13725,-40.6358 L -3.09306,-41.3302 L -1.91161,-41.3302 L -0.955795,-40.6358 z
M -2.13725,-0.310547 L -3.09306,-1.00499 L -1.91161,-1.00499 L -0.955795,-0.310547 z
M -1.91161,12.1506 L -3.09306,12.1506 L -2.13725,11.4562 L -0.955795,11.4562 z
M -2.50233,6.69643 L -2.86743,5.5728 L -2.50233,4.44917 L -2.13725,5.5728 z
M -2.50233,-33.6288 L -2.86743,-34.7524 L -2.50233,-35.876 L -2.13725,-34.7524 z
M -1.54652,9.63811 L -1.91161,8.51448 L -0.955795,9.20892 L -0.590714,10.3326 z
M -0.955795,1.93668 L -1.91161,2.63112 L -1.54652,1.50749 L -0.590714,0.813049 z
M -1.54652,-5.76474 L -1.91161,-6.88837 L -0.955795,-6.19392 L -0.590714,-5.0703 z
M -1.54652,-30.6871 L -1.91161,-31.8107 L -0.955795,-31.1163 L -0.590714,-29.9927 z
M -0.955795,-38.3885 L -1.91161,-37.6941 L -1.54652,-38.8177 L -0.590714,-39.5122 z
M 0.590714,4.44917 L 0.955795,5.5728 L 0.590714,6.69643 L 1.54652,7.39087 L 0.365082,7.39087 L 0,8.51448
 L -0.365082,7.39087 L -1.54652,7.39087 L -0.590714,6.69643 L -0.955795,5.5728 L -0.590714,4.44917 L -1.54652,3.75473
 L -0.365082,3.75473 L 0,2.63112 L 0.365082,3.75473 L 1.54652,3.75473 z
M 0.590714,-35.876 L 0.955795,-34.7524 L 0.590714,-33.6288 L 1.54652,-32.9343 L 0.365082,-32.9343 L 0,-31.8107
 L -0.365082,-32.9343 L -1.54652,-32.9343 L -0.590714,-33.6288 L -0.955795,-34.7524 L -0.590714,-35.876 L -1.54652,-36.5705
 L -0.365082,-36.5705 L 0,-37.6941 L 0.365082,-36.5705 L 1.54652,-36.5705 z
M 0,-25.9274 L -0.365067,-27.051 L 0,-28.1746 L 0.365067,-27.051 z
M 0,-41.3302 L -0.365067,-42.4538 L 0,-43.5775 L 0.365067,-42.4538 z
M 0,14.3979 L -0.365067,13.2742 L 0,12.1506 L 0.365067,13.2742 z
M 0,-1.00499 L -0.365067,-2.12862 L 0,-3.25223 L 0.365067,-2.12862 z
M 0.955795,1.93668 L 0.590714,0.813049 L 1.54652,1.50749 L 1.91161,2.63112 z
M 1.54652,-30.6871 L 0.590714,-29.9927 L 0.955795,-31.1163 L 1.91161,-31.8107 z
M 0.955795,-38.3885 L 0.590714,-39.5122 L 1.54652,-38.8177 L 1.91161,-37.6941 z
M 0.955795,-22.9857 L 0.590714,-24.1093 L 1.54652,-23.4149 L 1.91161,-22.2912 z
M 1.54652,9.63811 L 0.590714,10.3326 L 0.955795,9.20892 L 1.91161,8.51448 z
M 2.13725,-0.310547 L 0.955795,-0.310547 L 1.91161,-1.00499 L 3.09306,-1.00499 z
M 2.13725,-40.6358 L 0.955795,-40.6358 L 1.91161,-41.3302 L 3.09306,-41.3302 z
M 1.91161,12.1506 L 0.955795,11.4562 L 2.13725,11.4562 L 3.09306,12.1506 z
M 1.91161,-28.1746 L 0.955795,-28.869 L 2.13725,-28.869 L 3.09306,-28.1746 z
M 5.00468,-25.9274 L 4.04887,-25.2329 L 4.41396,-24.1093 L 5.59541,-24.1093 L 4.63959,-23.4149 L 5.00468,-22.2912
 L 4.04887,-22.9857 L 3.09306,-22.2912 L 3.45815,-23.4149 L 2.50233,-24.1093 L 2.13725,-25.2329 L 0.955795,-25.2329
 L 1.91161,-25.9274 L 1.54652,-27.051 L 2.50233,-26.3565 L 3.45815,-27.051 L 3.09306,-25.9274 L 4.04887,-25.2329
 L 5.00468,-25.9274 L 4.63959,-27.051 L 5.59541,-26.3565 L 5.96049,-25.2329 z
M 2.50233,-33.6288 L 2.13725,-34.7524 L 2.50233,-35.876 L 2.86743,-34.7524 z
M 2.50233,6.69643 L 2.13725,5.5728 L 2.50233,4.44917 L 2.86743,5.5728 z
M 6.91631,2.63112 L 6.55122,3.75473 L 6.18613,2.63112 L 5.00468,2.63112 L 4.04887,1.93668 L 3.09306,2.63112
 L 3.45815,1.50749 L 2.50233,0.813049 L 3.68378,0.813049 L 4.04887,-0.310547 L 4.41396,0.813049 L 5.59541,0.813049
 L 6.55122,1.50749 L 7.50703,0.813049 L 7.14195,1.93668 L 8.09776,2.63112 z
M 4.63959,3.75473 L 5.59541,4.44917 L 4.41396,4.44917 L 3.45815,3.75473 z
M 4.41396,-20.4732 L 3.45815,-21.1676 L 4.6396,-21.1676 L 5.59541,-20.4732 z
M 4.6396,-8.01198 L 3.45815,-8.01198 L 4.41396,-8.70642 L 5.59541,-8.70642 z
M 4.41397,19.852 L 3.45816,19.1576 L 4.6396,19.1576 L 5.59541,19.8521 z
M 5.00468,-10.5245 L 4.63959,-11.6481 L 5.59541,-10.9537 L 5.96049,-9.83005 z
M 5.59541,-18.2259 L 4.63959,-17.5315 L 5.00468,-18.6551 L 5.96049,-19.3495 z
M 5.59541,22.0993 L 4.6396,22.7937 L 5.00468,21.6701 L 5.96051,20.9757 z
M 5.96049,-0.310547 L 5.00468,-1.00499 L 6.18613,-1.00499 L 7.14195,-0.310547 z
M 6.55122,-21.1676 L 6.18613,-22.2912 L 6.55122,-23.4149 L 6.91631,-22.2912 z
M 6.55122,-5.76474 L 6.18613,-6.88837 L 6.55122,-8.01199 L 6.91631,-6.88837 z
M 6.55122,19.1576 L 6.18614,18.034 L 6.55122,16.9104 L 6.91632,18.034 z
M 7.50703,-18.2259 L 7.14195,-19.3495 L 8.09775,-18.6551 L 8.46284,-17.5315 z
M 8.09775,-10.5245 L 7.14195,-9.83005 L 7.50703,-10.9537 L 8.46284,-11.6481 z
M 7.50703,22.0993 L 7.14195,20.9757 L 8.09776,21.6701 L 8.46284,22.7937 z
M 8.46284,-8.01198 L 7.50703,-8.70642 L 8.68848,-8.70642 L 9.64429,-8.01198 z
M 8.68848,19.8521 L 7.50703,19.852 L 8.46284,19.1576 L 9.6443,19.1576 z
M 8.68848,4.44917 L 7.50703,4.44917 L 8.46284,3.75473 L 9.64429,3.75473 z
M 8.68848,-20.4732 L 7.50703,-20.4732 L 8.46284,-21.1676 L 9.64429,-21.1676 z
M 8.46284,-32.9343 L 7.50703,-33.6288 L 8.68848,-33.6288 L 9.64429,-32.9343 z
M 9.05356,1.93668 L 8.68848,0.813049 L 9.64429,1.50749 L 10.0094,2.63112 z
M 9.64429,-30.6871 L 8.68848,-29.9927 L 9.05356,-31.1163 L 10.0094,-31.8107 z
M 9.64429,34.5605 L 8.68848,35.2549 L 9.05357,34.1313 L 10.0094,33.4368 z
M 13.4675,22.7937 L 13.1025,23.9174 L 12.7374,22.7937 L 11.5559,22.7937 L 11.1908,23.9174 L 12.1467,24.6118
 L 10.9652,24.6118 L 10.0094,23.9174 L 11.1908,23.9173 L 11.5559,22.7937 L 10.6001,22.0993 L 9.6443,22.7937
 L 10.0094,21.6701 L 9.05357,20.9757 L 10.235,20.9757 L 10.6001,19.8521 L 10.9652,20.9757 L 12.1467,20.9757
 L 13.1024,21.6701 L 14.0583,20.9757 L 13.6932,22.0993 L 14.649,22.7937 z
M 10.6001,31.6188 L 10.235,30.4952 L 10.6001,29.3715 L 10.9652,30.4952 z
M 11.5559,-30.6871 L 11.1908,-31.8107 L 12.1466,-31.1163 L 12.5117,-29.9927 z
M 12.5117,4.44917 L 11.5559,3.75473 L 12.7374,3.75473 L 13.6932,4.44917 z
M 12.7374,-32.9343 L 11.5559,-32.9343 L 12.5117,-33.6288 L 13.6932,-33.6288 z
M 12.5117,19.852 L 11.5559,19.1576 L 12.7374,19.1576 L 13.6932,19.8521 z
M 12.7374,32.3132 L 11.5559,32.3132 L 12.5117,31.6188 L 13.6932,31.6188 z
M 15.2397,24.6118 L 14.0583,24.6118 L 15.0141,23.9174 L 16.1955,23.9174 z
M 15.0141,12.1506 L 14.0583,11.4562 L 15.2397,11.4562 L 16.1955,12.1506 z
M 16.1955,14.3979 L 15.2397,15.0923 L 15.6048,13.9687 L 16.5606,13.2742 z
M 15.6048,22.0993 L 15.2397,20.9757 L 16.1955,21.6701 L 16.5606,22.7937 z
M 17.1513,26.859 L 16.7862,25.7354 L 17.1513,24.6118 L 17.5164,25.7354 z
M 17.1513,11.4562 L 16.7863,10.3326 L 17.1513,9.20892 L 17.5164,10.3326 z
M 18.1071,29.8007 L 17.7421,28.6771 L 18.6979,29.3715 L 19.063,30.4952 z
M 18.1071,14.3979 L 17.7421,13.2742 L 18.6979,13.9687 L 19.063,15.0923 z
M 18.6979,22.0993 L 17.7421,22.7937 L 18.1071,21.6701 L 19.063,20.9757 z
M 19.063,24.6118 L 18.1071,23.9174 L 19.2886,23.9173 L 20.2444,24.6118 z
M 21.7909,29.3715 L 22.156,30.4952 L 21.2002,29.8007 L 20.2444,30.4952 L 20.6095,29.3715 L 19.6537,28.6771
 L 19.2886,27.5535 L 18.1071,27.5535 L 19.063,26.859 L 18.6979,25.7354 L 19.6537,26.4299 L 20.6095,25.7354
 L 20.2444,26.859 L 21.2002,27.5535 L 21.5653,28.6771 L 22.7467,28.6771 z
M 19.2886,12.1506 L 18.1071,12.1506 L 19.063,11.4562 L 20.2444,11.4562 z
M 21.5653,32.3132 L 20.6095,31.6188 L 21.7909,31.6188 L 22.7467,32.3132 z
M 22.7467,34.5605 L 21.7909,35.2549 L 22.156,34.1313 L 23.1118,33.4368 z
M 22.156,26.859 L 21.7909,25.7354 L 22.7467,26.4299 L 23.1118,27.5535 z
M 23.7026,31.6188 L 23.3375,30.4952 L 23.7026,29.3715 L 24.0676,30.4952 z
M 24.6584,34.5605 L 24.2933,33.4368 L 25.2491,34.1313 L 25.6142,35.2549 z
M 25.8398,32.3132 L 24.6584,32.3132 L 25.6142,31.6188 L 26.7956,31.6188 z
M 25.6142,19.8521 L 24.6584,19.1576 L 25.8398,19.1576 L 26.7956,19.8521 z
M 26.7956,22.0993 L 25.8398,22.7937 L 26.2049,21.6701 L 27.1607,20.9757 z
M 28.7073,22.0993 L 28.3422,20.9757 L 29.298,21.6701 L 29.6631,22.7937 z
M 29.8887,19.852 L 28.7073,19.852 L 29.6631,19.1576 L 30.8445,19.1576 z
M -28.7073,22.0993 L -29.6631,22.7937 L -29.298,21.6701 L -28.3422,20.9757 z
M -27.3864,18.034 L -27.7514,19.1576 L -28.1165,18.034 L -27.7514,16.9104 z
M -19.2886,18.034 L -18.1071,18.034 L -17.7421,16.9104 L -18.6979,16.2159 L -17.5164,16.2159 L -17.1513,15.0923
 L -16.7863,16.2159 L -15.6048,16.2159 L -16.5606,16.9104 L -16.1955,18.034 L -16.5606,19.1576 L -15.6048,19.8521
 L -16.7863,19.8521 L -17.1513,20.9757 L -17.5164,19.8521 L -18.6979,19.8521 L -17.7421,19.1576 L -18.1071,18.034
 L -19.2886,18.034 L -19.6537,19.1576 L -20.0188,18.034 L -19.6537,16.9104 z
M -12.1467,24.6118 L -11.1908,23.9174 L -11.5559,22.7937 L -12.7374,22.7937 L -13.1025,23.9174 L -13.4675,22.7937
 L -14.649,22.7937 L -13.6932,22.0993 L -14.0583,20.9757 L -13.1024,21.6701 L -12.1467,20.9757 L -10.9652,20.9757
 L -10.6001,19.8521 L -10.235,20.9757 L -9.05357,20.9757 L -10.0094,21.6701 L -9.6443,22.7937 L -10.6001,22.0993
 L -11.5559,22.7937 L -11.1908,23.9173 L -10.0094,23.9174 L -10.9652,24.6118 z
M -11.5559,1.50749 L -11.1908,2.63112 L -12.1466,1.93668 L -12.5117,0.813049 z
M -11.5559,-30.6871 L -12.5117,-29.9927 L -12.1466,-31.1163 L -11.1908,-31.8107 z
M -12.5117,19.852 L -13.6932,19.8521 L -12.7374,19.1576 L -11.5559,19.1576 z
M -10.235,5.5728 L -10.6001,6.69643 L -10.9652,5.5728 L -10.6001,4.44917 z
M -9.6443,32.3132 L -8.68849,31.6188 L -7.50703,31.6188 L -8.46284,32.3132 z
M -8.09776,-16.4079 L -6.91631,-16.4079 L -6.55122,-17.5315 L -6.18613,-16.4079 L -5.00468,-16.4079 L -5.96049,-15.7134
 L -5.59541,-14.5898 L -4.41396,-14.5898 L -4.04887,-15.7134 L -3.68378,-14.5898 L -4.04887,-13.4662 L -4.41396,-14.5898
 L -5.59541,-14.5898 L -5.96049,-13.4662 L -5.00468,-12.7717 L -6.18613,-12.7717 L -6.55122,-11.6481 L -6.91631,-12.7717
 L -8.09776,-12.7717 L -7.14195,-13.4662 L -7.50703,-14.5898 L -7.14195,-15.7134 z
M -5.96049,-0.310547 L -7.14195,-0.310547 L -6.18613,-1.00499 L -5.00468,-1.00499 z
M -5.00468,-25.9274 L -4.04887,-25.2329 L -3.09306,-25.9274 L -3.45815,-27.051 L -2.50233,-26.3565 L -1.54652,-27.051
 L -1.91161,-25.9274 L -0.955795,-25.2329 L -2.13725,-25.2329 L -2.50233,-24.1093 L -3.45815,-23.4149 L -3.09306,-22.2912
 L -4.04887,-22.9857 L -5.00468,-22.2912 L -4.63959,-23.4149 L -5.59541,-24.1093 L -4.41396,-24.1093 L -4.04887,-25.2329
 L -5.00468,-25.9274 L -5.96049,-25.2329 L -5.59541,-26.3565 L -4.63959,-27.051 z
M -4.63959,3.75473 L -3.45815,3.75473 L -4.41396,4.44917 L -5.59541,4.44917 z
M -1.91161,-22.2912 L -1.54652,-23.4149 L -0.590714,-24.1093 L -0.955795,-22.9857 z
M -1.54652,-8.01198 L -0.590714,-8.70642 L -0.955811,-9.83005 L -2.13725,-9.83005 L -2.50233,-8.70642 L -2.86743,-9.83005
 L -4.04887,-9.83005 L -3.09306,-10.5245 L -3.45815,-11.6481 L -2.50233,-10.9537 L -1.54652,-11.6481 L -1.91161,-12.7717
 L -3.09306,-12.7717 L -2.13725,-13.4662 L -2.50233,-14.5898 L -2.13725,-15.7134 L -3.09306,-16.4079 L -1.91161,-16.4079
 L -1.54652,-17.5315 L -2.50233,-18.2259 L -3.45815,-17.5315 L -3.09306,-18.6551 L -4.04887,-19.3495 L -2.86743,-19.3495
 L -2.50233,-20.4732 L -2.13725,-19.3495 L -0.955811,-19.3495 L -0.590714,-20.4732 L -1.54652,-21.1676 L -0.365082,-21.1676
 L 0,-22.2912 L 0.365082,-21.1676 L 1.54652,-21.1676 L 0.590714,-20.4732 L 0.955811,-19.3495 L 2.13725,-19.3495
 L 2.50233,-20.4732 L 2.86743,-19.3495 L 4.04887,-19.3495 L 3.09306,-18.6551 L 3.45815,-17.5315 L 2.50233,-18.2259
 L 1.54652,-17.5315 L 1.91161,-16.4079 L 3.09306,-16.4079 L 2.13725,-15.7134 L 2.50233,-14.5898 L 2.13725,-13.4662
 L 3.09306,-12.7717 L 1.91161,-12.7717 L 1.54652,-11.6481 L 2.50233,-10.9537 L 3.45815,-11.6481 L 3.09306,-10.5245
 L 4.04887,-9.83005 L 2.86743,-9.83005 L 2.50233,-8.70642 L 2.13725,-9.83005 L 0.955811,-9.83005 L 0.590714,-8.70642
 L 1.54652,-8.01198 L 0.365082,-8.01198 L 0,-6.88837 L -0.365082,-8.01198 z
M 1.54652,-5.76474 L 0.590714,-5.0703 L 0.955795,-6.19392 L 1.91161,-6.88837 z
M 5.00468,-28.1746 L 5.96049,-28.869 L 7.14195,-28.869 L 6.18613,-28.1746 z
M 4.63959,-32.9343 L 3.45815,-32.9343 L 4.41396,-33.6288 L 5.59541,-33.6288 z
M 6.55122,-32.9343 L 6.91631,-31.8107 L 8.09776,-31.8107 L 7.14195,-31.1163 L 7.50703,-29.9927 L 6.55122,-30.6871
 L 5.59541,-29.9927 L 4.41396,-29.9927 L 4.04887,-28.869 L 3.68378,-29.9927 L 2.50233,-29.9927 L 3.45815,-30.6871
 L 3.09306,-31.8107 L 4.04887,-31.1163 L 5.00468,-31.8107 L 6.18613,-31.8107 z
M 4.41396,-14.5898 L 5.59541,-14.5898 L 5.96049,-15.7134 L 5.00468,-16.4079 L 6.18613,-16.4079 L 6.55122,-17.5315
 L 6.91631,-16.4079 L 8.09776,-16.4079 L 7.14195,-15.7134 L 7.50703,-14.5898 L 7.14195,-13.4662 L 8.09776,-12.7717
 L 6.91631,-12.7717 L 6.55122,-11.6481 L 6.18613,-12.7717 L 5.00468,-12.7717 L 5.96049,-13.4662 L 5.59541,-14.5898
 L 4.41396,-14.5898 L 4.04887,-13.4662 L 3.68378,-14.5898 L 4.04887,-15.7134 z
M 9.41866,-14.5898 L 9.05356,-13.4662 L 8.68848,-14.5898 L 9.05356,-15.7134 z
M 8.68849,31.6188 L 9.6443,32.3132 L 8.46284,32.3132 L 7.50703,31.6188 z
M 10.6001,6.69643 L 10.235,5.5728 L 10.6001,4.44917 L 10.9652,5.5728 z
M 12.1467,26.859 L 11.1908,27.5535 L 11.5559,26.4299 L 12.5117,25.7354 z
M 11.1908,2.63112 L 11.5559,1.50749 L 12.5117,0.813049 L 12.1466,1.93668 z
M 13.6932,29.3715 L 14.0583,30.4952 L 13.1024,29.8007 L 12.1466,30.4952 L 12.5117,29.3715 L 11.5559,28.6771
 L 12.7374,28.6771 L 13.1024,27.5535 L 14.0583,26.859 L 13.6932,25.7354 L 14.649,26.4298 L 15.6048,25.7354
 L 15.2397,26.859 L 16.1955,27.5535 L 15.0141,27.5535 L 14.649,28.6771 z
M 14.649,16.9104 L 15.0141,18.034 L 14.649,19.1576 L 14.2839,18.034 z
M 16.1955,29.8007 L 15.2397,30.4951 L 15.6048,29.3715 L 16.5606,28.6771 z
M 19.6537,19.1576 L 19.2886,18.034 L 18.1071,18.034 L 17.7421,19.1576 L 18.6979,19.8521 L 17.5164,19.8521
 L 17.1513,20.9757 L 16.7863,19.8521 L 15.6048,19.8521 L 16.5606,19.1576 L 16.1955,18.034 L 16.5606,16.9104
 L 15.6048,16.2159 L 16.7863,16.2159 L 17.1513,15.0923 L 17.5164,16.2159 L 18.6979,16.2159 L 17.7421,16.9104
 L 18.1071,18.034 L 19.2886,18.034 L 19.6537,16.9104 L 20.0188,18.034 z
M 21.5653,22.7937 L 21.2002,23.9174 L 20.8351,22.7937 L 19.6537,22.7937 L 20.6095,22.0993 L 20.2444,20.9757
 L 21.2002,21.6701 L 22.156,20.9757 L 23.3375,20.9757 L 23.7026,19.852 L 24.0676,20.9757 L 25.2491,20.9757
 L 24.2933,21.6701 L 24.6584,22.7937 L 23.7026,22.0993 L 22.7467,22.7937 z
M 21.7909,19.8521 L 20.6095,19.8521 L 21.5653,19.1576 L 22.7467,19.1576 z
M 27.7514,19.1576 L 27.3864,18.034 L 27.7514,16.9104 L 28.1165,18.034 z
M 30.6189,-14.5898 L 31.8003,-14.5898 L 32.1654,-15.7134 L 31.2096,-16.4079 L 32.3911,-16.4079 L 32.7561,-17.5315
 L 31.8003,-18.2259 L 30.8445,-17.5315 L 31.2096,-18.6551 L 30.2538,-19.3495 L 31.4352,-19.3495 L 31.8003,-20.4732
 L 32.1654,-19.3495 L 33.3469,-19.3495 L 33.7119,-20.4732 L 32.7561,-21.1676 L 33.9376,-21.1676 L 34.3027,-22.2912
 L 33.3469,-22.9857 L 32.3911,-22.2912 L 32.7561,-23.4148 L 31.8003,-24.1093 L 30.8445,-23.4148 L 31.2096,-22.2912
 L 30.2538,-22.9857 L 29.298,-22.2912 L 29.6631,-21.1676 L 30.8445,-21.1676 L 29.8887,-20.4732 L 28.7073,-20.4732
 L 29.6631,-21.1676 L 29.298,-22.2912 L 29.6631,-23.4148 L 28.7073,-24.1093 L 29.8887,-24.1093 L 30.2538,-25.2329
 L 29.298,-25.9274 L 28.3422,-25.2329 L 28.7073,-26.3565 L 27.7514,-27.051 L 26.7956,-26.3565 L 27.1607,-25.2329
 L 26.2049,-25.9273 L 25.2491,-25.2329 L 25.6142,-24.1093 L 26.7956,-24.1093 L 25.8398,-23.4149 L 26.2049,-22.2912
 L 25.2491,-22.9857 L 24.2933,-22.2912 L 24.6584,-23.4149 L 23.7026,-24.1093 L 22.7468,-23.4148 L 23.1118,-22.2912
 L 22.156,-22.9857 L 21.2002,-22.2912 L 21.5653,-21.1676 L 22.7467,-21.1676 L 21.7909,-20.4732 L 22.156,-19.3495
 L 23.3375,-19.3495 L 23.7026,-20.4732 L 24.0677,-19.3495 L 25.2491,-19.3495 L 24.2933,-18.6551 L 24.6584,-17.5315
 L 23.7026,-18.2259 L 22.7468,-17.5315 L 23.1118,-16.4079 L 24.2933,-16.4079 L 23.3375,-15.7134 L 23.7026,-14.5898
 L 24.884,-14.5898 L 25.2491,-15.7134 L 25.6142,-14.5898 L 25.2491,-13.4662 L 24.884,-14.5898 L 23.7026,-14.5898
 L 22.7467,-15.2842 L 21.7909,-14.5898 L 22.156,-15.7134 L 21.2002,-16.4079 L 20.2444,-15.7134 L 20.6095,-14.5898
 L 19.6537,-15.2842 L 18.6979,-14.5898 L 19.063,-15.7134 L 18.1071,-16.4079 L 19.2886,-16.4079 L 19.6537,-17.5315
 L 18.6979,-18.2259 L 17.7421,-17.5315 L 18.1071,-18.6551 L 17.1513,-19.3495 L 16.1955,-18.6551 L 16.5606,-17.5315
 L 15.6048,-18.2259 L 14.649,-17.5315 L 15.0141,-16.4079 L 16.1955,-16.4079 L 15.2397,-15.7134 L 15.6048,-14.5898
 L 14.649,-15.2842 L 13.6932,-14.5898 L 14.0583,-15.7134 L 13.1025,-16.4079 L 12.1467,-15.7134 L 12.5117,-14.5898
 L 11.5559,-15.2842 L 10.6001,-14.5898 L 10.9652,-13.4662 L 12.1467,-13.4662 L 11.1908,-12.7717 L 11.5559,-11.6481
 L 12.7374,-11.6481 L 13.1025,-12.7717 L 13.4675,-11.6481 L 14.649,-11.6481 L 13.6932,-10.9537 L 14.0583,-9.83005
 L 13.1024,-10.5245 L 12.1467,-9.83005 L 12.5117,-8.70642 L 13.6932,-8.70642 L 12.7374,-8.01198 L 13.1025,-6.88837
 L 14.2839,-6.88837 L 14.649,-8.01199 L 15.0141,-6.88837 L 16.1955,-6.88837 L 16.5606,-8.01198 L 15.6048,-8.70642
 L 16.7863,-8.70642 L 17.1513,-9.83005 L 17.5164,-8.70642 L 18.6979,-8.70642 L 17.7421,-8.01199 L 18.1071,-6.88837
 L 19.2886,-6.88837 L 19.6537,-8.01198 L 20.0188,-6.88837 L 21.2002,-6.88837 L 22.156,-6.19394 L 23.1118,-6.88837
 L 22.7467,-5.76474 L 21.7909,-5.07031 L 22.156,-6.19392 L 21.2002,-6.88837 L 20.2444,-6.19392 L 20.6095,-5.07031
 L 19.6537,-5.76474 L 18.6979,-5.0703 L 19.063,-3.94669 L 20.2444,-3.94669 L 19.2886,-3.25224 L 19.6537,-2.12862
 L 18.6979,-2.82306 L 17.7421,-2.12862 L 18.1071,-3.25224 L 17.1513,-3.94669 L 16.1955,-3.25224 L 16.5606,-2.12862
 L 15.6048,-2.82306 L 14.649,-2.12862 L 15.0141,-1.005 L 16.1955,-1.005 L 15.2397,-0.310562 L 15.6048,0.813049
 L 16.7862,0.813049 L 17.1513,-0.310562 L 17.5164,0.813049 L 18.6979,0.813049 L 17.7421,1.50749 L 18.1071,2.63112
 L 17.1513,1.93668 L 16.1955,2.63112 L 16.5606,3.75473 L 17.7421,3.75473 L 16.7863,4.44917 L 17.1513,5.5728
 L 18.3328,5.5728 L 18.6979,4.44917 L 19.063,5.5728 L 20.2444,5.5728 L 20.6095,4.44917 L 19.6537,3.75473
 L 20.8351,3.75473 L 21.2002,2.6311 L 21.5653,3.75473 L 22.7467,3.75473 L 21.7909,4.44917 L 22.156,5.5728
 L 23.3375,5.5728 L 23.7026,4.44917 L 24.0677,5.5728 L 25.2491,5.5728 L 25.6142,4.44917 L 24.6584,3.75473
 L 25.8398,3.75475 L 26.2049,2.63112 L 25.2491,1.93668 L 24.2933,2.63112 L 24.6584,1.50749 L 23.7026,0.813049
 L 24.884,0.813049 L 25.2491,-0.310562 L 25.6142,0.813049 L 26.7956,0.813049 L 27.1607,-0.310562 L 26.2049,-1.00499
 L 27.3864,-1.005 L 27.7514,-2.12862 L 28.1165,-1.005 L 29.298,-1.00499 L 28.3422,-0.310562 L 28.7073,0.813049
 L 29.8887,0.813049 L 30.2538,-0.310562 L 30.6189,0.813049 L 31.8003,0.813049 L 30.8445,1.50749 L 31.2096,2.6311
 L 30.2538,1.93668 L 29.298,2.63112 L 29.6631,3.75473 L 30.8445,3.75473 L 29.8887,4.44917 L 30.2538,5.5728
 L 31.4352,5.5728 L 31.8003,4.44917 L 32.1654,5.5728 L 33.3469,5.5728 L 33.7119,4.44917 L 32.7561,3.75473
 L 33.9376,3.75475 L 34.3027,2.63112 L 34.6678,3.75475 L 35.8492,3.75475 L 34.8934,4.44917 L 35.2585,5.5728
 L 36.4399,5.5728 L 36.805,4.44917 L 37.1701,5.5728 L 38.3516,5.5728 L 38.7166,4.44917 L 37.7608,3.75475
 L 38.9423,3.75475 L 39.3074,2.63112 L 38.3516,1.93668 L 37.3958,2.63112 L 37.7608,1.50749 L 36.805,0.813049
 L 36.4399,-0.310562 L 35.2585,-0.310547 L 36.2143,-1.00499 L 37.3957,-1.00499 L 36.4399,-0.310562 L 36.805,0.813049
 L 37.9865,0.813049 L 38.3516,-0.310562 L 38.7166,0.813049 L 39.8981,0.813049 L 40.2632,-0.310562 L 39.3074,-1.00499
 L 40.4888,-1.005 L 40.8539,-2.12862 L 39.8981,-2.82306 L 38.9423,-2.12862 L 39.3074,-3.25224 L 38.3516,-3.94667
 L 37.3958,-3.25224 L 37.7608,-2.12862 L 36.805,-2.82304 L 35.8492,-2.12862 L 36.2143,-3.25224 L 35.2585,-3.94667
 L 36.4399,-3.94667 L 36.805,-5.0703 L 35.8492,-5.76474 L 34.8934,-5.0703 L 35.2585,-6.19392 L 34.3027,-6.88837
 L 35.4841,-6.88837 L 35.8492,-8.01199 L 36.2143,-6.88837 L 37.3958,-6.88837 L 37.7608,-8.01199 L 36.805,-8.70644
 L 37.9865,-8.70644 L 38.3516,-9.83005 L 38.7166,-8.70644 L 39.8981,-8.70644 L 38.9423,-8.01199 L 39.3074,-6.88837
 L 40.4888,-6.88837 L 40.8539,-8.01199 L 41.219,-6.88837 L 42.4004,-6.88837 L 42.7655,-8.01199 L 41.8097,-8.70642
 L 42.9912,-8.70642 L 43.3562,-9.83005 L 42.4004,-10.5245 L 41.4446,-9.83005 L 41.8097,-10.9537 L 40.8539,-11.6481
 L 42.0354,-11.6481 L 42.4004,-12.7717 L 42.7655,-11.6481 L 43.947,-11.6481 L 44.3121,-12.7717 L 43.3562,-13.4662
 L 44.5377,-13.4662 L 44.9028,-14.5898 L 43.947,-15.2842 L 42.9912,-14.5898 L 43.3562,-15.7134 L 42.4004,-16.4079
 L 41.4446,-15.7134 L 41.8097,-14.5898 L 40.8539,-15.2842 L 39.8981,-14.5898 L 40.2632,-15.7134 L 39.3074,-16.4079
 L 40.4888,-16.4079 L 40.8539,-17.5315 L 39.8981,-18.2259 L 38.9423,-17.5315 L 39.3074,-18.6551 L 38.3516,-19.3495
 L 37.3958,-18.6551 L 37.7608,-17.5315 L 36.805,-18.2259 L 35.8492,-17.5315 L 36.2143,-16.4079 L 37.3958,-16.4079
 L 36.4399,-15.7134 L 36.805,-14.5898 L 35.8492,-15.2842 L 34.8934,-14.5898 L 35.2585,-15.7134 L 34.3027,-16.4079
 L 33.3469,-15.7134 L 33.712,-14.5898 L 32.7561,-15.2842 L 31.8003,-14.5898 L 30.6189,-14.5898 L 30.2538,-13.4662
 L 29.8887,-14.5898 L 30.2538,-15.7134 z
M 24.2933,-3.25224 L 24.6584,-2.12862 L 23.7026,-2.82306 L 22.7467,-2.12862 L 23.1118,-3.25224 L 22.156,-3.94669
 L 23.3375,-3.94669 L 23.7026,-5.07031 L 24.6584,-5.76474 L 24.2933,-6.88837 L 25.2491,-6.19392 L 26.2049,-6.88837
 L 25.8398,-5.76474 L 26.7956,-5.0703 L 25.6142,-5.0703 L 25.2491,-3.94669 z
M 15.0141,-12.7717 L 14.0583,-13.4662 L 15.2397,-13.4662 L 16.1955,-12.7717 z
M 16.1955,-10.5245 L 15.2397,-9.83005 L 15.6048,-10.9537 L 16.5606,-11.6481 z
M 17.1513,-13.4662 L 16.7863,-14.5898 L 17.1513,-15.7134 L 17.5164,-14.5898 z
M 18.1071,-10.5245 L 17.7421,-11.6481 L 18.6979,-10.9537 L 19.063,-9.83005 z
M 19.2886,-12.7717 L 18.1071,-12.7717 L 19.063,-13.4662 L 20.2444,-13.4662 z
M 19.063,-0.310562 L 18.1071,-1.00499 L 19.2886,-1.005 L 20.2444,-0.310562 z
M 20.2444,1.93668 L 19.2886,2.6311 L 19.6537,1.50749 L 20.6095,0.813049 z
M 23.1118,-12.7717 L 22.7468,-11.6481 L 23.7026,-10.9537 L 24.6584,-11.6481 L 24.2933,-10.5245 L 25.2491,-9.83005
 L 24.0677,-9.83005 L 23.7026,-8.70642 L 23.3375,-9.83005 L 22.156,-9.83005 L 21.2002,-10.5245 L 20.2444,-9.83005
 L 20.6095,-10.9537 L 19.6537,-11.6481 L 20.8351,-11.6481 L 21.2002,-12.7717 L 21.5653,-11.6481 L 22.7467,-11.6481
 L 23.1118,-12.7717 L 22.156,-13.4662 L 23.3375,-13.4662 L 24.2933,-12.7717 z
M 21.5653,-8.01198 L 20.6095,-8.70642 L 21.7909,-8.70642 L 22.7468,-8.01198 z
M 21.2002,-1.00499 L 20.8351,-2.12862 L 21.2002,-3.25224 L 21.5653,-2.12862 z
M 22.156,1.93668 L 21.7909,0.813049 L 22.7467,1.50749 L 23.1118,2.63112 z
M 23.3375,-0.310562 L 22.156,-0.310562 L 23.1118,-1.00499 L 24.2933,-1.00499 z
M 25.6142,-20.4732 L 24.6584,-21.1676 L 25.8398,-21.1676 L 26.7956,-20.4732 z
M 25.8398,-8.01199 L 24.6584,-8.01199 L 25.6142,-8.70642 L 26.7956,-8.70642 z
M 26.2049,-10.5245 L 25.8398,-11.6481 L 26.7956,-10.9537 L 27.1607,-9.83005 z
M 26.7956,-18.2259 L 25.8398,-17.5315 L 26.2049,-18.6551 L 27.1607,-19.3495 z
M 27.7514,-21.1676 L 27.3864,-22.2912 L 27.7514,-23.4149 L 28.1165,-22.2912 z
M 27.7514,-5.76474 L 27.3864,-6.88837 L 27.7514,-8.01199 L 28.1165,-6.88837 z
M 28.7073,-18.2259 L 28.3422,-19.3495 L 29.298,-18.6551 L 29.6631,-17.5315 z
M 29.298,-10.5245 L 28.3422,-9.83005 L 28.7073,-10.9537 L 29.6631,-11.6481 z
M 28.7073,-2.82306 L 28.3422,-3.94669 L 29.298,-3.25224 L 29.6631,-2.12862 z
M 32.7561,-5.76474 L 31.8003,-5.0703 L 32.1654,-3.94669 L 33.3469,-3.94669 L 32.3911,-3.25224 L 32.7561,-2.12862
 L 31.8003,-2.82306 L 30.8445,-2.12862 L 31.2096,-3.25224 L 30.2538,-3.94669 L 29.8887,-5.07031 L 28.7073,-5.07031
 L 29.6631,-5.76474 L 29.298,-6.88837 L 30.2538,-6.19392 L 31.2096,-6.88837 L 30.8445,-5.76474 L 31.8003,-5.07031
 L 32.7561,-5.76474 L 32.3911,-6.88837 L 33.3469,-6.19392 L 33.7119,-5.0703 z
M 29.6631,-8.01199 L 28.7073,-8.70642 L 29.8887,-8.70642 L 30.8445,-8.01199 z
M 34.8934,-10.9537 L 35.2585,-9.83005 L 34.3027,-10.5245 L 33.3469,-9.83005 L 32.1654,-9.83005 L 31.8003,-8.70642
 L 31.4352,-9.83005 L 30.2538,-9.83005 L 31.2096,-10.5245 L 30.8445,-11.6481 L 31.8003,-10.9537 L 32.7561,-11.6481
 L 33.9376,-11.6481 L 34.3027,-12.7717 L 34.6678,-11.6481 L 35.8492,-11.6481 z
M 32.3911,-12.7717 L 31.2096,-12.7717 L 32.1654,-13.4662 L 33.3469,-13.4662 z
M 32.1654,-0.310562 L 31.2096,-1.00499 L 32.3911,-1.00499 L 33.3469,-0.310562 z
M 33.9376,-8.01199 L 32.7561,-8.01199 L 33.7119,-8.70642 L 34.8934,-8.70642 z
M 34.3027,-1.00499 L 33.9376,-2.12862 L 34.3027,-3.25224 L 34.6678,-2.12862 z
M 35.2585,1.93668 L 34.8934,0.813049 L 35.8492,1.50749 L 36.2143,2.63112 z
M 36.2143,-12.7717 L 35.2585,-13.4662 L 36.4399,-13.4662 L 37.3958,-12.7717 z
M 37.3957,-10.5245 L 36.4399,-9.83005 L 36.805,-10.9537 L 37.7608,-11.6481 z
M 38.3516,-13.4662 L 37.9865,-14.5898 L 38.3515,-15.7134 L 38.7166,-14.5898 z
M 39.3074,-10.5245 L 38.9423,-11.6481 L 39.8981,-10.9537 L 40.2632,-9.83005 z
M 40.4888,-12.7717 L 39.3074,-12.7717 L 40.2632,-13.4662 L 41.4446,-13.4662 z
M 26.7956,-2.82306 L 25.8398,-2.12862 L 26.2049,-3.25224 L 27.1607,-3.94669 z
M 28.3422,-13.4662 L 29.298,-12.7717 L 28.1165,-12.7717 L 27.7514,-11.6481 L 27.3864,-12.7717 L 26.2049,-12.7717
 L 27.1607,-13.4662 L 26.7956,-14.5898 L 27.1607,-15.7134 L 26.2049,-16.4079 L 27.3864,-16.4079 L 27.7514,-17.5315
 L 28.1165,-16.4079 L 29.298,-16.4079 L 28.3422,-15.7134 L 28.7073,-14.5898 z
M 32.3911,2.6311 L 32.7561,1.50749 L 33.7119,0.813049 L 33.3469,1.93668 z
" stroke="black" fill="lightgray" stroke-width="0.5"/>
</svg>
