<?xml version="1.0" standalone="no"?>
<!DOCTYPE svg PUBLIC "-//W3C//DTD SVG 1.1//EN" "http://www.w3.org/Graphics/SVG/1.1/DTD/svg11.dtd">
<svg width="46mm" height="44mm" viewBox="-23 -24 46 44" xmlns="http://www.w3.org/2000/svg" version="1.1">
<title>OpenSCAD Model</title>
<path d="
M 4.52678,-9.67477 L 6.07332,-9.67477 L 6.55121,-11.1456 L 5.30005,-12.0546 L 4.04887,-11.1456 L 4.52678,-12.6165
 L 3.2756,-13.5255 L 4.82214,-13.5255 L 5.30005,-14.9963 L 5.77795,-13.5255 L 7.32448,-13.5255 L 7.80238,-14.9963
 L 6.55122,-15.9053 L 8.09775,-15.9053 L 8.57565,-17.3762 L 7.32449,-18.2852 L 6.07332,-17.3762 L 6.55122,-18.847
 L 5.30005,-19.7561 L 4.04887,-18.847 L 4.52678,-17.3762 L 3.2756,-18.2852 L 2.02443,-17.3762 L 2.50233,-18.847
 L 1.25116,-19.7561 L 2.7977,-19.7561 L 3.2756,-21.2269 L 2.02443,-22.1359 L 0.773254,-21.2269 L 1.25116,-22.6978
 L 0,-23.6068 L -1.25116,-22.6978 L -0.773254,-21.2269 L -2.02443,-22.1359 L -3.2756,-21.2269 L -2.7977,-19.7561
 L -1.25116,-19.7561 L -2.50233,-18.847 L -2.02443,-17.3762 L -3.2756,-18.2852 L -4.52678,-17.3762 L -4.04887,-18.847
 L -5.30005,-19.7561 L -6.55122,-18.847 L -6.07332,-17.3762 L -7.32449,-18.2852 L -8.57565,-17.3762 L -8.09775,-15.9053
 L -6.55122,-15.9053 L -7.80238,-14.9963 L -7.32448,-13.5255 L -5.77795,-13.5255 L -5.30005,-14.9963 L -4.82214,-13.5255
 L -3.2756,-13.5255 L -4.52678,-12.6165 L -4.04887,-11.1456 L -5.30005,-12.0546 L -6.55121,-11.1456 L -6.07332,-9.67477
 L -4.52678,-9.67477 L -5.77795,-8.76575 L -5.30005,-7.29489 L -6.55122,-8.20392 L -7.8024,-7.29489 L -7.32449,-8.76573
 L -8.57567,-9.67476 L -9.82684,-8.76573 L -9.34892,-7.29489 L -10.6001,-8.20392 L -11.8513,-7.29489 L -11.3734,-5.82405
 L -9.82684,-5.82405 L -11.078,-4.91502 L -12.6246,-4.91502 L -11.3734,-5.82405 L -11.8513,-7.29489 L -11.3734,-8.76573
 L -12.6245,-9.67476 L -11.078,-9.67476 L -10.6001,-11.1456 L -11.8513,-12.0546 L -13.1024,-11.1456 L -12.6245,-12.6165
 L -13.8757,-13.5255 L -15.1269,-12.6165 L -14.649,-11.1456 L -15.9002,-12.0546 L -17.1513,-11.1456 L -16.6734,-9.67477
 L -15.1269,-9.67477 L -16.3781,-8.76573 L -15.9002,-7.29489 L -17.1513,-8.20392 L -18.4025,-7.29489 L -17.9246,-8.76573
 L -19.1758,-9.67476 L -20.4269,-8.76573 L -19.949,-7.29489 L -21.2002,-8.20392 L -22.4514,-7.29489 L -21.9735,-5.82405
 L -20.4269,-5.82405 L -21.6781,-4.91502 L -21.2002,-3.44418 L -19.6537,-3.44418 L -19.1758,-4.91502 L -18.6979,-3.44418
 L -17.1513,-3.44418 L -18.4025,-2.53514 L -17.9246,-1.0643 L -19.1758,-1.97333 L -20.4269,-1.0643 L -19.949,0.406525
 L -18.4025,0.406525 L -19.6537,1.31555 L -19.1758,2.78639 L -17.6292,2.78639 L -17.1513,1.31555 L -16.6734,2.78639
 L -15.1269,2.78639 L -14.649,1.31555 L -15.9002,0.406525 L -14.3536,0.406525 L -13.8757,-1.0643 L -12.6246,-1.97334
 L -13.1025,-3.44418 L -11.8513,-2.53516 L -11.3734,-1.0643 L -12.6245,-1.97334 L -13.8757,-1.0643 L -13.3978,0.406525
 L -11.8513,0.406525 L -13.1024,1.31555 L -12.6245,2.78639 L -11.078,2.78639 L -10.6001,1.31555 L -10.1222,2.78639
 L -8.57567,2.78639 L -8.09776,1.31555 L -9.34894,0.406525 L -7.8024,0.406525 L -7.32449,-1.06432 L -8.57567,-1.97333
 L -9.82684,-1.0643 L -9.34894,-2.53514 L -10.6001,-3.44418 L -9.05357,-3.44418 L -8.57567,-4.91502 L -8.09776,-3.44418
 L -6.55122,-3.44418 L -6.07332,-4.91502 L -7.32449,-5.82405 L -5.77795,-5.82405 L -4.52678,-4.91502 L -6.07332,-4.91502
 L -6.55121,-3.44417 L -5.30005,-2.53514 L -4.04887,-3.44418 L -4.52678,-1.97333 L -3.2756,-1.0643 L -4.82214,-1.0643
 L -5.30005,0.406525 L -5.77795,-1.0643 L -7.32448,-1.0643 L -7.80238,0.406525 L -6.55122,1.31555 L -8.09775,1.31555
 L -8.57565,2.78639 L -7.32449,3.69542 L -6.07332,2.78639 L -6.55122,4.25723 L -5.30005,5.16626 L -4.04887,4.25723
 L -4.52678,2.78639 L -3.2756,3.69543 L -2.02443,2.78639 L -2.50233,4.25723 L -1.25116,5.16626 L -2.7977,5.16626
 L -3.2756,6.6371 L -2.02443,7.54614 L -0.773254,6.6371 L -1.25116,8.10796 L -2.50235,9.01698 L -2.02444,7.54614
 L -3.27562,6.63712 L -4.52678,7.54614 L -4.04887,9.01698 L -5.30005,8.10796 L -6.55122,9.01698 L -6.07332,7.54614
 L -7.32449,6.63712 L -5.77795,6.63712 L -5.30005,5.16628 L -6.55122,4.25725 L -7.8024,5.16628 L -7.32449,3.69543
 L -8.57567,2.78641 L -9.82684,3.69543 L -9.34892,5.16628 L -10.6001,4.25725 L -11.8513,5.16628 L -11.3734,6.63712
 L -9.82684,6.63712 L -11.078,7.54614 L -10.6001,9.01698 L -9.05357,9.01698 L -8.57567,7.54614 L -8.09776,9.017
 L -8.57567,10.4878 L -9.05357,9.017 L -10.6001,9.017 L -11.8513,8.10796 L -13.1024,9.01698 L -12.6245,7.54614
 L -13.8757,6.63712 L -15.1269,7.54614 L -14.649,9.01698 L -15.9002,8.10796 L -17.1513,9.01698 L -16.6734,10.4878
 L -15.1269,10.4878 L -16.3781,11.3969 L -15.9002,12.8677 L -14.3536,12.8677 L -13.8757,11.3969 L -13.3978,12.8677
 L -11.8513,12.8677 L -13.1024,13.7767 L -12.6245,15.2476 L -13.8757,14.3385 L -15.1269,15.2476 L -14.649,16.7184
 L -13.1024,16.7184 L -14.3536,17.6275 L -13.8757,19.0983 L -12.3292,19.0983 L -11.8513,17.6274 L -11.3734,19.0983
 L -9.82684,19.0983 L -9.34894,17.6274 L -10.6001,16.7184 L -9.05357,16.7184 L -8.57567,15.2476 L -8.09776,16.7184
 L -6.55122,16.7184 L -7.8024,17.6275 L -7.32449,19.0983 L -5.77795,19.0983 L -5.30005,17.6274 L -4.82214,19.0983
 L -3.2756,19.0983 L -2.7977,17.6274 L -4.04887,16.7184 L -2.50233,16.7184 L -2.02444,15.2476 L -3.27562,14.3385
 L -4.52678,15.2476 L -4.04887,13.7767 L -5.30005,12.8677 L -6.55122,13.7767 L -6.07332,15.2476 L -7.32449,14.3385
 L -7.8024,12.8677 L -6.55122,13.7767 L -5.30006,12.8677 L -5.77795,11.3969 L -7.32449,11.3969 L -6.07332,10.4878
 L -4.52678,10.4878 L -5.77795,11.3969 L -5.30005,12.8677 L -3.75352,12.8677 L -3.2756,11.3969 L -2.7977,12.8677
 L -1.25117,12.8677 L -0.77327,11.3969 L -2.02444,10.4878 L -0.477905,10.4878 L 0,9.01698 L 0.477905,10.4878
 L 2.02444,10.4878 L 0.77327,11.3969 L 1.25117,12.8677 L 2.7977,12.8677 L 3.2756,11.3969 L 3.75352,12.8677
 L 5.30005,12.8677 L 5.77795,11.3969 L 4.52678,10.4878 L 6.07332,10.4878 L 7.32449,11.3969 L 5.77795,11.3969
 L 5.30006,12.8677 L 6.55122,13.7767 L 7.8024,12.8677 L 7.32449,14.3385 L 6.07332,15.2476 L 6.55122,13.7767
 L 5.30005,12.8677 L 4.04887,13.7767 L 4.52678,15.2476 L 3.27562,14.3385 L 2.02444,15.2476 L 2.50233,16.7184
 L 4.04887,16.7184 L 2.7977,17.6274 L 3.2756,19.0983 L 4.82214,19.0983 L 5.30005,17.6274 L 5.77795,19.0983
 L 7.32449,19.0983 L 7.8024,17.6275 L 6.55122,16.7184 L 8.09776,16.7184 L 8.57567,15.2476 L 9.05357,16.7184
 L 10.6001,16.7184 L 9.34894,17.6274 L 9.82684,19.0983 L 11.3734,19.0983 L 11.8513,17.6274 L 12.3292,19.0983
 L 13.8757,19.0983 L 14.3536,17.6275 L 13.1024,16.7184 L 14.649,16.7184 L 15.1269,15.2476 L 13.8757,14.3385
 L 12.6245,15.2476 L 13.1024,13.7767 L 11.8513,12.8677 L 13.3978,12.8677 L 13.8757,11.3969 L 14.3536,12.8677
 L 15.9002,12.8677 L 16.3781,11.3969 L 15.1269,10.4878 L 16.6734,10.4878 L 17.1513,9.01698 L 15.9002,8.10796
 L 14.649,9.01698 L 15.1269,7.54614 L 13.8757,6.63712 L 12.6245,7.54614 L 13.1024,9.01698 L 11.8513,8.10796
 L 10.6001,9.017 L 9.05357,9.017 L 8.57567,10.4878 L 8.09776,9.017 L 8.57567,7.54614 L 9.05357,9.01698
 L 10.6001,9.01698 L 11.078,7.54614 L 9.82684,6.63712 L 11.3734,6.63712 L 11.8513,5.16628 L 10.6001,4.25725
 L 9.34892,5.16628 L 9.82684,3.69543 L 8.57567,2.78641 L 7.32449,3.69543 L 7.8024,5.16628 L 6.55122,4.25725
 L 5.30005,5.16628 L 5.77795,6.63712 L 7.32449,6.63712 L 6.07332,7.54614 L 6.55122,9.01698 L 5.30005,8.10796
 L 4.04887,9.01698 L 4.52678,7.54614 L 3.27562,6.63712 L 2.02444,7.54614 L 2.50235,9.01698 L 1.25116,8.10796
 L 0.773254,6.6371 L 2.02443,7.54614 L 3.2756,6.6371 L 2.7977,5.16626 L 1.25116,5.16626 L 2.50233,4.25723
 L 2.02443,2.78639 L 3.2756,3.69543 L 4.52678,2.78639 L 4.04887,4.25723 L 5.30005,5.16626 L 6.55122,4.25723
 L 6.07332,2.78639 L 7.32449,3.69542 L 8.57565,2.78639 L 8.09775,1.31555 L 6.55122,1.31555 L 7.80238,0.406525
 L 7.32448,-1.0643 L 5.77795,-1.0643 L 5.30005,0.406525 L 4.82214,-1.0643 L 3.2756,-1.0643 L 4.52678,-1.97333
 L 4.04887,-3.44418 L 5.30005,-2.53514 L 6.55121,-3.44417 L 6.07332,-4.91502 L 4.52678,-4.91502 L 5.77795,-5.82405
 L 7.32449,-5.82405 L 6.07332,-4.91502 L 6.55122,-3.44418 L 8.09776,-3.44418 L 8.57567,-4.91502 L 9.05357,-3.44418
 L 10.6001,-3.44418 L 9.34894,-2.53514 L 9.82684,-1.0643 L 8.57567,-1.97333 L 7.32449,-1.06432 L 7.8024,0.406525
 L 9.34894,0.406525 L 8.09776,1.31555 L 8.57567,2.78639 L 10.1222,2.78639 L 10.6001,1.31555 L 11.078,2.78639
 L 12.6245,2.78639 L 13.1024,1.31555 L 11.8513,0.406525 L 13.3978,0.406525 L 13.8757,-1.0643 L 12.6245,-1.97334
 L 11.3734,-1.0643 L 11.8513,-2.53516 L 13.1025,-3.44418 L 12.6246,-1.97334 L 13.8757,-1.06432 L 14.3536,0.406525
 L 15.9002,0.406525 L 14.649,1.31555 L 15.1269,2.78639 L 16.6734,2.78639 L 17.1513,1.31555 L 17.6292,2.78639
 L 19.1758,2.78639 L 19.6537,1.31555 L 18.4025,0.406525 L 19.949,0.406525 L 20.4269,-1.0643 L 19.1758,-1.97333
 L 17.9246,-1.0643 L 18.4025,-2.53514 L 17.1513,-3.44418 L 18.6979,-3.44418 L 19.1758,-4.91502 L 19.6537,-3.44418
 L 21.2002,-3.44418 L 21.6781,-4.91502 L 20.4269,-5.82405 L 21.9735,-5.82405 L 22.4514,-7.29489 L 21.2002,-8.20392
 L 19.949,-7.29489 L 20.4269,-8.76573 L 19.1758,-9.67476 L 17.9246,-8.76573 L 18.4025,-7.29489 L 17.1513,-8.20392
 L 15.9002,-7.29489 L 16.3781,-8.76573 L 15.1269,-9.67477 L 16.6734,-9.67477 L 17.1513,-11.1456 L 15.9002,-12.0546
 L 14.649,-11.1456 L 15.1269,-12.6165 L 13.8757,-13.5255 L 12.6245,-12.6165 L 13.1024,-11.1456 L 11.8513,-12.0546
 L 10.6001,-11.1456 L 11.078,-9.67476 L 12.6245,-9.67476 L 11.3734,-8.76573 L 11.8513,-7.29489 L 11.3734,-5.82405
 L 12.6246,-4.91502 L 11.078,-4.91502 L 9.82684,-5.82405 L 11.3734,-5.82405 L 11.8513,-7.29489 L 10.6001,-8.20392
 L 9.34892,-7.29489 L 9.82684,-8.76573 L 8.57567,-9.67476 L 7.32449,-8.76573 L 7.8024,-7.29489 L 6.55122,-8.20392
 L 5.30005,-7.29489 L 5.77795,-8.76575 z
M -13.8757,-5.82405 L -14.3536,-7.29489 L -13.8757,-8.76573 L -13.3978,-7.29489 z
M -16.6734,-4.91502 L -17.9246,-5.82405 L -16.3781,-5.82405 L -15.1269,-4.91502 z
M -15.1269,-1.97334 L -16.3781,-1.0643 L -15.9002,-2.53514 L -14.649,-3.44418 z
M -11.3734,11.3969 L -12.6245,10.4878 L -11.078,10.4878 L -9.82683,11.3969 z
M -9.82684,14.3385 L -11.078,15.2476 L -10.6001,13.7767 L -9.34892,12.8677 z
M 0.773254,-1.0643 L 1.25116,-2.53514 L 2.50233,-3.44417 L 2.02443,-1.97333 z
M -2.7977,-14.9963 L -4.04887,-15.9053 L -2.50233,-15.9053 L -1.25116,-14.9963 z
M -2.02443,-1.97333 L -2.50233,-3.44417 L -1.25116,-2.53514 L -0.773254,-1.0643 z
M 0,4.25723 L -0.47789,2.78639 L 0,1.31555 L 0.47789,2.78639 z
M 0,-15.9053 L -0.47789,-17.3762 L 0,-18.847 L 0.47789,-17.3762 z
M 1.25116,-12.0546 L 0.773254,-13.5255 L 2.02443,-12.6165 L 2.50233,-11.1456 z
M 2.50233,1.31555 L 1.25116,0.406525 L 2.7977,0.406525 L 4.04887,1.31555 z
M 9.82684,14.3385 L 9.34892,12.8677 L 10.6001,13.7767 L 11.078,15.2476 z
M 11.3734,11.3969 L 9.82683,11.3969 L 11.078,10.4878 L 12.6245,10.4878 z
M 15.1269,-1.97334 L 14.649,-3.44418 L 15.9002,-2.53514 L 16.3781,-1.0643 z
M 16.6734,-4.91502 L 15.1269,-4.91502 L 16.3781,-5.82405 L 17.9246,-5.82405 z
M -2.50233,1.31555 L -4.04887,1.31555 L -2.7977,0.406525 L -1.25116,0.406525 z
M -1.25116,-12.0546 L -2.50233,-11.1456 L -2.02443,-12.6165 L -0.773254,-13.5255 z
M 1.25116,-14.9963 L 2.50233,-15.9053 L 4.04887,-15.9053 L 2.7977,-14.9963 z
M -2.7977,-7.29491 L -1.25116,-7.29491 L -0.773254,-8.76575 L -2.02443,-9.67477 L -0.477905,-9.67477 L 0,-11.1456
 L 0.477905,-9.67477 L 2.02443,-9.67477 L 0.773254,-8.76575 L 1.25116,-7.29491 L 2.7977,-7.29491 L 3.2756,-8.76575
 L 3.75351,-7.29489 L 3.2756,-5.82405 L 2.7977,-7.29489 L 1.25116,-7.29489 L 0.773254,-5.82405 L 2.02443,-4.91502
 L 0.477905,-4.91502 L 0,-3.44417 L -0.477905,-4.91502 L -2.02443,-4.91502 L -0.773254,-5.82405 L -1.25116,-7.29489
 L -2.7977,-7.29489 L -3.2756,-5.82405 L -3.75351,-7.29489 L -3.2756,-8.76575 z
M 14.3536,-7.29489 L 13.8757,-5.82405 L 13.3978,-7.29489 L 13.8757,-8.76573 z
" stroke="black" fill="lightgray" stroke-width="0.5"/>
</svg>
