<?xml version="1.0" standalone="no"?>
<!DOCTYPE svg PUBLIC "-//W3C//DTD SVG 1.1//EN" "http://www.w3.org/Graphics/SVG/1.1/DTD/svg11.dtd">
<svg width="96mm" height="91mm" viewBox="-48 -50 96 91" xmlns="http://www.w3.org/2000/svg" version="1.1">
<title>OpenSCAD Model</title>
<path d="
M 27.7514,2.78639 L 25.727,2.78639 L 25.1014,0.861038 L 26.7392,-0.328888 L 28.377,0.861038 L 27.7514,-1.0643
 L 29.3893,-2.25424 L 31.0271,-1.0643 L 30.4015,0.861038 L 32.0393,-0.328888 L 33.6771,0.861053 L 33.0515,2.78639
 L 31.0271,2.78639 L 32.6649,3.97632 L 32.0393,5.90169 L 33.6771,4.71175 L 35.3149,5.90169 L 34.6893,3.97633
 L 36.3271,2.78639 L 37.9649,3.97633 L 37.3393,5.90169 L 38.9771,4.71176 L 40.6149,5.90169 L 39.9894,3.97633
 L 41.6272,2.78639 L 39.6027,2.78639 L 38.9771,0.861038 L 40.6149,-0.328888 L 42.2528,0.861038 L 41.6272,-1.0643
 L 43.265,-2.25424 L 41.2405,-2.25424 L 40.6149,-4.1796 L 39.9894,-2.25424 L 37.9649,-2.25424 L 37.3393,-4.1796
 L 38.9771,-5.36954 L 36.9527,-5.36954 L 36.3271,-7.29489 L 37.9649,-8.48483 L 39.6027,-7.29489 L 38.9771,-9.22025
 L 40.615,-10.4102 L 42.2528,-9.22026 L 41.6272,-7.29491 L 43.265,-8.48483 L 44.9028,-7.29491 L 44.2772,-9.22026
 L 45.915,-10.4102 L 43.8906,-10.4102 L 43.265,-12.3355 L 44.9028,-13.5255 L 46.5406,-12.3356 L 45.915,-14.2609
 L 47.5528,-15.4508 L 45.5284,-15.4509 L 44.9028,-17.3762 L 44.2772,-15.4508 L 42.2528,-15.4508 L 41.6272,-17.3762
 L 43.265,-18.5661 L 41.2405,-18.5661 L 40.615,-20.4915 L 39.9894,-18.5661 L 37.9649,-18.5661 L 39.6027,-17.3762
 L 38.9771,-15.4508 L 36.9527,-15.4508 L 36.3271,-17.3762 L 35.7015,-15.4508 L 33.6771,-15.4508 L 33.0515,-17.3762
 L 34.6893,-18.5661 L 32.6649,-18.5661 L 32.0393,-20.4915 L 33.6771,-21.6814 L 35.3149,-20.4915 L 34.6893,-22.4168
 L 36.3271,-23.6068 L 34.3027,-23.6068 L 33.6771,-25.5322 L 33.0515,-23.6068 L 31.0271,-23.6068 L 30.4015,-25.5321
 L 32.0393,-26.7221 L 30.0148,-26.7221 L 29.3893,-28.6474 L 28.7637,-26.7221 L 26.7392,-26.7221 L 28.377,-25.5322
 L 27.7514,-23.6068 L 25.727,-23.6068 L 25.1014,-25.5321 L 24.4758,-23.6068 L 22.4514,-23.6068 L 24.0892,-22.4168
 L 23.4636,-20.4915 L 25.1014,-21.6814 L 26.7392,-20.4915 L 26.1136,-18.5661 L 24.0892,-18.5661 L 25.727,-17.3762
 L 25.1014,-15.4508 L 23.077,-15.4508 L 22.4514,-17.3762 L 21.8258,-15.4508 L 19.8014,-15.4508 L 19.1758,-17.3762
 L 20.8136,-18.5661 L 18.7891,-18.5661 L 18.1636,-20.4915 L 17.538,-18.5661 L 15.5135,-18.5661 L 17.1513,-17.3762
 L 16.5258,-15.4508 L 14.5013,-15.4508 L 13.8757,-17.3762 L 13.2501,-15.4508 L 11.2257,-15.4508 L 10.6001,-17.3762
 L 12.2379,-18.5661 L 10.2135,-18.5661 L 9.58789,-20.4915 L 11.2257,-21.6814 L 12.8635,-20.4915 L 12.2379,-22.4169
 L 13.8757,-23.6068 L 11.8513,-23.6068 L 11.2257,-25.5322 L 10.6001,-23.6068 L 8.57567,-23.6068 L 7.95007,-25.5322
 L 9.58788,-26.7221 L 7.56345,-26.7221 L 6.93787,-28.6474 L 8.57567,-29.8374 L 10.2135,-28.6474 L 9.58789,-30.5728
 L 11.2257,-31.7627 L 12.8635,-30.5728 L 12.2379,-28.6474 L 13.8757,-29.8374 L 15.5135,-28.6474 L 14.8879,-30.5728
 L 16.5257,-31.7627 L 14.5013,-31.7627 L 13.8757,-33.6881 L 15.5135,-34.878 L 17.1513,-33.6881 L 16.5257,-35.6134
 L 18.1635,-36.8034 L 16.1391,-36.8034 L 15.5135,-38.7287 L 14.8879,-36.8034 L 12.8635,-36.8034 L 12.2379,-38.7287
 L 13.8757,-39.9187 L 11.8513,-39.9187 L 11.2257,-41.844 L 10.6001,-39.9187 L 8.57567,-39.9187 L 10.2135,-38.7287
 L 9.58789,-36.8034 L 7.56345,-36.8034 L 6.93785,-38.7287 L 6.31227,-36.8034 L 4.28784,-36.8034 L 3.66225,-38.7287
 L 5.30005,-39.9187 L 3.27562,-39.9187 L 2.65002,-41.844 L 4.28783,-43.034 L 5.92563,-41.844 L 5.30005,-43.7694
 L 6.93785,-44.9593 L 4.91341,-44.9593 L 4.28783,-46.8847 L 3.66225,-44.9593 L 1.63782,-44.9593 L 1.01222,-46.8847
 L 2.65001,-48.0746 L 0.625595,-48.0746 L 0,-50 L -0.625595,-48.0746 L -2.65001,-48.0746 L -1.01222,-46.8847
 L -1.63782,-44.9593 L -3.66225,-44.9593 L -4.28783,-46.8847 L -4.91341,-44.9593 L -6.93785,-44.9593 L -5.30005,-43.7694
 L -5.92563,-41.844 L -4.28783,-43.034 L -2.65002,-41.844 L -3.27562,-39.9187 L -5.30005,-39.9187 L -3.66225,-38.7287
 L -4.28784,-36.8034 L -6.31227,-36.8034 L -6.93785,-38.7287 L -7.56345,-36.8034 L -9.58789,-36.8034 L -10.2135,-38.7287
 L -8.57567,-39.9187 L -10.6001,-39.9187 L -11.2257,-41.844 L -11.8513,-39.9187 L -13.8757,-39.9187 L -12.2379,-38.7287
 L -12.8635,-36.8034 L -14.8879,-36.8034 L -15.5135,-38.7287 L -16.1391,-36.8034 L -18.1635,-36.8034 L -16.5257,-35.6134
 L -17.1513,-33.6881 L -15.5135,-34.878 L -13.8757,-33.6881 L -14.5013,-31.7627 L -16.5257,-31.7627 L -14.8879,-30.5728
 L -15.5135,-28.6474 L -13.8757,-29.8374 L -12.2379,-28.6474 L -12.8635,-30.5728 L -11.2257,-31.7627 L -9.58789,-30.5728
 L -10.2135,-28.6474 L -8.57567,-29.8374 L -6.93787,-28.6474 L -7.56345,-26.7221 L -9.58788,-26.7221 L -7.95007,-25.5322
 L -8.57567,-23.6068 L -10.6001,-23.6068 L -11.2257,-25.5322 L -11.8513,-23.6068 L -13.8757,-23.6068 L -12.2379,-22.4169
 L -12.8635,-20.4915 L -11.2257,-21.6814 L -9.58789,-20.4915 L -10.2135,-18.5661 L -12.2379,-18.5661 L -10.6001,-17.3762
 L -11.2257,-15.4508 L -13.2501,-15.4508 L -13.8757,-17.3762 L -14.5013,-15.4508 L -16.5258,-15.4508 L -17.1513,-17.3762
 L -15.5135,-18.5661 L -17.538,-18.5661 L -18.1636,-20.4915 L -18.7891,-18.5661 L -20.8136,-18.5661 L -19.1758,-17.3762
 L -19.8014,-15.4508 L -21.8258,-15.4508 L -22.4514,-17.3762 L -23.077,-15.4508 L -25.1014,-15.4508 L -25.727,-17.3762
 L -24.0892,-18.5661 L -26.1136,-18.5661 L -26.7392,-20.4915 L -25.1014,-21.6814 L -23.4636,-20.4915 L -24.0892,-22.4168
 L -22.4514,-23.6068 L -24.4758,-23.6068 L -25.1014,-25.5321 L -25.727,-23.6068 L -27.7514,-23.6068 L -28.377,-25.5322
 L -26.7392,-26.7221 L -28.7637,-26.7221 L -29.3893,-28.6474 L -30.0148,-26.7221 L -32.0393,-26.7221 L -30.4015,-25.5321
 L -31.0271,-23.6068 L -33.0515,-23.6068 L -33.6771,-25.5322 L -34.3027,-23.6068 L -36.3271,-23.6068 L -34.6893,-22.4168
 L -35.3149,-20.4915 L -33.6771,-21.6814 L -32.0393,-20.4915 L -32.6649,-18.5661 L -34.6893,-18.5661 L -33.0515,-17.3762
 L -33.6771,-15.4508 L -35.7015,-15.4508 L -36.3271,-17.3762 L -36.9527,-15.4508 L -38.9771,-15.4508 L -39.6027,-17.3762
 L -37.9649,-18.5661 L -39.9894,-18.5661 L -40.615,-20.4915 L -41.2405,-18.5661 L -43.265,-18.5661 L -41.6272,-17.3762
 L -42.2528,-15.4508 L -44.2772,-15.4508 L -44.9028,-17.3762 L -45.5284,-15.4509 L -47.5528,-15.4508 L -45.915,-14.2609
 L -46.5406,-12.3356 L -44.9028,-13.5255 L -43.265,-12.3355 L -43.8906,-10.4102 L -45.915,-10.4102 L -44.2772,-9.22026
 L -44.9028,-7.29491 L -43.265,-8.48483 L -41.6272,-7.29491 L -42.2528,-9.22026 L -40.615,-10.4102 L -38.9771,-9.22025
 L -39.6027,-7.29489 L -37.9649,-8.48483 L -36.3271,-7.29489 L -36.9527,-5.36954 L -38.9771,-5.36954 L -37.3393,-4.1796
 L -37.9649,-2.25424 L -39.9894,-2.25424 L -40.6149,-4.1796 L -41.2405,-2.25424 L -43.265,-2.25424 L -41.6272,-1.0643
 L -42.2528,0.861038 L -40.6149,-0.328888 L -38.9771,0.861038 L -39.6027,2.78639 L -41.6272,2.78639 L -39.9894,3.97633
 L -40.6149,5.90169 L -38.9771,4.71176 L -37.3393,5.90169 L -37.9649,3.97633 L -36.3271,2.78639 L -34.6893,3.97633
 L -35.3149,5.90169 L -33.6771,4.71175 L -32.0393,5.90169 L -32.6649,3.97632 L -31.0271,2.78639 L -33.0515,2.78639
 L -33.6771,0.861053 L -32.0393,-0.328888 L -30.4015,0.861038 L -31.0271,-1.0643 L -29.3893,-2.25424 L -27.7514,-1.0643
 L -28.377,0.861038 L -26.7392,-0.328888 L -25.1014,0.861038 L -25.727,2.78639 L -27.7514,2.78639 L -26.1136,3.97633
 L -26.7392,5.90169 L -25.1014,4.71175 L -23.4636,5.90169 L -24.0892,3.97633 L -22.4514,2.78639 L -20.8136,3.97633
 L -21.4392,5.90169 L -19.8014,4.71175 L -18.1635,5.90169 L -18.7891,7.82706 L -20.8136,7.82706 L -19.1758,9.017
 L -19.8014,10.9424 L -21.8258,10.9424 L -22.4514,9.017 L -23.077,10.9424 L -25.1014,10.9424 L -23.4636,12.1323
 L -24.0892,14.0576 L -22.4514,12.8677 L -20.8136,14.0576 L -21.4392,15.983 L -23.4636,15.983 L -21.8258,17.1729
 L -22.4514,19.0983 L -24.4758,19.0983 L -25.1014,17.1729 L -25.727,19.0983 L -27.7514,19.0983 L -28.377,17.1729
 L -26.7392,15.983 L -28.7637,15.983 L -29.3893,14.0576 L -30.0148,15.983 L -32.0393,15.983 L -30.4015,17.1729
 L -31.0271,19.0983 L -33.0515,19.0983 L -33.6771,17.1729 L -34.3027,19.0983 L -36.3271,19.0983 L -34.6893,20.2882
 L -35.3149,22.2136 L -33.6771,21.0237 L -32.0393,22.2136 L -32.6649,24.1389 L -34.6893,24.1389 L -33.0515,25.3289
 L -33.6771,27.2542 L -32.0393,26.0643 L -30.4015,27.2542 L -31.0271,25.3289 L -29.3893,24.1389 L -27.7514,25.3289
 L -28.377,27.2542 L -26.7392,26.0643 L -25.1014,27.2542 L -25.727,29.1796 L -27.7514,29.1796 L -26.1136,30.3695
 L -26.7392,32.2949 L -28.7637,32.2949 L -29.3893,30.3695 L -30.0148,32.2949 L -32.0393,32.2949 L -30.4015,33.4848
 L -31.0271,35.4102 L -29.3893,34.2202 L -27.7514,35.4102 L -28.377,37.3355 L -30.4015,37.3355 L -28.7637,38.5255
 L -29.3893,40.4508 L -27.7514,39.2609 L -26.1136,40.4508 L -26.7392,38.5255 L -25.1014,37.3355 L -23.4636,38.5255
 L -24.0892,40.4508 L -22.4514,39.2609 L -20.8136,40.4508 L -21.4392,38.5255 L -19.8014,37.3355 L -21.8258,37.3355
 L -22.4514,35.4102 L -20.8136,34.2202 L -19.1758,35.4102 L -19.8014,33.4848 L -18.1636,32.2949 L -16.5257,33.4848
 L -17.1513,35.4102 L -15.5135,34.2202 L -13.8757,35.4102 L -14.5013,37.3355 L -16.5257,37.3355 L -14.8879,38.5255
 L -15.5135,40.4508 L -13.8757,39.2609 L -12.2379,40.4508 L -12.8635,38.5255 L -11.2257,37.3355 L -9.58789,38.5255
 L -10.2135,40.4508 L -8.57567,39.2609 L -6.93785,40.4508 L -7.56345,38.5255 L -5.92564,37.3355 L -7.95007,37.3355
 L -8.57567,35.4102 L -6.93787,34.2202 L -5.30005,35.4102 L -5.92564,33.4848 L -4.28784,32.2949 L -6.31229,32.2949
 L -6.93787,30.3695 L -7.56345,32.2949 L -9.58789,32.2949 L -10.2135,30.3695 L -8.57567,29.1796 L -10.6001,29.1796
 L -11.2257,27.2542 L -9.58789,26.0643 L -7.95009,27.2542 L -8.57567,25.3289 L -6.93787,24.1389 L -5.30005,25.3289
 L -5.92564,27.2542 L -4.28783,26.0643 L -2.65002,27.2542 L -3.27562,25.3289 L -1.6378,24.1389 L -3.66225,24.1389
 L -4.28784,22.2136 L -2.65002,21.0237 L -1.01222,22.2136 L -1.6378,20.2882 L 0,19.0983 L 1.6378,20.2882
 L 1.01222,22.2136 L 2.65002,21.0237 L 4.28784,22.2136 L 3.66225,24.1389 L 1.6378,24.1389 L 3.27562,25.3289
 L 2.65002,27.2542 L 4.28783,26.0643 L 5.92564,27.2542 L 5.30005,25.3289 L 6.93787,24.1389 L 8.57567,25.3289
 L 7.95009,27.2542 L 9.58789,26.0643 L 11.2257,27.2542 L 10.6001,29.1796 L 8.57567,29.1796 L 10.2135,30.3695
 L 9.58789,32.2949 L 7.56345,32.2949 L 6.93787,30.3695 L 6.31229,32.2949 L 4.28784,32.2949 L 5.92564,33.4848
 L 5.30005,35.4102 L 6.93787,34.2202 L 8.57567,35.4102 L 7.95007,37.3355 L 5.92564,37.3355 L 7.56345,38.5255
 L 6.93785,40.4508 L 8.57567,39.2609 L 10.2135,40.4508 L 9.58789,38.5255 L 11.2257,37.3355 L 12.8635,38.5255
 L 12.2379,40.4508 L 13.8757,39.2609 L 15.5135,40.4508 L 14.8879,38.5255 L 16.5257,37.3355 L 14.5013,37.3355
 L 13.8757,35.4102 L 15.5135,34.2202 L 17.1513,35.4102 L 16.5257,33.4848 L 18.1636,32.2949 L 19.8014,33.4848
 L 19.1758,35.4102 L 20.8136,34.2202 L 22.4514,35.4102 L 21.8258,37.3355 L 19.8014,37.3355 L 21.4392,38.5255
 L 20.8136,40.4508 L 22.4514,39.2609 L 24.0892,40.4508 L 23.4636,38.5255 L 25.1014,37.3355 L 26.7392,38.5255
 L 26.1136,40.4508 L 27.7514,39.2609 L 29.3893,40.4508 L 28.7637,38.5255 L 30.4015,37.3355 L 28.377,37.3355
 L 27.7514,35.4102 L 29.3893,34.2202 L 31.0271,35.4102 L 30.4015,33.4848 L 32.0393,32.2949 L 30.0148,32.2949
 L 29.3893,30.3695 L 28.7637,32.2949 L 26.7392,32.2949 L 26.1136,30.3695 L 27.7514,29.1796 L 25.727,29.1796
 L 25.1014,27.2542 L 26.7392,26.0643 L 28.377,27.2542 L 27.7514,25.3289 L 29.3893,24.1389 L 31.0271,25.3289
 L 30.4015,27.2542 L 32.0393,26.0643 L 33.6771,27.2542 L 33.0515,25.3289 L 34.6893,24.1389 L 32.6649,24.1389
 L 32.0393,22.2136 L 33.6771,21.0237 L 35.3149,22.2136 L 34.6893,20.2882 L 36.3271,19.0983 L 34.3027,19.0983
 L 33.6771,17.1729 L 33.0515,19.0983 L 31.0271,19.0983 L 30.4015,17.1729 L 32.0393,15.983 L 30.0148,15.983
 L 29.3893,14.0576 L 28.7637,15.983 L 26.7392,15.983 L 28.377,17.1729 L 27.7514,19.0983 L 25.727,19.0983
 L 25.1014,17.1729 L 24.4758,19.0983 L 22.4514,19.0983 L 21.8258,17.1729 L 23.4636,15.983 L 21.4392,15.983
 L 20.8136,14.0576 L 22.4514,12.8677 L 24.0892,14.0576 L 23.4636,12.1323 L 25.1014,10.9424 L 23.077,10.9424
 L 22.4514,9.017 L 21.8258,10.9424 L 19.8014,10.9424 L 19.1758,9.017 L 20.8136,7.82706 L 18.7891,7.82706
 L 18.1636,5.90169 L 19.8014,4.71175 L 21.4392,5.90169 L 20.8136,3.97633 L 22.4514,2.78639 L 24.0892,3.97633
 L 23.4636,5.90169 L 25.1014,4.71175 L 26.7392,5.90169 L 26.1136,3.97633 z
" stroke="black" fill="red" stroke-width="0"/>
<path d="
M 4.52678,-9.67477 L 6.07332,-9.67477 L 6.55121,-11.1456 L 5.30005,-12.0546 L 4.04887,-11.1456 L 4.52678,-12.6165
 L 3.2756,-13.5255 L 4.82214,-13.5255 L 5.30005,-14.9963 L 5.77795,-13.5255 L 7.32448,-13.5255 L 7.80238,-14.9963
 L 6.55122,-15.9053 L 8.09775,-15.9053 L 8.57565,-17.3762 L 7.32449,-18.2852 L 6.07332,-17.3762 L 6.55122,-18.847
 L 5.30005,-19.7561 L 4.04887,-18.847 L 4.52678,-17.3762 L 3.2756,-18.2852 L 2.02443,-17.3762 L 2.50233,-18.847
 L 1.25116,-19.7561 L 2.7977,-19.7561 L 3.2756,-21.2269 L 2.02443,-22.1359 L 0.773254,-21.2269 L 1.25116,-22.6978
 L 0,-23.6068 L -1.25116,-22.6978 L -0.773254,-21.2269 L -2.02443,-22.1359 L -3.2756,-21.2269 L -2.7977,-19.7561
 L -1.25116,-19.7561 L -2.50233,-18.847 L -2.02443,-17.3762 L -3.2756,-18.2852 L -4.52678,-17.3762 L -4.04887,-18.847
 L -5.30005,-19.7561 L -6.55122,-18.847 L -6.07332,-17.3762 L -7.32449,-18.2852 L -8.57565,-17.3762 L -8.09775,-15.9053
 L -6.55122,-15.9053 L -7.80238,-14.9963 L -7.32448,-13.5255 L -5.77795,-13.5255 L -5.30005,-14.9963 L -4.82214,-13.5255
 L -3.2756,-13.5255 L -4.52678,-12.6165 L -4.04887,-11.1456 L -5.30005,-12.0546 L -6.55121,-11.1456 L -6.07332,-9.67477
 L -4.52678,-9.67477 L -5.77795,-8.76575 L -5.30005,-7.29489 L -6.55122,-8.20392 L -7.8024,-7.29489 L -7.32449,-8.76573
 L -8.57567,-9.67476 L -9.82684,-8.76573 L -9.34892,-7.29489 L -10.6001,-8.20392 L -11.8513,-7.29489 L -11.3734,-5.82405
 L -9.82684,-5.82405 L -11.078,-4.91502 L -12.6246,-4.91502 L -11.3734,-5.82405 L -11.8513,-7.29489 L -11.3734,-8.76573
 L -12.6245,-9.67476 L -11.078,-9.67476 L -10.6001,-11.1456 L -11.8513,-12.0546 L -13.1024,-11.1456 L -12.6245,-12.6165
 L -13.8757,-13.5255 L -15.1269,-12.6165 L -14.649,-11.1456 L -15.9002,-12.0546 L -17.1513,-11.1456 L -16.6734,-9.67477
 L -15.1269,-9.67477 L -16.3781,-8.76573 L -15.9002,-7.29489 L -17.1513,-8.20392 L -18.4025,-7.29489 L -17.9246,-8.76573
 L -19.1758,-9.67476 L -20.4269,-8.76573 L -19.949,-7.29489 L -21.2002,-8.20392 L -22.4514,-7.29489 L -21.9735,-5.82405
 L -20.4269,-5.82405 L -21.6781,-4.91502 L -21.2002,-3.44418 L -19.6537,-3.44418 L -19.1758,-4.91502 L -18.6979,-3.44418
 L -17.1513,-3.44418 L -18.4025,-2.53514 L -17.9246,-1.0643 L -19.1758,-1.97333 L -20.4269,-1.0643 L -19.949,0.406525
 L -18.4025,0.406525 L -19.6537,1.31555 L -19.1758,2.78639 L -17.6292,2.78639 L -17.1513,1.31555 L -16.6734,2.78639
 L -15.1269,2.78639 L -14.649,1.31555 L -15.9002,0.406525 L -14.3536,0.406525 L -13.8757,-1.0643 L -12.6246,-1.97334
 L -13.1025,-3.44418 L -11.8513,-2.53516 L -11.3734,-1.0643 L -12.6245,-1.97334 L -13.8757,-1.0643 L -13.3978,0.406525
 L -11.8513,0.406525 L -13.1024,1.31555 L -12.6245,2.78639 L -11.078,2.78639 L -10.6001,1.31555 L -10.1222,2.78639
 L -8.57567,2.78639 L -8.09776,1.31555 L -9.34894,0.406525 L -7.8024,0.406525 L -7.32449,-1.06432 L -8.57567,-1.97333
 L -9.82684,-1.0643 L -9.34894,-2.53514 L -10.6001,-3.44418 L -9.05357,-3.44418 L -8.57567,-4.91502 L -8.09776,-3.44418
 L -6.55122,-3.44418 L -6.07332,-4.91502 L -7.32449,-5.82405 L -5.77795,-5.82405 L -4.52678,-4.91502 L -6.07332,-4.91502
 L -6.55121,-3.44417 L -5.30005,-2.53514 L -4.04887,-3.44418 L -4.52678,-1.97333 L -3.2756,-1.0643 L -4.82214,-1.0643
 L -5.30005,0.406525 L -5.77795,-1.0643 L -7.32448,-1.0643 L -7.80238,0.406525 L -6.55122,1.31555 L -8.09775,1.31555
 L -8.57565,2.78639 L -7.32449,3.69542 L -6.07332,2.78639 L -6.55122,4.25723 L -5.30005,5.16626 L -4.04887,4.25723
 L -4.52678,2.78639 L -3.2756,3.69543 L -2.02443,2.78639 L -2.50233,4.25723 L -1.25116,5.16626 L -2.7977,5.16626
 L -3.2756,6.6371 L -2.02443,7.54614 L -0.773254,6.6371 L -1.25116,8.10796 L -2.50235,9.01698 L -2.02444,7.54614
 L -3.27562,6.63712 L -4.52678,7.54614 L -4.04887,9.01698 L -5.30005,8.10796 L -6.55122,9.01698 L -6.07332,7.54614
 L -7.32449,6.63712 L -5.77795,6.63712 L -5.30005,5.16628 L -6.55122,4.25725 L -7.8024,5.16628 L -7.32449,3.69543
 L -8.57567,2.78641 L -9.82684,3.69543 L -9.34892,5.16628 L -10.6001,4.25725 L -11.8513,5.16628 L -11.3734,6.63712
 L -9.82684,6.63712 L -11.078,7.54614 L -10.6001,9.01698 L -9.05357,9.01698 L -8.57567,7.54614 L -8.09776,9.017
 L -8.57567,10.4878 L -9.05357,9.017 L -10.6001,9.017 L -11.8513,8.10796 L -13.1024,9.01698 L -12.6245,7.54614
 L -13.8757,6.63712 L -15.1269,7.54614 L -14.649,9.01698 L -15.9002,8.10796 L -17.1513,9.01698 L -16.6734,10.4878
 L -15.1269,10.4878 L -16.3781,11.3969 L -15.9002,12.8677 L -14.3536,12.8677 L -13.8757,11.3969 L -13.3978,12.8677
 L -11.8513,12.8677 L -13.1024,13.7767 L -12.6245,15.2476 L -13.8757,14.3385 L -15.1269,15.2476 L -14.649,16.7184
 L -13.1024,16.7184 L -14.3536,17.6275 L -13.8757,19.0983 L -12.3292,19.0983 L -11.8513,17.6274 L -11.3734,19.0983
 L -9.82684,19.0983 L -9.34894,17.6274 L -10.6001,16.7184 L -9.05357,16.7184 L -8.57567,15.2476 L -8.09776,16.7184
 L -6.55122,16.7184 L -7.8024,17.6275 L -7.32449,19.0983 L -5.77795,19.0983 L -5.30005,17.6274 L -4.82214,19.0983
 L -3.2756,19.0983 L -2.7977,17.6274 L -4.04887,16.7184 L -2.50233,16.7184 L -2.02444,15.2476 L -3.27562,14.3385
 L -4.52678,15.2476 L -4.04887,13.7767 L -5.30005,12.8677 L -6.55122,13.7767 L -6.07332,15.2476 L -7.32449,14.3385
 L -7.8024,12.8677 L -6.55122,13.7767 L -5.30006,12.8677 L -5.77795,11.3969 L -7.32449,11.3969 L -6.07332,10.4878
 L -4.52678,10.4878 L -5.77795,11.3969 L -5.30005,12.8677 L -3.75352,12.8677 L -3.2756,11.3969 L -2.7977,12.8677
 L -1.25117,12.8677 L -0.77327,11.3969 L -2.02444,10.4878 L -0.477905,10.4878 L 0,9.01698 L 0.477905,10.4878
 L 2.02444,10.4878 L 0.77327,11.3969 L 1.25117,12.8677 L 2.7977,12.8677 L 3.2756,11.3969 L 3.75352,12.8677
 L 5.30005,12.8677 L 5.77795,11.3969 L 4.52678,10.4878 L 6.07332,10.4878 L 7.32449,11.3969 L 5.77795,11.3969
 L 5.30006,12.8677 L 6.55122,13.7767 L 7.8024,12.8677 L 7.32449,14.3385 L 6.07332,15.2476 L 6.55122,13.7767
 L 5.30005,12.8677 L 4.04887,13.7767 L 4.52678,15.2476 L 3.27562,14.3385 L 2.02444,15.2476 L 2.50233,16.7184
 L 4.04887,16.7184 L 2.7977,17.6274 L 3.2756,19.0983 L 4.82214,19.0983 L 5.30005,17.6274 L 5.77795,19.0983
 L 7.32449,19.0983 L 7.8024,17.6275 L 6.55122,16.7184 L 8.09776,16.7184 L 8.57567,15.2476 L 9.05357,16.7184
 L 10.6001,16.7184 L 9.34894,17.6274 L 9.82684,19.0983 L 11.3734,19.0983 L 11.8513,17.6274 L 12.3292,19.0983
 L 13.8757,19.0983 L 14.3536,17.6275 L 13.1024,16.7184 L 14.649,16.7184 L 15.1269,15.2476 L 13.8757,14.3385
 L 12.6245,15.2476 L 13.1024,13.7767 L 11.8513,12.8677 L 13.3978,12.8677 L 13.8757,11.3969 L 14.3536,12.8677
 L 15.9002,12.8677 L 16.3781,11.3969 L 15.1269,10.4878 L 16.6734,10.4878 L 17.1513,9.01698 L 15.9002,8.10796
 L 14.649,9.01698 L 15.1269,7.54614 L 13.8757,6.63712 L 12.6245,7.54614 L 13.1024,9.01698 L 11.8513,8.10796
 L 10.6001,9.017 L 9.05357,9.017 L 8.57567,10.4878 L 8.09776,9.017 L 8.57567,7.54614 L 9.05357,9.01698
 L 10.6001,9.01698 L 11.078,7.54614 L 9.82684,6.63712 L 11.3734,6.63712 L 11.8513,5.16628 L 10.6001,4.25725
 L 9.34892,5.16628 L 9.82684,3.69543 L 8.57567,2.78641 L 7.32449,3.69543 L 7.8024,5.16628 L 6.55122,4.25725
 L 5.30005,5.16628 L 5.77795,6.63712 L 7.32449,6.63712 L 6.07332,7.54614 L 6.55122,9.01698 L 5.30005,8.10796
 L 4.04887,9.01698 L 4.52678,7.54614 L 3.27562,6.63712 L 2.02444,7.54614 L 2.50235,9.01698 L 1.25116,8.10796
 L 0.773254,6.6371 L 2.02443,7.54614 L 3.2756,6.6371 L 2.7977,5.16626 L 1.25116,5.16626 L 2.50233,4.25723
 L 2.02443,2.78639 L 3.2756,3.69543 L 4.52678,2.78639 L 4.04887,4.25723 L 5.30005,5.16626 L 6.55122,4.25723
 L 6.07332,2.78639 L 7.32449,3.69542 L 8.57565,2.78639 L 8.09775,1.31555 L 6.55122,1.31555 L 7.80238,0.406525
 L 7.32448,-1.0643 L 5.77795,-1.0643 L 5.30005,0.406525 L 4.82214,-1.0643 L 3.2756,-1.0643 L 4.52678,-1.97333
 L 4.04887,-3.44418 L 5.30005,-2.53514 L 6.55121,-3.44417 L 6.07332,-4.91502 L 4.52678,-4.91502 L 5.77795,-5.82405
 L 7.32449,-5.82405 L 6.07332,-4.91502 L 6.55122,-3.44418 L 8.09776,-3.44418 L 8.57567,-4.91502 L 9.05357,-3.44418
 L 10.6001,-3.44418 L 9.34894,-2.53514 L 9.82684,-1.0643 L 8.57567,-1.97333 L 7.32449,-1.06432 L 7.8024,0.406525
 L 9.34894,0.406525 L 8.09776,1.31555 L 8.57567,2.78639 L 10.1222,2.78639 L 10.6001,1.31555 L 11.078,2.78639
 L 12.6245,2.78639 L 13.1024,1.31555 L 11.8513,0.406525 L 13.3978,0.406525 L 13.8757,-1.0643 L 12.6245,-1.97334
 L 11.3734,-1.0643 L 11.8513,-2.53516 L 13.1025,-3.44418 L 12.6246,-1.97334 L 13.8757,-1.06432 L 14.3536,0.406525
 L 15.9002,0.406525 L 14.649,1.31555 L 15.1269,2.78639 L 16.6734,2.78639 L 17.1513,1.31555 L 17.6292,2.78639
 L 19.1758,2.78639 L 19.6537,1.31555 L 18.4025,0.406525 L 19.949,0.406525 L 20.4269,-1.0643 L 19.1758,-1.97333
 L 17.9246,-1.0643 L 18.4025,-2.53514 L 17.1513,-3.44418 L 18.6979,-3.44418 L 19.1758,-4.91502 L 19.6537,-3.44418
 L 21.2002,-3.44418 L 21.6781,-4.91502 L 20.4269,-5.82405 L 21.9735,-5.82405 L 22.4514,-7.29489 L 21.2002,-8.20392
 L 19.949,-7.29489 L 20.4269,-8.76573 L 19.1758,-9.67476 L 17.9246,-8.76573 L 18.4025,-7.29489 L 17.1513,-8.20392
 L 15.9002,-7.29489 L 16.3781,-8.76573 L 15.1269,-9.67477 L 16.6734,-9.67477 L 17.1513,-11.1456 L 15.9002,-12.0546
 L 14.649,-11.1456 L 15.1269,-12.6165 L 13.8757,-13.5255 L 12.6245,-12.6165 L 13.1024,-11.1456 L 11.8513,-12.0546
 L 10.6001,-11.1456 L 11.078,-9.67476 L 12.6245,-9.67476 L 11.3734,-8.76573 L 11.8513,-7.29489 L 11.3734,-5.82405
 L 12.6246,-4.91502 L 11.078,-4.91502 L 9.82684,-5.82405 L 11.3734,-5.82405 L 11.8513,-7.29489 L 10.6001,-8.20392
 L 9.34892,-7.29489 L 9.82684,-8.76573 L 8.57567,-9.67476 L 7.32449,-8.76573 L 7.8024,-7.29489 L 6.55122,-8.20392
 L 5.30005,-7.29489 L 5.77795,-8.76575 z
M -13.8757,-5.82405 L -14.3536,-7.29489 L -13.8757,-8.76573 L -13.3978,-7.29489 z
M -16.6734,-4.91502 L -17.9246,-5.82405 L -16.3781,-5.82405 L -15.1269,-4.91502 z
M -15.1269,-1.97334 L -16.3781,-1.0643 L -15.9002,-2.53514 L -14.649,-3.44418 z
M -11.3734,11.3969 L -12.6245,10.4878 L -11.078,10.4878 L -9.82683,11.3969 z
M -9.82684,14.3385 L -11.078,15.2476 L -10.6001,13.7767 L -9.34892,12.8677 z
M 0.773254,-1.0643 L 1.25116,-2.53514 L 2.50233,-3.44417 L 2.02443,-1.97333 z
M -2.7977,-14.9963 L -4.04887,-15.9053 L -2.50233,-15.9053 L -1.25116,-14.9963 z
M -2.02443,-1.97333 L -2.50233,-3.44417 L -1.25116,-2.53514 L -0.773254,-1.0643 z
M 0,4.25723 L -0.47789,2.78639 L 0,1.31555 L 0.47789,2.78639 z
M 0,-15.9053 L -0.47789,-17.3762 L 0,-18.847 L 0.47789,-17.3762 z
M 1.25116,-12.0546 L 0.773254,-13.5255 L 2.02443,-12.6165 L 2.50233,-11.1456 z
M 2.50233,1.31555 L 1.25116,0.406525 L 2.7977,0.406525 L 4.04887,1.31555 z
M 9.82684,14.3385 L 9.34892,12.8677 L 10.6001,13.7767 L 11.078,15.2476 z
M 11.3734,11.3969 L 9.82683,11.3969 L 11.078,10.4878 L 12.6245,10.4878 z
M 15.1269,-1.97334 L 14.649,-3.44418 L 15.9002,-2.53514 L 16.3781,-1.0643 z
M 16.6734,-4.91502 L 15.1269,-4.91502 L 16.3781,-5.82405 L 17.9246,-5.82405 z
M -2.50233,1.31555 L -4.04887,1.31555 L -2.7977,0.406525 L -1.25116,0.406525 z
M -1.25116,-12.0546 L -2.50233,-11.1456 L -2.02443,-12.6165 L -0.773254,-13.5255 z
M 1.25116,-14.9963 L 2.50233,-15.9053 L 4.04887,-15.9053 L 2.7977,-14.9963 z
M -2.7977,-7.29491 L -1.25116,-7.29491 L -0.773254,-8.76575 L -2.02443,-9.67477 L -0.477905,-9.67477 L 0,-11.1456
 L 0.477905,-9.67477 L 2.02443,-9.67477 L 0.773254,-8.76575 L 1.25116,-7.29491 L 2.7977,-7.29491 L 3.2756,-8.76575
 L 3.75351,-7.29489 L 3.2756,-5.82405 L 2.7977,-7.29489 L 1.25116,-7.29489 L 0.773254,-5.82405 L 2.02443,-4.91502
 L 0.477905,-4.91502 L 0,-3.44417 L -0.477905,-4.91502 L -2.02443,-4.91502 L -0.773254,-5.82405 L -1.25116,-7.29489
 L -2.7977,-7.29489 L -3.2756,-5.82405 L -3.75351,-7.29489 L -3.2756,-8.76575 z
M 14.3536,-7.29489 L 13.8757,-5.82405 L 13.3978,-7.29489 L 13.8757,-8.76573 z
" stroke="black" fill="black" stroke-width="0"/>
</svg>
