999
"DXF R12 Output" (www.mydxf.blogspot.com)
 0 
SECTION
 2 
HEADER
 9 
$ACADVER
 1 
AC1009
 9 
$EXTMIN
 10 
 0 
 20 
 0 
 9 
$EXTMAX
 10 
 8.5 
 20 
 11 
 0 
ENDSEC
 0 
SECTION
 2 
ENTITIES
0
LINE
8
Layer 1
10
81.019300
20
240.206000
11
81.792381
21
240.081195
0
LINE
8
Layer 1
10
81.792381
20
240.081195
11
82.369790
21
239.748629
0
LINE
8
Layer 1
10
82.369790
20
239.748629
11
82.622257
21
239.306953
0
LINE
8
Layer 1
10
82.622257
20
239.306953
11
82.631038
21
238.941950
0
LINE
8
Layer 1
10
82.631038
20
238.941950
11
82.694058
21
238.685115
0
LINE
8
Layer 1
10
82.694058
20
238.685115
11
83.087919
21
238.451347
0
LINE
8
Layer 1
10
83.087919
20
238.451347
11
84.471768
21
238.210408
0
LINE
8
Layer 1
10
84.471768
20
238.210408
11
84.945457
21
238.113263
0
LINE
8
Layer 1
10
84.945457
20
238.113263
11
85.142483
21
237.886866
0
LINE
8
Layer 1
10
85.142483
20
237.886866
11
85.317623
21
237.036402
0
LINE
8
Layer 1
10
85.317623
20
237.036402
11
85.240772
21
236.695353
0
LINE
8
Layer 1
10
85.240772
20
236.695353
11
84.758464
21
236.237071
0
LINE
8
Layer 1
10
84.758464
20
236.237071
11
82.262093
21
234.730622
0
LINE
8
Layer 1
10
82.262093
20
234.730622
11
78.286593
21
232.504332
0
LINE
8
Layer 1
10
78.286593
20
232.504332
11
77.458578
21
232.110201
0
LINE
8
Layer 1
10
77.458578
20
232.110201
11
76.583267
21
231.851794
0
LINE
8
Layer 1
10
76.583267
20
231.851794
11
75.857849
21
231.770926
0
LINE
8
Layer 1
10
75.857849
20
231.770926
11
75.479513
21
231.909413
0
LINE
8
Layer 1
10
75.479513
20
231.909413
11
75.099003
21
232.061710
0
LINE
8
Layer 1
10
75.099003
20
232.061710
11
74.426063
21
232.025271
0
LINE
8
Layer 1
10
74.426063
20
232.025271
11
73.746691
21
231.845749
0
LINE
8
Layer 1
10
73.746691
20
231.845749
11
73.346883
21
231.568794
0
LINE
8
Layer 1
10
73.346883
20
231.568794
11
72.916627
21
231.269495
0
LINE
8
Layer 1
10
72.916627
20
231.269495
11
72.710393
21
231.299366
0
LINE
8
Layer 1
10
72.710393
20
231.299366
11
72.622854
21
231.465086
0
LINE
8
Layer 1
10
72.622854
20
231.465086
11
72.623300
21
231.465000
0
LINE
8
Layer 1
10
72.623300
20
231.465000
11
72.933926
21
232.217501
0
LINE
8
Layer 1
10
72.933926
20
232.217501
11
73.641130
21
233.298155
0
LINE
8
Layer 1
10
73.641130
20
233.298155
11
74.407899
21
234.243683
0
LINE
8
Layer 1
10
74.407899
20
234.243683
11
74.897220
21
234.590810
0
LINE
8
Layer 1
10
74.897220
20
234.590810
11
75.190646
21
234.585352
0
LINE
8
Layer 1
10
75.190646
20
234.585352
11
75.376260
21
234.805988
0
LINE
8
Layer 1
10
75.376260
20
234.805988
11
75.623855
21
235.096057
0
LINE
8
Layer 1
10
75.623855
20
235.096057
11
76.066170
21
235.259009
0
LINE
8
Layer 1
10
76.066170
20
235.259009
11
77.180210
21
235.595278
0
LINE
8
Layer 1
10
77.180210
20
235.595278
11
77.719372
21
235.639423
0
LINE
8
Layer 1
10
77.719372
20
235.639423
11
78.270790
21
235.271116
0
LINE
8
Layer 1
10
78.270790
20
235.271116
11
78.775305
21
234.870449
0
LINE
8
Layer 1
10
78.775305
20
234.870449
11
79.019348
21
235.381343
0
LINE
8
Layer 1
10
79.019348
20
235.381343
11
79.198404
21
235.729720
0
LINE
8
Layer 1
10
79.198404
20
235.729720
11
79.549745
21
236.021230
0
LINE
8
Layer 1
10
79.549745
20
236.021230
11
80.909388
21
236.517773
0
LINE
8
Layer 1
10
80.909388
20
236.517773
11
82.020422
21
236.880193
0
LINE
8
Layer 1
10
82.020422
20
236.880193
11
82.118396
21
237.002255
0
LINE
8
Layer 1
10
82.118396
20
237.002255
11
81.915458
21
237.087228
0
LINE
8
Layer 1
10
81.915458
20
237.087228
11
81.446228
21
237.308656
0
LINE
8
Layer 1
10
81.446228
20
237.308656
11
81.377238
21
237.689910
0
LINE
8
Layer 1
10
81.377238
20
237.689910
11
81.382592
21
238.063288
0
LINE
8
Layer 1
10
81.382592
20
238.063288
11
81.176500
21
238.300049
0
LINE
8
Layer 1
10
81.176500
20
238.300049
11
80.973559
21
238.519784
0
LINE
8
Layer 1
10
80.973559
20
238.519784
11
81.186400
21
238.957067
0
LINE
8
Layer 1
10
81.186400
20
238.957067
11
81.364716
21
239.371993
0
LINE
8
Layer 1
10
81.364716
20
239.371993
11
80.918487
21
239.447347
0
LINE
8
Layer 1
10
80.918487
20
239.447347
11
80.436978
21
239.540439
0
LINE
8
Layer 1
10
80.436978
20
239.540439
11
80.169934
21
239.801630
0
LINE
8
Layer 1
10
80.169934
20
239.801630
11
80.194895
21
239.986904
0
LINE
8
Layer 1
10
80.194895
20
239.986904
11
80.371512
21
240.115366
0
LINE
8
Layer 1
10
80.371512
20
240.115366
11
81.019256
21
240.205903
0
LINE
8
Layer 1
10
81.019256
20
240.205903
11
81.019300
21
240.206000
0
LINE
8
Layer 1
10
70.267100
20
236.985170
11
70.604863
21
236.933984
0
LINE
8
Layer 1
10
70.604863
20
236.933984
11
70.840718
21
236.737117
0
LINE
8
Layer 1
10
70.840718
20
236.737117
11
71.261972
21
235.731990
0
LINE
8
Layer 1
10
71.261972
20
235.731990
11
71.652268
21
234.350485
0
LINE
8
Layer 1
10
71.652268
20
234.350485
11
71.683229
21
233.351758
0
LINE
8
Layer 1
10
71.683229
20
233.351758
11
71.323821
21
232.567241
0
LINE
8
Layer 1
10
71.323821
20
232.567241
11
70.543009
21
231.828370
0
LINE
8
Layer 1
10
70.543009
20
231.828370
11
69.255699
21
230.914252
0
LINE
8
Layer 1
10
69.255699
20
230.914252
11
68.672155
21
232.042612
0
LINE
8
Layer 1
10
68.672155
20
232.042612
11
68.270717
21
232.838387
0
LINE
8
Layer 1
10
68.270717
20
232.838387
11
68.170984
21
232.390063
0
LINE
8
Layer 1
10
68.170984
20
232.390063
11
67.973450
21
231.608843
0
LINE
8
Layer 1
10
67.973450
20
231.608843
11
66.709042
21
232.218564
0
LINE
8
Layer 1
10
66.709042
20
232.218564
11
66.051472
21
232.696492
0
LINE
8
Layer 1
10
66.051472
20
232.696492
11
65.767240
21
233.037153
0
LINE
8
Layer 1
10
65.767240
20
233.037153
11
65.979602
21
233.625555
0
LINE
8
Layer 1
10
65.979602
20
233.625555
11
66.526052
21
234.175475
0
LINE
8
Layer 1
10
66.526052
20
234.175475
11
67.270642
21
234.585812
0
LINE
8
Layer 1
10
67.270642
20
234.585812
11
68.077420
21
234.755463
0
LINE
8
Layer 1
10
68.077420
20
234.755463
11
68.882986
21
234.828433
0
LINE
8
Layer 1
10
68.882986
20
234.828433
11
68.524472
21
235.091425
0
LINE
8
Layer 1
10
68.524472
20
235.091425
11
67.917336
21
235.583358
0
LINE
8
Layer 1
10
67.917336
20
235.583358
11
67.923982
21
236.117216
0
LINE
8
Layer 1
10
67.923982
20
236.117216
11
68.486722
21
236.590888
0
LINE
8
Layer 1
10
68.486722
20
236.590888
11
69.547872
21
236.902265
0
LINE
8
Layer 1
10
69.547872
20
236.902265
11
70.267104
21
236.985175
0
LINE
8
Layer 1
10
70.267104
20
236.985175
11
70.267100
21
236.985170
0
LINE
8
Layer 1
10
86.419700
20
234.039160
11
87.150970
21
234.016004
0
LINE
8
Layer 1
10
87.150970
20
234.016004
11
87.547670
21
233.894067
0
LINE
8
Layer 1
10
87.547670
20
233.894067
11
87.715275
21
233.594647
0
LINE
8
Layer 1
10
87.715275
20
233.594647
11
87.759260
21
233.039040
0
LINE
8
Layer 1
10
87.759260
20
233.039040
11
87.738110
21
232.500823
0
LINE
8
Layer 1
10
87.738110
20
232.500823
11
87.597161
21
232.170208
0
LINE
8
Layer 1
10
87.597161
20
232.170208
11
87.269150
21
231.971194
0
LINE
8
Layer 1
10
87.269150
20
231.971194
11
86.686810
21
231.827780
0
LINE
8
Layer 1
10
86.686810
20
231.827780
11
85.320981
21
231.672705
0
LINE
8
Layer 1
10
85.320981
20
231.672705
11
83.279920
21
231.861610
0
LINE
8
Layer 1
10
83.279920
20
231.861610
11
82.490353
21
232.041137
0
LINE
8
Layer 1
10
82.490353
20
232.041137
11
82.161890
21
232.281409
0
LINE
8
Layer 1
10
82.161890
20
232.281409
11
82.643105
21
232.784041
0
LINE
8
Layer 1
10
82.643105
20
232.784041
11
83.799946
21
233.362933
0
LINE
8
Layer 1
10
83.799946
20
233.362933
11
85.202212
21
233.840497
0
LINE
8
Layer 1
10
85.202212
20
233.840497
11
86.419700
21
234.039149
0
LINE
8
Layer 1
10
86.419700
20
234.039149
11
86.419700
21
234.039160
0
LINE
8
Layer 1
10
91.748090
20
233.203910
11
92.709680
21
233.098229
0
LINE
8
Layer 1
10
92.709680
20
233.098229
11
93.787420
21
232.747164
0
LINE
8
Layer 1
10
93.787420
20
232.747164
11
95.054200
21
232.626692
0
LINE
8
Layer 1
10
95.054200
20
232.626692
11
95.677245
21
232.555932
0
LINE
8
Layer 1
10
95.677245
20
232.555932
11
95.873932
21
232.166839
0
LINE
8
Layer 1
10
95.873932
20
232.166839
11
95.993513
21
231.826183
0
LINE
8
Layer 1
10
95.993513
20
231.826183
11
96.324987
21
231.832121
0
LINE
8
Layer 1
10
96.324987
20
231.832121
11
96.786281
21
231.835319
0
LINE
8
Layer 1
10
96.786281
20
231.835319
11
97.262278
21
231.560744
0
LINE
8
Layer 1
10
97.262278
20
231.560744
11
98.052982
21
231.124814
0
LINE
8
Layer 1
10
98.052982
20
231.124814
11
99.270688
21
230.740708
0
LINE
8
Layer 1
10
99.270688
20
230.740708
11
100.518803
21
230.307753
0
LINE
8
Layer 1
10
100.518803
20
230.307753
11
100.778475
21
230.012903
0
LINE
8
Layer 1
10
100.778475
20
230.012903
11
100.889088
21
229.599618
0
LINE
8
Layer 1
10
100.889088
20
229.599618
11
100.906688
21
229.164636
0
LINE
8
Layer 1
10
100.906688
20
229.164636
11
100.756434
21
228.936215
0
LINE
8
Layer 1
10
100.756434
20
228.936215
11
99.547658
21
228.883602
0
LINE
8
Layer 1
10
99.547658
20
228.883602
11
98.378830
21
228.857615
0
LINE
8
Layer 1
10
98.378830
20
228.857615
11
97.588038
21
228.685819
0
LINE
8
Layer 1
10
97.588038
20
228.685819
11
97.174584
21
228.619432
0
LINE
8
Layer 1
10
97.174584
20
228.619432
11
97.066340
21
229.144115
0
LINE
8
Layer 1
10
97.066340
20
229.144115
11
96.966062
21
229.678274
0
LINE
8
Layer 1
10
96.966062
20
229.678274
11
96.488394
21
229.458339
0
LINE
8
Layer 1
10
96.488394
20
229.458339
11
95.885589
21
229.216482
0
LINE
8
Layer 1
10
95.885589
20
229.216482
11
95.221614
21
229.409909
0
LINE
8
Layer 1
10
95.221614
20
229.409909
11
91.826888
21
230.779790
0
LINE
8
Layer 1
10
91.826888
20
230.779790
11
89.994120
21
231.366682
0
LINE
8
Layer 1
10
89.994120
20
231.366682
11
88.877024
21
231.608869
0
LINE
8
Layer 1
10
88.877024
20
231.608869
11
88.293618
21
231.763448
0
LINE
8
Layer 1
10
88.293618
20
231.763448
11
88.123669
21
232.294457
0
LINE
8
Layer 1
10
88.123669
20
232.294457
11
88.159377
21
232.640028
0
LINE
8
Layer 1
10
88.159377
20
232.640028
11
88.299619
21
232.820278
0
LINE
8
Layer 1
10
88.299619
20
232.820278
11
89.092418
21
232.785356
0
LINE
8
Layer 1
10
89.092418
20
232.785356
11
90.409318
21
232.468645
0
LINE
8
Layer 1
10
90.409318
20
232.468645
11
90.704901
21
232.534109
0
LINE
8
Layer 1
10
90.704901
20
232.534109
11
90.927012
21
232.862362
0
LINE
8
Layer 1
10
90.927012
20
232.862362
11
91.201138
21
233.111452
0
LINE
8
Layer 1
10
91.201138
20
233.111452
11
91.748080
21
233.203912
0
LINE
8
Layer 1
10
91.748080
20
233.203912
11
91.748090
21
233.203910
0
LINE
8
Layer 1
10
62.151890
20
231.942660
11
63.230166
21
231.850679
0
LINE
8
Layer 1
10
63.230166
20
231.850679
11
64.319180
21
231.600797
0
LINE
8
Layer 1
10
64.319180
20
231.600797
11
65.065860
21
231.298057
0
LINE
8
Layer 1
10
65.065860
20
231.298057
11
65.582325
21
230.913967
0
LINE
8
Layer 1
10
65.582325
20
230.913967
11
65.936933
21
230.376179
0
LINE
8
Layer 1
10
65.936933
20
230.376179
11
66.198040
21
229.612347
0
LINE
8
Layer 1
10
66.198040
20
229.612347
11
66.246547
21
229.063318
0
LINE
8
Layer 1
10
66.246547
20
229.063318
11
66.051048
21
228.839689
0
LINE
8
Layer 1
10
66.051048
20
228.839689
11
65.659532
21
228.950690
0
LINE
8
Layer 1
10
65.659532
20
228.950690
11
65.119990
21
229.405551
0
LINE
8
Layer 1
10
65.119990
20
229.405551
11
64.702080
21
229.742000
0
LINE
8
Layer 1
10
64.702080
20
229.742000
11
64.575105
21
229.533173
0
LINE
8
Layer 1
10
64.575105
20
229.533173
11
64.415719
21
229.052519
0
LINE
8
Layer 1
10
64.415719
20
229.052519
11
64.032613
21
228.524663
0
LINE
8
Layer 1
10
64.032613
20
228.524663
11
63.296854
21
227.355633
0
LINE
8
Layer 1
10
63.296854
20
227.355633
11
63.025987
21
226.926491
0
LINE
8
Layer 1
10
63.025987
20
226.926491
11
62.646665
21
226.747982
0
LINE
8
Layer 1
10
62.646665
20
226.747982
11
62.324324
21
226.595038
0
LINE
8
Layer 1
10
62.324324
20
226.595038
11
62.190282
21
226.227274
0
LINE
8
Layer 1
10
62.190282
20
226.227274
11
62.154064
21
225.908922
0
LINE
8
Layer 1
10
62.154064
20
225.908922
11
62.019192
21
225.765958
0
LINE
8
Layer 1
10
62.019192
20
225.765958
11
61.296178
21
225.959311
0
LINE
8
Layer 1
10
61.296178
20
225.959311
11
60.683524
21
226.474949
0
LINE
8
Layer 1
10
60.683524
20
226.474949
11
60.406336
21
227.155051
0
LINE
8
Layer 1
10
60.406336
20
227.155051
11
60.731426
21
227.447531
0
LINE
8
Layer 1
10
60.731426
20
227.447531
11
61.519566
21
227.822938
0
LINE
8
Layer 1
10
61.519566
20
227.822938
11
62.637336
21
228.257326
0
LINE
8
Layer 1
10
62.637336
20
228.257326
11
61.668587
21
228.554167
0
LINE
8
Layer 1
10
61.668587
20
228.554167
11
60.929518
21
228.942858
0
LINE
8
Layer 1
10
60.929518
20
228.942858
11
60.699833
21
229.535347
0
LINE
8
Layer 1
10
60.699833
20
229.535347
11
60.568650
21
230.019030
0
LINE
8
Layer 1
10
60.568650
20
230.019030
11
60.252781
21
230.220004
0
LINE
8
Layer 1
10
60.252781
20
230.220004
11
59.933028
21
230.429317
0
LINE
8
Layer 1
10
59.933028
20
230.429317
11
59.805729
21
230.954958
0
LINE
8
Layer 1
10
59.805729
20
230.954958
11
59.932204
21
231.495352
0
LINE
8
Layer 1
10
59.932204
20
231.495352
11
60.401798
21
231.508268
0
LINE
8
Layer 1
10
60.401798
20
231.508268
11
60.822797
21
231.472358
0
LINE
8
Layer 1
10
60.822797
20
231.472358
11
60.997872
21
231.641166
0
LINE
8
Layer 1
10
60.997872
20
231.641166
11
61.326868
21
231.873827
0
LINE
8
Layer 1
10
61.326868
20
231.873827
11
62.151892
21
231.942663
0
LINE
8
Layer 1
10
62.151892
20
231.942663
11
62.151890
21
231.942660
0
LINE
8
Layer 1
10
48.162290
20
227.790020
11
48.596070
21
227.720033
0
LINE
8
Layer 1
10
48.596070
20
227.720033
11
48.776491
21
227.442257
0
LINE
8
Layer 1
10
48.776491
20
227.442257
11
49.200649
21
227.197076
0
LINE
8
Layer 1
10
49.200649
20
227.197076
11
50.220551
21
227.095118
0
LINE
8
Layer 1
10
50.220551
20
227.095118
11
51.464432
21
226.939607
0
LINE
8
Layer 1
10
51.464432
20
226.939607
11
52.208161
21
226.395872
0
LINE
8
Layer 1
10
52.208161
20
226.395872
11
52.745347
21
225.944023
0
LINE
8
Layer 1
10
52.745347
20
225.944023
11
53.272611
21
225.889135
0
LINE
8
Layer 1
10
53.272611
20
225.889135
11
53.696958
21
225.919081
0
LINE
8
Layer 1
10
53.696958
20
225.919081
11
53.985446
21
225.720535
0
LINE
8
Layer 1
10
53.985446
20
225.720535
11
54.334633
21
225.465301
0
LINE
8
Layer 1
10
54.334633
20
225.465301
11
54.904878
21
225.359108
0
LINE
8
Layer 1
10
54.904878
20
225.359108
11
55.418698
21
225.246186
0
LINE
8
Layer 1
10
55.418698
20
225.246186
11
55.632374
21
224.974710
0
LINE
8
Layer 1
10
55.632374
20
224.974710
11
55.952444
21
223.781064
0
LINE
8
Layer 1
10
55.952444
20
223.781064
11
56.767403
21
221.928448
0
LINE
8
Layer 1
10
56.767403
20
221.928448
11
57.859372
21
219.864350
0
LINE
8
Layer 1
10
57.859372
20
219.864350
11
59.010474
21
218.036260
0
LINE
8
Layer 1
10
59.010474
20
218.036260
11
60.298580
21
215.991170
0
LINE
8
Layer 1
10
60.298580
20
215.991170
11
60.499390
21
215.339132
0
LINE
8
Layer 1
10
60.499390
20
215.339132
11
60.492924
21
214.737810
0
LINE
8
Layer 1
10
60.492924
20
214.737810
11
59.579514
21
210.958018
0
LINE
8
Layer 1
10
59.579514
20
210.958018
11
59.012599
21
209.130678
0
LINE
8
Layer 1
10
59.012599
20
209.130678
11
58.663384
21
208.360120
0
LINE
8
Layer 1
10
58.663384
20
208.360120
11
57.013254
21
209.929390
0
LINE
8
Layer 1
10
57.013254
20
209.929390
11
55.253597
21
211.501675
0
LINE
8
Layer 1
10
55.253597
20
211.501675
11
53.135615
21
212.808066
0
LINE
8
Layer 1
10
53.135615
20
212.808066
11
50.599158
21
213.879320
0
LINE
8
Layer 1
10
50.599158
20
213.879320
11
47.584074
21
214.746190
0
LINE
8
Layer 1
10
47.584074
20
214.746190
11
42.840024
21
215.972360
0
LINE
8
Layer 1
10
42.840024
20
215.972360
11
41.918911
21
216.156261
0
LINE
8
Layer 1
10
41.918911
20
216.156261
11
41.133914
21
216.115189
0
LINE
8
Layer 1
10
41.133914
20
216.115189
11
40.762851
21
216.041245
0
LINE
8
Layer 1
10
40.762851
20
216.041245
11
40.561008
21
216.142425
0
LINE
8
Layer 1
10
40.561008
20
216.142425
11
40.486124
21
217.157539
0
LINE
8
Layer 1
10
40.486124
20
217.157539
11
40.357225
21
218.441566
0
LINE
8
Layer 1
10
40.357225
20
218.441566
11
39.991087
21
219.782819
0
LINE
8
Layer 1
10
39.991087
20
219.782819
11
39.456065
21
221.164859
0
LINE
8
Layer 1
10
39.456065
20
221.164859
11
40.315781
21
222.350349
0
LINE
8
Layer 1
10
40.315781
20
222.350349
11
41.182123
21
223.277369
0
LINE
8
Layer 1
10
41.182123
20
223.277369
11
41.587135
21
223.416486
0
LINE
8
Layer 1
10
41.587135
20
223.416486
11
42.069601
21
223.396729
0
LINE
8
Layer 1
10
42.069601
20
223.396729
11
42.711227
21
223.335608
0
LINE
8
Layer 1
10
42.711227
20
223.335608
11
42.292995
21
223.602594
0
LINE
8
Layer 1
10
42.292995
20
223.602594
11
41.802001
21
223.937799
0
LINE
8
Layer 1
10
41.802001
20
223.937799
11
41.675641
21
224.324165
0
LINE
8
Layer 1
10
41.675641
20
224.324165
11
41.928002
21
224.865408
0
LINE
8
Layer 1
10
41.928002
20
224.865408
11
42.573171
21
225.665244
0
LINE
8
Layer 1
10
42.573171
20
225.665244
11
43.235864
21
226.375954
0
LINE
8
Layer 1
10
43.235864
20
226.375954
11
43.701825
21
226.677111
0
LINE
8
Layer 1
10
43.701825
20
226.677111
11
44.138151
21
226.612526
0
LINE
8
Layer 1
10
44.138151
20
226.612526
11
44.711941
21
226.226011
0
LINE
8
Layer 1
10
44.711941
20
226.226011
11
45.292121
21
225.895332
0
LINE
8
Layer 1
10
45.292121
20
225.895332
11
45.372260
21
226.486211
0
LINE
8
Layer 1
10
45.372260
20
226.486211
11
45.510150
21
227.112492
0
LINE
8
Layer 1
10
45.510150
20
227.112492
11
46.019245
21
227.379828
0
LINE
8
Layer 1
10
46.019245
20
227.379828
11
46.507780
21
227.333979
0
LINE
8
Layer 1
10
46.507780
20
227.333979
11
46.699023
21
227.032383
0
LINE
8
Layer 1
10
46.699023
20
227.032383
11
46.785929
21
226.856384
0
LINE
8
Layer 1
10
46.785929
20
226.856384
11
47.011723
21
227.182044
0
LINE
8
Layer 1
10
47.011723
20
227.182044
11
47.491727
21
227.612820
0
LINE
8
Layer 1
10
47.491727
20
227.612820
11
48.162273
21
227.790002
0
LINE
8
Layer 1
10
48.162273
20
227.790002
11
48.162290
21
227.790020
0
LINE
8
Layer 1
10
57.521360
20
225.918630
11
57.597870
21
225.901870
0
LINE
8
Layer 1
10
57.597870
20
225.901870
11
59.598020
21
225.526161
0
LINE
8
Layer 1
10
59.598020
20
225.526161
11
61.272400
21
225.282730
0
LINE
8
Layer 1
10
61.272400
20
225.282730
11
61.116187
21
222.456550
0
LINE
8
Layer 1
10
61.116187
20
222.456550
11
60.837069
21
219.019813
0
LINE
8
Layer 1
10
60.837069
20
219.019813
11
60.669919
21
218.287742
0
LINE
8
Layer 1
10
60.669919
20
218.287742
11
60.462800
21
218.067930
0
LINE
8
Layer 1
10
60.462800
20
218.067930
11
58.714300
21
220.438290
0
LINE
8
Layer 1
10
58.714300
20
220.438290
11
56.688830
21
223.940740
0
LINE
8
Layer 1
10
56.688830
20
223.940740
11
56.337240
21
224.978783
0
LINE
8
Layer 1
10
56.337240
20
224.978783
11
56.438638
21
225.260233
0
LINE
8
Layer 1
10
56.438638
20
225.260233
11
56.729070
21
225.553490
0
LINE
8
Layer 1
10
56.729070
20
225.553490
11
57.148557
21
225.828415
0
LINE
8
Layer 1
10
57.148557
20
225.828415
11
57.521342
21
225.918636
0
LINE
8
Layer 1
10
57.521342
20
225.918636
11
57.521360
21
225.918630
0
LINE
8
Layer 1
10
62.885740
20
225.404754
11
63.317614
21
225.200635
0
LINE
8
Layer 1
10
63.317614
20
225.200635
11
63.901410
21
224.687182
0
LINE
8
Layer 1
10
63.901410
20
224.687182
11
64.569194
21
224.037927
0
LINE
8
Layer 1
10
64.569194
20
224.037927
11
63.368784
21
219.664217
0
LINE
8
Layer 1
10
63.368784
20
219.664217
11
62.429666
21
216.575266
0
LINE
8
Layer 1
10
62.429666
20
216.575266
11
61.857544
21
215.290507
0
LINE
8
Layer 1
10
61.857544
20
215.290507
11
61.680227
21
215.561873
0
LINE
8
Layer 1
10
61.680227
20
215.561873
11
61.705597
21
216.245296
0
LINE
8
Layer 1
10
61.705597
20
216.245296
11
62.063080
21
221.279756
0
LINE
8
Layer 1
10
62.063080
20
221.279756
11
62.329082
21
224.502920
0
LINE
8
Layer 1
10
62.329082
20
224.502920
11
62.551969
21
225.208581
0
LINE
8
Layer 1
10
62.551969
20
225.208581
11
62.885741
21
225.404766
0
LINE
8
Layer 1
10
62.885741
20
225.404766
11
62.885740
21
225.404754
0
LINE
8
Layer 1
10
66.036710
20
222.255964
11
66.506687
21
221.781516
0
LINE
8
Layer 1
10
66.506687
20
221.781516
11
66.833539
21
221.412454
0
LINE
8
Layer 1
10
66.833539
20
221.412454
11
67.021719
21
221.583107
0
LINE
8
Layer 1
10
67.021719
20
221.583107
11
67.232892
21
221.853404
0
LINE
8
Layer 1
10
67.232892
20
221.853404
11
67.509968
21
221.727279
0
LINE
8
Layer 1
10
67.509968
20
221.727279
11
67.750984
21
221.311174
0
LINE
8
Layer 1
10
67.750984
20
221.311174
11
67.853981
21
220.711530
0
LINE
8
Layer 1
10
67.853981
20
220.711530
11
67.885498
21
220.308157
0
LINE
8
Layer 1
10
67.885498
20
220.308157
11
68.012536
21
220.091028
0
LINE
8
Layer 1
10
68.012536
20
220.091028
11
68.748090
21
220.077177
0
LINE
8
Layer 1
10
68.748090
20
220.077177
11
69.347781
21
220.155734
0
LINE
8
Layer 1
10
69.347781
20
220.155734
11
69.578985
21
220.000835
0
LINE
8
Layer 1
10
69.578985
20
220.000835
11
69.472515
21
219.433960
0
LINE
8
Layer 1
10
69.472515
20
219.433960
11
69.059186
21
218.276587
0
LINE
8
Layer 1
10
69.059186
20
218.276587
11
68.430399
21
216.785864
0
LINE
8
Layer 1
10
68.430399
20
216.785864
11
67.698574
21
215.506100
0
LINE
8
Layer 1
10
67.698574
20
215.506100
11
66.795732
21
214.335344
0
LINE
8
Layer 1
10
66.795732
20
214.335344
11
65.653896
21
213.171647
0
LINE
8
Layer 1
10
65.653896
20
213.171647
11
64.510471
21
212.199895
0
LINE
8
Layer 1
10
64.510471
20
212.199895
11
63.804047
21
211.841524
0
LINE
8
Layer 1
10
63.804047
20
211.841524
11
63.601303
21
211.890944
0
LINE
8
Layer 1
10
63.601303
20
211.890944
11
63.491721
21
212.092014
0
LINE
8
Layer 1
10
63.491721
20
212.092014
11
63.530586
21
212.946843
0
LINE
8
Layer 1
10
63.530586
20
212.946843
11
64.772782
21
217.910655
0
LINE
8
Layer 1
10
64.772782
20
217.910655
11
66.007116
21
222.233923
0
LINE
8
Layer 1
10
66.007116
20
222.233923
11
66.036726
21
222.255973
0
LINE
8
Layer 1
10
66.036726
20
222.255973
11
66.036710
21
222.255964
0
LINE
8
Layer 1
10
33.862710
20
221.874360
11
34.664046
21
221.519453
0
LINE
8
Layer 1
10
34.664046
20
221.519453
11
35.346187
21
221.320808
0
LINE
8
Layer 1
10
35.346187
20
221.320808
11
35.860986
21
221.341539
0
LINE
8
Layer 1
10
35.860986
20
221.341539
11
36.140540
21
221.355765
0
LINE
8
Layer 1
10
36.140540
20
221.355765
11
36.256859
21
221.141574
0
LINE
8
Layer 1
10
36.256859
20
221.141574
11
36.428732
21
220.927551
0
LINE
8
Layer 1
10
36.428732
20
220.927551
11
36.841997
21
220.942853
0
LINE
8
Layer 1
10
36.841997
20
220.942853
11
37.382956
21
220.935485
0
LINE
8
Layer 1
10
37.382956
20
220.935485
11
37.773860
21
220.589433
0
LINE
8
Layer 1
10
37.773860
20
220.589433
11
37.974942
21
219.969554
0
LINE
8
Layer 1
10
37.974942
20
219.969554
11
37.946437
21
219.140703
0
LINE
8
Layer 1
10
37.946437
20
219.140703
11
37.901786
21
218.112941
0
LINE
8
Layer 1
10
37.901786
20
218.112941
11
38.037607
21
217.058483
0
LINE
8
Layer 1
10
38.037607
20
217.058483
11
38.037300
21
217.059000
0
LINE
8
Layer 1
10
38.037300
20
217.059000
11
38.168954
21
216.451204
0
LINE
8
Layer 1
10
38.168954
20
216.451204
11
38.138330
21
216.137736
0
LINE
8
Layer 1
10
38.138330
20
216.137736
11
37.886312
21
216.030678
0
LINE
8
Layer 1
10
37.886312
20
216.030678
11
37.353787
21
216.042110
0
LINE
8
Layer 1
10
37.353787
20
216.042110
11
34.734046
21
216.340156
0
LINE
8
Layer 1
10
34.734046
20
216.340156
11
33.721881
21
216.517057
0
LINE
8
Layer 1
10
33.721881
20
216.517057
11
33.484275
21
216.583216
0
LINE
8
Layer 1
10
33.484275
20
216.583216
11
33.499577
21
216.623366
0
LINE
8
Layer 1
10
33.499577
20
216.623366
11
33.762634
21
216.859415
0
LINE
8
Layer 1
10
33.762634
20
216.859415
11
33.871989
21
217.347457
0
LINE
8
Layer 1
10
33.871989
20
217.347457
11
34.127005
21
217.949771
0
LINE
8
Layer 1
10
34.127005
20
217.949771
11
34.915379
21
218.415887
0
LINE
8
Layer 1
10
34.915379
20
218.415887
11
35.594647
21
218.813945
0
LINE
8
Layer 1
10
35.594647
20
218.813945
11
35.927367
21
219.271253
0
LINE
8
Layer 1
10
35.927367
20
219.271253
11
35.867789
21
219.648095
0
LINE
8
Layer 1
10
35.867789
20
219.648095
11
35.370164
21
219.804757
0
LINE
8
Layer 1
10
35.370164
20
219.804757
11
34.817177
21
220.090301
0
LINE
8
Layer 1
10
34.817177
20
220.090301
11
34.321974
21
220.839657
0
LINE
8
Layer 1
10
34.321974
20
220.839657
11
33.862710
21
221.874360
0
LINE
8
Layer 1
10
39.210560
20
220.060410
11
39.528981
21
219.721372
0
LINE
8
Layer 1
10
39.528981
20
219.721372
11
39.826291
21
218.943100
0
LINE
8
Layer 1
10
39.826291
20
218.943100
11
40.046058
21
217.908651
0
LINE
8
Layer 1
10
40.046058
20
217.908651
11
40.131854
21
216.801080
0
LINE
8
Layer 1
10
40.131854
20
216.801080
11
40.065887
21
215.972686
0
LINE
8
Layer 1
10
40.065887
20
215.972686
11
39.870660
21
215.690609
0
LINE
8
Layer 1
10
39.870660
20
215.690609
11
39.550182
21
215.954994
0
LINE
8
Layer 1
10
39.550182
20
215.954994
11
39.108464
21
216.765990
0
LINE
8
Layer 1
10
39.108464
20
216.765990
11
38.798542
21
217.755663
0
LINE
8
Layer 1
10
38.798542
20
217.755663
11
38.699602
21
218.778966
0
LINE
8
Layer 1
10
38.699602
20
218.778966
11
38.810290
21
219.617599
0
LINE
8
Layer 1
10
38.810290
20
219.617599
11
39.129254
21
220.053260
0
LINE
8
Layer 1
10
39.129254
20
220.053260
11
39.210564
21
220.060360
0
LINE
8
Layer 1
10
39.210564
20
220.060360
11
39.210560
21
220.060410
0
LINE
8
Layer 1
10
69.337500
20
264.197000
11
69.122955
21
263.886005
0
LINE
8
Layer 1
10
69.122955
20
263.886005
11
69.046398
21
263.041310
0
LINE
8
Layer 1
10
69.046398
20
263.041310
11
68.951919
21
262.133411
0
LINE
8
Layer 1
10
68.951919
20
262.133411
11
68.814301
21
261.998360
0
LINE
8
Layer 1
10
68.814301
20
261.998360
11
68.599078
21
262.036840
0
LINE
8
Layer 1
10
68.599078
20
262.036840
11
68.283331
21
262.370992
0
LINE
8
Layer 1
10
68.283331
20
262.370992
11
68.152021
21
262.893822
0
LINE
8
Layer 1
10
68.152021
20
262.893822
11
68.020718
21
263.358050
0
LINE
8
Layer 1
10
68.020718
20
263.358050
11
67.704970
21
263.551153
0
LINE
8
Layer 1
10
67.704970
20
263.551153
11
67.389223
21
263.449193
0
LINE
8
Layer 1
10
67.389223
20
263.449193
11
67.257913
21
263.204014
0
LINE
8
Layer 1
10
67.257913
20
263.204014
11
67.082706
21
262.958836
0
LINE
8
Layer 1
10
67.082706
20
262.958836
11
66.661576
21
262.856876
0
LINE
8
Layer 1
10
66.661576
20
262.856876
11
66.239340
21
262.704869
0
LINE
8
Layer 1
10
66.239340
20
262.704869
11
66.065507
21
262.335856
0
LINE
8
Layer 1
10
66.065507
20
262.335856
11
65.987427
21
261.968086
0
LINE
8
Layer 1
10
65.987427
20
261.968086
11
65.799724
21
261.815142
0
LINE
8
Layer 1
10
65.799724
20
261.815142
11
65.561492
21
261.580828
0
LINE
8
Layer 1
10
65.561492
20
261.580828
11
65.362004
21
261.017464
0
LINE
8
Layer 1
10
65.362004
20
261.017464
11
64.906740
21
260.240478
0
LINE
8
Layer 1
10
64.906740
20
260.240478
11
64.024044
21
259.494774
0
LINE
8
Layer 1
10
64.024044
20
259.494774
11
62.858024
21
258.769757
0
LINE
8
Layer 1
10
62.858024
20
258.769757
11
62.207036
21
260.118887
0
LINE
8
Layer 1
10
62.207036
20
260.118887
11
61.704374
21
261.020844
0
LINE
8
Layer 1
10
61.704374
20
261.020844
11
61.323664
21
261.409904
0
LINE
8
Layer 1
10
61.323664
20
261.409904
11
61.082404
21
261.278820
0
LINE
8
Layer 1
10
61.082404
20
261.278820
11
60.998096
21
260.620344
0
LINE
8
Layer 1
10
60.998096
20
260.620344
11
60.908435
21
260.002825
0
LINE
8
Layer 1
10
60.908435
20
260.002825
11
60.687912
21
259.577236
0
LINE
8
Layer 1
10
60.687912
20
259.577236
11
60.409219
21
259.427363
0
LINE
8
Layer 1
10
60.409219
20
259.427363
11
60.145045
21
259.636989
0
LINE
8
Layer 1
10
60.145045
20
259.636989
11
59.726072
21
259.886029
0
LINE
8
Layer 1
10
59.726072
20
259.886029
11
58.985955
21
260.005554
0
LINE
8
Layer 1
10
58.985955
20
260.005554
11
58.215263
21
259.891484
0
LINE
8
Layer 1
10
58.215263
20
259.891484
11
58.061204
21
259.692066
0
LINE
8
Layer 1
10
58.061204
20
259.692066
11
58.017206
21
259.368719
0
LINE
8
Layer 1
10
58.017206
20
259.368719
11
57.537629
21
257.308539
0
LINE
8
Layer 1
10
57.537629
20
257.308539
11
56.983679
21
256.162001
0
LINE
8
Layer 1
10
56.983679
20
256.162001
11
56.643012
21
255.962659
0
LINE
8
Layer 1
10
56.643012
20
255.962659
11
56.161539
21
255.912839
0
LINE
8
Layer 1
10
56.161539
20
255.912839
11
55.449493
21
255.777454
0
LINE
8
Layer 1
10
55.449493
20
255.777454
11
55.433776
21
255.131619
0
LINE
8
Layer 1
10
55.433776
20
255.131619
11
55.517145
21
254.560188
0
LINE
8
Layer 1
10
55.517145
20
254.560188
11
55.190392
21
254.992827
0
LINE
8
Layer 1
10
55.190392
20
254.992827
11
54.806720
21
255.364295
0
LINE
8
Layer 1
10
54.806720
20
255.364295
11
54.452211
21
255.375229
0
LINE
8
Layer 1
10
54.452211
20
255.375229
11
54.226804
21
255.075419
0
LINE
8
Layer 1
10
54.226804
20
255.075419
11
54.230438
21
254.514654
0
LINE
8
Layer 1
10
54.230438
20
254.514654
11
54.196661
21
254.011635
0
LINE
8
Layer 1
10
54.196661
20
254.011635
11
53.847096
21
253.730021
0
LINE
8
Layer 1
10
53.847096
20
253.730021
11
53.469723
21
253.747615
0
LINE
8
Layer 1
10
53.469723
20
253.747615
11
53.469355
21
254.220920
0
LINE
8
Layer 1
10
53.469355
20
254.220920
11
53.459866
21
254.710128
0
LINE
8
Layer 1
10
53.459866
20
254.710128
11
53.133462
21
254.871106
0
LINE
8
Layer 1
10
53.133462
20
254.871106
11
52.790347
21
255.058802
0
LINE
8
Layer 1
10
52.790347
20
255.058802
11
52.651754
21
255.523160
0
LINE
8
Layer 1
10
52.651754
20
255.523160
11
52.520313
21
256.110442
0
LINE
8
Layer 1
10
52.520313
20
256.110442
11
52.204434
21
256.607120
0
LINE
8
Layer 1
10
52.204434
20
256.607120
11
51.888687
21
257.052966
0
LINE
8
Layer 1
10
51.888687
20
257.052966
11
51.757382
21
257.517819
0
LINE
8
Layer 1
10
51.757382
20
257.517819
11
51.626072
21
257.855551
0
LINE
8
Layer 1
10
51.626072
20
257.855551
11
51.310325
21
257.995992
0
LINE
8
Layer 1
10
51.310325
20
257.995992
11
50.994581
21
257.881529
0
LINE
8
Layer 1
10
50.994581
20
257.881529
11
50.863274
21
257.606313
0
LINE
8
Layer 1
10
50.863274
20
257.606313
11
50.752523
21
257.418395
0
LINE
8
Layer 1
10
50.752523
20
257.418395
11
50.408752
21
257.655703
0
LINE
8
Layer 1
10
50.408752
20
257.655703
11
49.874262
21
257.958438
0
LINE
8
Layer 1
10
49.874262
20
257.958438
11
49.368113
21
256.084727
0
LINE
8
Layer 1
10
49.368113
20
256.084727
11
48.971894
21
253.915718
0
LINE
8
Layer 1
10
48.971894
20
253.915718
11
48.905398
21
253.482872
0
LINE
8
Layer 1
10
48.905398
20
253.482872
11
48.668739
21
253.275652
0
LINE
8
Layer 1
10
48.668739
20
253.275652
11
47.062654
21
253.355883
0
LINE
8
Layer 1
10
47.062654
20
253.355883
11
45.524497
21
253.438305
0
LINE
8
Layer 1
10
45.524497
20
253.438305
11
45.263166
21
253.293804
0
LINE
8
Layer 1
10
45.263166
20
253.293804
11
45.199524
21
252.998500
0
LINE
8
Layer 1
10
45.199524
20
252.998500
11
45.315172
21
252.537544
0
LINE
8
Layer 1
10
45.315172
20
252.537544
11
45.593262
21
252.243050
0
LINE
8
Layer 1
10
45.593262
20
252.243050
11
45.818344
21
251.828554
0
LINE
8
Layer 1
10
45.818344
20
251.828554
11
45.860658
21
251.079063
0
LINE
8
Layer 1
10
45.860658
20
251.079063
11
45.736750
21
250.303838
0
LINE
8
Layer 1
10
45.736750
20
250.303838
11
45.463171
21
249.812140
0
LINE
8
Layer 1
10
45.463171
20
249.812140
11
45.205959
21
249.510683
0
LINE
8
Layer 1
10
45.205959
20
249.510683
11
45.249675
21
249.239646
0
LINE
8
Layer 1
10
45.249675
20
249.239646
11
45.560152
21
249.044027
0
LINE
8
Layer 1
10
45.560152
20
249.044027
11
46.103228
21
248.968821
0
LINE
8
Layer 1
10
46.103228
20
248.968821
11
46.791883
21
248.825674
0
LINE
8
Layer 1
10
46.791883
20
248.825674
11
47.169278
21
248.475128
0
LINE
8
Layer 1
10
47.169278
20
248.475128
11
47.195456
21
247.865518
0
LINE
8
Layer 1
10
47.195456
20
247.865518
11
46.971678
21
247.233929
0
LINE
8
Layer 1
10
46.971678
20
247.233929
11
46.583920
21
246.738791
0
LINE
8
Layer 1
10
46.583920
20
246.738791
11
46.118158
21
246.538538
0
LINE
8
Layer 1
10
46.118158
20
246.538538
11
45.662121
21
246.310474
0
LINE
8
Layer 1
10
45.662121
20
246.310474
11
45.341346
21
245.757317
0
LINE
8
Layer 1
10
45.341346
20
245.757317
11
45.129172
21
245.216330
0
LINE
8
Layer 1
10
45.129172
20
245.216330
11
44.988661
21
245.930886
0
LINE
8
Layer 1
10
44.988661
20
245.930886
11
44.831784
21
246.497550
0
LINE
8
Layer 1
10
44.831784
20
246.497550
11
44.569640
21
246.824756
0
LINE
8
Layer 1
10
44.569640
20
246.824756
11
44.245297
21
246.884108
0
LINE
8
Layer 1
10
44.245297
20
246.884108
11
43.901821
21
246.647209
0
LINE
8
Layer 1
10
43.901821
20
246.647209
11
43.535163
21
246.423079
0
LINE
8
Layer 1
10
43.535163
20
246.423079
11
43.075714
21
246.367047
0
LINE
8
Layer 1
10
43.075714
20
246.367047
11
42.683033
21
246.470272
0
LINE
8
Layer 1
10
42.683033
20
246.470272
11
42.516681
21
246.723909
0
LINE
8
Layer 1
10
42.516681
20
246.723909
11
42.420971
21
246.902762
0
LINE
8
Layer 1
10
42.420971
20
246.902762
11
42.131052
21
247.017356
0
LINE
8
Layer 1
10
42.131052
20
247.017356
11
40.951861
21
247.057384
0
LINE
8
Layer 1
10
40.951861
20
247.057384
11
39.756726
21
246.940253
0
LINE
8
Layer 1
10
39.756726
20
246.940253
11
38.947665
21
246.727322
0
LINE
8
Layer 1
10
38.947665
20
246.727322
11
38.488650
21
246.403310
0
LINE
8
Layer 1
10
38.488650
20
246.403310
11
38.343651
21
245.952934
0
LINE
8
Layer 1
10
38.343651
20
245.952934
11
38.299201
21
245.720953
0
LINE
8
Layer 1
10
38.299201
20
245.720953
11
38.150586
21
245.601353
0
LINE
8
Layer 1
10
38.150586
20
245.601353
11
37.449274
21
245.670375
0
LINE
8
Layer 1
10
37.449274
20
245.670375
11
36.815055
21
245.737704
0
LINE
8
Layer 1
10
36.815055
20
245.737704
11
36.555170
21
245.572565
0
LINE
8
Layer 1
10
36.555170
20
245.572565
11
36.336189
21
245.390583
0
LINE
8
Layer 1
10
36.336189
20
245.390583
11
35.809811
21
245.411728
0
LINE
8
Layer 1
10
35.809811
20
245.411728
11
35.300326
21
245.407689
0
LINE
8
Layer 1
10
35.300326
20
245.407689
11
35.074094
21
245.131740
0
LINE
8
Layer 1
10
35.074094
20
245.131740
11
35.138812
21
244.621320
0
LINE
8
Layer 1
10
35.138812
20
244.621320
11
35.502181
21
243.913868
0
LINE
8
Layer 1
10
35.502181
20
243.913868
11
35.838115
21
243.324580
0
LINE
8
Layer 1
10
35.838115
20
243.324580
11
35.909189
21
242.958597
0
LINE
8
Layer 1
10
35.909189
20
242.958597
11
35.704649
21
242.771547
0
LINE
8
Layer 1
10
35.704649
20
242.771547
11
35.213742
21
242.719058
0
LINE
8
Layer 1
10
35.213742
20
242.719058
11
34.688105
21
242.638540
0
LINE
8
Layer 1
10
34.688105
20
242.638540
11
34.499322
21
242.410417
0
LINE
8
Layer 1
10
34.499322
20
242.410417
11
34.648754
21
242.054834
0
LINE
8
Layer 1
10
34.648754
20
242.054834
11
35.137762
21
241.591938
0
LINE
8
Layer 1
10
35.137762
20
241.591938
11
35.807145
21
241.074337
0
LINE
8
Layer 1
10
35.807145
20
241.074337
11
34.914104
21
241.042007
0
LINE
8
Layer 1
10
34.914104
20
241.042007
11
32.927814
21
240.882720
0
LINE
8
Layer 1
10
32.927814
20
240.882720
11
31.980126
21
240.931079
0
LINE
8
Layer 1
10
31.980126
20
240.931079
11
31.721616
21
241.158487
0
LINE
8
Layer 1
10
31.721616
20
241.158487
11
31.518414
21
241.563964
0
LINE
8
Layer 1
10
31.518414
20
241.563964
11
31.166654
21
242.217541
0
LINE
8
Layer 1
10
31.166654
20
242.217541
11
30.868716
21
242.309705
0
LINE
8
Layer 1
10
30.868716
20
242.309705
11
30.655706
21
241.862104
0
LINE
8
Layer 1
10
30.655706
20
241.862104
11
30.558729
21
240.896383
0
LINE
8
Layer 1
10
30.558729
20
240.896383
11
30.496922
21
240.016603
0
LINE
8
Layer 1
10
30.496922
20
240.016603
11
30.449038
21
239.875359
0
LINE
8
Layer 1
10
30.449038
20
239.875359
11
30.396913
21
239.973577
0
LINE
8
Layer 1
10
30.396913
20
239.973577
11
30.264795
21
240.228286
0
LINE
8
Layer 1
10
30.264795
20
240.228286
11
29.991631
21
240.403898
0
LINE
8
Layer 1
10
29.991631
20
240.403898
11
28.941123
21
240.549864
0
LINE
8
Layer 1
10
28.941123
20
240.549864
11
27.822796
21
240.437174
0
LINE
8
Layer 1
10
27.822796
20
240.437174
11
27.649837
21
240.188377
0
LINE
8
Layer 1
10
27.649837
20
240.188377
11
27.612493
21
239.736666
0
LINE
8
Layer 1
10
27.612493
20
239.736666
11
27.491620
21
239.126191
0
LINE
8
Layer 1
10
27.491620
20
239.126191
11
27.165441
21
238.899866
0
LINE
8
Layer 1
10
27.165441
20
238.899866
11
26.855581
21
238.827753
0
LINE
8
Layer 1
10
26.855581
20
238.827753
11
26.735955
21
238.626575
0
LINE
8
Layer 1
10
26.735955
20
238.626575
11
27.075871
21
237.928000
0
LINE
8
Layer 1
10
27.075871
20
237.928000
11
27.191416
21
237.598156
0
LINE
8
Layer 1
10
27.191416
20
237.598156
11
26.628819
21
237.511306
0
LINE
8
Layer 1
10
26.628819
20
237.511306
11
26.060425
21
237.409344
0
LINE
8
Layer 1
10
26.060425
20
237.409344
11
25.824016
21
237.164168
0
LINE
8
Layer 1
10
25.824016
20
237.164168
11
25.683115
21
236.918833
0
LINE
8
Layer 1
10
25.683115
20
236.918833
11
25.344439
21
236.816717
0
LINE
8
Layer 1
10
25.344439
20
236.816717
11
25.009480
21
236.629830
0
LINE
8
Layer 1
10
25.009480
20
236.629830
11
25.050403
21
235.956628
0
LINE
8
Layer 1
10
25.050403
20
235.956628
11
25.059302
21
235.217466
0
LINE
8
Layer 1
10
25.059302
20
235.217466
11
24.486585
21
234.877328
0
LINE
8
Layer 1
10
24.486585
20
234.877328
11
23.996009
21
234.593087
0
LINE
8
Layer 1
10
23.996009
20
234.593087
11
23.755611
21
234.196687
0
LINE
8
Layer 1
10
23.755611
20
234.196687
11
23.805192
21
233.844313
0
LINE
8
Layer 1
10
23.805192
20
233.844313
11
24.184553
21
233.692148
0
LINE
8
Layer 1
10
24.184553
20
233.692148
11
24.500298
21
233.610483
0
LINE
8
Layer 1
10
24.500298
20
233.610483
11
24.631605
21
233.414247
0
LINE
8
Layer 1
10
24.631605
20
233.414247
11
24.508025
21
233.013821
0
LINE
8
Layer 1
10
24.508025
20
233.013821
11
24.185296
21
232.657129
0
LINE
8
Layer 1
10
24.185296
20
232.657129
11
23.735437
21
232.401254
0
LINE
8
Layer 1
10
23.735437
20
232.401254
11
23.230465
21
232.303277
0
LINE
8
Layer 1
10
23.230465
20
232.303277
11
22.710993
21
232.147230
0
LINE
8
Layer 1
10
22.710993
20
232.147230
11
22.556420
21
231.782952
0
LINE
8
Layer 1
10
22.556420
20
231.782952
11
22.757464
21
231.366239
0
LINE
8
Layer 1
10
22.757464
20
231.366239
11
23.304845
21
231.052887
0
LINE
8
Layer 1
10
23.304845
20
231.052887
11
23.924512
21
230.645477
0
LINE
8
Layer 1
10
23.924512
20
230.645477
11
24.236271
21
229.831067
0
LINE
8
Layer 1
10
24.236271
20
229.831067
11
24.421218
21
229.165069
0
LINE
8
Layer 1
10
24.421218
20
229.165069
11
24.680453
21
228.876988
0
LINE
8
Layer 1
10
24.680453
20
228.876988
11
25.010769
21
228.967906
0
LINE
8
Layer 1
10
25.010769
20
228.967906
11
25.408961
21
229.438906
0
LINE
8
Layer 1
10
25.408961
20
229.438906
11
25.619648
21
229.720900
0
LINE
8
Layer 1
10
25.619648
20
229.720900
11
25.740685
21
229.728096
0
LINE
8
Layer 1
10
25.740685
20
229.728096
11
25.814429
21
228.744623
0
LINE
8
Layer 1
10
25.814429
20
228.744623
11
25.892172
21
227.909889
0
LINE
8
Layer 1
10
25.892172
20
227.909889
11
26.115541
21
227.507606
0
LINE
8
Layer 1
10
26.115541
20
227.507606
11
26.492722
21
227.532641
0
LINE
8
Layer 1
10
26.492722
20
227.532641
11
27.031899
21
227.979860
0
LINE
8
Layer 1
10
27.031899
20
227.979860
11
27.533726
21
228.343510
0
LINE
8
Layer 1
10
27.533726
20
228.343510
11
28.002778
21
227.979860
0
LINE
8
Layer 1
10
28.002778
20
227.979860
11
28.772931
21
227.442383
0
LINE
8
Layer 1
10
28.772931
20
227.442383
11
29.339897
21
226.851575
0
LINE
8
Layer 1
10
29.339897
20
226.851575
11
29.699023
21
225.918753
0
LINE
8
Layer 1
10
29.699023
20
225.918753
11
29.361457
21
225.710458
0
LINE
8
Layer 1
10
29.361457
20
225.710458
11
28.581786
21
225.483544
0
LINE
8
Layer 1
10
28.581786
20
225.483544
11
27.094273
21
225.303963
0
LINE
8
Layer 1
10
27.094273
20
225.303963
11
26.660946
21
225.255773
0
LINE
8
Layer 1
10
26.660946
20
225.255773
11
26.137786
21
225.022030
0
LINE
8
Layer 1
10
26.137786
20
225.022030
11
25.603058
21
224.865179
0
LINE
8
Layer 1
10
25.603058
20
224.865179
11
25.229816
21
225.354886
0
LINE
8
Layer 1
10
25.229816
20
225.354886
11
24.930111
21
225.834806
0
LINE
8
Layer 1
10
24.930111
20
225.834806
11
24.639770
21
226.031203
0
LINE
8
Layer 1
10
24.639770
20
226.031203
11
24.420392
21
225.932290
0
LINE
8
Layer 1
10
24.420392
20
225.932290
11
24.333577
21
225.526280
0
LINE
8
Layer 1
10
24.333577
20
225.526280
11
24.167122
21
225.165258
0
LINE
8
Layer 1
10
24.167122
20
225.165258
11
23.588223
21
225.216713
0
LINE
8
Layer 1
10
23.588223
20
225.216713
11
22.985601
21
225.256582
0
LINE
8
Layer 1
10
22.985601
20
225.256582
11
22.843131
21
224.722082
0
LINE
8
Layer 1
10
22.843131
20
224.722082
11
22.656416
21
224.066814
0
LINE
8
Layer 1
10
22.656416
20
224.066814
11
22.207609
21
223.491562
0
LINE
8
Layer 1
10
22.207609
20
223.491562
11
21.790160
21
222.963223
0
LINE
8
Layer 1
10
21.790160
20
222.963223
11
21.755486
21
222.417232
0
LINE
8
Layer 1
10
21.755486
20
222.417232
11
21.764438
21
221.960981
0
LINE
8
Layer 1
10
21.764438
20
221.960981
11
21.496642
21
221.663338
0
LINE
8
Layer 1
10
21.496642
20
221.663338
11
21.188049
21
221.438962
0
LINE
8
Layer 1
10
21.188049
20
221.438962
11
21.072965
21
221.139261
0
LINE
8
Layer 1
10
21.072965
20
221.139261
11
21.152324
21
220.781238
0
LINE
8
Layer 1
10
21.152324
20
220.781238
11
21.427062
21
220.381898
0
LINE
8
Layer 1
10
21.427062
20
220.381898
11
23.173360
21
218.751225
0
LINE
8
Layer 1
10
23.173360
20
218.751225
11
24.705992
21
217.615958
0
LINE
8
Layer 1
10
24.705992
20
217.615958
11
25.074429
21
217.365138
0
LINE
8
Layer 1
10
25.074429
20
217.365138
11
25.227689
21
217.071655
0
LINE
8
Layer 1
10
25.227689
20
217.071655
11
25.544367
21
216.625325
0
LINE
8
Layer 1
10
25.544367
20
216.625325
11
26.305729
21
216.006945
0
LINE
8
Layer 1
10
26.305729
20
216.006945
11
27.070057
21
215.605428
0
LINE
8
Layer 1
10
27.070057
20
215.605428
11
28.223626
21
215.334021
0
LINE
8
Layer 1
10
28.223626
20
215.334021
11
33.385279
21
214.922985
0
LINE
8
Layer 1
10
33.385279
20
214.922985
11
42.861397
21
214.268976
0
LINE
8
Layer 1
10
42.861397
20
214.268976
11
45.189029
21
213.901067
0
LINE
8
Layer 1
10
45.189029
20
213.901067
11
47.420379
21
213.335075
0
LINE
8
Layer 1
10
47.420379
20
213.335075
11
51.340924
21
211.967148
0
LINE
8
Layer 1
10
51.340924
20
211.967148
11
53.032498
21
211.155862
0
LINE
8
Layer 1
10
53.032498
20
211.155862
11
54.517649
21
210.277694
0
LINE
8
Layer 1
10
54.517649
20
210.277694
11
55.775910
21
209.346144
0
LINE
8
Layer 1
10
55.775910
20
209.346144
11
56.786814
21
208.374712
0
LINE
8
Layer 1
10
56.786814
20
208.374712
11
57.529893
21
207.376899
0
LINE
8
Layer 1
10
57.529893
20
207.376899
11
57.984679
21
206.366205
0
LINE
8
Layer 1
10
57.984679
20
206.366205
11
59.655329
21
202.617835
0
LINE
8
Layer 1
10
59.655329
20
202.617835
11
62.003359
21
197.688635
0
LINE
8
Layer 1
10
62.003359
20
197.688635
11
64.433499
21
192.745775
0
LINE
8
Layer 1
10
64.433499
20
192.745775
11
66.492929
21
188.503454
0
LINE
8
Layer 1
10
66.492929
20
188.503454
11
67.056186
21
186.864020
0
LINE
8
Layer 1
10
67.056186
20
186.864020
11
67.254709
21
185.680335
0
LINE
8
Layer 1
10
67.254709
20
185.680335
11
67.043772
21
184.451920
0
LINE
8
Layer 1
10
67.043772
20
184.451920
11
66.456499
21
182.925842
0
LINE
8
Layer 1
10
66.456499
20
182.925842
11
65.570427
21
181.269607
0
LINE
8
Layer 1
10
65.570427
20
181.269607
11
64.463089
21
179.650715
0
LINE
8
Layer 1
10
64.463089
20
179.650715
11
63.479293
21
178.156694
0
LINE
8
Layer 1
10
63.479293
20
178.156694
11
62.880710
21
176.565459
0
LINE
8
Layer 1
10
62.880710
20
176.565459
11
62.581477
21
174.530034
0
LINE
8
Layer 1
10
62.581477
20
174.530034
11
62.495729
21
171.703445
0
LINE
8
Layer 1
10
62.495729
20
171.703445
11
62.379203
21
168.924728
0
LINE
8
Layer 1
10
62.379203
20
168.924728
11
61.956580
21
166.410797
0
LINE
8
Layer 1
10
61.956580
20
166.410797
11
61.096694
21
163.618815
0
LINE
8
Layer 1
10
61.096694
20
163.618815
11
59.668379
21
160.005945
0
LINE
8
Layer 1
10
59.668379
20
160.005945
11
57.718889
21
154.955335
0
LINE
8
Layer 1
10
57.718889
20
154.955335
11
57.818799
21
154.600140
0
LINE
8
Layer 1
10
57.818799
20
154.600140
11
58.133511
21
154.296686
0
LINE
8
Layer 1
10
58.133511
20
154.296686
11
59.497239
21
153.785675
0
LINE
8
Layer 1
10
59.497239
20
153.785675
11
59.497507
21
153.785365
0
LINE
8
Layer 1
10
59.497507
20
153.785365
11
61.569774
21
153.622790
0
LINE
8
Layer 1
10
61.569774
20
153.622790
11
64.779796
21
153.656714
0
LINE
8
Layer 1
10
64.779796
20
153.656714
11
67.903573
21
153.844311
0
LINE
8
Layer 1
10
67.903573
20
153.844311
11
69.717107
21
154.142755
0
LINE
8
Layer 1
10
69.717107
20
154.142755
11
70.080773
21
154.355863
0
LINE
8
Layer 1
10
70.080773
20
154.355863
11
70.333327
21
154.658696
0
LINE
8
Layer 1
10
70.333327
20
154.658696
11
70.471746
21
155.114369
0
LINE
8
Layer 1
10
70.471746
20
155.114369
11
70.493008
21
155.785999
0
LINE
8
Layer 1
10
70.493008
20
155.785999
11
70.171969
21
158.029592
0
LINE
8
Layer 1
10
70.171969
20
158.029592
11
69.346031
21
161.894405
0
LINE
8
Layer 1
10
69.346031
20
161.894405
11
68.504402
21
166.043541
0
LINE
8
Layer 1
10
68.504402
20
166.043541
11
68.153621
21
168.563655
0
LINE
8
Layer 1
10
68.153621
20
168.563655
11
68.556844
21
171.557134
0
LINE
8
Layer 1
10
68.556844
20
171.557134
11
69.544662
21
176.079695
0
LINE
8
Layer 1
10
69.544662
20
176.079695
11
70.778453
21
180.732786
0
LINE
8
Layer 1
10
70.778453
20
180.732786
11
71.919591
21
184.117855
0
LINE
8
Layer 1
10
71.919591
20
184.117855
11
72.427565
21
185.521348
0
LINE
8
Layer 1
10
72.427565
20
185.521348
11
72.575681
21
186.700765
0
LINE
8
Layer 1
10
72.575681
20
186.700765
11
72.356764
21
187.894927
0
LINE
8
Layer 1
10
72.356764
20
187.894927
11
71.763640
21
189.342655
0
LINE
8
Layer 1
10
71.763640
20
189.342655
11
70.720780
21
192.085935
0
LINE
8
Layer 1
10
70.720780
20
192.085935
11
70.216734
21
193.251337
0
LINE
8
Layer 1
10
70.216734
20
193.251337
11
69.261520
21
194.753445
0
LINE
8
Layer 1
10
69.261520
20
194.753445
11
67.671285
21
197.450278
0
LINE
8
Layer 1
10
67.671285
20
197.450278
11
65.925545
21
201.095471
0
LINE
8
Layer 1
10
65.925545
20
201.095471
11
64.556815
21
204.486027
0
LINE
8
Layer 1
10
64.556815
20
204.486027
11
64.180240
21
205.709878
0
LINE
8
Layer 1
10
64.180240
20
205.709878
11
64.097610
21
206.418945
0
LINE
8
Layer 1
10
64.097610
20
206.418945
11
65.187479
21
208.190559
0
LINE
8
Layer 1
10
65.187479
20
208.190559
11
67.561010
21
211.304055
0
LINE
8
Layer 1
10
67.561010
20
211.304055
11
71.786560
21
216.894005
0
LINE
8
Layer 1
10
71.786560
20
216.894005
11
72.524561
21
217.968305
0
LINE
8
Layer 1
10
72.524561
20
217.968305
11
72.981900
21
218.415145
0
LINE
8
Layer 1
10
72.981900
20
218.415145
11
74.756250
21
217.519973
0
LINE
8
Layer 1
10
74.756250
20
217.519973
11
75.981508
21
216.927536
0
LINE
8
Layer 1
10
75.981508
20
216.927536
11
76.353809
21
216.876519
0
LINE
8
Layer 1
10
76.353809
20
216.876519
11
76.581790
21
216.984358
0
LINE
8
Layer 1
10
76.581790
20
216.984358
11
76.723995
21
217.386619
0
LINE
8
Layer 1
10
76.723995
20
217.386619
11
76.509020
21
217.879843
0
LINE
8
Layer 1
10
76.509020
20
217.879843
11
76.285550
21
218.313321
0
LINE
8
Layer 1
10
76.285550
20
218.313321
11
76.576730
21
218.415145
0
LINE
8
Layer 1
10
76.576730
20
218.415145
11
77.037612
21
218.160244
0
LINE
8
Layer 1
10
77.037612
20
218.160244
11
77.514558
21
217.547299
0
LINE
8
Layer 1
10
77.514558
20
217.547299
11
78.062658
21
216.917578
0
LINE
8
Layer 1
10
78.062658
20
216.917578
11
78.709098
21
216.679141
0
LINE
8
Layer 1
10
78.709098
20
216.679141
11
79.258456
21
216.526197
0
LINE
8
Layer 1
10
79.258456
20
216.526197
11
79.587210
21
216.158427
0
LINE
8
Layer 1
10
79.587210
20
216.158427
11
79.798488
21
215.772039
0
LINE
8
Layer 1
10
79.798488
20
215.772039
11
80.048143
21
215.656496
0
LINE
8
Layer 1
10
80.048143
20
215.656496
11
80.277130
21
215.807443
0
LINE
8
Layer 1
10
80.277130
20
215.807443
11
80.426405
21
216.220527
0
LINE
8
Layer 1
10
80.426405
20
216.220527
11
80.589638
21
216.618036
0
LINE
8
Layer 1
10
80.589638
20
216.618036
11
81.052064
21
216.186697
0
LINE
8
Layer 1
10
81.052064
20
216.186697
11
81.549347
21
215.806561
0
LINE
8
Layer 1
10
81.549347
20
215.806561
11
82.001622
21
215.758202
0
LINE
8
Layer 1
10
82.001622
20
215.758202
11
82.327718
21
215.788121
0
LINE
8
Layer 1
10
82.327718
20
215.788121
11
82.521720
21
215.596434
0
LINE
8
Layer 1
10
82.521720
20
215.596434
11
82.787620
21
215.420483
0
LINE
8
Layer 1
10
82.787620
20
215.420483
11
83.375839
21
215.581234
0
LINE
8
Layer 1
10
83.375839
20
215.581234
11
84.124282
21
215.769095
0
LINE
8
Layer 1
10
84.124282
20
215.769095
11
84.864689
21
215.751697
0
LINE
8
Layer 1
10
84.864689
20
215.751697
11
85.267585
21
215.699206
0
LINE
8
Layer 1
10
85.267585
20
215.699206
11
85.492222
21
215.831092
0
LINE
8
Layer 1
10
85.492222
20
215.831092
11
85.631369
21
217.019477
0
LINE
8
Layer 1
10
85.631369
20
217.019477
11
85.548602
21
218.222104
0
LINE
8
Layer 1
10
85.548602
20
218.222104
11
85.317085
21
218.332158
0
LINE
8
Layer 1
10
85.317085
20
218.332158
11
84.875883
21
218.249677
0
LINE
8
Layer 1
10
84.875883
20
218.249677
11
84.141433
21
218.244074
0
LINE
8
Layer 1
10
84.141433
20
218.244074
11
83.497673
21
218.571663
0
LINE
8
Layer 1
10
83.497673
20
218.571663
11
83.238806
21
218.851201
0
LINE
8
Layer 1
10
83.238806
20
218.851201
11
83.345056
21
218.989834
0
LINE
8
Layer 1
10
83.345056
20
218.989834
11
85.096613
21
218.948923
0
LINE
8
Layer 1
10
85.096613
20
218.948923
11
87.285763
21
218.802368
0
LINE
8
Layer 1
10
87.285763
20
218.802368
11
87.093826
21
219.692265
0
LINE
8
Layer 1
10
87.093826
20
219.692265
11
86.831429
21
220.468872
0
LINE
8
Layer 1
10
86.831429
20
220.468872
11
86.469766
21
221.086095
0
LINE
8
Layer 1
10
86.469766
20
221.086095
11
86.037370
21
221.710511
0
LINE
8
Layer 1
10
86.037370
20
221.710511
11
87.527820
21
222.408206
0
LINE
8
Layer 1
10
87.527820
20
222.408206
11
88.416763
21
222.876409
0
LINE
8
Layer 1
10
88.416763
20
222.876409
11
88.958373
21
223.388601
0
LINE
8
Layer 1
10
88.958373
20
223.388601
11
89.053750
21
223.801205
0
LINE
8
Layer 1
10
89.053750
20
223.801205
11
88.604000
21
223.970646
0
LINE
8
Layer 1
10
88.604000
20
223.970646
11
88.346532
21
224.102595
0
LINE
8
Layer 1
10
88.346532
20
224.102595
11
88.066462
21
224.460279
0
LINE
8
Layer 1
10
88.066462
20
224.460279
11
87.522102
21
225.623888
0
LINE
8
Layer 1
10
87.522102
20
225.623888
11
87.138084
21
227.003539
0
LINE
8
Layer 1
10
87.138084
20
227.003539
11
87.081570
21
228.141296
0
LINE
8
Layer 1
10
87.081570
20
228.141296
11
87.129204
21
228.850169
0
LINE
8
Layer 1
10
87.129204
20
228.850169
11
86.970345
21
229.279418
0
LINE
8
Layer 1
10
86.970345
20
229.279418
11
86.627709
21
229.403999
0
LINE
8
Layer 1
10
86.627709
20
229.403999
11
86.124015
21
229.198866
0
LINE
8
Layer 1
10
86.124015
20
229.198866
11
84.766619
21
228.442620
0
LINE
8
Layer 1
10
84.766619
20
228.442620
11
83.517250
21
227.976222
0
LINE
8
Layer 1
10
83.517250
20
227.976222
11
82.568391
21
227.851399
0
LINE
8
Layer 1
10
82.568391
20
227.851399
11
82.266803
21
227.933242
0
LINE
8
Layer 1
10
82.266803
20
227.933242
11
82.112525
21
228.119876
0
LINE
8
Layer 1
10
82.112525
20
228.119876
11
81.642220
21
228.203015
0
LINE
8
Layer 1
10
81.642220
20
228.203015
11
80.602085
21
227.906872
0
LINE
8
Layer 1
10
80.602085
20
227.906872
11
79.118232
21
227.562569
0
LINE
8
Layer 1
10
79.118232
20
227.562569
11
78.641422
21
227.628545
0
LINE
8
Layer 1
10
78.641422
20
227.628545
11
78.357901
21
227.829506
0
LINE
8
Layer 1
10
78.357901
20
227.829506
11
78.280078
21
228.147631
0
LINE
8
Layer 1
10
78.280078
20
228.147631
11
78.420360
21
228.565094
0
LINE
8
Layer 1
10
78.420360
20
228.565094
11
79.404875
21
229.626742
0
LINE
8
Layer 1
10
79.404875
20
229.626742
11
80.257385
21
230.209556
0
LINE
8
Layer 1
10
80.257385
20
230.209556
11
81.213392
21
230.522199
0
LINE
8
Layer 1
10
81.213392
20
230.522199
11
82.662417
21
230.633263
0
LINE
8
Layer 1
10
82.662417
20
230.633263
11
84.993975
21
230.611340
0
LINE
8
Layer 1
10
84.993975
20
230.611340
11
87.676825
21
230.551100
0
LINE
8
Layer 1
10
87.676825
20
230.551100
11
88.335014
21
228.806710
0
LINE
8
Layer 1
10
88.335014
20
228.806710
11
88.790896
21
227.349192
0
LINE
8
Layer 1
10
88.790896
20
227.349192
11
88.755232
21
227.033912
0
LINE
8
Layer 1
10
88.755232
20
227.033912
11
88.558403
21
226.868250
0
LINE
8
Layer 1
10
88.558403
20
226.868250
11
88.255119
21
226.614450
0
LINE
8
Layer 1
10
88.255119
20
226.614450
11
88.136144
21
226.277056
0
LINE
8
Layer 1
10
88.136144
20
226.277056
11
88.596606
21
225.740974
0
LINE
8
Layer 1
10
88.596606
20
225.740974
11
89.624053
21
225.083046
0
LINE
8
Layer 1
10
89.624053
20
225.083046
11
90.723077
21
224.574926
0
LINE
8
Layer 1
10
90.723077
20
224.574926
11
91.398274
21
224.488266
0
LINE
8
Layer 1
10
91.398274
20
224.488266
11
91.611973
21
224.534056
0
LINE
8
Layer 1
10
91.611973
20
224.534056
11
91.700843
21
224.338292
0
LINE
8
Layer 1
10
91.700843
20
224.338292
11
91.871644
21
224.078639
0
LINE
8
Layer 1
10
91.871644
20
224.078639
11
92.282251
21
223.970658
0
LINE
8
Layer 1
10
92.282251
20
223.970658
11
92.776314
21
223.796788
0
LINE
8
Layer 1
10
92.776314
20
223.796788
11
93.147838
21
223.378846
0
LINE
8
Layer 1
10
93.147838
20
223.378846
11
93.513628
21
222.975948
0
LINE
8
Layer 1
10
93.513628
20
222.975948
11
94.131516
21
223.157460
0
LINE
8
Layer 1
10
94.131516
20
223.157460
11
94.970612
21
223.342154
0
LINE
8
Layer 1
10
94.970612
20
223.342154
11
96.151386
21
223.073000
0
LINE
8
Layer 1
10
96.151386
20
223.073000
11
97.076322
21
222.812109
0
LINE
8
Layer 1
10
97.076322
20
222.812109
11
97.635867
21
222.809616
0
LINE
8
Layer 1
10
97.635867
20
222.809616
11
97.867769
21
223.078229
0
LINE
8
Layer 1
10
97.867769
20
223.078229
11
97.809776
21
223.630660
0
LINE
8
Layer 1
10
97.809776
20
223.630660
11
97.764068
21
223.962281
0
LINE
8
Layer 1
10
97.764068
20
223.962281
11
97.876957
21
224.174265
0
LINE
8
Layer 1
10
97.876957
20
224.174265
11
98.759597
21
224.382691
0
LINE
8
Layer 1
10
98.759597
20
224.382691
11
99.689211
21
224.638115
0
LINE
8
Layer 1
10
99.689211
20
224.638115
11
100.191937
21
225.213903
0
LINE
8
Layer 1
10
100.191937
20
225.213903
11
100.517624
21
225.681807
0
LINE
8
Layer 1
10
100.517624
20
225.681807
11
100.869307
21
225.792365
0
LINE
8
Layer 1
10
100.869307
20
225.792365
11
101.131591
21
225.794944
0
LINE
8
Layer 1
10
101.131591
20
225.794944
11
101.225869
21
226.037119
0
LINE
8
Layer 1
10
101.225869
20
226.037119
11
100.904507
21
227.035605
0
LINE
8
Layer 1
10
100.904507
20
227.035605
11
100.811378
21
227.398167
0
LINE
8
Layer 1
10
100.811378
20
227.398167
11
100.863398
21
227.810899
0
LINE
8
Layer 1
10
100.863398
20
227.810899
11
101.294999
21
228.646935
0
LINE
8
Layer 1
10
101.294999
20
228.646935
11
101.983539
21
229.263841
0
LINE
8
Layer 1
10
101.983539
20
229.263841
11
102.356733
21
229.402660
0
LINE
8
Layer 1
10
102.356733
20
229.402660
11
102.713247
21
229.381745
0
LINE
8
Layer 1
10
102.713247
20
229.381745
11
103.922447
21
228.981509
0
LINE
8
Layer 1
10
103.922447
20
228.981509
11
104.359425
21
228.993730
0
LINE
8
Layer 1
10
104.359425
20
228.993730
11
104.523861
21
229.303393
0
LINE
8
Layer 1
10
104.523861
20
229.303393
11
104.406190
21
229.754854
0
LINE
8
Layer 1
10
104.406190
20
229.754854
11
103.996847
21
230.192469
0
LINE
8
Layer 1
10
103.996847
20
230.192469
11
103.624247
21
230.497050
0
LINE
8
Layer 1
10
103.624247
20
230.497050
11
103.996847
21
230.556684
0
LINE
8
Layer 1
10
103.996847
20
230.556684
11
104.365287
21
230.731063
0
LINE
8
Layer 1
10
104.365287
20
230.731063
11
104.518537
21
231.135146
0
LINE
8
Layer 1
10
104.518537
20
231.135146
11
104.737384
21
231.772386
0
LINE
8
Layer 1
10
104.737384
20
231.772386
11
105.263627
21
232.507246
0
LINE
8
Layer 1
10
105.263627
20
232.507246
11
105.776619
21
233.106153
0
LINE
8
Layer 1
10
105.776619
20
233.106153
11
105.959667
21
233.530133
0
LINE
8
Layer 1
10
105.959667
20
233.530133
11
105.820553
21
233.924025
0
LINE
8
Layer 1
10
105.820553
20
233.924025
11
105.367057
21
234.432666
0
LINE
8
Layer 1
10
105.367057
20
234.432666
11
104.961638
21
234.942071
0
LINE
8
Layer 1
10
104.961638
20
234.942071
11
104.997659
21
235.049155
0
LINE
8
Layer 1
10
104.997659
20
235.049155
11
105.186317
21
235.080989
0
LINE
8
Layer 1
10
105.186317
20
235.080989
11
105.566828
21
235.248373
0
LINE
8
Layer 1
10
105.566828
20
235.248373
11
105.834637
21
235.650763
0
LINE
8
Layer 1
10
105.834637
20
235.650763
11
105.942724
21
236.382915
0
LINE
8
Layer 1
10
105.942724
20
236.382915
11
105.737161
21
236.989365
0
LINE
8
Layer 1
10
105.737161
20
236.989365
11
105.211923
21
237.479127
0
LINE
8
Layer 1
10
105.211923
20
237.479127
11
104.360987
21
237.861213
0
LINE
8
Layer 1
10
104.360987
20
237.861213
11
103.419648
21
238.251365
0
LINE
8
Layer 1
10
103.419648
20
238.251365
11
103.028097
21
238.579091
0
LINE
8
Layer 1
10
103.028097
20
238.579091
11
102.632863
21
238.752178
0
LINE
8
Layer 1
10
102.632863
20
238.752178
11
101.682667
21
238.770362
0
LINE
8
Layer 1
10
101.682667
20
238.770362
11
100.284946
21
238.832711
0
LINE
8
Layer 1
10
100.284946
20
238.832711
11
100.172266
21
239.068226
0
LINE
8
Layer 1
10
100.172266
20
239.068226
11
100.384427
21
239.475820
0
LINE
8
Layer 1
10
100.384427
20
239.475820
11
101.061247
21
239.815226
0
LINE
8
Layer 1
10
101.061247
20
239.815226
11
102.319257
21
239.941568
0
LINE
8
Layer 1
10
102.319257
20
239.941568
11
103.560148
21
240.050903
0
LINE
8
Layer 1
10
103.560148
20
240.050903
11
103.836698
21
240.200628
0
LINE
8
Layer 1
10
103.836698
20
240.200628
11
103.922467
21
240.425329
0
LINE
8
Layer 1
10
103.922467
20
240.425329
11
103.791027
21
240.825551
0
LINE
8
Layer 1
10
103.791027
20
240.825551
11
103.475147
21
241.108742
0
LINE
8
Layer 1
10
103.475147
20
241.108742
11
103.133149
21
241.356447
0
LINE
8
Layer 1
10
103.133149
20
241.356447
11
103.048964
21
241.642413
0
LINE
8
Layer 1
10
103.048964
20
241.642413
11
103.215126
21
241.915688
0
LINE
8
Layer 1
10
103.215126
20
241.915688
11
103.624167
21
242.125322
0
LINE
8
Layer 1
10
103.624167
20
242.125322
11
104.148296
21
242.456581
0
LINE
8
Layer 1
10
104.148296
20
242.456581
11
104.231638
21
242.885742
0
LINE
8
Layer 1
10
104.231638
20
242.885742
11
103.918142
21
243.259552
0
LINE
8
Layer 1
10
103.918142
20
243.259552
11
103.251757
21
243.424762
0
LINE
8
Layer 1
10
103.251757
20
243.424762
11
102.460025
21
243.550113
0
LINE
8
Layer 1
10
102.460025
20
243.550113
11
101.821389
21
243.876924
0
LINE
8
Layer 1
10
101.821389
20
243.876924
11
101.394902
21
244.360270
0
LINE
8
Layer 1
10
101.394902
20
244.360270
11
101.239617
21
244.955222
0
LINE
8
Layer 1
10
101.239617
20
244.955222
11
101.278137
21
245.244778
0
LINE
8
Layer 1
10
101.278137
20
245.244778
11
101.420468
21
245.390540
0
LINE
8
Layer 1
10
101.420468
20
245.390540
11
102.177177
21
245.311986
0
LINE
8
Layer 1
10
102.177177
20
245.311986
11
102.938323
21
245.228147
0
LINE
8
Layer 1
10
102.938323
20
245.228147
11
103.012049
21
245.417555
0
LINE
8
Layer 1
10
103.012049
20
245.417555
11
102.950527
21
245.805373
0
LINE
8
Layer 1
10
102.950527
20
245.805373
11
102.913622
21
246.323120
0
LINE
8
Layer 1
10
102.913622
20
246.323120
11
103.056087
21
246.538465
0
LINE
8
Layer 1
10
103.056087
20
246.538465
11
103.246833
21
246.691406
0
LINE
8
Layer 1
10
103.246833
20
246.691406
11
103.326137
21
247.059172
0
LINE
8
Layer 1
10
103.326137
20
247.059172
11
103.197561
21
247.426939
0
LINE
8
Layer 1
10
103.197561
20
247.426939
11
102.888407
21
247.579880
0
LINE
8
Layer 1
10
102.888407
20
247.579880
11
102.616026
21
247.721425
0
LINE
8
Layer 1
10
102.616026
20
247.721425
11
102.622097
21
248.100900
0
LINE
8
Layer 1
10
102.622097
20
248.100900
11
102.865356
21
248.468670
0
LINE
8
Layer 1
10
102.865356
20
248.468670
11
103.209107
21
248.621614
0
LINE
8
Layer 1
10
103.209107
20
248.621614
11
103.502276
21
248.774555
0
LINE
8
Layer 1
10
103.502276
20
248.774555
11
103.624167
21
249.142321
0
LINE
8
Layer 1
10
103.624167
20
249.142321
11
103.502276
21
249.510244
0
LINE
8
Layer 1
10
103.502276
20
249.510244
11
103.209107
21
249.663341
0
LINE
8
Layer 1
10
103.209107
20
249.663341
11
102.883562
21
249.820224
0
LINE
8
Layer 1
10
102.883562
20
249.820224
11
102.601817
21
250.216945
0
LINE
8
Layer 1
10
102.601817
20
250.216945
11
102.419649
21
250.742611
0
LINE
8
Layer 1
10
102.419649
20
250.742611
11
102.392837
21
251.286331
0
LINE
8
Layer 1
10
102.392837
20
251.286331
11
102.340020
21
251.706237
0
LINE
8
Layer 1
10
102.340020
20
251.706237
11
102.084487
21
251.916216
0
LINE
8
Layer 1
10
102.084487
20
251.916216
11
101.690092
21
251.897495
0
LINE
8
Layer 1
10
101.690092
20
251.897495
11
101.220687
21
251.631300
0
LINE
8
Layer 1
10
101.220687
20
251.631300
11
100.656310
21
251.346067
0
LINE
8
Layer 1
10
100.656310
20
251.346067
11
100.080011
21
251.311007
0
LINE
8
Layer 1
10
100.080011
20
251.311007
11
99.631660
21
251.504480
0
LINE
8
Layer 1
10
99.631660
20
251.504480
11
99.451127
21
251.904845
0
LINE
8
Layer 1
10
99.451127
20
251.904845
11
99.232149
21
252.320866
0
LINE
8
Layer 1
10
99.232149
20
252.320866
11
98.705773
21
252.724881
0
LINE
8
Layer 1
10
98.705773
20
252.724881
11
98.179526
21
253.119500
0
LINE
8
Layer 1
10
98.179526
20
253.119500
11
97.960681
21
253.512934
0
LINE
8
Layer 1
10
97.960681
20
253.512934
11
97.687857
21
253.763203
0
LINE
8
Layer 1
10
97.687857
20
253.763203
11
96.945281
21
253.767540
0
LINE
8
Layer 1
10
96.945281
20
253.767540
11
96.368659
21
253.717988
0
LINE
8
Layer 1
10
96.368659
20
253.717988
11
96.043174
21
253.840348
0
LINE
8
Layer 1
10
96.043174
20
253.840348
11
95.866975
21
254.240842
0
LINE
8
Layer 1
10
95.866975
20
254.240842
11
95.738211
21
255.025690
0
LINE
8
Layer 1
10
95.738211
20
255.025690
11
95.682070
21
256.079543
0
LINE
8
Layer 1
10
95.682070
20
256.079543
11
95.859237
21
256.543730
0
LINE
8
Layer 1
10
95.859237
20
256.543730
11
96.107985
21
256.795785
0
LINE
8
Layer 1
10
96.107985
20
256.795785
11
96.159508
21
257.189826
0
LINE
8
Layer 1
10
96.159508
20
257.189826
11
96.027307
21
257.592511
0
LINE
8
Layer 1
10
96.027307
20
257.592511
11
95.724881
21
257.870500
0
LINE
8
Layer 1
10
95.724881
20
257.870500
11
95.409136
21
258.141165
0
LINE
8
Layer 1
10
95.409136
20
258.141165
11
95.277829
21
258.511372
0
LINE
8
Layer 1
10
95.277829
20
258.511372
11
95.409136
21
258.949931
0
LINE
8
Layer 1
10
95.409136
20
258.949931
11
95.724881
21
259.384812
0
LINE
8
Layer 1
10
95.724881
20
259.384812
11
96.098220
21
259.850266
0
LINE
8
Layer 1
10
96.098220
20
259.850266
11
96.101611
21
260.174613
0
LINE
8
Layer 1
10
96.101611
20
260.174613
11
95.730365
21
260.364413
0
LINE
8
Layer 1
10
95.730365
20
260.364413
11
94.979789
21
260.426222
0
LINE
8
Layer 1
10
94.979789
20
260.426222
11
94.060658
21
260.545691
0
LINE
8
Layer 1
10
94.060658
20
260.545691
11
93.852596
21
260.707163
0
LINE
8
Layer 1
10
93.852596
20
260.707163
11
93.787379
21
260.947248
0
LINE
8
Layer 1
10
93.787379
20
260.947248
11
93.681614
21
261.348686
0
LINE
8
Layer 1
10
93.681614
20
261.348686
11
93.387999
21
261.437188
0
LINE
8
Layer 1
10
93.387999
20
261.437188
11
92.942057
21
261.219007
0
LINE
8
Layer 1
10
92.942057
20
261.219007
11
92.379309
21
260.700399
0
LINE
8
Layer 1
10
92.379309
20
260.700399
11
91.677937
21
259.932842
0
LINE
8
Layer 1
10
91.677937
20
259.932842
11
91.505458
21
260.700399
0
LINE
8
Layer 1
10
91.505458
20
260.700399
11
91.285767
21
261.217670
0
LINE
8
Layer 1
10
91.285767
20
261.217670
11
90.975113
21
261.443160
0
LINE
8
Layer 1
10
90.975113
20
261.443160
11
90.653456
21
261.358983
0
LINE
8
Layer 1
10
90.653456
20
261.358983
11
90.400758
21
260.947248
0
LINE
8
Layer 1
10
90.400758
20
260.947248
11
90.110122
21
260.498271
0
LINE
8
Layer 1
10
90.110122
20
260.498271
11
89.750714
21
260.432624
0
LINE
8
Layer 1
10
89.750714
20
260.432624
11
89.445151
21
260.711074
0
LINE
8
Layer 1
10
89.445151
20
260.711074
11
89.316048
21
261.294387
0
LINE
8
Layer 1
10
89.316048
20
261.294387
11
89.245500
21
261.853476
0
LINE
8
Layer 1
10
89.245500
20
261.853476
11
89.060853
21
262.126667
0
LINE
8
Layer 1
10
89.060853
20
262.126667
11
88.802603
21
262.092160
0
LINE
8
Layer 1
10
88.802603
20
262.092160
11
88.511245
21
261.728156
0
LINE
8
Layer 1
10
88.511245
20
261.728156
11
88.211479
21
261.421761
0
LINE
8
Layer 1
10
88.211479
20
261.421761
11
87.825602
21
261.294387
0
LINE
8
Layer 1
10
87.825602
20
261.294387
11
87.522349
21
261.112684
0
LINE
8
Layer 1
10
87.522349
20
261.112684
11
87.421733
21
260.674934
0
LINE
8
Layer 1
10
87.421733
20
260.674934
11
87.331110
21
260.241837
0
LINE
8
Layer 1
10
87.331110
20
260.241837
11
86.918700
21
260.257310
0
LINE
8
Layer 1
10
86.918700
20
260.257310
11
86.378589
21
260.268701
0
LINE
8
Layer 1
10
86.378589
20
260.268701
11
85.797380
21
260.023060
0
LINE
8
Layer 1
10
85.797380
20
260.023060
11
85.332908
21
259.618509
0
LINE
8
Layer 1
10
85.332908
20
259.618509
11
85.143010
21
259.153170
0
LINE
8
Layer 1
10
85.143010
20
259.153170
11
85.277311
21
258.829293
0
LINE
8
Layer 1
10
85.277311
20
258.829293
11
85.600193
21
258.629044
0
LINE
8
Layer 1
10
85.600193
20
258.629044
11
85.840341
21
258.449814
0
LINE
8
Layer 1
10
85.840341
20
258.449814
11
85.443443
21
258.074178
0
LINE
8
Layer 1
10
85.443443
20
258.074178
11
85.098184
21
257.871503
0
LINE
8
Layer 1
10
85.098184
20
257.871503
11
84.815292
21
257.859517
0
LINE
8
Layer 1
10
84.815292
20
257.859517
11
84.132413
21
258.508260
0
LINE
8
Layer 1
10
84.132413
20
258.508260
11
83.463751
21
259.127292
0
LINE
8
Layer 1
10
83.463751
20
259.127292
11
82.835233
21
259.384806
0
LINE
8
Layer 1
10
82.835233
20
259.384806
11
82.243253
21
259.536662
0
LINE
8
Layer 1
10
82.243253
20
259.536662
11
81.846850
21
259.966481
0
LINE
8
Layer 1
10
81.846850
20
259.966481
11
81.666329
21
260.635643
0
LINE
8
Layer 1
10
81.666329
20
260.635643
11
81.721993
21
261.505526
0
LINE
8
Layer 1
10
81.721993
20
261.505526
11
81.826030
21
262.142140
0
LINE
8
Layer 1
10
81.826030
20
262.142140
11
81.772775
21
262.449212
0
LINE
8
Layer 1
10
81.772775
20
262.449212
11
81.483532
21
262.511650
0
LINE
8
Layer 1
10
81.483532
20
262.511650
11
80.879605
21
262.414363
0
LINE
8
Layer 1
10
80.879605
20
262.414363
11
79.941693
21
262.399862
0
LINE
8
Layer 1
10
79.941693
20
262.399862
11
79.309715
21
262.883216
0
LINE
8
Layer 1
10
79.309715
20
262.883216
11
78.867141
21
263.365594
0
LINE
8
Layer 1
10
78.867141
20
263.365594
11
78.527095
21
263.512351
0
LINE
8
Layer 1
10
78.527095
20
263.512351
11
78.257399
21
263.321097
0
LINE
8
Layer 1
10
78.257399
20
263.321097
11
78.025875
21
262.789446
0
LINE
8
Layer 1
10
78.025875
20
262.789446
11
77.784085
21
262.027783
0
LINE
8
Layer 1
10
77.784085
20
262.027783
11
77.224003
21
262.789446
0
LINE
8
Layer 1
10
77.224003
20
262.789446
11
76.471744
21
263.517948
0
LINE
8
Layer 1
10
76.471744
20
263.517948
11
76.270123
21
263.442663
0
LINE
8
Layer 1
10
76.270123
20
263.442663
11
76.200333
21
263.070136
0
LINE
8
Layer 1
10
76.200333
20
263.070136
11
75.970423
21
262.555138
0
LINE
8
Layer 1
10
75.970423
20
262.555138
11
75.417656
21
261.992076
0
LINE
8
Layer 1
10
75.417656
20
261.992076
11
74.735653
21
261.598799
0
LINE
8
Layer 1
10
74.735653
20
261.598799
11
74.539650
21
261.652423
0
LINE
8
Layer 1
10
74.539650
20
261.652423
11
74.379066
21
261.865392
0
LINE
8
Layer 1
10
74.379066
20
261.865392
11
74.118349
21
262.729206
0
LINE
8
Layer 1
10
74.118349
20
262.729206
11
73.901154
21
263.164861
0
LINE
8
Layer 1
10
73.901154
20
263.164861
11
73.382919
21
263.336377
0
LINE
8
Layer 1
10
73.382919
20
263.336377
11
72.744091
21
263.233107
0
LINE
8
Layer 1
10
72.744091
20
263.233107
11
72.165119
21
262.844402
0
LINE
8
Layer 1
10
72.165119
20
262.844402
11
71.545093
21
262.324637
0
LINE
8
Layer 1
10
71.545093
20
262.324637
11
70.998526
21
262.210272
0
LINE
8
Layer 1
10
70.998526
20
262.210272
11
70.516358
21
262.502862
0
LINE
8
Layer 1
10
70.516358
20
262.502862
11
70.089529
21
263.203960
0
LINE
8
Layer 1
10
70.089529
20
263.203960
11
69.667248
21
263.970828
0
LINE
8
Layer 1
10
69.667248
20
263.970828
11
69.337510
21
264.196940
0
LINE
8
Layer 1
10
69.337510
20
264.196940
11
69.337500
21
264.197000
 0 
ENDSEC
 0 
EOF