<?xml version="1.0" encoding="UTF-8" standalone="no"?>
<!-- Created with Inkscape (http://www.inkscape.org/) -->

<svg
   width="210mm"
   height="297mm"
   viewBox="0 0 210 297"
   version="1.1"
   id="svg788"
   inkscape:version="1.2 (dc2aeda, 2022-05-15)"
   sodipodi:docname="ljtree.svg"
   xmlns:inkscape="http://www.inkscape.org/namespaces/inkscape"
   xmlns:sodipodi="http://sodipodi.sourceforge.net/DTD/sodipodi-0.dtd"
   xmlns="http://www.w3.org/2000/svg"
   xmlns:svg="http://www.w3.org/2000/svg">
  <sodipodi:namedview
     id="namedview790"
     pagecolor="#ffffff"
     bordercolor="#000000"
     borderopacity="0.25"
     inkscape:showpageshadow="2"
     inkscape:pageopacity="0.0"
     inkscape:pagecheckerboard="0"
     inkscape:deskcolor="#d1d1d1"
     inkscape:document-units="mm"
     showgrid="false"
     inkscape:zoom="1.1273558"
     inkscape:cx="269.21403"
     inkscape:cy="294.93794"
     inkscape:window-width="1440"
     inkscape:window-height="847"
     inkscape:window-x="0"
     inkscape:window-y="25"
     inkscape:window-maximized="1"
     inkscape:current-layer="layer1" />
  <defs
     id="defs785" />
  <g
     inkscape:label="Layer 1"
     inkscape:groupmode="layer"
     id="layer1">
    <path
       id="path4279-4"
       style="display:inline;fill:#000000;fill-opacity:1;stroke:#000000;stroke-width:0.4;stroke-dasharray:none;stroke-opacity:1"
       d="m 81.019264,56.793727 c 0.509245,0.01226 1.102136,0.168095 1.350493,0.457371 0.23432,0.272933 0.351844,0.635976 0.261248,0.806679 -0.180578,0.340337 0.78535,0.724091 1.840732,0.731542 0.368883,0.003 0.670715,0.148207 0.670715,0.323542 0,0.175348 0.07882,0.558207 0.17514,0.850464 0.132794,0.403042 -0.605375,0.959915 -3.055532,2.305777 -1.776744,0.975946 -3.565638,1.977681 -3.975501,2.226291 -0.984849,0.597407 -2.621655,0.944389 -2.807082,0.594919 -0.185283,-0.349175 -1.913036,-0.07332 -2.132633,0.340619 -0.181976,0.342939 -0.724029,0.420623 -0.724029,0.103708 h 5.16e-4 c 0,-0.578666 1.956244,-3.267814 2.273923,-3.125814 0.203662,0.09108 0.419128,-0.0048 0.47904,-0.215178 0.05994,-0.20935 0.370343,-0.41316 0.68991,-0.453021 0.319566,-0.0399 0.821026,-0.19112 1.114036,-0.336269 0.343812,-0.170313 0.730426,-0.05546 1.090575,0.324162 0.527078,0.555593 0.568775,0.549596 0.748558,-0.110227 0.139453,-0.511761 0.644926,-0.815794 1.890044,-1.136435 1.151508,-0.296534 1.475893,-0.480102 1.006071,-0.569455 -0.436115,-0.08294 -0.635759,-0.306641 -0.53822,-0.602682 0.08529,-0.258909 -0.0041,-0.533386 -0.200738,-0.610139 -0.27333,-0.107211 -0.271147,-0.259744 0.0099,-0.657018 0.30487,-0.430471 0.259944,-0.512572 -0.267913,-0.49028 -0.348832,0.01466 -0.685674,-0.144812 -0.748553,-0.354283 -0.08565,-0.285358 0.340083,-0.416513 0.849322,-0.404273 z m -10.752213,3.220827 c 0.546654,-0.0095 0.651369,0.253248 0.994872,1.25318 0.746159,2.172106 0.616848,2.873965 -0.718963,3.903616 -0.652288,0.502778 -1.231581,0.914118 -1.28731,0.914118 -0.05577,0 -0.318375,-0.507748 -0.583544,-1.128359 -0.418834,-0.9802 -0.484611,-1.026052 -0.501171,-0.347451 -0.01016,0.42966 -0.09933,0.78122 -0.197534,0.78122 -0.430141,0 -2.20621,-1.149821 -2.20621,-1.428306 0,-0.765256 1.253438,-1.697501 2.310177,-1.718309 0.97007,-0.01917 1.029095,-0.06343 0.447052,-0.335962 -1.244343,-0.582578 -0.698101,-1.549247 1.023399,-1.810841 0.305675,-0.04645 0.537013,-0.07974 0.719232,-0.08291 z m 16.152579,2.946013 c 1.244947,0 1.31645,0.05354 1.339561,1.000125 0.02177,0.889801 -0.09655,1.023329 -1.072448,1.211265 -1.109852,0.21376 -1.396729,0.21105 -3.406886,-0.03383 -0.614805,-0.07493 -1.118034,-0.263877 -1.118034,-0.419799 0,-0.54041 2.948877,-1.757744 4.257807,-1.757744 z m 5.328392,0.83525 c 0.560443,-0.01304 1.324018,0.142607 2.039334,0.456746 0.245932,0.107998 0.81593,0.162315 1.266783,0.120472 0.568476,-0.05269 0.819732,0.0881 0.819732,0.459853 0,0.335866 0.168532,0.460976 0.451055,0.334718 0.248016,-0.110888 0.669672,0.0119 0.937291,0.271377 0.267604,0.260062 1.171468,0.629072 2.008409,0.820036 1.249844,0.28516 1.539004,0.489024 1.618404,1.141091 0.0904,0.741624 0.003,0.788779 -1.341427,0.716016 -0.790947,-0.04278 -1.672721,0.04615 -1.959623,0.197783 -0.406995,0.215263 -0.521651,0.114535 -0.521698,-0.458296 -3e-5,-0.639443 -0.07473,-0.680241 -0.577946,-0.314224 -0.423384,0.307963 -0.761837,0.320845 -1.266784,0.04843 -1.336847,-0.721069 -5.600891,-2.198964 -6.34459,-2.198964 -0.551276,0 -0.753355,-0.183681 -0.753355,-0.685588 0,-0.582145 0.146283,-0.656411 0.968749,-0.490899 0.532824,0.107211 1.125535,0.249812 1.316904,0.316711 0.191354,0.06692 0.424302,-0.110251 0.517694,-0.393717 0.07215,-0.218994 0.385164,-0.331396 0.821068,-0.34155 z m -29.596183,1.26125 c 0.661372,0.0081 1.491597,0.123229 2.167289,0.341863 1.179432,0.381573 1.562667,0.787157 1.878855,1.988448 0.248676,0.944869 -0.281306,1.046624 -1.07805,0.206796 -0.387914,-0.408906 -0.544885,-0.445751 -0.544885,-0.127622 0,0.245895 -0.2442,0.699679 -0.542492,1.008513 -0.298282,0.308846 -0.629327,0.834835 -0.735759,1.169031 -0.106464,0.334178 -0.399118,0.607651 -0.650189,0.607651 -0.251065,0 -0.456383,0.23428 -0.456383,0.520708 0,0.546604 -0.158205,0.594252 -0.894104,0.267963 -0.455522,-0.201959 -0.881609,-0.774497 -0.889842,-1.195739 -0.0026,-0.12833 0.498431,-0.428987 1.113231,-0.667887 l 1.117772,-0.434388 -0.968749,-0.296841 c -0.67918,-0.208137 -0.968754,-0.501312 -0.968754,-0.98118 0,-0.376946 -0.200805,-0.684657 -0.447052,-0.684657 -0.256606,0 -0.447052,-0.313184 -0.447052,-0.734954 0,-0.563958 0.138576,-0.692655 0.596069,-0.55331 0.327898,0.09986 0.596074,0.0402 0.596074,-0.132898 0,-0.210389 0.492649,-0.309542 1.154021,-0.301497 z m -13.989556,4.15264 c 0.337813,-0.01736 0.614201,0.08807 0.614201,0.347763 0,0.190964 0.649735,0.347139 1.44406,0.347139 1.069038,0 1.585442,0.181614 1.987614,0.699246 0.322435,0.414975 0.755243,0.621044 1.064451,0.506737 0.286598,-0.105895 0.607382,-0.03016 0.712835,0.1686 0.105453,0.198721 0.519236,0.361427 0.919432,0.361427 0.400191,0 0.727496,0.172992 0.727496,0.384398 0,0.953329 1.900706,4.857221 3.378096,6.938453 1.340949,1.889024 1.59985,2.465071 1.48245,3.298446 -0.219804,1.560386 -1.606108,6.393159 -1.829538,6.377686 -0.109513,-0.0078 -0.852061,-0.713882 -1.650126,-1.569266 -2.134057,-2.287314 -5.063249,-3.783559 -9.429181,-4.816802 -2.049326,-0.484993 -4.184131,-1.036837 -4.744049,-1.226167 -0.559907,-0.189329 -1.327691,-0.253465 -1.706107,-0.142829 -0.627439,0.183411 -0.68438,0.09141 -0.64779,-1.042353 0.02203,-0.683809 -0.200748,-1.86517 -0.495037,-2.625282 l -0.535022,-1.382041 0.859716,-1.185494 c 0.698819,-0.963749 1.02682,-1.159513 1.753825,-1.046384 0.807516,0.125717 0.829022,0.105895 0.223394,-0.205865 -0.891488,-0.458928 -0.848181,-0.777712 0.280176,-2.062654 1.089007,-1.240124 1.207805,-1.271266 2.138767,-0.560767 0.644322,0.491723 0.682718,0.476822 0.660319,-0.2602 -0.01687,-0.557684 0.168914,-0.814526 0.646985,-0.893617 0.401831,-0.06651 0.674336,0.07296 0.679778,0.347445 0.0055,0.28754 0.122017,0.231678 0.3127,-0.149661 0.180264,-0.360484 0.716229,-0.5856 1.150555,-0.607958 z m 9.35907,1.871389 c 0.02842,0.0024 0.05411,0.0077 0.07651,0.01676 0.179226,0.07256 1.079268,0.241694 2.000149,0.375709 l 1.674382,0.243431 -0.156213,2.826179 c -0.183131,3.313136 -0.343389,4.38862 -0.653387,4.38862 -0.124085,0 -0.910889,-1.066675 -1.748496,-2.370364 -0.837596,-1.303689 -1.749017,-2.879787 -2.025467,-3.502448 -0.476549,-1.073387 -0.474439,-1.15714 0.04024,-1.612745 0.261243,-0.231257 0.593299,-0.380161 0.792272,-0.365146 z m 5.364378,0.513876 c 0.243611,0.02115 0.569497,0.283976 1.015667,0.717572 l 0.667784,0.649255 -1.200407,4.373713 c -0.660268,2.405592 -1.340304,4.373712 -1.511241,4.373712 -0.178818,0 -0.243378,-0.405379 -0.151947,-0.954789 0.08743,-0.52513 0.248238,-2.790705 0.357483,-5.034456 0.148398,-3.048508 0.286721,-4.171591 0.822661,-4.125007 z m 3.150972,3.14879 c 0.08545,-0.02007 0.281011,0.173437 0.469977,0.474448 0.26846,0.427635 0.431467,0.490395 0.515032,0.198409 0.192314,-0.671985 0.832262,-0.003 0.832262,0.871577 0,0.677363 0.124777,0.765857 0.894109,0.634353 1.058942,-0.181037 1.053077,-0.215581 0.311096,1.800591 -0.799902,2.173577 -1.693299,3.512735 -3.405287,5.104942 -1.83497,1.706599 -2.390188,1.765458 -2.123306,0.224804 0.201382,-1.162638 2.285632,-8.978497 2.476527,-9.287078 0.0074,-0.0119 0.01738,-0.01917 0.02961,-0.02205 z m -32.174005,0.381604 0.801336,0.354907 c 0.440774,0.195266 0.979288,0.27515 1.196941,0.177914 0.217647,-0.09729 0.395873,-0.0073 0.395873,0.199965 0,0.207739 0.263281,0.29675 0.585138,0.198721 0.803641,-0.244789 1.313175,0.586525 1.104441,1.802146 -0.09524,0.554836 -0.05422,1.491787 0.09117,2.082218 h -2.63e-4 c 0.257452,1.045687 0.239799,1.072046 -0.683513,1.016888 -1.419726,-0.08474 -4.281505,-0.516298 -3.854206,-0.581256 0.204937,-0.03112 0.372412,-0.35698 0.372412,-0.724091 0,-0.454968 0.332246,-0.795059 1.043394,-1.06843 1.116389,-0.429149 1.430652,-1.388872 0.454785,-1.388872 -0.351607,0 -0.773629,-0.416483 -1.048192,-1.034896 z m 5.347851,1.813947 c 0.413556,0.07787 0.921294,1.815179 0.921294,3.25933 0,1.468666 -0.355388,1.480887 -1.023394,0.03509 -0.554485,-1.200125 -0.542744,-3.072061 0.02079,-3.28727 0.02657,-0.01015 0.05374,-0.01232 0.08131,-0.0071 z M 69.337487,32.802886 c -0.183983,0.02866 -0.291102,0.415431 -0.291102,1.155685 0,0.9278 -0.102837,1.158444 -0.44732,1.004469 -0.245916,-0.109915 -0.447057,-0.495496 -0.447057,-0.856982 0,-0.361499 -0.201124,-0.657331 -0.447051,-0.657331 -0.245917,0 -0.447057,0.156181 -0.447057,0.347139 0,0.190958 -0.26844,0.347138 -0.596337,0.347138 -0.331205,0 -0.596069,0.231678 -0.596069,0.52102 0,0.286434 -0.119619,0.520714 -0.265783,0.520714 -0.14618,0 -0.343199,0.358945 -0.43772,0.797678 -0.09855,0.457299 -0.669502,1.1071 -1.337962,1.522694 l -1.16602,0.725017 -0.650988,-1.349125 c -0.74374,-1.541322 -1.20894,-1.734238 -1.20894,-0.501457 0,0.914076 -0.542806,1.539765 -0.853051,0.983355 -0.104632,-0.187647 -0.626267,-0.353604 -1.159086,-0.368565 -0.763513,-0.02151 -0.968749,0.113417 -0.968749,0.636835 0,0.365284 -0.215858,1.292489 -0.479577,2.060178 -0.411029,1.196496 -0.607475,1.395698 -1.376085,1.395698 -0.781212,0 -0.87499,0.100619 -0.727763,0.78122 0.158922,0.734666 0.144524,0.742886 -0.243384,0.138792 -0.486588,-0.757775 -1.161914,-0.421356 -0.959954,0.478173 0.08899,0.396378 -0.05128,0.683461 -0.383342,0.784633 -0.393052,0.119715 -0.487362,-0.003 -0.377741,-0.490899 0.09827,-0.437639 -0.01161,-0.650186 -0.335893,-0.650186 -0.272696,0 -0.481708,-0.283171 -0.481708,-0.652054 0,-0.358531 -0.201403,-0.846234 -0.44732,-1.083956 -0.245922,-0.237711 -0.447052,-0.647645 -0.447052,-0.910699 0,-0.263055 -0.20114,-0.478173 -0.447057,-0.478173 -0.245916,0 -0.447051,0.175342 -0.447051,0.389679 0,0.2666 -0.143828,0.250977 -0.454522,-0.04939 -0.249879,-0.241544 -0.490384,-0.377673 -0.53449,-0.302735 -0.18892,0.321338 -0.860021,3.327647 -0.902368,4.04272 -0.04436,0.747789 -0.12764,0.772442 -1.909244,0.559835 -1.617585,-0.193031 -1.863126,-0.145888 -1.863126,0.357383 0,0.318796 0.177148,0.658604 0.393738,0.75545 0.429311,0.191883 0.327108,2.101781 -0.130091,2.430912 -0.558751,0.402225 -0.223925,0.843319 0.640057,0.843319 0.506159,0 0.974903,0.217161 1.066051,0.493693 0.239752,0.727745 -0.416312,1.936594 -1.051122,1.936594 -0.305674,0 -0.651488,0.347763 -0.776812,0.781221 -0.217812,0.753329 -0.230425,0.747158 -0.352685,-0.173569 -0.11985,-0.90257 -0.635259,-1.242306 -1.086845,-0.716323 -0.3561,0.414837 -1.385143,0.357828 -1.385143,-0.0767 0,-0.281711 -0.506737,-0.389655 -1.564823,-0.333475 -1.866912,0.0991 -2.608212,0.412914 -2.608212,1.104451 0,0.387444 -0.216714,0.455918 -0.894377,0.282559 -0.499113,-0.127658 -0.894104,-0.08449 -0.894104,0.09781 0,0.179632 -0.335496,0.252041 -0.745359,0.160837 -0.864725,-0.192526 -0.994645,0.439874 -0.30763,1.497855 0.619706,0.954309 0.561795,1.194808 -0.288439,1.194808 -0.924813,0 -0.954981,0.447337 -0.07598,1.127121 l 0.669383,0.517601 -0.893041,0.03233 c -0.491086,0.01772 -1.38489,0.08948 -1.986288,0.159287 -0.911447,0.105823 -1.145922,-0.0077 -1.409404,-0.681244 -0.49107,-1.255332 -0.921563,-0.955841 -0.959685,0.667581 -0.01903,0.811617 -0.09185,1.226857 -0.161816,0.922806 -0.09113,-0.395904 -0.504359,-0.559523 -1.45579,-0.576287 -1.210699,-0.02133 -1.32863,0.05077 -1.32863,0.813198 0,0.5122 -0.17331,0.8368 -0.447052,0.8368 -0.53903,0 -0.57641,0.40482 -0.08957,0.971866 0.278204,0.323993 0.178932,0.416694 -0.447052,0.416694 -0.442647,0 -0.804803,0.156186 -0.804803,0.347138 0,0.190958 -0.215878,0.347451 -0.479577,0.347451 -0.361449,0 -0.433763,0.211669 -0.294036,0.860089 0.153809,0.713774 0.05786,0.897558 -0.563818,1.079299 -0.803198,0.234802 -1.045395,1.185182 -0.302032,1.185182 0.245917,0 0.447052,0.12514 0.447052,0.277901 0,0.537688 -0.723111,1.110971 -1.40114,1.110971 -0.94002,0 -0.882228,0.970736 0.07438,1.250386 0.530364,0.155045 0.811607,0.524109 0.931426,1.221822 0.195646,1.139457 0.597942,1.274031 1.172685,0.392161 0.351865,-0.539917 0.397575,-0.462683 0.405468,0.694283 0.01021,1.403557 0.386933,1.640228 1.217467,0.764763 0.46,-0.484867 0.554578,-0.484867 0.970879,0 0.253686,0.295507 0.600263,0.537477 0.770153,0.537477 0.277121,0 0.926092,1.067613 0.926092,1.523626 0,0.228638 -2.11105,0.726988 -2.604746,0.61479 -0.203085,-0.04615 -0.633624,0.08068 -0.956487,0.281933 -0.47529,0.296282 -0.647995,0.23294 -0.90797,-0.332856 -0.378472,-0.823671 -0.896239,-0.92271 -0.896239,-0.171394 0,0.389211 -0.195429,0.470326 -0.745354,0.309567 -0.613536,-0.179355 -0.745092,-0.09184 -0.745092,0.494631 0,0.391775 -0.286066,0.945434 -0.635522,1.230516 -0.396131,0.323212 -0.56636,0.727582 -0.452123,1.07433 0.108053,0.327995 0.0021,0.637376 -0.258844,0.753894 -0.540046,0.241393 -0.566567,0.729 -0.06958,1.281439 0.783849,0.871331 2.779974,2.555151 3.278927,2.765943 0.286902,0.12121 0.521697,0.366209 0.521697,0.544303 0,0.178082 0.485128,0.657228 1.078045,1.06471 0.947031,0.650823 1.807515,0.78232 7.07955,1.083956 9.970676,0.570459 10.620565,0.644262 14.035143,1.587906 5.650502,1.561551 9.754123,4.268509 10.564275,6.968874 0.217498,0.724933 0.96929,2.411661 1.670652,3.748367 0.701372,1.336723 1.758019,3.554878 2.348031,4.929204 0.590013,1.374324 1.683539,3.598584 2.430142,4.942864 1.733825,3.12182 2.817595,5.83589 2.821206,7.06544 0.0041,1.365 -1.20212,3.97044 -2.791616,6.02962 -1.606696,2.08143 -1.957194,3.49683 -1.967356,7.94727 -0.0096,4.12274 -0.48568,6.09182 -2.827346,11.69749 -1.072236,2.56682 -1.949491,4.83969 -1.949491,5.05061 0,0.51468 0.512876,0.85183 1.778349,1.16966 l 2.68e-4,3.1e-4 c 1.460516,0.3668 9.219054,0.0954 10.219586,-0.35739 1.115238,-0.50476 1.077523,-1.29334 -0.371076,-7.75165 -0.654975,-2.92005 -1.191895,-5.92123 -1.192411,-6.66925 -0.0026,-2.35034 2.456723,-12.50772 3.765968,-15.55422 0.914015,-2.12685 0.887541,-3.01931 -0.155951,-5.2248 -0.472963,-0.99964 -0.942368,-2.2342 -1.042858,-2.74328 -0.100521,-0.50909 -0.757183,-1.70948 -1.459257,-2.66751 -1.779968,-2.428865 -5.394659,-10.594699 -5.163909,-11.66552 0.0967,-0.448815 1.655146,-2.647124 3.463399,-4.885107 1.808254,-2.237965 3.709729,-4.75334 4.225555,-5.589947 0.515827,-0.836614 1.053732,-1.521138 1.195342,-1.521138 0.141604,0 0.940134,0.402801 1.774351,0.895172 1.04636,0.617524 1.612478,0.783769 1.825535,0.535615 0.21301,-0.248153 0.190461,-0.526049 -0.07277,-0.895485 -0.315084,-0.442206 -0.303405,-0.535302 0.06771,-0.535302 0.247134,0 0.669275,0.390454 0.937828,0.867846 0.293484,0.521711 0.769935,0.868158 1.194542,0.868158 0.388553,0 0.783698,0.23428 0.878112,0.520714 0.229878,0.697683 0.719546,0.6615 0.839195,-0.0621 0.08882,-0.537039 0.137916,-0.534263 0.625659,0.03383 0.291122,0.339099 0.718447,0.531764 0.949558,0.428495 0.231117,-0.103306 0.465107,-0.0304 0.520098,0.161768 0.0657,0.229509 0.358659,0.234628 0.854119,0.0152 0.414754,-0.183658 1.084808,-0.260483 1.488847,-0.170463 0.680996,0.151632 0.736864,0.05924 0.76668,-1.267776 0.0309,-1.3734 2.17e-4,-1.423535 -0.755486,-1.230204 -0.48262,0.12347 -1.016512,-0.0012 -1.378215,-0.321986 -0.539267,-0.478269 -0.400691,-0.5111 1.598943,-0.37726 l 2.189151,0.146555 -0.191937,-0.889897 c -0.105479,-0.489523 -0.386227,-1.116823 -0.62406,-1.393835 -0.237828,-0.277013 -0.432396,-0.557907 -0.432396,-0.624416 0,-0.0665 0.670709,-0.380564 1.490446,-0.697695 1.372855,-0.531133 2.083224,-1.562441 1.076182,-1.562441 -0.637874,0 -1.739705,-3.018429 -1.522434,-4.170648 0.211271,-1.120446 -0.188687,-1.562015 -0.957555,-1.057566 -1.796327,1.178566 -3.817884,1.722154 -4.011488,1.078992 -0.05756,-0.191198 -0.693108,-0.101508 -1.510435,0.213004 -2.416703,0.929938 -3.168718,-0.15034 -1.197209,-1.719866 1.240804,-0.987686 1.71888,-1.071998 5.589104,-0.984598 l 2.682852,0.06024 0.658189,1.744392 c 0.552809,1.465253 0.588414,1.775307 0.223389,1.938457 -0.238988,0.106814 -0.429017,0.372921 -0.422259,0.591194 0.01578,0.512812 2.864601,2.074953 3.26213,1.788795 0.166438,-0.119828 0.302569,-0.05227 0.302569,0.149974 0,0.20223 0.261666,0.367634 0.581408,0.367634 0.319742,0 0.709229,0.266383 0.865587,0.591812 0.230271,0.479261 0.417276,0.521339 0.983678,0.221386 0.512778,-0.271575 1.051524,-0.249097 2.01987,0.08446 1.493624,0.514471 1.9122,0.373774 1.658391,-0.55766 -0.146557,-0.53785 0.0091,-0.661086 0.949821,-0.752031 0.783054,-0.07568 1.218473,-0.32838 1.43234,-0.831212 0.169,-0.397328 0.47371,-0.657595 0.67737,-0.578462 0.46106,0.179031 0.47804,-0.417294 0.0352,-1.243242 -0.46585,-0.868844 0.90425,-2.645989 1.80874,-2.346144 0.33712,0.111759 0.88131,0.291848 1.2092,0.400236 0.76008,0.251176 0.81889,-0.705879 0.0744,-1.210958 -0.4968,-0.33705 -0.4968,-0.35376 0,-0.364215 0.28692,-0.006 0.52169,-0.266191 0.52169,-0.578462 0,-0.312265 0.33523,-0.929674 0.74509,-1.372102 0.90741,-0.979533 0.91422,-1.106362 0.10343,-1.925418 -0.489,-0.493982 -0.53187,-0.648323 -0.18074,-0.648323 0.25347,0 0.54512,-0.256434 0.64832,-0.569774 0.35054,-1.064007 -0.11926,-1.768775 -1.47365,-2.210452 -0.73305,-0.239056 -1.33289,-0.562058 -1.33289,-0.717878 0,-0.155766 -0.60548,-0.242043 -1.34543,-0.191271 -1.51881,0.104219 -1.775704,-0.03533 -1.29824,-0.705458 0.20242,-0.284085 0.95749,-0.465748 1.93483,-0.465748 1.17143,0 1.60321,-0.130307 1.60321,-0.483761 0,-0.26601 -0.2014,-0.573444 -0.44732,-0.683413 -0.63119,-0.28212 -0.55497,-0.802142 0.14902,-1.016582 1.01223,-0.308299 0.73183,-1.286342 -0.37241,-1.29944 -1.13146,-0.01286 -2.01214,-0.682753 -2.01214,-1.530464 0,-0.488748 0.16975,-0.553178 0.93756,-0.356764 0.8495,0.217323 0.92244,0.170709 0.77335,-0.493387 -0.0906,-0.403204 -0.043,-0.733092 0.10556,-0.733092 0.14859,0 0.27005,-0.234273 0.27005,-0.520707 0,-0.286434 -0.19696,-0.520708 -0.43773,-0.520708 -0.26671,0 -0.37087,-0.20378 -0.26631,-0.52102 0.0944,-0.286434 0.35862,-0.520714 0.58701,-0.520714 0.22837,0 0.41506,-0.234273 0.41506,-0.520707 0,-0.286434 -0.18669,-0.52102 -0.41506,-0.52102 -0.43847,0 -0.90888,-0.93528 -0.81627,-1.62299 0.0931,-0.691482 -0.52465,-0.873223 -1.17215,-0.344969 -0.68239,0.556711 -1.769556,0.388586 -1.769556,-0.273545 0,-0.233523 -0.335491,-0.60252 -0.745354,-0.820036 -0.409869,-0.217522 -0.745092,-0.572111 -0.745092,-0.788053 0,-0.242745 -0.389064,-0.339771 -1.015398,-0.254606 -0.981522,0.133468 -1.021738,0.09176 -1.207072,-1.25815 -0.11821,-0.861152 -0.07184,-1.443111 0.121026,-1.518038 0.469146,-0.182155 0.376363,-1.098508 -0.134356,-1.326774 -0.245917,-0.109914 -0.447052,-0.398235 -0.447052,-0.640872 0,-0.242626 0.201135,-0.635718 0.447052,-0.87344 0.742331,-0.71759 0.510647,-1.041415 -0.745092,-1.041415 -0.861135,0 -1.192406,-0.144909 -1.192406,-0.521026 0,-0.746654 -0.595656,-0.642135 -1.408073,0.246849 l -0.701372,0.767557 -0.172479,-0.767557 c -0.19674,-0.876264 -0.84928,-1.022145 -1.104704,-0.246849 -0.287171,0.871625 -1.08471,0.616418 -1.08471,-0.347139 0,-0.926363 -0.412252,-1.148463 -0.804803,-0.433769 -0.131106,0.238695 -0.439721,0.433769 -0.685643,0.433769 -0.246453,0 -0.427599,0.278058 -0.403869,0.619453 0.03136,0.451074 -0.105344,0.564642 -0.503033,0.417624 -0.6226,-0.230152 -1.775687,0.486772 -1.775687,1.104139 0,0.226504 0.205741,0.46246 0.457183,0.524126 0.362595,0.08903 0.330049,0.203961 -0.15675,0.554866 -0.535723,0.386176 -0.702337,0.330946 -1.311034,-0.434082 -0.383539,-0.482024 -0.967165,-0.876546 -1.297178,-0.876546 -0.910668,0 -1.353943,-0.844226 -1.113237,-2.12072 0.2086,-1.106254 0.207614,-1.107305 -0.842388,-0.908837 -0.805391,0.152233 -1.172406,0.04272 -1.569889,-0.468853 -0.672752,-0.865858 -0.986288,-0.843091 -1.283843,0.09377 l -0.24179,0.761663 -0.560082,-0.761663 c -0.64113,-0.872148 -1.023668,-0.976961 -1.023668,-0.28069 0,0.264461 -0.3522,0.749514 -0.782677,1.078056 -0.644803,0.492137 -0.827676,0.514374 -1.038592,0.126684 -0.14082,-0.258837 -0.258137,-0.647386 -0.260717,-0.863814 -0.0087,-0.752235 -1.301366,-0.82849 -1.953226,-0.115196 -0.879701,0.962595 -1.53935,0.84827 -2.075589,-0.359558 -0.307372,-0.692318 -0.568037,-1.021671 -0.752019,-0.99298 z" />
  </g>
</svg>
