<?xml version="1.0" encoding="UTF-8" standalone="no"?>
<!-- Created with Inkscape (http://www.inkscape.org/) -->

<svg
   width="210mm"
   height="297mm"
   viewBox="0 0 210 297"
   version="1.1"
   id="svg788"
   inkscape:version="1.1.1 (3bf5ae0d25, 2021-09-20)"
   sodipodi:docname="ljtree_lowres.svg"
   xmlns:inkscape="http://www.inkscape.org/namespaces/inkscape"
   xmlns:sodipodi="http://sodipodi.sourceforge.net/DTD/sodipodi-0.dtd"
   xmlns="http://www.w3.org/2000/svg"
   xmlns:svg="http://www.w3.org/2000/svg">
  <sodipodi:namedview
     id="namedview790"
     pagecolor="#ffffff"
     bordercolor="#000000"
     borderopacity="0.25"
     inkscape:showpageshadow="2"
     inkscape:pageopacity="0.0"
     inkscape:pagecheckerboard="0"
     inkscape:deskcolor="#d1d1d1"
     inkscape:document-units="mm"
     showgrid="false"
     inkscape:zoom="1.1273558"
     inkscape:cx="267.43997"
     inkscape:cy="223.53191"
     inkscape:window-width="3840"
     inkscape:window-height="2059"
     inkscape:window-x="0"
     inkscape:window-y="32"
     inkscape:window-maximized="1"
     inkscape:current-layer="layer1"
     inkscape:pageshadow="2" />
  <defs
     id="defs785" />
  <g
     inkscape:label="Layer 1"
     inkscape:groupmode="layer"
     id="layer1">
    <path
       id="path4279-4"
       style="display:inline;fill:#000000;fill-opacity:1;stroke:#000000;stroke-width:0.4;stroke-dasharray:none;stroke-opacity:1"
       d="m 81.019264,56.793727 c 1.760297,0.412501 1.964197,2.410779 4.123188,2.319134 -0.970934,3.392038 -7.085253,6.097148 -10.716424,5.861593 -4.206325,2.272756 1.059284,-4.483745 3.293373,-3.614242 0.89969,1.35645 3.353027,-1.444521 4.196087,-1.44781 -0.975076,-1.117149 -0.782683,-2.420214 -1.543946,-3.028138 l 0.647744,-0.09054 z m -10.752213,3.220827 c 3.644342,1.220959 -0.719343,9.142512 -1.996383,4.146779 -0.472304,3.395154 -4.664837,-2.330925 -0.1933,-1.91707 1.638279,0.329999 -2.03479,-2.334352 1.470451,-2.146803 l 0.719232,-0.08291 z m 16.152579,2.946013 c 5.754301,2.383003 -7.972761,3.396574 -2.619752,0.676235 0.838447,-0.328174 1.710682,-0.640031 2.619752,-0.676235 z m 5.328392,0.83525 c 3.204438,0.815869 7.268473,1.354595 9.158608,4.039275 -4.167829,1.206949 -6.78924,-1.317988 -11.598358,-2.379325 -3.533987,-1.954773 1.544193,-0.393477 2.43975,-1.65995 z m -29.596183,1.26125 c 3.566468,-0.541627 5.262364,3.780233 2.263823,2.890139 -0.739873,1.725245 -3.663693,4.97809 -3.684292,1.604993 4.781898,-0.411272 -3.485984,-3.042208 0.09137,-4.024827 0.335678,-0.351059 0.78102,-0.667838 1.329096,-0.470305 z m -13.989556,4.15264 c 2.725679,1.438545 7.482695,1.083285 8.149393,4.880861 2.311173,4.44085 6.119045,8.629723 2.700919,13.778478 -2.214713,0.09549 -5.926442,-5.160862 -9.857392,-5.205702 -3.785297,-1.781781 -9.91685,-4.19e-4 -9.265176,-5.707502 -1.924954,-2.669874 4.328795,-3.187876 1.785622,-4.280295 0.360674,-2.666431 3.141602,-1.901712 3.696616,-2.162049 0.710926,-1.954457 1.473184,0.45191 2.790018,-1.303791 z m 9.35907,1.871389 c 2.005565,0.415196 4.72013,0.03406 3.627443,2.872008 0.05658,2.485853 -0.31222,7.318408 -2.434498,2.608327 -0.507337,-1.416325 -4.108407,-4.860594 -1.192945,-5.480335 z m 5.364378,0.513876 c 2.668269,0.757405 1.071109,3.101825 0.720251,4.876269 -0.421698,2.349442 -2.479671,7.818138 -1.729834,2.410449 0.449416,-2.325942 -0.350788,-5.365009 1.009583,-7.286718 z m 3.150972,3.14879 c 1.810801,0.305605 1.281749,2.400715 3.542274,2.255129 -0.709668,3.1244 -3.044876,7.421565 -6.087258,7.908823 0.423727,-3.436571 1.573557,-6.85187 2.544984,-10.163952 z m -32.174005,0.381604 c 3.37499,0.378789 4.795558,2.050019 4.275666,5.737132 -2.501192,0.561512 -6.90044,-0.688765 -2.543675,-2.676208 1.028634,-1.025643 -1.754956,-1.505707 -1.731991,-3.060924 z m 5.347851,1.813947 c 1.70877,1.409894 0.71896,6.907344 -0.412022,2.304745 -0.03018,-0.663144 -0.378649,-1.916412 0.412022,-2.304745 z M 69.337487,32.802886 c -0.246704,2.181157 -0.715224,2.753442 -1.63253,0.645841 -2.105607,0.637971 -2.710428,4.659949 -4.968604,4.529276 -0.986143,-2.750467 -1.543598,-1.955469 -2.591323,-0.615103 -3.176046,-1.637546 -2.253651,4.367563 -4.71126,4.505366 -0.03212,0.316631 -1.515076,-0.651708 -1.58668,1.401598 -0.985957,-1.411874 -2.881256,-6.423016 -4.330205,-2.996603 0.11624,3.140247 -1.33576,4.029415 -4.253726,3.432824 1.377341,1.912591 -1.381659,4.609249 1.906114,4.818678 -0.409019,1.971349 -2.246188,4.087993 -2.923986,1.591025 -2.096452,0.344598 -5.0631,-0.559512 -6.796033,1.213733 -2.449977,-0.284285 -2.422122,1.15222 -1.744625,2.898821 -2.881414,0.10541 2.102388,2.494043 -1.742322,1.789652 -2.45957,1.041207 -3.603296,-3.41042 -3.513291,1.106536 -3.503691,-2.614094 -2.823634,2.574985 -4.765923,2.956527 -0.751037,1.190189 -2.297014,2.769742 -1.17509,3.905013 -3.2977,0.710965 -0.633952,2.855059 0.502742,4.045914 1.379999,-2.49074 0.306997,3.763503 2.522951,0.624396 4.802516,2.106218 -1.448619,4.624505 -3.11333,2.411216 -1.998969,1.206798 -5.24275,5.791114 -0.764464,7.578281 3.124619,4.01395 8.450171,3.259117 13.055049,3.624328 7.185996,0.292124 15.349729,1.274273 20.482167,6.851413 2.993122,6.488908 6.162609,12.940492 9.299813,19.374812 3.026306,5.50227 -4.528028,9.18258 -3.949551,14.59234 0.474087,5.8395 -1.600432,11.35266 -3.963023,16.57559 -3.007725,5.29771 5.798621,3.48691 8.617296,3.55017 6.066371,0.40552 1.847642,-6.94037 1.68581,-10.27784 -1.799101,-5.95533 0.79167,-11.93793 2.202178,-17.68939 2.824758,-4.32182 0.508617,-9.09404 -1.824128,-13.00089 -1.754197,-4.248467 -7.34418,-9.782696 -3.565496,-14.1398 3.066299,-2.323481 4.816649,-9.235099 8.450969,-8.97433 1.460586,1.389417 3.00785,1.04969 2.42974,-0.547582 2.855746,2.829192 4.108114,2.641744 7.547553,2.64605 3.205572,0.25315 0.888824,-3.576781 -0.779232,-3.220739 3.44049,0.727319 4.668365,-0.143519 3.130139,-2.975543 4.78191,-0.761823 -0.252236,-4.674036 0.152511,-7.438621 -2.108825,1.154038 -7.236583,2.79084 -8.207341,0.838907 2.095716,-3.103216 6.095823,-1.840672 9.256471,-1.986003 1.594764,2.627049 -0.459198,5.80368 3.721449,6.062838 2.09618,1.63046 6.085884,2.356356 7.361324,0.105575 3.58878,-0.663575 1.26554,-6.276013 5.76426,-4.920707 -2.05719,-1.527883 2.99492,-3.977053 0.66246,-5.777595 3.98815,-3.742798 -9.364844,-3.53488 -2.86706,-4.860581 3.21141,0.282381 -0.60718,-2.101274 1.91238,-2.944176 -1.79721,-0.167305 -4.721626,-2.976135 -1.21959,-2.531817 -0.11119,-1.932444 0.13019,-2.859388 0.19706,-4.245786 -0.89092,-2.094244 -1.29581,-2.359299 -3.577444,-1.841139 -1.53575,-2.61645 -5.341491,-2.201607 -3.604352,-6.088029 -1.841022,-1.13186 1.782788,-3.520861 -1.966647,-2.953189 -0.946084,-2.363505 -2.588327,2.418785 -3.085547,-0.897467 -1.601924,2.531077 -1.952813,-2.616083 -3.553383,0.768224 -1.306152,0.410375 -2.557246,1.408726 -1.978287,2.600755 -2.189184,0.01017 -4.212073,-2.452227 -3.95991,-4.437475 -1.895652,0.08571 -3.343171,-1.513308 -3.86529,0.258341 -1.133619,-3.511131 -3.047111,3.286001 -3.717089,-0.911553 -2.442703,-0.370517 -2.833831,2.681785 -4.563674,-1.032082 z" />
  </g>
</svg>
