<?xml version="1.0" standalone="no"?>
<!DOCTYPE svg PUBLIC "-//W3C//DTD SVG 1.1//EN" "http://www.w3.org/Graphics/SVG/1.1/DTD/svg11.dtd">
<svg width="200mm" height="200mm" viewBox="-100 -100 200 200" xmlns="http://www.w3.org/2000/svg" version="1.1">
<title>OpenSCAD Model</title>
<path d="
M 1.22714,99.9925 L 2.45412,99.9699 L 3.68071,99.9322 L 4.90675,99.8795 L 6.13206,99.8118 L 7.35645,99.729
 L 8.57973,99.6313 L 9.80171,99.5185 L 11.0222,99.3907 L 12.2411,99.2479 L 13.4581,99.0903 L 14.673,98.9176
 L 15.8858,98.7301 L 17.0962,98.5278 L 18.304,98.3105 L 19.509,98.0785 L 20.7111,97.8317 L 21.9101,97.5702
 L 23.1058,97.294 L 24.298,97.0031 L 25.4866,96.6976 L 26.6713,96.3776 L 27.852,96.043 L 29.0285,95.694
 L 30.2006,95.3306 L 31.3682,94.9528 L 32.531,94.5607 L 33.689,94.1544 L 34.8419,93.7339 L 35.9895,93.2993
 L 37.1317,92.8506 L 38.2683,92.3879 L 39.3992,91.9114 L 40.5241,91.421 L 41.6429,90.9168 L 42.7555,90.3989
 L 43.8616,89.8674 L 44.9611,89.3224 L 46.0539,88.764 L 47.1397,88.1921 L 48.2184,87.607 L 49.2898,87.0087
 L 50.3538,86.3973 L 51.4103,85.7729 L 52.459,85.1355 L 53.4998,84.4854 L 54.5325,83.8225 L 55.557,83.147
 L 56.5732,82.4589 L 57.5808,81.7585 L 58.5798,81.0457 L 59.5699,80.3207 L 60.5511,79.5837 L 61.5231,78.8346
 L 62.4859,78.0737 L 63.4393,77.301 L 64.3831,76.5167 L 65.3173,75.7209 L 66.2416,74.9136 L 67.1559,74.0951
 L 68.0601,73.2654 L 68.954,72.4247 L 69.8376,71.5731 L 70.7107,70.7107 L 71.5731,69.8376 L 72.4247,68.954
 L 73.2654,68.0601 L 74.0951,67.1559 L 74.9136,66.2416 L 75.7209,65.3173 L 76.5167,64.3831 L 77.301,63.4393
 L 78.0737,62.4859 L 78.8346,61.5231 L 79.5837,60.5511 L 80.3207,59.5699 L 81.0457,58.5798 L 81.7585,57.5808
 L 82.4589,56.5732 L 83.147,55.557 L 83.8225,54.5325 L 84.4854,53.4998 L 85.1355,52.459 L 85.7729,51.4103
 L 86.3973,50.3538 L 87.0087,49.2898 L 87.607,48.2184 L 88.1921,47.1397 L 88.764,46.0539 L 89.3224,44.9611
 L 89.8674,43.8616 L 90.3989,42.7555 L 90.9168,41.6429 L 91.421,40.5241 L 91.9114,39.3992 L 92.3879,38.2683
 L 92.8506,37.1317 L 93.2993,35.9895 L 93.7339,34.8419 L 94.1544,33.689 L 94.5607,32.531 L 94.9528,31.3682
 L 95.3306,30.2006 L 95.694,29.0285 L 96.043,27.852 L 96.3776,26.6713 L 96.6976,25.4866 L 97.0031,24.298
 L 97.294,23.1058 L 97.5702,21.9101 L 97.8317,20.7111 L 98.0785,19.509 L 98.3105,18.304 L 98.5278,17.0962
 L 98.7301,15.8858 L 98.9176,14.673 L 99.0903,13.4581 L 99.2479,12.2411 L 99.3907,11.0222 L 99.5185,9.80171
 L 99.6313,8.57973 L 99.729,7.35645 L 99.8118,6.13206 L 99.8795,4.90675 L 99.9322,3.68071 L 99.9699,2.45412
 L 99.9925,1.22714 L 100,-0 L 99.9925,-1.22714 L 99.9699,-2.45412 L 99.9322,-3.68071 L 99.8795,-4.90675
 L 99.8118,-6.13206 L 99.729,-7.35645 L 99.6313,-8.57973 L 99.5185,-9.80171 L 99.3907,-11.0222 L 99.2479,-12.2411
 L 99.0903,-13.4581 L 98.9176,-14.673 L 98.7301,-15.8858 L 98.5278,-17.0962 L 98.3105,-18.304 L 98.0785,-19.509
 L 97.8317,-20.7111 L 97.5702,-21.9101 L 97.294,-23.1058 L 97.0031,-24.298 L 96.6976,-25.4866 L 96.3776,-26.6713
 L 96.043,-27.852 L 95.694,-29.0285 L 95.3306,-30.2006 L 94.9528,-31.3682 L 94.5607,-32.531 L 94.1544,-33.689
 L 93.7339,-34.8419 L 93.2993,-35.9895 L 92.8506,-37.1317 L 92.3879,-38.2683 L 91.9114,-39.3992 L 91.421,-40.5241
 L 90.9168,-41.6429 L 90.3989,-42.7555 L 89.8674,-43.8616 L 89.3224,-44.9611 L 88.764,-46.0539 L 88.1921,-47.1397
 L 87.607,-48.2184 L 87.0087,-49.2898 L 86.3973,-50.3538 L 85.7729,-51.4103 L 85.1355,-52.459 L 84.4854,-53.4998
 L 83.8225,-54.5325 L 83.147,-55.557 L 82.4589,-56.5732 L 81.7585,-57.5808 L 81.0457,-58.5798 L 80.3207,-59.5699
 L 79.5837,-60.5511 L 78.8346,-61.5231 L 78.0737,-62.4859 L 77.301,-63.4393 L 76.5167,-64.3831 L 75.7209,-65.3173
 L 74.9136,-66.2416 L 74.0951,-67.1559 L 73.2654,-68.0601 L 72.4247,-68.954 L 71.5731,-69.8376 L 70.7107,-70.7107
 L 69.8376,-71.5731 L 68.954,-72.4247 L 68.0601,-73.2654 L 67.1559,-74.0951 L 66.2416,-74.9136 L 65.3173,-75.7209
 L 64.3831,-76.5167 L 63.4393,-77.301 L 62.4859,-78.0737 L 61.5231,-78.8346 L 60.5511,-79.5837 L 59.5699,-80.3207
 L 58.5798,-81.0457 L 57.5808,-81.7585 L 56.5732,-82.4589 L 55.557,-83.147 L 54.5325,-83.8225 L 53.4998,-84.4854
 L 52.459,-85.1355 L 51.4103,-85.7729 L 50.3538,-86.3973 L 49.2898,-87.0087 L 48.2184,-87.607 L 47.1397,-88.1921
 L 46.0539,-88.764 L 44.9611,-89.3224 L 43.8616,-89.8674 L 42.7555,-90.3989 L 41.6429,-90.9168 L 40.5241,-91.421
 L 39.3992,-91.9114 L 38.2683,-92.3879 L 37.1317,-92.8506 L 35.9895,-93.2993 L 34.8419,-93.7339 L 33.689,-94.1544
 L 32.531,-94.5607 L 31.3682,-94.9528 L 30.2006,-95.3306 L 29.0285,-95.694 L 27.852,-96.043 L 26.6713,-96.3776
 L 25.4866,-96.6976 L 24.298,-97.0031 L 23.1058,-97.294 L 21.9101,-97.5702 L 20.7111,-97.8317 L 19.509,-98.0785
 L 18.304,-98.3105 L 17.0962,-98.5278 L 15.8858,-98.7301 L 14.673,-98.9176 L 13.4581,-99.0903 L 12.2411,-99.2479
 L 11.0222,-99.3907 L 9.80171,-99.5185 L 8.57973,-99.6313 L 7.35645,-99.729 L 6.13206,-99.8118 L 4.90675,-99.8795
 L 3.68071,-99.9322 L 2.45412,-99.9699 L 1.22714,-99.9925 L 0,-100 L -1.22714,-99.9925 L -2.45412,-99.9699
 L -3.68071,-99.9322 L -4.90675,-99.8795 L -6.13206,-99.8118 L -7.35645,-99.729 L -8.57973,-99.6313 L -9.80171,-99.5185
 L -11.0222,-99.3907 L -12.2411,-99.2479 L -13.4581,-99.0903 L -14.673,-98.9176 L -15.8858,-98.7301 L -17.0962,-98.5278
 L -18.304,-98.3105 L -19.509,-98.0785 L -20.7111,-97.8317 L -21.9101,-97.5702 L -23.1058,-97.294 L -24.298,-97.0031
 L -25.4866,-96.6976 L -26.6713,-96.3776 L -27.852,-96.043 L -29.0285,-95.694 L -30.2006,-95.3306 L -31.3682,-94.9528
 L -32.531,-94.5607 L -33.689,-94.1544 L -34.8419,-93.7339 L -35.9895,-93.2993 L -37.1317,-92.8506 L -38.2683,-92.3879
 L -39.3992,-91.9114 L -40.5241,-91.421 L -41.6429,-90.9168 L -42.7555,-90.3989 L -43.8616,-89.8674 L -44.9611,-89.3224
 L -46.0539,-88.764 L -47.1397,-88.1921 L -48.2184,-87.607 L -49.2898,-87.0087 L -50.3538,-86.3973 L -51.4103,-85.7729
 L -52.459,-85.1355 L -53.4998,-84.4854 L -54.5325,-83.8225 L -55.557,-83.147 L -56.5732,-82.4589 L -57.5808,-81.7585
 L -58.5798,-81.0457 L -59.5699,-80.3207 L -60.5511,-79.5837 L -61.5231,-78.8346 L -62.4859,-78.0737 L -63.4393,-77.301
 L -64.3831,-76.5167 L -65.3173,-75.7209 L -66.2416,-74.9136 L -67.1559,-74.0951 L -68.0601,-73.2654 L -68.954,-72.4247
 L -69.8376,-71.5731 L -70.7107,-70.7107 L -71.5731,-69.8376 L -72.4247,-68.954 L -73.2654,-68.0601 L -74.0951,-67.1559
 L -74.9136,-66.2416 L -75.7209,-65.3173 L -76.5167,-64.3831 L -77.301,-63.4393 L -78.0737,-62.4859 L -78.8346,-61.5231
 L -79.5837,-60.5511 L -80.3207,-59.5699 L -81.0457,-58.5798 L -81.7585,-57.5808 L -82.4589,-56.5732 L -83.147,-55.557
 L -83.8225,-54.5325 L -84.4854,-53.4998 L -85.1355,-52.459 L -85.7729,-51.4103 L -86.3973,-50.3538 L -87.0087,-49.2898
 L -87.607,-48.2184 L -88.1921,-47.1397 L -88.764,-46.0539 L -89.3224,-44.9611 L -89.8674,-43.8616 L -90.3989,-42.7555
 L -90.9168,-41.6429 L -91.421,-40.5241 L -91.9114,-39.3992 L -92.3879,-38.2683 L -92.8506,-37.1317 L -93.2993,-35.9895
 L -93.7339,-34.8419 L -94.1544,-33.689 L -94.5607,-32.531 L -94.9528,-31.3682 L -95.3306,-30.2006 L -95.694,-29.0285
 L -96.043,-27.852 L -96.3776,-26.6713 L -96.6976,-25.4866 L -97.0031,-24.298 L -97.294,-23.1058 L -97.5702,-21.9101
 L -97.8317,-20.7111 L -98.0785,-19.509 L -98.3105,-18.304 L -98.5278,-17.0962 L -98.7301,-15.8858 L -98.9176,-14.673
 L -99.0903,-13.4581 L -99.2479,-12.2411 L -99.3907,-11.0222 L -99.5185,-9.80171 L -99.6313,-8.57973 L -99.729,-7.35645
 L -99.8118,-6.13206 L -99.8795,-4.90675 L -99.9322,-3.68071 L -99.9699,-2.45412 L -99.9925,-1.22714 L -100,-0
 L -99.9925,1.22714 L -99.9699,2.45412 L -99.9322,3.68071 L -99.8795,4.90675 L -99.8118,6.13206 L -99.729,7.35645
 L -99.6313,8.57973 L -99.5185,9.80171 L -99.3907,11.0222 L -99.2479,12.2411 L -99.0903,13.4581 L -98.9176,14.673
 L -98.7301,15.8858 L -98.5278,17.0962 L -98.3105,18.304 L -98.0785,19.509 L -97.8317,20.7111 L -97.5702,21.9101
 L -97.294,23.1058 L -97.0031,24.298 L -96.6976,25.4866 L -96.3776,26.6713 L -96.043,27.852 L -95.694,29.0285
 L -95.3306,30.2006 L -94.9528,31.3682 L -94.5607,32.531 L -94.1544,33.689 L -93.7339,34.8419 L -93.2993,35.9895
 L -92.8506,37.1317 L -92.3879,38.2683 L -91.9114,39.3992 L -91.421,40.5241 L -90.9168,41.6429 L -90.3989,42.7555
 L -89.8674,43.8616 L -89.3224,44.9611 L -88.764,46.0539 L -88.1921,47.1397 L -87.607,48.2184 L -87.0087,49.2898
 L -86.3973,50.3538 L -85.7729,51.4103 L -85.1355,52.459 L -84.4854,53.4998 L -83.8225,54.5325 L -83.147,55.557
 L -82.4589,56.5732 L -81.7585,57.5808 L -81.0457,58.5798 L -80.3207,59.5699 L -79.5837,60.5511 L -78.8346,61.5231
 L -78.0737,62.4859 L -77.301,63.4393 L -76.5167,64.3831 L -75.7209,65.3173 L -74.9136,66.2416 L -74.0951,67.1559
 L -73.2654,68.0601 L -72.4247,68.954 L -71.5731,69.8376 L -70.7107,70.7107 L -69.8376,71.5731 L -68.954,72.4247
 L -68.0601,73.2654 L -67.1559,74.0951 L -66.2416,74.9136 L -65.3173,75.7209 L -64.3831,76.5167 L -63.4393,77.301
 L -62.4859,78.0737 L -61.5231,78.8346 L -60.5511,79.5837 L -59.5699,80.3207 L -58.5798,81.0457 L -57.5808,81.7585
 L -56.5732,82.4589 L -55.557,83.147 L -54.5325,83.8225 L -53.4998,84.4854 L -52.459,85.1355 L -51.4103,85.7729
 L -50.3538,86.3973 L -49.2898,87.0087 L -48.2184,87.607 L -47.1397,88.1921 L -46.0539,88.764 L -44.9611,89.3224
 L -43.8616,89.8674 L -42.7555,90.3989 L -41.6429,90.9168 L -40.5241,91.421 L -39.3992,91.9114 L -38.2683,92.3879
 L -37.1317,92.8506 L -35.9895,93.2993 L -34.8419,93.7339 L -33.689,94.1544 L -32.531,94.5607 L -31.3682,94.9528
 L -30.2006,95.3306 L -29.0285,95.694 L -27.852,96.043 L -26.6713,96.3776 L -25.4866,96.6976 L -24.298,97.0031
 L -23.1058,97.294 L -21.9101,97.5702 L -20.7111,97.8317 L -19.509,98.0785 L -18.304,98.3105 L -17.0962,98.5278
 L -15.8858,98.7301 L -14.673,98.9176 L -13.4581,99.0903 L -12.2411,99.2479 L -11.0222,99.3907 L -9.80171,99.5185
 L -8.57973,99.6313 L -7.35645,99.729 L -6.13206,99.8118 L -4.90675,99.8795 L -3.68071,99.9322 L -2.45412,99.9699
 L -1.22714,99.9925 L 0,100 z
" stroke="black" fill="yellow" stroke-width="0.5"/>
<path d="
M 1.22714,99.9925 L 2.45412,99.9699 L 3.68071,99.9322 L 4.90675,99.8795 L 6.13206,99.8118 L 7.35645,99.729
 L 8.57973,99.6313 L 9.80171,99.5185 L 11.0222,99.3907 L 12.2411,99.2479 L 13.4581,99.0903 L 14.673,98.9176
 L 15.8858,98.7301 L 17.0962,98.5278 L 18.304,98.3105 L 19.509,98.0785 L 20.7111,97.8317 L 21.9101,97.5702
 L 23.1058,97.294 L 24.298,97.0031 L 25.4866,96.6976 L 26.6713,96.3776 L 27.852,96.043 L 29.0285,95.694
 L 30.2006,95.3306 L 31.3682,94.9528 L 32.531,94.5607 L 33.689,94.1544 L 34.8419,93.7339 L 35.9895,93.2993
 L 37.1317,92.8506 L 38.2683,92.3879 L 39.3992,91.9114 L 40.5241,91.421 L 41.6429,90.9168 L 42.7555,90.3989
 L 43.8616,89.8674 L 44.9611,89.3224 L 46.0539,88.764 L 47.1397,88.1921 L 48.2184,87.607 L 49.2898,87.0087
 L 50.3538,86.3973 L 51.4103,85.7729 L 52.459,85.1355 L 53.4998,84.4854 L 54.5325,83.8225 L 55.557,83.147
 L 56.5732,82.4589 L 57.5808,81.7585 L 58.5798,81.0457 L 59.5699,80.3207 L 60.5511,79.5837 L 61.5231,78.8346
 L 62.4859,78.0737 L 63.4393,77.301 L 64.3831,76.5167 L 65.3173,75.7209 L 66.2416,74.9136 L 67.1559,74.0951
 L 68.0601,73.2654 L 68.954,72.4247 L 69.8376,71.5731 L 70.7107,70.7107 L 71.5731,69.8376 L 72.4247,68.954
 L 73.2654,68.0601 L 74.0951,67.1559 L 74.9136,66.2416 L 75.7209,65.3173 L 76.5167,64.3831 L 77.301,63.4393
 L 78.0737,62.4859 L 78.8346,61.5231 L 79.5837,60.5511 L 80.3207,59.5699 L 81.0457,58.5798 L 81.7585,57.5808
 L 82.4589,56.5732 L 83.147,55.557 L 83.8225,54.5325 L 84.4854,53.4998 L 85.1355,52.459 L 85.7729,51.4103
 L 86.3973,50.3538 L 87.0087,49.2898 L 87.607,48.2184 L 88.1921,47.1397 L 88.764,46.0539 L 89.3224,44.9611
 L 89.8674,43.8616 L 90.3989,42.7555 L 90.9168,41.6429 L 91.421,40.5241 L 91.9114,39.3992 L 92.3879,38.2683
 L 92.8506,37.1317 L 93.2993,35.9895 L 93.7339,34.8419 L 94.1544,33.689 L 94.5607,32.531 L 94.9528,31.3682
 L 95.3306,30.2006 L 95.694,29.0285 L 96.043,27.852 L 96.3776,26.6713 L 96.6976,25.4866 L 97.0031,24.298
 L 97.294,23.1058 L 97.5702,21.9101 L 97.8317,20.7111 L 98.0785,19.509 L 98.3105,18.304 L 98.5278,17.0962
 L 98.7301,15.8858 L 98.9176,14.673 L 99.0903,13.4581 L 99.2479,12.2411 L 99.3907,11.0222 L 99.5185,9.80171
 L 99.6313,8.57973 L 99.729,7.35645 L 99.8118,6.13206 L 99.8795,4.90675 L 99.9322,3.68071 L 99.9699,2.45412
 L 99.9925,1.22714 L 100,-0 L 99.9925,-1.22714 L 99.9699,-2.45412 L 99.9322,-3.68071 L 99.8795,-4.90675
 L 99.8118,-6.13206 L 99.729,-7.35645 L 99.6313,-8.57973 L 99.5185,-9.80171 L 99.3907,-11.0222 L 99.2479,-12.2411
 L 99.0903,-13.4581 L 98.9176,-14.673 L 98.7301,-15.8858 L 98.5278,-17.0962 L 98.3105,-18.304 L 98.0785,-19.509
 L 97.8317,-20.7111 L 97.5702,-21.9101 L 97.294,-23.1058 L 97.0031,-24.298 L 96.6976,-25.4866 L 96.3776,-26.6713
 L 96.043,-27.852 L 95.694,-29.0285 L 95.3306,-30.2006 L 94.9528,-31.3682 L 94.5607,-32.531 L 94.1544,-33.689
 L 93.7339,-34.8419 L 93.2993,-35.9895 L 92.8506,-37.1317 L 92.3879,-38.2683 L 91.9114,-39.3992 L 91.421,-40.5241
 L 90.9168,-41.6429 L 90.3989,-42.7555 L 89.8674,-43.8616 L 89.3224,-44.9611 L 88.764,-46.0539 L 88.1921,-47.1397
 L 87.607,-48.2184 L 87.0087,-49.2898 L 86.3973,-50.3538 L 85.7729,-51.4103 L 85.1355,-52.459 L 84.4854,-53.4998
 L 83.8225,-54.5325 L 83.147,-55.557 L 82.4589,-56.5732 L 81.7585,-57.5808 L 81.0457,-58.5798 L 80.3207,-59.5699
 L 79.5837,-60.5511 L 78.8346,-61.5231 L 78.0737,-62.4859 L 77.301,-63.4393 L 76.5167,-64.3831 L 75.7209,-65.3173
 L 74.9136,-66.2416 L 74.0951,-67.1559 L 73.2654,-68.0601 L 72.4247,-68.954 L 71.5731,-69.8376 L 70.7107,-70.7107
 L 69.8376,-71.5731 L 68.954,-72.4247 L 68.0601,-73.2654 L 67.1559,-74.0951 L 66.2416,-74.9136 L 65.3173,-75.7209
 L 64.3831,-76.5167 L 63.4393,-77.301 L 62.4859,-78.0737 L 61.5231,-78.8346 L 60.5511,-79.5837 L 59.5699,-80.3207
 L 58.5798,-81.0457 L 57.5808,-81.7585 L 56.5732,-82.4589 L 55.557,-83.147 L 54.5325,-83.8225 L 53.4998,-84.4854
 L 52.459,-85.1355 L 51.4103,-85.7729 L 50.3538,-86.3973 L 49.2898,-87.0087 L 48.2184,-87.607 L 47.1397,-88.1921
 L 46.0539,-88.764 L 44.9611,-89.3224 L 43.8616,-89.8674 L 42.7555,-90.3989 L 41.6429,-90.9168 L 40.5241,-91.421
 L 39.3992,-91.9114 L 38.2683,-92.3879 L 37.1317,-92.8506 L 35.9895,-93.2993 L 34.8419,-93.7339 L 33.689,-94.1544
 L 32.531,-94.5607 L 31.3682,-94.9528 L 30.2006,-95.3306 L 29.0285,-95.694 L 27.852,-96.043 L 26.6713,-96.3776
 L 25.4866,-96.6976 L 24.298,-97.0031 L 23.1058,-97.294 L 21.9101,-97.5702 L 20.7111,-97.8317 L 19.509,-98.0785
 L 18.304,-98.3105 L 17.0962,-98.5278 L 15.8858,-98.7301 L 14.673,-98.9176 L 13.4581,-99.0903 L 12.2411,-99.2479
 L 11.0222,-99.3907 L 9.80171,-99.5185 L 8.57973,-99.6313 L 7.35645,-99.729 L 6.13206,-99.8118 L 4.90675,-99.8795
 L 3.68071,-99.9322 L 2.45412,-99.9699 L 1.22714,-99.9925 L 0,-100 L -1.22714,-99.9925 L -2.45412,-99.9699
 L -3.68071,-99.9322 L -4.90675,-99.8795 L -6.13206,-99.8118 L -7.35645,-99.729 L -8.57973,-99.6313 L -9.80171,-99.5185
 L -11.0222,-99.3907 L -12.2411,-99.2479 L -13.4581,-99.0903 L -14.673,-98.9176 L -15.8858,-98.7301 L -17.0962,-98.5278
 L -18.304,-98.3105 L -19.509,-98.0785 L -20.7111,-97.8317 L -21.9101,-97.5702 L -23.1058,-97.294 L -24.298,-97.0031
 L -25.4866,-96.6976 L -26.6713,-96.3776 L -27.852,-96.043 L -29.0285,-95.694 L -30.2006,-95.3306 L -31.3682,-94.9528
 L -32.531,-94.5607 L -33.689,-94.1544 L -34.8419,-93.7339 L -35.9895,-93.2993 L -37.1317,-92.8506 L -38.2683,-92.3879
 L -39.3992,-91.9114 L -40.5241,-91.421 L -41.6429,-90.9168 L -42.7555,-90.3989 L -43.8616,-89.8674 L -44.9611,-89.3224
 L -46.0539,-88.764 L -47.1397,-88.1921 L -48.2184,-87.607 L -49.2898,-87.0087 L -50.3538,-86.3973 L -51.4103,-85.7729
 L -52.459,-85.1355 L -53.4998,-84.4854 L -54.5325,-83.8225 L -55.557,-83.147 L -56.5732,-82.4589 L -57.5808,-81.7585
 L -58.5798,-81.0457 L -59.5699,-80.3207 L -60.5511,-79.5837 L -61.5231,-78.8346 L -62.4859,-78.0737 L -63.4393,-77.301
 L -64.3831,-76.5167 L -65.3173,-75.7209 L -66.2416,-74.9136 L -67.1559,-74.0951 L -68.0601,-73.2654 L -68.954,-72.4247
 L -69.8376,-71.5731 L -70.7107,-70.7107 L -71.5731,-69.8376 L -72.4247,-68.954 L -73.2654,-68.0601 L -74.0951,-67.1559
 L -74.9136,-66.2416 L -75.7209,-65.3173 L -76.5167,-64.3831 L -77.301,-63.4393 L -78.0737,-62.4859 L -78.8346,-61.5231
 L -79.5837,-60.5511 L -80.3207,-59.5699 L -81.0457,-58.5798 L -81.7585,-57.5808 L -82.4589,-56.5732 L -83.147,-55.557
 L -83.8225,-54.5325 L -84.4854,-53.4998 L -85.1355,-52.459 L -85.7729,-51.4103 L -86.3973,-50.3538 L -87.0087,-49.2898
 L -87.607,-48.2184 L -88.1921,-47.1397 L -88.764,-46.0539 L -89.3224,-44.9611 L -89.8674,-43.8616 L -90.3989,-42.7555
 L -90.9168,-41.6429 L -91.421,-40.5241 L -91.9114,-39.3992 L -92.3879,-38.2683 L -92.8506,-37.1317 L -93.2993,-35.9895
 L -93.7339,-34.8419 L -94.1544,-33.689 L -94.5607,-32.531 L -94.9528,-31.3682 L -95.3306,-30.2006 L -95.694,-29.0285
 L -96.043,-27.852 L -96.3776,-26.6713 L -96.6976,-25.4866 L -97.0031,-24.298 L -97.294,-23.1058 L -97.5702,-21.9101
 L -97.8317,-20.7111 L -98.0785,-19.509 L -98.3105,-18.304 L -98.5278,-17.0962 L -98.7301,-15.8858 L -98.9176,-14.673
 L -99.0903,-13.4581 L -99.2479,-12.2411 L -99.3907,-11.0222 L -99.5185,-9.80171 L -99.6313,-8.57973 L -99.729,-7.35645
 L -99.8118,-6.13206 L -99.8795,-4.90675 L -99.9322,-3.68071 L -99.9699,-2.45412 L -99.9925,-1.22714 L -100,-0
 L -99.9925,1.22714 L -99.9699,2.45412 L -99.9322,3.68071 L -99.8795,4.90675 L -99.8118,6.13206 L -99.729,7.35645
 L -99.6313,8.57973 L -99.5185,9.80171 L -99.3907,11.0222 L -99.2479,12.2411 L -99.0903,13.4581 L -98.9176,14.673
 L -98.7301,15.8858 L -98.5278,17.0962 L -98.3105,18.304 L -98.0785,19.509 L -97.8317,20.7111 L -97.5702,21.9101
 L -97.294,23.1058 L -97.0031,24.298 L -96.6976,25.4866 L -96.3776,26.6713 L -96.043,27.852 L -95.694,29.0285
 L -95.3306,30.2006 L -94.9528,31.3682 L -94.5607,32.531 L -94.1544,33.689 L -93.7339,34.8419 L -93.2993,35.9895
 L -92.8506,37.1317 L -92.3879,38.2683 L -91.9114,39.3992 L -91.421,40.5241 L -90.9168,41.6429 L -90.3989,42.7555
 L -89.8674,43.8616 L -89.3224,44.9611 L -88.764,46.0539 L -88.1921,47.1397 L -87.607,48.2184 L -87.0087,49.2898
 L -86.3973,50.3538 L -85.7729,51.4103 L -85.1355,52.459 L -84.4854,53.4998 L -83.8225,54.5325 L -83.147,55.557
 L -82.4589,56.5732 L -81.7585,57.5808 L -81.0457,58.5798 L -80.3207,59.5699 L -79.5837,60.5511 L -78.8346,61.5231
 L -78.0737,62.4859 L -77.301,63.4393 L -76.5167,64.3831 L -75.7209,65.3173 L -74.9136,66.2416 L -74.0951,67.1559
 L -73.2654,68.0601 L -72.4247,68.954 L -71.5731,69.8376 L -70.7107,70.7107 L -69.8376,71.5731 L -68.954,72.4247
 L -68.0601,73.2654 L -67.1559,74.0951 L -66.2416,74.9136 L -65.3173,75.7209 L -64.3831,76.5167 L -63.4393,77.301
 L -62.4859,78.0737 L -61.5231,78.8346 L -60.5511,79.5837 L -59.5699,80.3207 L -58.5798,81.0457 L -57.5808,81.7585
 L -56.5732,82.4589 L -55.557,83.147 L -54.5325,83.8225 L -53.4998,84.4854 L -52.459,85.1355 L -51.4103,85.7729
 L -50.3538,86.3973 L -49.2898,87.0087 L -48.2184,87.607 L -47.1397,88.1921 L -46.0539,88.764 L -44.9611,89.3224
 L -43.8616,89.8674 L -42.7555,90.3989 L -41.6429,90.9168 L -40.5241,91.421 L -39.3992,91.9114 L -38.2683,92.3879
 L -37.1317,92.8506 L -35.9895,93.2993 L -34.8419,93.7339 L -33.689,94.1544 L -32.531,94.5607 L -31.3682,94.9528
 L -30.2006,95.3306 L -29.0285,95.694 L -27.852,96.043 L -26.6713,96.3776 L -25.4866,96.6976 L -24.298,97.0031
 L -23.1058,97.294 L -21.9101,97.5702 L -20.7111,97.8317 L -19.509,98.0785 L -18.304,98.3105 L -17.0962,98.5278
 L -15.8858,98.7301 L -14.673,98.9176 L -13.4581,99.0903 L -12.2411,99.2479 L -11.0222,99.3907 L -9.80171,99.5185
 L -8.57973,99.6313 L -7.35645,99.729 L -6.13206,99.8118 L -4.90675,99.8795 L -3.68071,99.9322 L -2.45412,99.9699
 L -1.22714,99.9925 L 0,100 z
M -1.16579,94.9928 L -2.33141,94.9714 L -3.49667,94.9356 L -4.66142,94.8856 L -5.82545,94.8212 L -6.98863,94.7426
 L -8.15074,94.6497 L -9.31161,94.5425 L -10.4711,94.4212 L -11.629,94.2856 L -12.7852,94.1357 L -13.9394,93.9718
 L -15.0915,93.7936 L -16.2414,93.6014 L -17.3888,93.395 L -18.5336,93.1746 L -19.6756,92.9401 L -20.8146,92.6917
 L -21.9505,92.4293 L -23.0831,92.153 L -24.2122,91.8628 L -25.3377,91.5587 L -26.4594,91.2409 L -27.577,90.9093
 L -28.6906,90.5641 L -29.7998,90.2052 L -30.9045,89.8327 L -32.0045,89.4467 L -33.0998,89.0472 L -34.19,88.6343
 L -35.2751,88.2081 L -36.3549,87.7686 L -37.4292,87.3158 L -38.4979,86.8499 L -39.5608,86.371 L -40.6177,85.879
 L -41.6685,85.3741 L -42.7131,84.8563 L -43.7512,84.3258 L -44.7827,83.7825 L -45.8074,83.2267 L -46.8253,82.6582
 L -47.8361,82.0774 L -48.8398,81.4842 L -49.836,80.8787 L -50.8248,80.2611 L -51.8059,79.6313 L -52.7792,78.9896
 L -53.7445,78.336 L -54.7018,77.6705 L -55.6508,76.9934 L -56.5914,76.3047 L -57.5235,75.6045 L -58.447,74.8929
 L -59.3616,74.17 L -60.2673,73.436 L -61.164,72.6909 L -62.0514,71.9348 L -62.9295,71.168 L -63.7981,70.3904
 L -64.6571,69.6021 L -65.5063,68.8035 L -66.3457,67.9944 L -67.1751,67.1751 L -67.9944,66.3457 L -68.8035,65.5063
 L -69.6021,64.6571 L -70.3904,63.7981 L -71.168,62.9295 L -71.9348,62.0514 L -72.6909,61.164 L -73.436,60.2673
 L -74.17,59.3616 L -74.8929,58.447 L -75.6045,57.5235 L -76.3047,56.5914 L -76.9934,55.6508 L -77.6705,54.7018
 L -78.336,53.7445 L -78.9896,52.7792 L -79.6313,51.8059 L -80.2611,50.8248 L -80.8787,49.836 L -81.4842,48.8398
 L -82.0774,47.8361 L -82.6582,46.8253 L -83.2267,45.8074 L -83.7825,44.7827 L -84.3258,43.7512 L -84.8563,42.7131
 L -85.3741,41.6685 L -85.879,40.6177 L -86.371,39.5608 L -86.8499,38.4979 L -87.3158,37.4292 L -87.7686,36.3549
 L -88.2081,35.2751 L -88.6343,34.19 L -89.0472,33.0998 L -89.4467,32.0045 L -89.8327,30.9045 L -90.2052,29.7998
 L -90.5641,28.6906 L -90.9093,27.577 L -91.2409,26.4594 L -91.5587,25.3377 L -91.8628,24.2122 L -92.153,23.0831
 L -92.4293,21.9505 L -92.6917,20.8146 L -92.9401,19.6756 L -93.1746,18.5336 L -93.395,17.3888 L -93.6014,16.2414
 L -93.7936,15.0915 L -93.9718,13.9394 L -94.1357,12.7852 L -94.2856,11.629 L -94.4212,10.4711 L -94.5425,9.31161
 L -94.6497,8.15074 L -94.7426,6.98863 L -94.8212,5.82545 L -94.8856,4.66142 L -94.9356,3.49667 L -94.9714,2.33141
 L -94.9928,1.16579 L -95,-0 L -94.9928,-1.16579 L -94.9714,-2.33141 L -94.9356,-3.49667 L -94.8856,-4.66142
 L -94.8212,-5.82545 L -94.7426,-6.98863 L -94.6497,-8.15074 L -94.5425,-9.31161 L -94.4212,-10.4711 L -94.2856,-11.629
 L -94.1357,-12.7852 L -93.9718,-13.9394 L -93.7936,-15.0915 L -93.6014,-16.2414 L -93.395,-17.3888 L -93.1746,-18.5336
 L -92.9401,-19.6756 L -92.6917,-20.8146 L -92.4293,-21.9505 L -92.153,-23.0831 L -91.8628,-24.2122 L -91.5587,-25.3377
 L -91.2409,-26.4594 L -90.9093,-27.577 L -90.5641,-28.6906 L -90.2052,-29.7998 L -89.8327,-30.9045 L -89.4467,-32.0045
 L -89.0472,-33.0998 L -88.6343,-34.19 L -88.2081,-35.2751 L -87.7686,-36.3549 L -87.3158,-37.4292 L -86.8499,-38.4979
 L -86.371,-39.5608 L -85.879,-40.6177 L -85.3741,-41.6685 L -84.8563,-42.7131 L -84.3258,-43.7512 L -83.7825,-44.7827
 L -83.2267,-45.8074 L -82.6582,-46.8253 L -82.0774,-47.8361 L -81.4842,-48.8398 L -80.8787,-49.836 L -80.2611,-50.8248
 L -79.6313,-51.8059 L -78.9896,-52.7792 L -78.336,-53.7445 L -77.6705,-54.7018 L -76.9934,-55.6508 L -76.3047,-56.5914
 L -75.6045,-57.5235 L -74.8929,-58.447 L -74.17,-59.3616 L -73.436,-60.2673 L -72.6909,-61.164 L -71.9348,-62.0514
 L -71.168,-62.9295 L -70.3904,-63.7981 L -69.6021,-64.6571 L -68.8035,-65.5063 L -67.9944,-66.3457 L -67.1751,-67.1751
 L -66.3457,-67.9944 L -65.5063,-68.8035 L -64.6571,-69.6021 L -63.7981,-70.3904 L -62.9295,-71.168 L -62.0514,-71.9348
 L -61.164,-72.6909 L -60.2673,-73.436 L -59.3616,-74.17 L -58.447,-74.8929 L -57.5235,-75.6045 L -56.5914,-76.3047
 L -55.6508,-76.9934 L -54.7018,-77.6705 L -53.7445,-78.336 L -52.7792,-78.9896 L -51.8059,-79.6313 L -50.8248,-80.2611
 L -49.836,-80.8787 L -48.8398,-81.4842 L -47.8361,-82.0774 L -46.8253,-82.6582 L -45.8074,-83.2267 L -44.7827,-83.7825
 L -43.7512,-84.3258 L -42.7131,-84.8563 L -41.6685,-85.3741 L -40.6177,-85.879 L -39.5608,-86.371 L -38.4979,-86.8499
 L -37.4292,-87.3158 L -36.3549,-87.7686 L -35.2751,-88.2081 L -34.19,-88.6343 L -33.0998,-89.0472 L -32.0045,-89.4467
 L -30.9045,-89.8327 L -29.7998,-90.2052 L -28.6906,-90.5641 L -27.577,-90.9093 L -26.4594,-91.2409 L -25.3377,-91.5587
 L -24.2122,-91.8628 L -23.0831,-92.153 L -21.9505,-92.4293 L -20.8146,-92.6917 L -19.6756,-92.9401 L -18.5336,-93.1746
 L -17.3888,-93.395 L -16.2414,-93.6014 L -15.0915,-93.7936 L -13.9394,-93.9718 L -12.7852,-94.1357 L -11.629,-94.2856
 L -10.4711,-94.4212 L -9.31161,-94.5425 L -8.15074,-94.6497 L -6.98863,-94.7426 L -5.82545,-94.8212 L -4.66142,-94.8856
 L -3.49667,-94.9356 L -2.33141,-94.9714 L -1.16579,-94.9928 L 0,-95 L 1.16579,-94.9928 L 2.33141,-94.9714
 L 3.49667,-94.9356 L 4.66142,-94.8856 L 5.82545,-94.8212 L 6.98863,-94.7426 L 8.15074,-94.6497 L 9.31161,-94.5425
 L 10.4711,-94.4212 L 11.629,-94.2856 L 12.7852,-94.1357 L 13.9394,-93.9718 L 15.0915,-93.7936 L 16.2414,-93.6014
 L 17.3888,-93.395 L 18.5336,-93.1746 L 19.6756,-92.9401 L 20.8146,-92.6917 L 21.9505,-92.4293 L 23.0831,-92.153
 L 24.2122,-91.8628 L 25.3377,-91.5587 L 26.4594,-91.2409 L 27.577,-90.9093 L 28.6906,-90.5641 L 29.7998,-90.2052
 L 30.9045,-89.8327 L 32.0045,-89.4467 L 33.0998,-89.0472 L 34.19,-88.6343 L 35.2751,-88.2081 L 36.3549,-87.7686
 L 37.4292,-87.3158 L 38.4979,-86.8499 L 39.5608,-86.371 L 40.6177,-85.879 L 41.6685,-85.3741 L 42.7131,-84.8563
 L 43.7512,-84.3258 L 44.7827,-83.7825 L 45.8074,-83.2267 L 46.8253,-82.6582 L 47.8361,-82.0774 L 48.8398,-81.4842
 L 49.836,-80.8787 L 50.8248,-80.2611 L 51.8059,-79.6313 L 52.7792,-78.9896 L 53.7445,-78.336 L 54.7018,-77.6705
 L 55.6508,-76.9934 L 56.5914,-76.3047 L 57.5235,-75.6045 L 58.447,-74.8929 L 59.3616,-74.17 L 60.2673,-73.436
 L 61.164,-72.6909 L 62.0514,-71.9348 L 62.9295,-71.168 L 63.7981,-70.3904 L 64.6571,-69.6021 L 65.5063,-68.8035
 L 66.3457,-67.9944 L 67.1751,-67.1751 L 67.9944,-66.3457 L 68.8035,-65.5063 L 69.6021,-64.6571 L 70.3904,-63.7981
 L 71.168,-62.9295 L 71.9348,-62.0514 L 72.6909,-61.164 L 73.436,-60.2673 L 74.17,-59.3616 L 74.8929,-58.447
 L 75.6045,-57.5235 L 76.3047,-56.5914 L 76.9934,-55.6508 L 77.6705,-54.7018 L 78.336,-53.7445 L 78.9896,-52.7792
 L 79.6313,-51.8059 L 80.2611,-50.8248 L 80.8787,-49.836 L 81.4842,-48.8398 L 82.0774,-47.8361 L 82.6582,-46.8253
 L 83.2267,-45.8074 L 83.7825,-44.7827 L 84.3258,-43.7512 L 84.8563,-42.7131 L 85.3741,-41.6685 L 85.879,-40.6177
 L 86.371,-39.5608 L 86.8499,-38.4979 L 87.3158,-37.4292 L 87.7686,-36.3549 L 88.2081,-35.2751 L 88.6343,-34.19
 L 89.0472,-33.0998 L 89.4467,-32.0045 L 89.8327,-30.9045 L 90.2052,-29.7998 L 90.5641,-28.6906 L 90.9093,-27.577
 L 91.2409,-26.4594 L 91.5587,-25.3377 L 91.8628,-24.2122 L 92.153,-23.0831 L 92.4293,-21.9505 L 92.6917,-20.8146
 L 92.9401,-19.6756 L 93.1746,-18.5336 L 93.395,-17.3888 L 93.6014,-16.2414 L 93.7936,-15.0915 L 93.9718,-13.9394
 L 94.1357,-12.7852 L 94.2856,-11.629 L 94.4212,-10.4711 L 94.5425,-9.31161 L 94.6497,-8.15074 L 94.7426,-6.98863
 L 94.8212,-5.82545 L 94.8856,-4.66142 L 94.9356,-3.49667 L 94.9714,-2.33141 L 94.9928,-1.16579 L 95,-0
 L 94.9928,1.16579 L 94.9714,2.33141 L 94.9356,3.49667 L 94.8856,4.66142 L 94.8212,5.82545 L 94.7426,6.98863
 L 94.6497,8.15074 L 94.5425,9.31161 L 94.4212,10.4711 L 94.2856,11.629 L 94.1357,12.7852 L 93.9718,13.9394
 L 93.7936,15.0915 L 93.6014,16.2414 L 93.395,17.3888 L 93.1746,18.5336 L 92.9401,19.6756 L 92.6917,20.8146
 L 92.4293,21.9505 L 92.153,23.0831 L 91.8628,24.2122 L 91.5587,25.3377 L 91.2409,26.4594 L 90.9093,27.577
 L 90.5641,28.6906 L 90.2052,29.7998 L 89.8327,30.9045 L 89.4467,32.0045 L 89.0472,33.0998 L 88.6343,34.19
 L 88.2081,35.2751 L 87.7686,36.3549 L 87.3158,37.4292 L 86.8499,38.4979 L 86.371,39.5608 L 85.879,40.6177
 L 85.3741,41.6685 L 84.8563,42.7131 L 84.3258,43.7512 L 83.7825,44.7827 L 83.2267,45.8074 L 82.6582,46.8253
 L 82.0774,47.8361 L 81.4842,48.8398 L 80.8787,49.836 L 80.2611,50.8248 L 79.6313,51.8059 L 78.9896,52.7792
 L 78.336,53.7445 L 77.6705,54.7018 L 76.9934,55.6508 L 76.3047,56.5914 L 75.6045,57.5235 L 74.8929,58.447
 L 74.17,59.3616 L 73.436,60.2673 L 72.6909,61.164 L 71.9348,62.0514 L 71.168,62.9295 L 70.3904,63.7981
 L 69.6021,64.6571 L 68.8035,65.5063 L 67.9944,66.3457 L 67.1751,67.1751 L 66.3457,67.9944 L 65.5063,68.8035
 L 64.6571,69.6021 L 63.7981,70.3904 L 62.9295,71.168 L 62.0514,71.9348 L 61.164,72.6909 L 60.2673,73.436
 L 59.3616,74.17 L 58.447,74.8929 L 57.5235,75.6045 L 56.5914,76.3047 L 55.6508,76.9934 L 54.7018,77.6705
 L 53.7445,78.336 L 52.7792,78.9896 L 51.8059,79.6313 L 50.8248,80.2611 L 49.836,80.8787 L 48.8398,81.4842
 L 47.8361,82.0774 L 46.8253,82.6582 L 45.8074,83.2267 L 44.7827,83.7825 L 43.7512,84.3258 L 42.7131,84.8563
 L 41.6685,85.3741 L 40.6177,85.879 L 39.5608,86.371 L 38.4979,86.8499 L 37.4292,87.3158 L 36.3549,87.7686
 L 35.2751,88.2081 L 34.19,88.6343 L 33.0998,89.0472 L 32.0045,89.4467 L 30.9045,89.8327 L 29.7998,90.2052
 L 28.6906,90.5641 L 27.577,90.9093 L 26.4594,91.2409 L 25.3377,91.5587 L 24.2122,91.8628 L 23.0831,92.153
 L 21.9505,92.4293 L 20.8146,92.6917 L 19.6756,92.9401 L 18.5336,93.1746 L 17.3888,93.395 L 16.2414,93.6014
 L 15.0915,93.7936 L 13.9394,93.9718 L 12.7852,94.1357 L 11.629,94.2856 L 10.4711,94.4212 L 9.31161,94.5425
 L 8.15074,94.6497 L 6.98863,94.7426 L 5.82545,94.8212 L 4.66142,94.8856 L 3.49667,94.9356 L 2.33141,94.9714
 L 1.16579,94.9928 L 0,95 z
M 27.8115,-85.5951 L 26.759,-85.9299 L 25.7025,-86.2518 L 24.6422,-86.5607 L 23.5781,-86.8566 L 22.5104,-87.1394
 L 21.4394,-87.4091 L 20.3651,-87.6656 L 19.2878,-87.9089 L 18.2076,-88.139 L 17.1246,-88.3558 L 16.0391,-88.5593
 L 14.9511,-88.7494 L 13.8609,-88.9262 L 12.7686,-89.0896 L 11.6743,-89.2396 L 10.5784,-89.3761 L 9.48079,-89.4992
 L 8.38177,-89.6088 L 7.28151,-89.7049 L 6.18015,-89.7876 L 5.07785,-89.8566 L 3.97479,-89.9122 L 2.87112,-89.9542
 L 1.76703,-89.9826 L 0.662674,-89.9975 L -0.441772,-89.9989 L -1.54617,-89.9867 L -2.65033,-89.961 L -3.75407,-89.9216
 L -4.85728,-89.8688 L -5.95973,-89.8024 L -7.06129,-89.7225 L -8.1618,-89.6291 L -9.26108,-89.5222 L -10.359,-89.4018
 L -11.4553,-89.268 L -12.5499,-89.1207 L -13.6426,-88.96 L -14.7332,-88.7859 L -15.8217,-88.5984 L -16.9077,-88.3975
 L -17.9912,-88.1834 L -19.072,-87.956 L -20.1499,-87.7153 L -21.2248,-87.4614 L -22.2965,-87.1944 L -23.3648,-86.9142
 L -24.4296,-86.621 L -25.4908,-86.3146 L -26.548,-85.9953 L -27.6013,-85.6631 L -27.8112,-85.594 L -7.72528,-23.776
 L -7.55014,-23.8326 L -7.25711,-23.9235 L -6.96298,-24.0108 L -6.66782,-24.0944 L -6.37163,-24.1744 L -6.07449,-24.2508
 L -5.77644,-24.3235 L -5.47752,-24.3925 L -5.17778,-24.4579 L -4.87724,-24.5196 L -4.57599,-24.5776 L -4.27403,-24.6319
 L -3.97145,-24.6825 L -3.66826,-24.7294 L -3.36452,-24.7726 L -3.06026,-24.812 L -2.75555,-24.8477 L -2.45042,-24.8796
 L -2.14493,-24.9078 L -1.83911,-24.9323 L -1.533,-24.9529 L -1.22668,-24.9699 L -0.920166,-24.983 L -0.613525,-24.9925
 L -0.306778,-24.9981 L 0,-25 L 0.306778,-24.9981 L 0.613525,-24.9925 L 0.920166,-24.983 L 1.22668,-24.9699
 L 1.533,-24.9529 L 1.83911,-24.9323 L 2.14493,-24.9078 L 2.45042,-24.8796 L 2.75555,-24.8477 L 3.06026,-24.812
 L 3.36452,-24.7726 L 3.66826,-24.7294 L 3.97145,-24.6825 L 4.27403,-24.6319 L 4.57599,-24.5776 L 4.87724,-24.5196
 L 5.17778,-24.4579 L 5.47752,-24.3925 L 5.77644,-24.3235 L 6.07449,-24.2508 L 6.37163,-24.1744 L 6.66782,-24.0944
 L 6.96298,-24.0108 L 7.25711,-23.9235 L 7.55014,-23.8326 L 7.72528,-23.776 z
M -24.9981,-0.306778 L -24.9925,-0.613525 L -24.983,-0.920166 L -24.9699,-1.22668 L -24.9529,-1.533 L -24.9323,-1.83911
 L -24.9078,-2.14493 L -24.8796,-2.45042 L -24.8477,-2.75555 L -24.812,-3.06026 L -24.7726,-3.36452 L -24.7294,-3.66826
 L -24.6825,-3.97145 L -24.6319,-4.27403 L -24.5776,-4.57599 L -24.5196,-4.87724 L -24.4579,-5.17778 L -24.3925,-5.47752
 L -24.3235,-5.77644 L -24.2508,-6.07449 L -24.1744,-6.37163 L -24.0944,-6.66782 L -24.0108,-6.96298 L -23.9235,-7.25711
 L -23.8326,-7.55014 L -23.7382,-7.84204 L -23.6402,-8.13275 L -23.5386,-8.42224 L -23.4335,-8.71046 L -23.3248,-8.99738
 L -23.2126,-9.28293 L -23.097,-9.56708 L -22.9778,-9.84979 L -22.8552,-10.131 L -22.7292,-10.4107 L -22.5997,-10.6889
 L -22.4669,-10.9654 L -22.3306,-11.2403 L -22.191,-11.5135 L -22.048,-11.7849 L -21.9017,-12.0546 L -21.7522,-12.3224
 L -21.5993,-12.5885 L -21.4432,-12.8526 L -21.2839,-13.1147 L -21.1213,-13.3749 L -20.9556,-13.6331 L -20.7867,-13.8893
 L -20.6147,-14.1433 L -20.4396,-14.3952 L -20.2614,-14.6449 L -20.2252,-14.6945 L -72.8115,-52.9007 L -73.4552,-52.0032
 L -74.0878,-51.0978 L -74.7093,-50.1848 L -75.3195,-49.2643 L -75.9184,-48.3363 L -76.5058,-47.401 L -77.0818,-46.4586
 L -77.6461,-45.5092 L -78.1987,-44.5529 L -78.7395,-43.5899 L -79.2685,-42.6204 L -79.7856,-41.6444 L -80.2906,-40.6622
 L -80.7836,-39.6738 L -81.2643,-38.6795 L -81.7329,-37.6794 L -82.1891,-36.6735 L -82.6329,-35.6622 L -83.0644,-34.6455
 L -83.4833,-33.6236 L -83.8896,-32.5965 L -84.2833,-31.5646 L -84.6643,-30.528 L -85.0325,-29.4867 L -85.388,-28.441
 L -85.7306,-27.391 L -86.0602,-26.3369 L -86.3769,-25.2788 L -86.6806,-24.217 L -86.9713,-23.1514 L -87.2489,-22.0824
 L -87.5133,-21.0101 L -87.7645,-19.9346 L -88.0025,-18.8561 L -88.2273,-17.7747 L -88.4388,-16.6907 L -88.6369,-15.6042
 L -88.8217,-14.5153 L -88.9932,-13.4242 L -89.1512,-12.3311 L -89.2958,-11.2362 L -89.427,-10.1395 L -89.5447,-9.04134
 L -89.6489,-7.9418 L -89.7396,-6.84108 L -89.8168,-5.73932 L -89.8805,-4.6367 L -89.9306,-3.53339 L -89.9672,-2.42953
 L -89.9902,-1.32532 L -89.9997,-0.220886 L -89.9989,-0 L -25,-0 z
M 89.9932,-1.10443 L 89.9729,-2.20871 L 89.939,-3.31264 L 89.8916,-4.41608 L 89.8306,-5.51886 L 89.7561,-6.6208
 L 89.6681,-7.72176 L 89.5666,-8.82153 L 89.4516,-9.92 L 89.3232,-11.017 L 89.1812,-12.1123 L 89.0259,-13.2057
 L 88.8571,-14.2972 L 88.675,-15.3866 L 88.4795,-16.4736 L 88.2707,-17.5581 L 88.0486,-18.64 L 87.8132,-19.7191
 L 87.5646,-20.7952 L 87.3028,-21.8682 L 87.0279,-22.9379 L 86.7398,-24.0041 L 86.4387,-25.0668 L 86.1246,-26.1256
 L 85.7975,-27.1805 L 85.4575,-28.2314 L 85.1046,-29.2779 L 84.739,-30.3201 L 84.3605,-31.3577 L 83.9693,-32.3905
 L 83.5655,-33.4185 L 83.1492,-34.4415 L 82.7202,-35.4593 L 82.2789,-36.4717 L 81.8251,-37.4787 L 81.359,-38.4799
 L 80.8807,-39.4754 L 80.3902,-40.465 L 79.8876,-41.4485 L 79.3729,-42.4257 L 78.8463,-43.3965 L 78.3078,-44.3608
 L 77.7576,-45.3185 L 77.1956,-46.2692 L 76.622,-47.2131 L 76.0368,-48.1498 L 75.4402,-49.0792 L 74.8323,-50.0013
 L 74.213,-50.9158 L 73.5826,-51.8227 L 72.9411,-52.7218 L 72.8107,-52.9 L 20.2252,-14.6944 L 20.2614,-14.6449
 L 20.4396,-14.3952 L 20.6147,-14.1433 L 20.7867,-13.8893 L 20.9556,-13.6331 L 21.1213,-13.3749 L 21.2839,-13.1147
 L 21.4432,-12.8526 L 21.5993,-12.5885 L 21.7522,-12.3224 L 21.9017,-12.0546 L 22.048,-11.7849 L 22.191,-11.5135
 L 22.3306,-11.2403 L 22.4669,-10.9654 L 22.5997,-10.6889 L 22.7292,-10.4107 L 22.8552,-10.131 L 22.9778,-9.84979
 L 23.097,-9.56708 L 23.2126,-9.28293 L 23.3248,-8.99738 L 23.4335,-8.71046 L 23.5386,-8.42224 L 23.6402,-8.13275
 L 23.7382,-7.84204 L 23.8326,-7.55014 L 23.9235,-7.25711 L 24.0108,-6.96298 L 24.0944,-6.66782 L 24.1744,-6.37163
 L 24.2508,-6.07449 L 24.3235,-5.77644 L 24.3925,-5.47752 L 24.4579,-5.17778 L 24.5196,-4.87724 L 24.5776,-4.57599
 L 24.6319,-4.27403 L 24.6825,-3.97145 L 24.7294,-3.66826 L 24.7726,-3.36452 L 24.812,-3.06026 L 24.8477,-2.75555
 L 24.8796,-2.45042 L 24.9078,-2.14493 L 24.9323,-1.83911 L 24.9529,-1.533 L 24.9699,-1.22668 L 24.983,-0.920166
 L 24.9925,-0.613525 L 24.9981,-0.306778 L 25,-0 L 90,-0 z
M 0.245422,19.9985 L 0.490814,19.994 L 0.73613,19.9864 L 0.981339,19.9759 L 1.22641,19.9624 L 1.47128,19.9458
 L 1.71594,19.9262 L 1.96034,19.9037 L 2.20444,19.8781 L 2.44821,19.8496 L 2.6916,19.818 L 2.9346,19.7835
 L 3.17715,19.746 L 3.41924,19.7056 L 3.6608,19.6621 L 3.90179,19.6157 L 4.14223,19.5663 L 4.38202,19.514
 L 4.62115,19.4588 L 4.85959,19.4006 L 5.09731,19.3395 L 5.33424,19.2755 L 5.57039,19.2086 L 5.80568,19.1388
 L 6.04012,19.0661 L 6.27362,18.9906 L 6.5062,18.9121 L 6.73779,18.8309 L 6.96837,18.7468 L 7.19789,18.6599
 L 7.42633,18.5701 L 7.65366,18.4776 L 7.87984,18.3823 L 8.10481,18.2842 L 8.32858,18.1833 L 8.5511,18.0798
 L 8.77232,17.9735 L 8.99222,17.8645 L 9.21077,17.7528 L 9.42793,17.6384 L 9.64366,17.5214 L 9.85796,17.4017
 L 10.0708,17.2794 L 10.282,17.1546 L 10.4918,17.0271 L 10.7,16.8971 L 10.9065,16.7645 L 11.1114,16.6294
 L 11.3146,16.4918 L 11.5162,16.3517 L 11.7159,16.2091 L 11.914,16.0641 L 12.1102,15.9167 L 12.3046,15.7669
 L 12.4972,15.6147 L 12.6879,15.4602 L 12.8766,15.3033 L 13.0634,15.1442 L 13.2483,14.9827 L 13.4312,14.819
 L 13.612,14.6531 L 13.7908,14.4849 L 13.9675,14.3146 L 14.1421,14.1421 L 14.3146,13.9675 L 14.4849,13.7908
 L 14.6531,13.612 L 14.819,13.4312 L 14.9827,13.2483 L 15.1442,13.0634 L 15.3033,12.8766 L 15.4602,12.6879
 L 15.6147,12.4972 L 15.7669,12.3046 L 15.9167,12.1102 L 16.0641,11.914 L 16.2091,11.7159 L 16.3517,11.5162
 L 16.4918,11.3146 L 16.6294,11.1114 L 16.7645,10.9065 L 16.8971,10.7 L 17.0271,10.4918 L 17.1546,10.282
 L 17.2794,10.0708 L 17.4017,9.85796 L 17.5214,9.64366 L 17.6384,9.42793 L 17.7528,9.21077 L 17.8645,8.99222
 L 17.9735,8.77232 L 18.0798,8.5511 L 18.1833,8.32858 L 18.2842,8.10481 L 18.3823,7.87984 L 18.4776,7.65366
 L 18.5701,7.42633 L 18.6599,7.19789 L 18.7468,6.96837 L 18.8309,6.73779 L 18.9121,6.5062 L 18.9906,6.27362
 L 19.0661,6.04012 L 19.1388,5.80568 L 19.2086,5.57039 L 19.2755,5.33424 L 19.3395,5.09731 L 19.4006,4.85959
 L 19.4588,4.62115 L 19.514,4.38202 L 19.5663,4.14223 L 19.6157,3.90179 L 19.6621,3.6608 L 19.7056,3.41924
 L 19.746,3.17715 L 19.7835,2.9346 L 19.818,2.6916 L 19.8496,2.44821 L 19.8781,2.20444 L 19.9037,1.96034
 L 19.9262,1.71594 L 19.9458,1.47128 L 19.9624,1.22641 L 19.9759,0.981339 L 19.9864,0.73613 L 19.994,0.490814
 L 19.9985,0.245422 L 20,-0 L 19.9985,-0.245422 L 19.994,-0.490814 L 19.9864,-0.73613 L 19.9759,-0.981339
 L 19.9624,-1.22641 L 19.9458,-1.47128 L 19.9262,-1.71594 L 19.9037,-1.96034 L 19.8781,-2.20444 L 19.8496,-2.44821
 L 19.818,-2.6916 L 19.7835,-2.9346 L 19.746,-3.17715 L 19.7056,-3.41924 L 19.6621,-3.6608 L 19.6157,-3.90179
 L 19.5663,-4.14223 L 19.514,-4.38202 L 19.4588,-4.62115 L 19.4006,-4.85959 L 19.3395,-5.09731 L 19.2755,-5.33424
 L 19.2086,-5.57039 L 19.1388,-5.80568 L 19.0661,-6.04012 L 18.9906,-6.27362 L 18.9121,-6.5062 L 18.8309,-6.73779
 L 18.7468,-6.96837 L 18.6599,-7.19789 L 18.5701,-7.42633 L 18.4776,-7.65366 L 18.3823,-7.87984 L 18.2842,-8.10481
 L 18.1833,-8.32858 L 18.0798,-8.5511 L 17.9735,-8.77232 L 17.8645,-8.99222 L 17.7528,-9.21077 L 17.6384,-9.42793
 L 17.5214,-9.64366 L 17.4017,-9.85796 L 17.2794,-10.0708 L 17.1546,-10.282 L 17.0271,-10.4918 L 16.8971,-10.7
 L 16.7645,-10.9065 L 16.6294,-11.1114 L 16.4918,-11.3146 L 16.3517,-11.5162 L 16.2091,-11.7159 L 16.0641,-11.914
 L 15.9167,-12.1102 L 15.7669,-12.3046 L 15.6147,-12.4972 L 15.4602,-12.6879 L 15.3033,-12.8766 L 15.1442,-13.0634
 L 14.9827,-13.2483 L 14.819,-13.4312 L 14.6531,-13.612 L 14.4849,-13.7908 L 14.3146,-13.9675 L 14.1421,-14.1421
 L 13.9675,-14.3146 L 13.7908,-14.4849 L 13.612,-14.6531 L 13.4312,-14.819 L 13.2483,-14.9827 L 13.0634,-15.1442
 L 12.8766,-15.3033 L 12.6879,-15.4602 L 12.4972,-15.6147 L 12.3046,-15.7669 L 12.1102,-15.9167 L 11.914,-16.0641
 L 11.7159,-16.2091 L 11.5162,-16.3517 L 11.3146,-16.4918 L 11.1114,-16.6294 L 10.9065,-16.7645 L 10.7,-16.8971
 L 10.4918,-17.0271 L 10.282,-17.1546 L 10.0708,-17.2794 L 9.85796,-17.4017 L 9.64366,-17.5214 L 9.42793,-17.6384
 L 9.21077,-17.7528 L 8.99222,-17.8645 L 8.77232,-17.9735 L 8.5511,-18.0798 L 8.32858,-18.1833 L 8.10481,-18.2842
 L 7.87984,-18.3823 L 7.65366,-18.4776 L 7.42633,-18.5701 L 7.19789,-18.6599 L 6.96837,-18.7468 L 6.73779,-18.8309
 L 6.5062,-18.9121 L 6.27362,-18.9906 L 6.04012,-19.0661 L 5.80568,-19.1388 L 5.57039,-19.2086 L 5.33424,-19.2755
 L 5.09731,-19.3395 L 4.85959,-19.4006 L 4.62115,-19.4588 L 4.38202,-19.514 L 4.14223,-19.5663 L 3.90179,-19.6157
 L 3.6608,-19.6621 L 3.41924,-19.7056 L 3.17715,-19.746 L 2.9346,-19.7835 L 2.6916,-19.818 L 2.44821,-19.8496
 L 2.20444,-19.8781 L 1.96034,-19.9037 L 1.71594,-19.9262 L 1.47128,-19.9458 L 1.22641,-19.9624 L 0.981339,-19.9759
 L 0.73613,-19.9864 L 0.490814,-19.994 L 0.245422,-19.9985 L 0,-20 L -0.245422,-19.9985 L -0.490814,-19.994
 L -0.73613,-19.9864 L -0.981339,-19.9759 L -1.22641,-19.9624 L -1.47128,-19.9458 L -1.71594,-19.9262 L -1.96034,-19.9037
 L -2.20444,-19.8781 L -2.44821,-19.8496 L -2.6916,-19.818 L -2.9346,-19.7835 L -3.17715,-19.746 L -3.41924,-19.7056
 L -3.6608,-19.6621 L -3.90179,-19.6157 L -4.14223,-19.5663 L -4.38202,-19.514 L -4.62115,-19.4588 L -4.85959,-19.4006
 L -5.09731,-19.3395 L -5.33424,-19.2755 L -5.57039,-19.2086 L -5.80568,-19.1388 L -6.04012,-19.0661 L -6.27362,-18.9906
 L -6.5062,-18.9121 L -6.73779,-18.8309 L -6.96837,-18.7468 L -7.19789,-18.6599 L -7.42633,-18.5701 L -7.65366,-18.4776
 L -7.87984,-18.3823 L -8.10481,-18.2842 L -8.32858,-18.1833 L -8.5511,-18.0798 L -8.77232,-17.9735 L -8.99222,-17.8645
 L -9.21077,-17.7528 L -9.42793,-17.6384 L -9.64366,-17.5214 L -9.85796,-17.4017 L -10.0708,-17.2794 L -10.282,-17.1546
 L -10.4918,-17.0271 L -10.7,-16.8971 L -10.9065,-16.7645 L -11.1114,-16.6294 L -11.3146,-16.4918 L -11.5162,-16.3517
 L -11.7159,-16.2091 L -11.914,-16.0641 L -12.1102,-15.9167 L -12.3046,-15.7669 L -12.4972,-15.6147 L -12.6879,-15.4602
 L -12.8766,-15.3033 L -13.0634,-15.1442 L -13.2483,-14.9827 L -13.4312,-14.819 L -13.612,-14.6531 L -13.7908,-14.4849
 L -13.9675,-14.3146 L -14.1421,-14.1421 L -14.3146,-13.9675 L -14.4849,-13.7908 L -14.6531,-13.612 L -14.819,-13.4312
 L -14.9827,-13.2483 L -15.1442,-13.0634 L -15.3033,-12.8766 L -15.4602,-12.6879 L -15.6147,-12.4972 L -15.7669,-12.3046
 L -15.9167,-12.1102 L -16.0641,-11.914 L -16.2091,-11.7159 L -16.3517,-11.5162 L -16.4918,-11.3146 L -16.6294,-11.1114
 L -16.7645,-10.9065 L -16.8971,-10.7 L -17.0271,-10.4918 L -17.1546,-10.282 L -17.2794,-10.0708 L -17.4017,-9.85796
 L -17.5214,-9.64366 L -17.6384,-9.42793 L -17.7528,-9.21077 L -17.8645,-8.99222 L -17.9735,-8.77232 L -18.0798,-8.5511
 L -18.1833,-8.32858 L -18.2842,-8.10481 L -18.3823,-7.87984 L -18.4776,-7.65366 L -18.5701,-7.42633 L -18.6599,-7.19789
 L -18.7468,-6.96837 L -18.8309,-6.73779 L -18.9121,-6.5062 L -18.9906,-6.27362 L -19.0661,-6.04012 L -19.1388,-5.80568
 L -19.2086,-5.57039 L -19.2755,-5.33424 L -19.3395,-5.09731 L -19.4006,-4.85959 L -19.4588,-4.62115 L -19.514,-4.38202
 L -19.5663,-4.14223 L -19.6157,-3.90179 L -19.6621,-3.6608 L -19.7056,-3.41924 L -19.746,-3.17715 L -19.7835,-2.9346
 L -19.818,-2.6916 L -19.8496,-2.44821 L -19.8781,-2.20444 L -19.9037,-1.96034 L -19.9262,-1.71594 L -19.9458,-1.47128
 L -19.9624,-1.22641 L -19.9759,-0.981339 L -19.9864,-0.73613 L -19.994,-0.490814 L -19.9985,-0.245422 L -20,-0
 L -19.9985,0.245422 L -19.994,0.490814 L -19.9864,0.73613 L -19.9759,0.981339 L -19.9624,1.22641 L -19.9458,1.47128
 L -19.9262,1.71594 L -19.9037,1.96034 L -19.8781,2.20444 L -19.8496,2.44821 L -19.818,2.6916 L -19.7835,2.9346
 L -19.746,3.17715 L -19.7056,3.41924 L -19.6621,3.6608 L -19.6157,3.90179 L -19.5663,4.14223 L -19.514,4.38202
 L -19.4588,4.62115 L -19.4006,4.85959 L -19.3395,5.09731 L -19.2755,5.33424 L -19.2086,5.57039 L -19.1388,5.80568
 L -19.0661,6.04012 L -18.9906,6.27362 L -18.9121,6.5062 L -18.8309,6.73779 L -18.7468,6.96837 L -18.6599,7.19789
 L -18.5701,7.42633 L -18.4776,7.65366 L -18.3823,7.87984 L -18.2842,8.10481 L -18.1833,8.32858 L -18.0798,8.5511
 L -17.9735,8.77232 L -17.8645,8.99222 L -17.7528,9.21077 L -17.6384,9.42793 L -17.5214,9.64366 L -17.4017,9.85796
 L -17.2794,10.0708 L -17.1546,10.282 L -17.0271,10.4918 L -16.8971,10.7 L -16.7645,10.9065 L -16.6294,11.1114
 L -16.4918,11.3146 L -16.3517,11.5162 L -16.2091,11.7159 L -16.0641,11.914 L -15.9167,12.1102 L -15.7669,12.3046
 L -15.6147,12.4972 L -15.4602,12.6879 L -15.3033,12.8766 L -15.1442,13.0634 L -14.9827,13.2483 L -14.819,13.4312
 L -14.6531,13.612 L -14.4849,13.7908 L -14.3146,13.9675 L -14.1421,14.1421 L -13.9675,14.3146 L -13.7908,14.4849
 L -13.612,14.6531 L -13.4312,14.819 L -13.2483,14.9827 L -13.0634,15.1442 L -12.8766,15.3033 L -12.6879,15.4602
 L -12.4972,15.6147 L -12.3046,15.7669 L -12.1102,15.9167 L -11.914,16.0641 L -11.7159,16.2091 L -11.5162,16.3517
 L -11.3146,16.4918 L -11.1114,16.6294 L -10.9065,16.7645 L -10.7,16.8971 L -10.4918,17.0271 L -10.282,17.1546
 L -10.0708,17.2794 L -9.85796,17.4017 L -9.64366,17.5214 L -9.42793,17.6384 L -9.21077,17.7528 L -8.99222,17.8645
 L -8.77232,17.9735 L -8.5511,18.0798 L -8.32858,18.1833 L -8.10481,18.2842 L -7.87984,18.3823 L -7.65366,18.4776
 L -7.42633,18.5701 L -7.19789,18.6599 L -6.96837,18.7468 L -6.73779,18.8309 L -6.5062,18.9121 L -6.27362,18.9906
 L -6.04012,19.0661 L -5.80568,19.1388 L -5.57039,19.2086 L -5.33424,19.2755 L -5.09731,19.3395 L -4.85959,19.4006
 L -4.62115,19.4588 L -4.38202,19.514 L -4.14223,19.5663 L -3.90179,19.6157 L -3.6608,19.6621 L -3.41924,19.7056
 L -3.17715,19.746 L -2.9346,19.7835 L -2.6916,19.818 L -2.44821,19.8496 L -2.20444,19.8781 L -1.96034,19.9037
 L -1.71594,19.9262 L -1.47128,19.9458 L -1.22641,19.9624 L -0.981339,19.9759 L -0.73613,19.9864 L -0.490814,19.994
 L -0.245422,19.9985 L 0,20 z
M -7.72528,23.776 L -7.84204,23.7382 L -8.13275,23.6402 L -8.42224,23.5386 L -8.71046,23.4335 L -8.99738,23.3248
 L -9.28293,23.2126 L -9.56708,23.097 L -9.84979,22.9778 L -10.131,22.8552 L -10.4107,22.7292 L -10.6889,22.5997
 L -10.9654,22.4669 L -11.2403,22.3306 L -11.5135,22.191 L -11.7849,22.048 L -12.0546,21.9017 L -12.3224,21.7522
 L -12.5885,21.5993 L -12.8526,21.4432 L -13.1147,21.2839 L -13.3749,21.1213 L -13.6331,20.9556 L -13.8893,20.7867
 L -14.1433,20.6147 L -14.3952,20.4396 L -14.6449,20.2614 L -14.8925,20.0802 L -15.1378,19.8959 L -15.3808,19.7086
 L -15.6215,19.5184 L -15.8598,19.3253 L -16.0958,19.1292 L -16.3293,18.9302 L -16.5604,18.7284 L -16.789,18.5238
 L -17.015,18.3163 L -17.2385,18.1062 L -17.4594,17.8933 L -17.6777,17.6777 L -17.8933,17.4594 L -18.1062,17.2385
 L -18.3163,17.015 L -18.5238,16.789 L -18.7284,16.5604 L -18.9302,16.3293 L -19.1292,16.0958 L -19.3253,15.8598
 L -19.5184,15.6215 L -19.7086,15.3808 L -19.8959,15.1378 L -20.0802,14.8925 L -20.2252,14.6945 L -72.8115,52.9007
 L -72.1569,53.7902 L -71.4913,54.6716 L -70.8151,55.5448 L -70.1281,56.4096 L -69.4306,57.266 L -68.7226,58.1137
 L -68.0043,58.9526 L -67.2757,59.7827 L -66.537,60.6038 L -65.7883,61.4157 L -65.0297,62.2184 L -64.2613,63.0117
 L -63.4832,63.7956 L -62.6956,64.5698 L -61.8985,65.3344 L -61.0921,66.089 L -60.2764,66.8337 L -59.4518,67.5684
 L -58.6181,68.2929 L -57.7756,69.007 L -56.9245,69.7108 L -56.0647,70.4041 L -55.1965,71.0868 L -54.32,71.7588
 L -53.4353,72.42 L -52.5426,73.0703 L -51.642,73.7096 L -50.7336,74.3378 L -49.8175,74.9547 L -48.8939,75.5604
 L -47.963,76.1547 L -47.0249,76.7376 L -46.0796,77.3089 L -45.1275,77.8685 L -44.1685,78.4164 L -43.2029,78.9526
 L -42.2308,79.4768 L -41.2523,79.989 L -40.2676,80.4892 L -39.2768,80.9773 L -38.2802,81.4532 L -37.2777,81.9168
 L -36.2697,82.3681 L -35.2561,82.807 L -34.2373,83.2334 L -33.2133,83.6473 L -32.1844,84.0486 L -31.1505,84.4372
 L -30.112,84.8131 L -29.069,85.1762 L -28.0215,85.5266 L -27.8112,85.594 z
M 28.8598,85.2473 L 29.9037,84.8868 L 30.9432,84.5134 L 31.978,84.1273 L 33.0079,83.7286 L 34.0329,83.3172
 L 35.0528,82.8933 L 36.0674,82.4569 L 37.0765,82.0081 L 38.0801,81.5469 L 39.078,81.0735 L 40.0699,80.5878
 L 41.0558,80.09 L 42.0356,79.5802 L 43.009,79.0584 L 43.9759,78.5246 L 44.9362,77.9791 L 45.8897,77.4218
 L 46.8364,76.8528 L 47.776,76.2722 L 48.7083,75.6802 L 49.6334,75.0768 L 50.5509,74.4621 L 51.4609,73.8361
 L 52.3631,73.1991 L 53.2574,72.551 L 54.1437,71.8919 L 55.0219,71.2221 L 55.8917,70.5415 L 56.7532,69.8504
 L 57.6061,69.1487 L 58.4503,68.4365 L 59.2857,67.7141 L 60.1122,66.9815 L 60.9297,66.2388 L 61.7379,65.4861
 L 62.5369,64.7235 L 63.3264,63.9512 L 64.1064,63.1693 L 64.8768,62.3779 L 65.6374,61.577 L 66.3881,60.7669
 L 67.1288,59.9476 L 67.8594,59.1194 L 68.5798,58.2822 L 69.2898,57.4362 L 69.9894,56.5816 L 70.6785,55.7184
 L 71.3569,54.8469 L 72.0246,53.9671 L 72.6815,53.0792 L 72.8106,52.9 L 20.2252,14.6945 L 20.0802,14.8925
 L 19.8959,15.1378 L 19.7086,15.3808 L 19.5184,15.6215 L 19.3253,15.8598 L 19.1292,16.0958 L 18.9302,16.3293
 L 18.7284,16.5604 L 18.5238,16.789 L 18.3163,17.015 L 18.1062,17.2385 L 17.8933,17.4594 L 17.6777,17.6777
 L 17.4594,17.8933 L 17.2385,18.1062 L 17.015,18.3163 L 16.789,18.5238 L 16.5604,18.7284 L 16.3293,18.9302
 L 16.0958,19.1292 L 15.8598,19.3253 L 15.6215,19.5184 L 15.3808,19.7086 L 15.1378,19.8959 L 14.8925,20.0802
 L 14.6449,20.2614 L 14.3952,20.4396 L 14.1433,20.6147 L 13.8893,20.7867 L 13.6331,20.9556 L 13.3749,21.1213
 L 13.1147,21.2839 L 12.8526,21.4432 L 12.5885,21.5993 L 12.3224,21.7522 L 12.0546,21.9017 L 11.7849,22.048
 L 11.5135,22.191 L 11.2403,22.3306 L 10.9654,22.4669 L 10.6889,22.5997 L 10.4107,22.7292 L 10.131,22.8552
 L 9.84979,22.9778 L 9.56708,23.097 L 9.28293,23.2126 L 8.99738,23.3248 L 8.71046,23.4335 L 8.42224,23.5386
 L 8.13275,23.6402 L 7.84204,23.7382 L 7.72528,23.776 L 27.8115,85.5951 z
" stroke="black" fill="black" stroke-width="0.5"/>
</svg>
