<?xml version="1.0" standalone="no"?>
<!DOCTYPE svg PUBLIC "-//W3C//DTD SVG 1.1//EN" "http://www.w3.org/Graphics/SVG/1.1/DTD/svg11.dtd">
<svg width="192mm" height="181mm" viewBox="-96 -100 192 181" xmlns="http://www.w3.org/2000/svg" version="1.1">
<title>OpenSCAD Model</title>
<path d="
M -41.6272,60.7391 L -46.9272,64.5898 L -44.9028,58.3592 L -50.2029,54.5085 L -55.5029,58.3592 L -53.4785,64.5898
 L -58.7785,60.7391 L -64.0786,64.5898 L -62.0541,70.8204 L -55.5029,70.8204 L -60.8029,74.6711 L -58.7785,80.9017
 L -52.2273,80.9017 L -50.2029,74.6711 L -48.1784,80.9017 L -41.6272,80.9017 L -39.6027,74.6711 L -44.9028,70.8204
 L -38.3516,70.8204 L -36.3271,64.5898 z
M -36.3271,-8.35921 L -41.6272,-4.50848 L -39.6027,-10.7391 L -44.9028,-14.5898 L -50.2029,-10.7391 L -48.1784,-4.5085
 L -53.4785,-8.35921 L -58.7785,-4.5085 L -56.7541,1.72208 L -50.2029,1.72208 L -55.5029,5.5728 L -53.4785,11.8034
 L -46.9272,11.8034 L -44.9028,5.5728 L -42.8783,11.8034 L -36.3271,11.8034 L -34.3027,5.5728 L -39.6027,1.72208
 L -33.0515,1.72208 L -31.0271,-4.5085 z
M -10.6001,5.5728 L -17.1513,5.5728 L -11.8513,1.72209 L -13.8757,-4.50848 L -20.427,-4.50848 L -22.4514,1.72209
 L -24.4758,-4.50848 L -31.0271,-4.50848 L -33.0515,1.72208 L -27.7514,5.5728 L -34.3027,5.5728 L -36.3271,11.8034
 L -31.0271,15.6541 L -25.727,11.8034 L -27.7514,18.034 L -22.4514,21.8847 L -17.1513,18.034 L -19.1758,11.8034
 L -13.8757,15.6541 L -8.57567,11.8034 z
M -13.8757,60.7391 L -19.1758,64.5898 L -17.1513,58.3592 L -22.4514,54.5085 L -27.7514,58.3592 L -25.727,64.5898
 L -31.0271,60.7391 L -36.3271,64.5898 L -34.3027,70.8204 L -27.7514,70.8204 L -33.0515,74.6711 L -31.0271,80.9017
 L -24.4758,80.9017 L -22.4514,74.6711 L -20.427,80.9017 L -13.8757,80.9017 L -11.8513,74.6711 L -17.1513,70.8204
 L -10.6001,70.8204 L -8.57567,64.5898 z
M -5.30005,34.3459 L -10.6001,38.1966 L -8.57567,31.966 L -13.8757,28.1153 L -19.1758,31.966 L -17.1513,38.1966
 L -22.4514,34.3459 L -27.7514,38.1966 L -25.727,44.4272 L -19.1758,44.4272 L -24.4758,48.2779 L -22.4514,54.5085
 L -15.9002,54.5085 L -13.8757,48.2779 L -11.8513,54.5085 L -5.30005,54.5085 L -3.27562,48.2779 L -8.57567,44.4272
 L -2.02444,44.4272 L 0,38.1966 z
M 8.57565,-93.7694 L 3.2756,-89.9187 L 5.30005,-96.1493 L 0,-100 L -5.30005,-96.1493 L -3.2756,-89.9187
 L -8.57565,-93.7694 L -13.8757,-89.9187 L -11.8513,-83.6881 L -5.30005,-83.6881 L -10.6001,-79.8374 L -8.57565,-73.6068
 L -2.02443,-73.6068 L 0,-79.8374 L 2.02443,-73.6068 L 8.57565,-73.6068 L 10.6001,-79.8374 L 5.30005,-83.6881
 L 11.8513,-83.6881 L 13.8757,-89.9187 z
M 22.4514,34.3459 L 17.1513,38.1966 L 19.1758,31.966 L 13.8757,28.1153 L 8.57567,31.966 L 10.6001,38.1966
 L 5.30005,34.3459 L 0,38.1966 L 2.02444,44.4272 L 8.57567,44.4272 L 3.27562,48.2779 L 5.30005,54.5085
 L 11.8513,54.5085 L 13.8757,48.2779 L 15.9002,54.5085 L 22.4514,54.5085 L 24.4758,48.2779 L 19.1758,44.4272
 L 25.727,44.4272 L 27.7514,38.1966 z
M 10.6001,-67.3762 L 8.57565,-73.6068 L 2.02443,-73.6068 L 0,-67.3762 L -2.02443,-73.6068 L -8.57565,-73.6068
 L -10.6001,-67.3762 L -5.30005,-63.5255 L -11.8513,-63.5255 L -17.1513,-67.3762 L -10.6001,-67.3762 L -8.57567,-73.6068
 L -13.8757,-77.4575 L -19.1758,-73.6068 L -17.1513,-79.8374 L -22.4514,-83.6881 L -27.7514,-79.8374 L -25.727,-73.6068
 L -31.0271,-77.4575 L -36.3271,-73.6068 L -34.3027,-67.3762 L -27.7514,-67.3762 L -33.0515,-63.5255 L -31.0271,-57.2949
 L -24.4758,-57.2949 L -22.4514,-63.5255 L -20.427,-57.2949 L -13.8757,-57.2949 L -19.1758,-53.4442 L -17.1513,-47.2136
 L -22.4514,-51.0643 L -27.7514,-47.2136 L -25.727,-40.983 L -19.1758,-40.983 L -24.4758,-37.1323 L -22.4514,-30.9017
 L -15.9002,-30.9017 L -13.8757,-37.1323 L -11.8513,-30.9017 L -5.30005,-30.9017 L -3.2756,-37.1323 L -8.57567,-40.983
 L -2.02443,-40.983 L 0,-47.2136 L -5.30005,-51.0643 L -10.6001,-47.2136 L -8.57565,-53.4442 L -3.2756,-57.2949
 L -5.30005,-51.0643 L 0,-47.2136 L 5.30005,-51.0643 L 3.2756,-57.2949 L 8.57565,-53.4442 L 10.6001,-47.2136
 L 5.30005,-51.0643 L 0,-47.2136 L 2.02443,-40.983 L 8.57567,-40.983 L 3.2756,-37.1323 L 5.30005,-30.9017
 L 11.8513,-30.9017 L 13.8757,-37.1323 L 15.9002,-30.9017 L 22.4514,-30.9017 L 24.4758,-37.1323 L 19.1758,-40.983
 L 25.727,-40.983 L 27.7514,-47.2136 L 22.4514,-51.0643 L 17.1513,-47.2136 L 19.1758,-53.4442 L 13.8757,-57.2949
 L 20.427,-57.2949 L 22.4514,-63.5255 L 24.4758,-57.2949 L 31.0271,-57.2949 L 33.0515,-63.5255 L 27.7514,-67.3762
 L 34.3027,-67.3762 L 36.3271,-73.6068 L 31.0271,-77.4575 L 25.727,-73.6068 L 27.7514,-79.8374 L 22.4514,-83.6881
 L 17.1513,-79.8374 L 19.1758,-73.6068 L 13.8757,-77.4575 L 8.57567,-73.6068 L 10.6001,-67.3762 L 17.1513,-67.3762
 L 11.8513,-63.5255 L 5.30005,-63.5255 z
M 34.3027,5.5728 L 27.7514,5.5728 L 33.0515,1.72208 L 31.0271,-4.50848 L 24.4758,-4.50848 L 22.4514,1.72209
 L 20.427,-4.50848 L 13.8757,-4.50848 L 11.8513,1.72209 L 17.1513,5.5728 L 10.6001,5.5728 L 8.57567,11.8034
 L 13.8757,15.6541 L 19.1758,11.8034 L 17.1513,18.034 L 22.4514,21.8847 L 27.7514,18.034 L 25.727,11.8034
 L 31.0271,15.6541 L 36.3271,11.8034 z
M 31.0271,60.7391 L 25.727,64.5898 L 27.7514,58.3592 L 22.4514,54.5085 L 17.1513,58.3592 L 19.1758,64.5898
 L 13.8757,60.7391 L 8.57567,64.5898 L 10.6001,70.8204 L 17.1513,70.8204 L 11.8513,74.6711 L 13.8757,80.9017
 L 20.427,80.9017 L 22.4514,74.6711 L 24.4758,80.9017 L 31.0271,80.9017 L 33.0515,74.6711 L 27.7514,70.8204
 L 34.3027,70.8204 L 36.3271,64.5898 z
M 53.4785,-8.35921 L 48.1784,-4.5085 L 50.2029,-10.7391 L 44.9028,-14.5898 L 39.6027,-10.7391 L 41.6272,-4.50848
 L 36.3271,-8.35921 L 31.0271,-4.5085 L 33.0515,1.72208 L 39.6027,1.72208 L 34.3027,5.5728 L 36.3271,11.8034
 L 42.8783,11.8034 L 44.9028,5.5728 L 46.9272,11.8034 L 53.4785,11.8034 L 55.5029,5.5728 L 50.2029,1.72208
 L 56.7541,1.72208 L 58.7785,-4.5085 z
M 58.7785,60.7391 L 53.4785,64.5898 L 55.5029,58.3592 L 50.2029,54.5085 L 44.9028,58.3592 L 46.9272,64.5898
 L 41.6272,60.7391 L 36.3271,64.5898 L 38.3516,70.8204 L 44.9028,70.8204 L 39.6027,74.6711 L 41.6272,80.9017
 L 48.1784,80.9017 L 50.2029,74.6711 L 52.2273,80.9017 L 58.7785,80.9017 L 60.8029,74.6711 L 55.5029,70.8204
 L 62.0541,70.8204 L 64.0786,64.5898 z
M 41.6272,28.1153 L 48.1784,28.1153 L 50.2028,21.8847 L 44.9028,18.034 L 39.6027,21.8847 L 41.6272,15.6541
 L 36.3271,11.8034 L 31.0271,15.6541 L 33.0515,21.8847 L 27.7514,18.034 L 22.4514,21.8847 L 24.4758,28.1153
 L 31.0271,28.1153 L 25.727,31.966 L 27.7514,38.1966 L 25.727,44.4272 L 31.0271,48.2779 L 24.4758,48.2779
 L 22.4514,54.5085 L 27.7514,58.3592 L 33.0515,54.5085 L 31.0271,60.7391 L 36.3271,64.5898 L 41.6272,60.7391
 L 39.6027,54.5085 L 44.9028,58.3592 L 50.2028,54.5085 L 48.1784,48.2779 L 41.6272,48.2779 L 46.9272,44.4272
 L 53.4785,44.4272 L 48.1784,48.2779 L 50.2029,54.5085 L 56.7541,54.5085 L 58.7785,48.2779 L 60.8029,54.5085
 L 67.3542,54.5085 L 69.3786,48.2779 L 64.0786,44.4272 L 70.6298,44.4272 L 72.6542,38.1966 L 67.3542,34.3459
 L 62.0541,38.1966 L 64.0786,31.966 L 58.7785,28.1153 L 53.4785,31.966 L 55.5029,38.1966 L 50.2029,34.3459
 L 44.9028,38.1966 L 46.9272,31.966 z
M 38.3516,38.1966 L 36.3271,44.4272 L 34.3027,38.1966 L 36.3271,31.966 z
M 64.0786,-40.983 L 70.6298,-40.983 L 72.6542,-47.2136 L 67.3542,-51.0643 L 62.0541,-47.2136 L 64.0786,-53.4442
 L 58.7785,-57.2949 L 53.4785,-53.4442 L 55.5029,-47.2136 L 50.2029,-51.0643 L 44.9028,-47.2136 L 46.9272,-40.983
 L 53.4785,-40.983 L 48.1784,-37.1323 L 50.2029,-30.9017 L 44.9028,-34.7524 L 39.6027,-30.9017 L 41.6272,-37.1323
 L 36.3271,-40.983 L 31.0271,-37.1323 L 33.0515,-30.9017 L 27.7514,-34.7524 L 22.4514,-30.9017 L 24.4758,-24.6711
 L 31.0271,-24.6711 L 25.727,-20.8204 L 27.7514,-14.5898 L 34.3027,-14.5898 L 36.3271,-20.8204 L 38.3516,-14.5898
 L 44.9028,-14.5898 L 50.2029,-10.7391 L 55.5029,-14.5898 L 53.4785,-8.35921 L 58.7785,-4.5085 L 60.803,1.72209
 L 67.3542,1.72208 L 62.0541,5.5728 L 64.0786,11.8034 L 70.6298,11.8034 L 72.6542,5.5728 L 74.6787,11.8034
 L 81.2299,11.8034 L 83.2543,5.5728 L 77.9543,1.72208 L 84.5055,1.72208 L 86.53,-4.50848 L 81.2299,-8.35921
 L 75.9299,-4.50848 L 77.9543,-10.7391 L 72.6542,-14.5898 L 70.6298,-20.8204 L 64.0786,-20.8204 L 69.3786,-24.6711
 L 75.9299,-24.6711 L 70.6298,-20.8204 L 72.6543,-14.5898 L 79.2055,-14.5898 L 81.2299,-20.8204 L 83.2543,-14.5898
 L 89.8056,-14.5898 L 91.83,-20.8204 L 86.53,-24.6711 L 93.0812,-24.6711 L 95.1056,-30.9017 L 89.8056,-34.7524
 L 84.5055,-30.9017 L 86.53,-37.1323 L 81.2299,-40.983 L 75.9299,-37.1323 L 77.9543,-30.9017 L 72.6543,-34.7524
 L 67.3542,-30.9017 L 69.3786,-37.1323 z
M 46.9272,-20.8204 L 41.6272,-24.6711 L 48.1784,-24.6711 L 53.4785,-20.8204 z
M 60.803,-30.9017 L 58.7785,-24.6711 L 56.7541,-30.9017 L 58.7785,-37.1323 z
M 64.0786,-8.35921 L 62.0541,-14.5898 L 67.3542,-10.7391 L 69.3786,-4.5085 z
M -53.4785,-40.983 L -46.9272,-40.983 L -44.9028,-47.2136 L -50.2029,-51.0643 L -55.5029,-47.2136 L -53.4785,-53.4442
 L -58.7785,-57.2949 L -64.0786,-53.4442 L -62.0541,-47.2136 L -67.3542,-51.0643 L -72.6542,-47.2136 L -70.6298,-40.983
 L -64.0786,-40.983 L -69.3786,-37.1323 L -67.3542,-30.9017 L -72.6543,-34.7524 L -77.9543,-30.9017 L -75.9299,-37.1323
 L -81.2299,-40.983 L -86.53,-37.1323 L -84.5055,-30.9017 L -89.8056,-34.7524 L -95.1056,-30.9017 L -93.0812,-24.6711
 L -86.53,-24.6711 L -91.83,-20.8204 L -89.8056,-14.5898 L -83.2543,-14.5898 L -81.2299,-20.8204 L -79.2055,-14.5898
 L -72.6543,-14.5898 L -70.6298,-20.8204 L -75.9299,-24.6711 L -69.3786,-24.6711 L -64.0786,-20.8204 L -70.6298,-20.8204
 L -72.6542,-14.5898 L -77.9543,-10.7391 L -75.9299,-4.50848 L -81.2299,-8.35921 L -86.53,-4.50848 L -84.5055,1.72208
 L -77.9543,1.72208 L -83.2543,5.5728 L -81.2299,11.8034 L -74.6787,11.8034 L -72.6542,5.5728 L -70.6298,11.8034
 L -64.0786,11.8034 L -62.0541,5.5728 L -67.3542,1.72208 L -60.803,1.72209 L -58.7785,-4.5085 L -53.4785,-8.35921
 L -55.5029,-14.5898 L -50.2029,-10.7391 L -44.9028,-14.5898 L -38.3516,-14.5898 L -36.3271,-20.8204 L -34.3027,-14.5898
 L -27.7514,-14.5898 L -25.727,-20.8204 L -31.0271,-24.6711 L -24.4758,-24.6711 L -22.4514,-30.9017 L -27.7514,-34.7524
 L -33.0515,-30.9017 L -31.0271,-37.1323 L -36.3271,-40.983 L -41.6272,-37.1323 L -39.6027,-30.9017 L -44.9028,-34.7524
 L -50.2029,-30.9017 L -48.1784,-37.1323 z
M -64.0786,-8.35921 L -69.3786,-4.5085 L -67.3542,-10.7391 L -62.0541,-14.5898 z
M -46.9272,-20.8204 L -53.4785,-20.8204 L -48.1784,-24.6711 L -41.6272,-24.6711 z
M -56.7541,-30.9017 L -58.7785,-24.6711 L -60.803,-30.9017 L -58.7785,-37.1323 z
M -55.5029,38.1966 L -53.4785,31.966 L -58.7785,28.1153 L -64.0786,31.966 L -62.0541,38.1966 L -67.3542,34.3459
 L -72.6542,38.1966 L -70.6298,44.4272 L -64.0786,44.4272 L -69.3786,48.2779 L -67.3542,54.5085 L -60.8029,54.5085
 L -58.7785,48.2779 L -56.7541,54.5085 L -50.2029,54.5085 L -48.1784,48.2779 L -53.4785,44.4272 L -46.9272,44.4272
 L -41.6272,48.2779 L -48.1784,48.2779 L -50.2028,54.5085 L -44.9028,58.3592 L -39.6027,54.5085 L -41.6272,60.7391
 L -36.3271,64.5898 L -31.0271,60.7391 L -33.0515,54.5085 L -27.7514,58.3592 L -22.4514,54.5085 L -24.4758,48.2779
 L -31.0271,48.2779 L -25.727,44.4272 L -27.7514,38.1966 L -25.727,31.966 L -31.0271,28.1153 L -24.4758,28.1153
 L -22.4514,21.8847 L -27.7514,18.034 L -33.0515,21.8847 L -31.0271,15.6541 L -36.3271,11.8034 L -41.6272,15.6541
 L -39.6027,21.8847 L -44.9028,18.034 L -50.2028,21.8847 L -48.1784,28.1153 L -41.6272,28.1153 L -46.9272,31.966
 L -44.9028,38.1966 L -50.2029,34.3459 z
M -34.3027,38.1966 L -36.3271,44.4272 L -38.3516,38.1966 L -36.3271,31.966 z
M -8.57567,-20.8204 L -3.2756,-24.6711 L -5.30005,-30.9017 L -11.8513,-30.9017 L -13.8757,-24.6711 L -15.9002,-30.9017
 L -22.4514,-30.9017 L -24.4758,-24.6711 L -19.1758,-20.8204 L -25.727,-20.8204 L -27.7514,-14.5898 L -22.4514,-10.7391
 L -17.1513,-14.5898 L -19.1758,-8.35921 L -13.8757,-4.50848 L -11.8513,1.72208 L -5.30005,1.72208 L -10.6001,5.5728
 L -8.57565,11.8034 L -10.6001,18.034 L -5.30005,21.8847 L -11.8513,21.8847 L -13.8757,28.1153 L -8.57565,31.966
 L -3.2756,28.1153 L -5.30005,34.3459 L 0,38.1966 L 5.30005,34.3459 L 3.2756,28.1153 L 8.57565,31.966
 L 13.8757,28.1153 L 11.8513,21.8847 L 5.30005,21.8847 L 10.6001,18.034 L 8.57565,11.8034 L 10.6001,5.5728
 L 5.30005,1.72208 L 11.8513,1.72208 L 13.8757,-4.50848 L 19.1758,-8.35921 L 17.1513,-14.5898 L 22.4514,-10.7391
 L 27.7514,-14.5898 L 25.727,-20.8204 L 19.1758,-20.8204 L 24.4758,-24.6711 L 22.4514,-30.9017 L 15.9002,-30.9017
 L 13.8757,-24.6711 L 11.8513,-30.9017 L 5.30005,-30.9017 L 3.2756,-24.6711 L 8.57567,-20.8204 L 2.02443,-20.8204
 L 0,-14.5898 L -2.02443,-20.8204 z
M -8.57565,-8.35921 L -10.6001,-14.5898 L -5.30005,-10.7391 L -3.2756,-4.50848 z
M 2.02443,11.8034 L 0,18.034 L -2.02443,11.8034 L 0,5.5728 z
M 8.57565,-8.35921 L 3.2756,-4.50848 L 5.30005,-10.7391 L 10.6001,-14.5898 z
" stroke="blue" fill="blue" stroke-width="none"/>
</svg>
