<?xml version="1.0" standalone="no"?>
<!DOCTYPE svg PUBLIC "-//W3C//DTD SVG 1.1//EN" "http://www.w3.org/Graphics/SVG/1.1/DTD/svg11.dtd">
<svg width="192mm" height="181mm" viewBox="-96 -100 192 181" xmlns="http://www.w3.org/2000/svg" version="1.1">
<title>OpenSCAD Model</title>
<path d="
M -15.9002,-38.6031 L -17.9246,-37.1323 L -17.1513,-39.5122 L -19.1758,-40.983 L -21.2002,-39.5122 L -20.4269,-37.1323
 L -22.4514,-38.6031 L -24.4758,-37.1323 L -23.7026,-34.7524 L -21.2002,-34.7524 L -23.2247,-33.2816 L -22.4514,-30.9017
 L -19.9491,-30.9017 L -19.1758,-33.2816 L -18.4025,-30.9017 L -15.9002,-30.9017 L -15.1269,-33.2816 L -17.1513,-34.7524
 L -14.649,-34.7524 L -13.8757,-37.1323 z
M 22.4514,-38.6031 L 20.4269,-37.1323 L 21.2002,-39.5122 L 19.1758,-40.983 L 17.1513,-39.5122 L 17.9246,-37.1323
 L 15.9002,-38.6031 L 13.8757,-37.1323 L 14.649,-34.7524 L 17.1513,-34.7524 L 15.1269,-33.2816 L 15.9002,-30.9017
 L 18.4025,-30.9017 L 19.1758,-33.2816 L 19.9491,-30.9017 L 22.4514,-30.9017 L 23.2247,-33.2816 L 21.2002,-34.7524
 L 23.7026,-34.7524 L 24.4758,-37.1323 z
M 85.2788,-28.5218 L 84.5055,-30.9017 L 85.2788,-33.2816 L 83.2543,-34.7524 L 85.7567,-34.7524 L 86.53,-37.1323
 L 84.5055,-38.6031 L 82.4811,-37.1323 L 83.2543,-39.5121 L 81.2299,-40.983 L 79.2055,-39.5121 L 79.9787,-37.1323
 L 77.9543,-38.6031 L 75.9299,-37.1323 L 76.7031,-34.7524 L 79.2055,-34.7524 L 77.181,-33.2816 L 77.9543,-30.9017
 L 75.9299,-32.3725 L 73.9054,-30.9017 L 74.6787,-33.2816 L 72.6543,-34.7524 L 70.6298,-33.2816 L 71.4031,-30.9017
 L 69.3786,-32.3725 L 67.3542,-30.9017 L 68.1275,-33.2816 L 66.103,-34.7524 L 68.6054,-34.7524 L 69.3786,-37.1323
 L 67.3542,-38.6031 L 65.3297,-37.1323 L 66.103,-39.5121 L 64.0786,-40.983 L 66.5809,-40.983 L 67.3542,-43.3629
 L 68.1275,-40.983 L 70.6298,-40.983 L 71.4031,-43.3629 L 69.3786,-44.8337 L 71.881,-44.8337 L 72.6542,-47.2136
 L 70.6298,-48.6844 L 68.6054,-47.2136 L 69.3786,-49.5935 L 67.3542,-51.0643 L 65.3297,-49.5935 L 66.103,-47.2136
 L 64.0786,-48.6844 L 62.0541,-47.2136 L 62.8274,-49.5935 L 60.803,-51.0643 L 63.3053,-51.0643 L 64.0786,-53.4442
 L 62.0541,-54.915 L 60.0297,-53.4442 L 60.803,-55.8241 L 58.7785,-57.2949 L 56.7541,-55.8241 L 57.5273,-53.4442
 L 55.5029,-54.915 L 53.4785,-53.4442 L 54.2517,-51.0643 L 56.7541,-51.0643 L 54.7296,-49.5935 L 55.5029,-47.2136
 L 58.0052,-47.2136 L 58.7785,-49.5935 L 59.5518,-47.2136 L 58.7785,-44.8337 L 58.0052,-47.2136 L 55.5029,-47.2136
 L 53.4785,-48.6844 L 51.454,-47.2136 L 52.2273,-49.5935 L 50.2029,-51.0643 L 48.1784,-49.5935 L 48.9517,-47.2136
 L 46.9272,-48.6844 L 44.9028,-47.2136 L 45.6761,-44.8337 L 48.1784,-44.8337 L 46.154,-43.3629 L 46.9272,-40.983
 L 49.4296,-40.983 L 50.2029,-43.3629 L 50.9761,-40.983 L 53.4785,-40.983 L 55.5029,-39.5122 L 57.5273,-40.983
 L 56.7541,-38.6031 L 54.7296,-37.1323 L 55.5029,-39.5121 L 53.4785,-40.983 L 51.454,-39.5121 L 52.2273,-37.1323
 L 50.2029,-38.6031 L 48.1784,-37.1323 L 48.9517,-34.7524 L 51.454,-34.7524 L 49.4296,-33.2816 L 50.2029,-30.9017
 L 48.1784,-32.3725 L 46.154,-30.9017 L 46.9272,-33.2816 L 44.9028,-34.7524 L 42.8783,-33.2816 L 43.6516,-30.9017
 L 41.6272,-32.3725 L 39.6027,-30.9017 L 40.376,-33.2816 L 38.3516,-34.7524 L 40.8539,-34.7524 L 41.6272,-37.1323
 L 39.6027,-38.6031 L 37.5783,-37.1323 L 38.3516,-39.5121 L 36.3271,-40.983 L 34.3027,-39.5122 L 35.0759,-37.1323
 L 33.0515,-38.6031 L 31.0271,-37.1323 L 31.8003,-34.7524 L 34.3027,-34.7524 L 32.2782,-33.2816 L 33.0515,-30.9017
 L 32.2782,-28.5218 L 34.3027,-27.051 L 31.8003,-27.051 L 29.7759,-28.5218 L 32.2782,-28.5218 L 33.0515,-30.9017
 L 31.0271,-32.3725 L 29.0026,-30.9017 L 29.7759,-33.2816 L 27.7514,-34.7524 L 25.727,-33.2816 L 26.5003,-30.9017
 L 24.4758,-32.3725 L 22.4514,-30.9017 L 23.2247,-28.5218 L 25.727,-28.5218 L 23.7026,-27.051 L 24.4758,-24.6711
 L 26.9782,-24.6711 L 27.7514,-27.051 L 28.5247,-24.6711 L 31.0271,-24.6711 L 29.0026,-23.2003 L 29.7759,-20.8204
 L 27.7514,-22.2912 L 25.727,-20.8204 L 26.5003,-18.4405 L 29.0026,-18.4405 L 26.9782,-16.9697 L 27.7514,-14.5898
 L 30.2538,-14.5898 L 31.0271,-16.9697 L 31.8003,-14.5898 L 34.3027,-14.5898 L 35.076,-16.9697 L 33.0515,-18.4405
 L 35.5538,-18.4405 L 36.3271,-20.8204 L 34.3027,-22.2912 L 32.2782,-20.8204 L 33.0515,-23.2003 L 35.076,-24.6711
 L 34.3027,-22.2912 L 36.3271,-20.8204 L 37.1004,-18.4405 L 39.6027,-18.4405 L 37.5783,-16.9697 L 38.3516,-14.5898
 L 40.8539,-14.5898 L 41.6272,-16.9697 L 42.4005,-14.5898 L 44.9028,-14.5898 L 45.6761,-16.9697 L 43.6516,-18.4405
 L 46.154,-18.4405 L 48.1784,-16.9697 L 45.6761,-16.9697 L 44.9028,-14.5898 L 42.8784,-13.119 L 43.6516,-10.7391
 L 41.6272,-12.2099 L 39.6027,-10.7391 L 40.376,-8.35921 L 42.8784,-8.35921 L 40.8539,-6.88837 L 41.6272,-4.50848
 L 44.1295,-4.5085 L 44.9028,-6.88837 L 45.6761,-4.5085 L 48.1784,-4.5085 L 48.9517,-6.88837 L 46.9272,-8.35921
 L 49.4296,-8.35921 L 50.2029,-10.7391 L 48.1784,-12.2099 L 46.154,-10.7391 L 46.9272,-13.119 L 48.9517,-14.5898
 L 48.1784,-12.2099 L 50.2029,-10.7391 L 52.2273,-12.2099 L 51.454,-14.5898 L 53.4785,-13.119 L 55.5029,-14.5898
 L 54.7296,-12.2099 L 56.7541,-10.7391 L 54.2517,-10.7391 L 53.4785,-8.35921 L 55.5029,-6.88837 L 57.5273,-8.35921
 L 56.7541,-5.97934 L 54.7296,-4.5085 L 55.5029,-6.88837 L 53.4785,-8.35921 L 51.454,-6.88837 L 52.2273,-4.50848
 L 50.2029,-5.97934 L 48.1784,-4.5085 L 45.6761,-4.50848 L 44.9028,-2.12862 L 44.1295,-4.50848 L 41.6272,-4.50848
 L 39.6027,-5.97934 L 37.5783,-4.50848 L 38.3516,-6.88837 L 36.3271,-8.35921 L 34.3027,-6.88837 L 35.076,-4.5085
 L 33.0515,-5.97934 L 31.0271,-4.5085 L 31.8003,-2.12862 L 34.3027,-2.12862 L 32.2782,-0.657776 L 33.0515,1.72208
 L 35.5538,1.72209 L 36.3271,-0.657776 L 37.1004,1.72208 L 39.6027,1.72208 L 37.5783,3.19293 L 38.3516,5.5728
 L 36.3271,4.10196 L 34.3027,5.5728 L 31.8003,5.5728 L 31.0271,7.95267 L 30.2538,5.5728 L 27.7514,5.5728
 L 26.9782,7.95267 L 29.0026,9.42351 L 26.5003,9.42351 L 24.4758,7.95267 L 26.9782,7.95267 L 27.7514,5.5728
 L 29.7759,4.10196 L 29.0026,1.72208 L 31.0271,3.19293 L 33.0515,1.72208 L 32.2782,-0.657761 L 29.7759,-0.657761
 L 31.8003,-2.12862 L 31.0271,-4.50848 L 28.5247,-4.50848 L 27.7514,-2.12862 L 26.9782,-4.50848 L 24.4758,-4.50848
 L 23.7026,-2.12862 L 25.727,-0.657761 L 23.2247,-0.657776 L 22.4514,1.72209 L 20.427,3.19293 L 21.2002,5.5728
 L 19.1758,4.10196 L 18.4025,1.72209 L 20.4269,3.19293 L 22.4514,1.72209 L 21.6781,-0.657761 L 19.1758,-0.657761
 L 21.2002,-2.12862 L 20.4269,-4.50848 L 17.9246,-4.50848 L 17.1513,-2.12862 L 16.3781,-4.50848 L 13.8757,-4.50848
 L 15.9002,-5.97932 L 15.1269,-8.35921 L 17.1513,-6.88837 L 19.1758,-8.35921 L 18.4025,-10.7391 L 15.9002,-10.7391
 L 17.9246,-12.2099 L 17.1513,-14.5898 L 19.1758,-13.119 L 21.2002,-14.5898 L 20.427,-12.2099 L 22.4514,-10.7391
 L 24.4758,-12.2099 L 23.7026,-14.5898 L 25.727,-13.1189 L 27.7514,-14.5898 L 26.9782,-16.9697 L 24.4758,-16.9697
 L 26.5003,-18.4405 L 25.727,-20.8204 L 23.2247,-20.8204 L 22.4514,-18.4405 L 21.6781,-20.8204 L 19.1758,-20.8204
 L 18.4025,-18.4405 L 20.4269,-16.9697 L 17.9246,-16.9697 L 15.9002,-18.4405 L 18.4025,-18.4405 L 19.1758,-20.8204
 L 17.1513,-22.2912 L 15.1269,-20.8204 L 15.9002,-23.2003 L 17.9246,-24.6711 L 17.1513,-22.2912 L 19.1758,-20.8204
 L 21.2002,-22.2912 L 20.4269,-24.6711 L 22.4514,-23.2003 L 24.4758,-24.6711 L 23.7026,-27.051 L 21.2002,-27.051
 L 23.2247,-28.5218 L 22.4514,-30.9017 L 19.9491,-30.9017 L 19.1758,-28.5218 L 18.4025,-30.9017 L 15.9002,-30.9017
 L 15.1269,-28.5218 L 17.1513,-27.051 L 14.649,-27.051 L 13.8757,-24.6711 L 13.1024,-27.051 L 10.6001,-27.051
 L 12.6245,-28.5218 L 11.8513,-30.9017 L 9.34892,-30.9017 L 8.57565,-28.5218 L 7.8024,-30.9017 L 5.30005,-30.9017
 L 4.52678,-28.5218 L 6.55122,-27.051 L 4.04887,-27.051 L 3.2756,-24.6711 L 5.30005,-23.2003 L 7.32449,-24.6711
 L 6.55122,-22.2912 L 8.57567,-20.8204 L 10.6001,-22.2912 L 9.82683,-24.6711 L 11.8513,-23.2003 L 12.6245,-20.8204
 L 10.6001,-22.2912 L 8.57567,-20.8204 L 9.34894,-18.4405 L 11.8513,-18.4405 L 9.82684,-16.9697 L 7.32449,-16.9697
 L 9.34892,-18.4405 L 8.57567,-20.8204 L 6.07332,-20.8204 L 5.30005,-18.4405 L 4.52678,-20.8204 L 2.02443,-20.8204
 L 1.25117,-18.4405 L 3.2756,-16.9697 L 0.773254,-16.9697 L 0,-14.5898 L 2.02443,-13.119 L 4.04887,-14.5898
 L 3.2756,-12.2099 L 1.25116,-10.7391 L 2.02443,-13.1189 L 0,-14.5898 L -2.02443,-13.1189 L -1.25116,-10.7391
 L -3.2756,-12.2099 L -4.04887,-14.5898 L -2.02443,-13.119 L 0,-14.5898 L -0.773254,-16.9697 L -3.2756,-16.9697
 L -1.25117,-18.4405 L -2.02443,-20.8204 L -4.52678,-20.8204 L -5.30005,-18.4405 L -6.07332,-20.8204 L -8.57567,-20.8204
 L -9.34892,-18.4405 L -7.32449,-16.9697 L -9.82683,-16.9697 L -10.6001,-14.5898 L -8.57567,-13.119 L -6.55122,-14.5898
 L -7.32449,-12.2099 L -5.30005,-10.7391 L -4.52678,-8.35921 L -2.02443,-8.35921 L -4.04887,-6.88837 L -3.2756,-4.50848
 L -5.30005,-5.97932 L -7.32449,-4.50848 L -6.55122,-6.88837 L -8.57565,-8.35921 L -9.34892,-10.7391 L -11.8513,-10.7391
 L -9.82683,-12.2099 L -10.6001,-14.5898 L -9.82684,-16.9697 L -11.8513,-18.4405 L -9.34894,-18.4405 L -8.57567,-20.8204
 L -10.6001,-22.2912 L -12.6245,-20.8204 L -11.8513,-23.2003 L -9.82683,-24.6711 L -10.6001,-22.2912 L -8.57567,-20.8204
 L -6.55122,-22.2912 L -7.32449,-24.6711 L -5.30005,-23.2003 L -3.2756,-24.6711 L -4.04887,-27.051 L -6.55122,-27.051
 L -4.52678,-28.5218 L -5.30005,-30.9017 L -7.8024,-30.9017 L -8.57565,-28.5218 L -9.34892,-30.9017 L -11.8513,-30.9017
 L -12.6245,-28.5218 L -10.6001,-27.051 L -13.1024,-27.051 L -13.8757,-24.6711 L -14.649,-27.051 L -17.1513,-27.051
 L -15.1269,-28.5218 L -15.9002,-30.9017 L -18.4025,-30.9017 L -19.1758,-28.5218 L -19.9491,-30.9017 L -22.4514,-30.9017
 L -23.2247,-28.5218 L -21.2002,-27.051 L -23.7026,-27.051 L -24.4758,-24.6711 L -22.4514,-23.2003 L -20.4269,-24.6711
 L -21.2002,-22.2912 L -19.1758,-20.8204 L -17.1513,-22.2912 L -17.9246,-24.6711 L -15.9002,-23.2003 L -15.1269,-20.8204
 L -17.1513,-22.2912 L -19.1758,-20.8204 L -18.4025,-18.4405 L -15.9002,-18.4405 L -17.9246,-16.9697 L -20.4269,-16.9697
 L -18.4025,-18.4405 L -19.1758,-20.8204 L -21.6781,-20.8204 L -22.4514,-18.4405 L -23.2247,-20.8204 L -25.727,-20.8204
 L -26.5003,-18.4405 L -24.4758,-16.9697 L -26.9782,-16.9697 L -27.7514,-14.5898 L -25.727,-13.1189 L -23.7026,-14.5898
 L -24.4758,-12.2099 L -22.4514,-10.7391 L -20.427,-12.2099 L -21.2002,-14.5898 L -19.1758,-13.119 L -17.1513,-14.5898
 L -17.9246,-12.2099 L -15.9002,-10.7391 L -18.4025,-10.7391 L -19.1758,-8.35921 L -17.1513,-6.88837 L -15.1269,-8.35921
 L -15.9002,-5.97932 L -13.8757,-4.50848 L -16.3781,-4.50848 L -17.1513,-2.12862 L -17.9246,-4.50848 L -20.4269,-4.50848
 L -21.2002,-2.12862 L -19.1758,-0.657761 L -21.6781,-0.657761 L -22.4514,1.72209 L -20.4269,3.19293 L -18.4025,1.72209
 L -19.1758,4.10196 L -21.2002,5.5728 L -20.427,3.19293 L -22.4514,1.72209 L -23.2247,-0.657776 L -25.727,-0.657761
 L -23.7026,-2.12862 L -24.4758,-4.50848 L -26.9782,-4.50848 L -27.7514,-2.12862 L -28.5247,-4.50848 L -31.0271,-4.50848
 L -31.8003,-2.12862 L -29.7759,-0.657761 L -32.2782,-0.657761 L -33.0515,1.72208 L -31.0271,3.19293 L -29.0026,1.72208
 L -29.7759,4.10196 L -27.7514,5.5728 L -26.9782,7.95267 L -24.4758,7.95267 L -26.5003,9.42351 L -29.0026,9.42351
 L -26.9782,7.95267 L -27.7514,5.5728 L -30.2538,5.5728 L -31.0271,7.95267 L -31.8003,5.5728 L -34.3027,5.5728
 L -36.3271,4.10196 L -38.3516,5.5728 L -37.5783,3.19293 L -39.6027,1.72208 L -37.1004,1.72208 L -36.3271,-0.657776
 L -35.5538,1.72209 L -33.0515,1.72208 L -32.2782,-0.657776 L -34.3027,-2.12862 L -31.8003,-2.12862 L -31.0271,-4.5085
 L -33.0515,-5.97934 L -35.076,-4.5085 L -34.3027,-6.88837 L -36.3271,-8.35921 L -38.3516,-6.88837 L -37.5783,-4.50848
 L -39.6027,-5.97934 L -41.6272,-4.50848 L -44.1295,-4.50848 L -44.9028,-2.12862 L -45.6761,-4.50848 L -48.1784,-4.5085
 L -50.2029,-5.97934 L -52.2273,-4.50848 L -51.454,-6.88837 L -53.4785,-8.35921 L -55.5029,-6.88837 L -54.7296,-4.5085
 L -56.7541,-5.97934 L -57.5273,-8.35921 L -55.5029,-6.88837 L -53.4785,-8.35921 L -54.2517,-10.7391 L -56.7541,-10.7391
 L -54.7296,-12.2099 L -55.5029,-14.5898 L -53.4785,-13.119 L -51.454,-14.5898 L -52.2273,-12.2099 L -50.2029,-10.7391
 L -48.1784,-12.2099 L -48.9517,-14.5898 L -46.9272,-13.119 L -46.154,-10.7391 L -48.1784,-12.2099 L -50.2029,-10.7391
 L -49.4296,-8.35921 L -46.9272,-8.35921 L -48.9517,-6.88837 L -48.1784,-4.5085 L -45.6761,-4.5085 L -44.9028,-6.88837
 L -44.1295,-4.5085 L -41.6272,-4.50848 L -40.8539,-6.88837 L -42.8784,-8.35921 L -40.376,-8.35921 L -39.6027,-10.7391
 L -41.6272,-12.2099 L -43.6516,-10.7391 L -42.8784,-13.119 L -44.9028,-14.5898 L -45.6761,-16.9697 L -48.1784,-16.9697
 L -46.154,-18.4405 L -43.6516,-18.4405 L -45.6761,-16.9697 L -44.9028,-14.5898 L -42.4005,-14.5898 L -41.6272,-16.9697
 L -40.8539,-14.5898 L -38.3516,-14.5898 L -37.5783,-16.9697 L -39.6027,-18.4405 L -37.1004,-18.4405 L -36.3271,-20.8204
 L -34.3027,-22.2912 L -35.076,-24.6711 L -33.0515,-23.2003 L -32.2782,-20.8204 L -34.3027,-22.2912 L -36.3271,-20.8204
 L -35.5538,-18.4405 L -33.0515,-18.4405 L -35.076,-16.9697 L -34.3027,-14.5898 L -31.8003,-14.5898 L -31.0271,-16.9697
 L -30.2538,-14.5898 L -27.7514,-14.5898 L -26.9782,-16.9697 L -29.0026,-18.4405 L -26.5003,-18.4405 L -25.727,-20.8204
 L -27.7514,-22.2912 L -29.7759,-20.8204 L -29.0026,-23.2003 L -31.0271,-24.6711 L -28.5247,-24.6711 L -27.7514,-27.051
 L -26.9782,-24.6711 L -24.4758,-24.6711 L -23.7026,-27.051 L -25.727,-28.5218 L -23.2247,-28.5218 L -22.4514,-30.9017
 L -24.4758,-32.3725 L -26.5003,-30.9017 L -25.727,-33.2816 L -27.7514,-34.7524 L -29.7759,-33.2816 L -29.0026,-30.9017
 L -31.0271,-32.3725 L -33.0515,-30.9017 L -32.2782,-28.5218 L -29.7759,-28.5218 L -31.8003,-27.051 L -34.3027,-27.051
 L -32.2782,-28.5218 L -33.0515,-30.9017 L -32.2782,-33.2816 L -34.3027,-34.7524 L -31.8003,-34.7524 L -31.0271,-37.1323
 L -33.0515,-38.6031 L -35.0759,-37.1323 L -34.3027,-39.5122 L -36.3271,-40.983 L -38.3516,-39.5121 L -37.5783,-37.1323
 L -39.6027,-38.6031 L -41.6272,-37.1323 L -40.8539,-34.7524 L -38.3516,-34.7524 L -40.376,-33.2816 L -39.6027,-30.9017
 L -41.6272,-32.3725 L -43.6516,-30.9017 L -42.8783,-33.2816 L -44.9028,-34.7524 L -46.9272,-33.2816 L -46.154,-30.9017
 L -48.1784,-32.3725 L -50.2029,-30.9017 L -49.4296,-33.2816 L -51.454,-34.7524 L -48.9517,-34.7524 L -48.1784,-37.1323
 L -50.2029,-38.6031 L -52.2273,-37.1323 L -51.454,-39.5121 L -53.4785,-40.983 L -55.5029,-39.5121 L -54.7296,-37.1323
 L -56.7541,-38.6031 L -57.5273,-40.983 L -55.5029,-39.5122 L -53.4785,-40.983 L -50.9761,-40.983 L -50.2029,-43.3629
 L -49.4296,-40.983 L -46.9272,-40.983 L -46.154,-43.3629 L -48.1784,-44.8337 L -45.6761,-44.8337 L -44.9028,-47.2136
 L -46.9272,-48.6844 L -48.9517,-47.2136 L -48.1784,-49.5935 L -50.2029,-51.0643 L -52.2273,-49.5935 L -51.454,-47.2136
 L -53.4785,-48.6844 L -55.5029,-47.2136 L -58.0052,-47.2136 L -58.7785,-44.8337 L -59.5518,-47.2136 L -58.7785,-49.5935
 L -58.0052,-47.2136 L -55.5029,-47.2136 L -54.7296,-49.5935 L -56.7541,-51.0643 L -54.2517,-51.0643 L -53.4785,-53.4442
 L -55.5029,-54.915 L -57.5273,-53.4442 L -56.7541,-55.8241 L -58.7785,-57.2949 L -60.803,-55.8241 L -60.0297,-53.4442
 L -62.0541,-54.915 L -64.0786,-53.4442 L -63.3053,-51.0643 L -60.803,-51.0643 L -62.8274,-49.5935 L -62.0541,-47.2136
 L -64.0786,-48.6844 L -66.103,-47.2136 L -65.3297,-49.5935 L -67.3542,-51.0643 L -69.3786,-49.5935 L -68.6054,-47.2136
 L -70.6298,-48.6844 L -72.6542,-47.2136 L -71.881,-44.8337 L -69.3786,-44.8337 L -71.4031,-43.3629 L -70.6298,-40.983
 L -68.1275,-40.983 L -67.3542,-43.3629 L -66.5809,-40.983 L -64.0786,-40.983 L -66.103,-39.5121 L -65.3297,-37.1323
 L -67.3542,-38.6031 L -69.3786,-37.1323 L -68.6054,-34.7524 L -66.103,-34.7524 L -68.1275,-33.2816 L -67.3542,-30.9017
 L -69.3786,-32.3725 L -71.4031,-30.9017 L -70.6298,-33.2816 L -72.6543,-34.7524 L -74.6787,-33.2816 L -73.9054,-30.9017
 L -75.9299,-32.3725 L -77.9543,-30.9017 L -77.181,-33.2816 L -79.2055,-34.7524 L -76.7031,-34.7524 L -75.9299,-37.1323
 L -77.9543,-38.6031 L -79.9787,-37.1323 L -79.2055,-39.5121 L -81.2299,-40.983 L -83.2543,-39.5121 L -82.4811,-37.1323
 L -84.5055,-38.6031 L -86.53,-37.1323 L -85.7567,-34.7524 L -83.2543,-34.7524 L -85.2788,-33.2816 L -84.5055,-30.9017
 L -85.2788,-28.5218 L -83.2544,-27.051 L -85.7567,-27.051 L -87.7811,-28.5218 L -85.2788,-28.5218 L -84.5055,-30.9017
 L -86.53,-32.3725 L -88.5544,-30.9017 L -87.7811,-33.2816 L -89.8056,-34.7524 L -91.83,-33.2816 L -91.0568,-30.9017
 L -93.0812,-32.3725 L -95.1056,-30.9017 L -94.3324,-28.5218 L -91.83,-28.5218 L -93.8545,-27.051 L -93.0812,-24.6711
 L -90.5789,-24.6711 L -89.8056,-27.051 L -89.0323,-24.6711 L -86.53,-24.6711 L -84.5055,-23.2003 L -82.4811,-24.6711
 L -83.2543,-22.2912 L -85.2788,-20.8204 L -84.5055,-23.2003 L -86.53,-24.6711 L -88.5544,-23.2003 L -87.7811,-20.8204
 L -89.8056,-22.2912 L -91.83,-20.8204 L -91.0567,-18.4405 L -88.5544,-18.4405 L -90.5789,-16.9697 L -89.8056,-14.5898
 L -87.3032,-14.5898 L -86.53,-16.9697 L -85.7567,-14.5898 L -83.2543,-14.5898 L -82.4811,-16.9697 L -84.5055,-18.4405
 L -82.0032,-18.4405 L -81.2299,-20.8204 L -80.4566,-18.4405 L -77.9543,-18.4405 L -79.9787,-16.9697 L -79.2055,-14.5898
 L -76.7031,-14.5898 L -75.9299,-16.9697 L -75.1566,-14.5898 L -72.6543,-14.5898 L -71.881,-16.9697 L -73.9054,-18.4405
 L -71.4031,-18.4405 L -70.6298,-20.8204 L -72.6542,-22.2912 L -74.6787,-20.8204 L -73.9054,-23.2003 L -75.9299,-24.6711
 L -73.4275,-24.6711 L -72.6543,-27.051 L -71.881,-24.6711 L -69.3786,-24.6711 L -67.3542,-23.2003 L -65.3297,-24.6711
 L -66.103,-22.2912 L -64.0786,-20.8204 L -66.5809,-20.8204 L -67.3542,-18.4405 L -68.1275,-20.8204 L -70.6298,-20.8204
 L -71.4031,-18.4405 L -69.3786,-16.9697 L -71.881,-16.9697 L -72.6542,-14.5898 L -74.6787,-13.119 L -73.9054,-10.7391
 L -75.9299,-12.2099 L -77.9543,-10.7391 L -77.181,-8.35921 L -74.6787,-8.35921 L -76.7031,-6.88837 L -75.9299,-4.50848
 L -77.9543,-5.97934 L -79.9787,-4.50848 L -79.2055,-6.88837 L -81.2299,-8.35921 L -83.2543,-6.88837 L -82.4811,-4.50848
 L -84.5055,-5.97934 L -86.53,-4.50848 L -85.7567,-2.12862 L -83.2543,-2.12862 L -85.2788,-0.657776 L -84.5055,1.72208
 L -82.0032,1.72209 L -81.2299,-0.657776 L -80.4566,1.72209 L -77.9543,1.72208 L -79.9787,3.19293 L -79.2055,5.5728
 L -81.2299,4.10196 L -83.2543,5.5728 L -82.4811,7.95267 L -79.9787,7.95267 L -82.0032,9.42352 L -81.2299,11.8034
 L -78.7276,11.8034 L -77.9543,9.42351 L -77.181,11.8034 L -74.6787,11.8034 L -73.9054,9.42351 L -75.9299,7.95267
 L -73.4275,7.95267 L -72.6542,5.5728 L -71.881,7.95267 L -69.3786,7.95267 L -71.4031,9.42352 L -70.6298,11.8034
 L -68.1275,11.8034 L -67.3542,9.42351 L -66.5809,11.8034 L -64.0786,11.8034 L -63.3053,9.42351 L -65.3297,7.95267
 L -62.8274,7.95267 L -62.0541,5.5728 L -64.0786,4.10196 L -66.103,5.5728 L -65.3297,3.19293 L -67.3542,1.72208
 L -64.8519,1.72208 L -64.0786,-0.657776 L -63.3053,1.72208 L -60.803,1.72208 L -60.0297,-0.657776 L -62.0541,-2.12862
 L -59.5518,-2.12862 L -58.7785,-4.5085 L -58.0052,-2.12862 L -55.5029,-2.12862 L -57.5273,-0.657776 L -56.7541,1.72208
 L -54.2517,1.72208 L -53.4785,-0.657776 L -52.7052,1.72208 L -50.2029,1.72208 L -52.2273,3.19293 L -51.454,5.5728
 L -53.4785,4.10196 L -55.5029,5.5728 L -54.7296,7.95267 L -52.2273,7.95267 L -54.2517,9.42351 L -53.4785,11.8034
 L -50.9761,11.8034 L -50.2029,9.42351 L -49.4296,11.8034 L -46.9272,11.8034 L -46.154,9.42351 L -48.1784,7.95267
 L -45.6761,7.95267 L -44.9028,5.5728 L -46.9272,4.10196 L -48.9517,5.5728 L -48.1784,3.19292 L -46.154,1.72208
 L -46.9272,4.10196 L -44.9028,5.5728 L -44.1295,7.95267 L -41.6272,7.95267 L -43.6516,9.42351 L -42.8783,11.8034
 L -40.376,11.8034 L -39.6027,9.42351 L -38.8295,11.8034 L -36.3271,11.8034 L -38.3516,13.2742 L -37.5783,15.6541
 L -39.6027,14.1833 L -41.6272,15.6541 L -40.8539,18.034 L -38.3516,18.034 L -40.376,19.5048 L -39.6027,21.8847
 L -41.6272,20.4139 L -43.6516,21.8847 L -42.8783,19.5048 L -44.9028,18.034 L -46.9272,19.5048 L -46.154,21.8847
 L -48.1784,20.4139 L -50.2028,21.8847 L -49.4296,24.2646 L -46.9272,24.2646 L -48.9517,25.7354 L -48.1784,28.1153
 L -45.6761,28.1153 L -44.9028,25.7354 L -44.1295,28.1153 L -41.6272,28.1153 L -43.6516,29.5861 L -42.8783,31.966
 L -44.9028,30.4952 L -46.9272,31.966 L -46.154,34.3459 L -43.6516,34.3459 L -45.6761,35.8167 L -44.9028,38.1966
 L -42.4004,38.1966 L -41.6272,35.8167 L -40.8539,38.1966 L -41.6272,40.5765 L -42.4004,38.1966 L -44.9028,38.1966
 L -45.6761,40.5765 L -43.6516,42.0473 L -46.154,42.0473 L -48.1784,40.5765 L -45.6761,40.5765 L -44.9028,38.1966
 L -46.9272,36.7258 L -48.9517,38.1966 L -48.1784,35.8167 L -50.2029,34.3459 L -52.2273,35.8167 L -51.454,38.1966
 L -53.4785,36.7258 L -55.5029,38.1966 L -54.7296,35.8167 L -56.7541,34.3459 L -54.2517,34.3459 L -53.4785,31.966
 L -55.5029,30.4952 L -57.5273,31.966 L -56.7541,29.5861 L -58.7785,28.1153 L -60.803,29.5861 L -60.0297,31.966
 L -62.0541,30.4952 L -64.0786,31.966 L -63.3053,34.3459 L -60.8029,34.3459 L -62.8274,35.8167 L -62.0541,38.1966
 L -62.8274,40.5765 L -60.8029,42.0473 L -63.3053,42.0473 L -65.3297,40.5765 L -62.8274,40.5765 L -62.0541,38.1966
 L -64.0786,36.7258 L -66.103,38.1966 L -65.3297,35.8167 L -67.3542,34.3459 L -69.3786,35.8167 L -68.6054,38.1966
 L -70.6298,36.7258 L -72.6542,38.1966 L -71.881,40.5765 L -69.3786,40.5765 L -71.4031,42.0473 L -70.6298,44.4272
 L -68.1275,44.4272 L -67.3542,42.0473 L -66.5809,44.4272 L -64.0786,44.4272 L -66.103,45.898 L -65.3297,48.2779
 L -67.3542,46.8071 L -69.3786,48.2779 L -68.6054,50.6578 L -66.103,50.6578 L -68.1274,52.1286 L -67.3542,54.5085
 L -64.8518,54.5085 L -64.0786,52.1286 L -63.3053,54.5085 L -60.803,54.5085 L -60.0297,52.1286 L -62.0541,50.6578
 L -59.5518,50.6578 L -58.7785,48.2779 L -58.0052,50.6578 L -55.5029,50.6578 L -57.5273,52.1286 L -56.7541,54.5085
 L -54.2517,54.5085 L -53.4785,52.1286 L -52.7052,54.5085 L -50.2029,54.5085 L -49.4296,52.1286 L -51.454,50.6578
 L -48.9517,50.6578 L -48.1784,48.2779 L -50.2028,46.8071 L -52.2273,48.2779 L -51.454,45.898 L -53.4785,44.4272
 L -54.2517,42.0473 L -56.7541,42.0473 L -54.7296,40.5765 L -52.2273,40.5765 L -54.2517,42.0473 L -53.4785,44.4272
 L -50.9761,44.4272 L -50.2029,42.0473 L -49.4296,44.4272 L -46.9272,44.4272 L -44.9028,45.898 L -42.8783,44.4272
 L -43.6516,46.8071 L -41.6272,48.2779 L -44.1295,48.2779 L -44.9028,50.6578 L -45.6761,48.2779 L -48.1784,48.2779
 L -48.9517,50.6578 L -46.9272,52.1286 L -49.4296,52.1286 L -50.2028,54.5085 L -48.1784,55.9793 L -46.154,54.5085
 L -46.9272,56.8884 L -48.9517,58.3592 L -48.1784,55.9793 L -50.2029,54.5085 L -52.2273,55.9793 L -51.454,58.3592
 L -53.4785,56.8884 L -55.5029,58.3592 L -54.7296,60.7391 L -52.2273,60.7391 L -54.2517,62.2099 L -53.4785,64.5898
 L -55.5029,63.119 L -57.5273,64.5898 L -56.7541,62.2099 L -58.7785,60.7391 L -60.8029,62.2099 L -60.0297,64.5898
 L -62.0541,63.119 L -64.0786,64.5898 L -63.3053,66.9697 L -60.8029,66.9697 L -62.8274,68.4405 L -62.0541,70.8204
 L -59.5518,70.8204 L -58.7785,68.4405 L -58.0052,70.8204 L -55.5029,70.8204 L -54.7296,68.4405 L -56.7541,66.9697
 L -54.2517,66.9697 L -52.2273,68.4405 L -54.7296,68.4405 L -55.5029,70.8204 L -57.5273,72.2912 L -56.7541,74.6711
 L -58.7785,73.2003 L -60.8029,74.6711 L -60.0297,77.051 L -57.5273,77.051 L -59.5518,78.5218 L -58.7785,80.9017
 L -56.2762,80.9017 L -55.5029,78.5218 L -54.7296,80.9017 L -52.2273,80.9017 L -51.454,78.5218 L -53.4785,77.051
 L -50.9761,77.051 L -50.2029,74.6711 L -49.4296,77.051 L -46.9272,77.051 L -48.9517,78.5218 L -48.1784,80.9017
 L -45.6761,80.9017 L -44.9028,78.5218 L -44.1295,80.9017 L -41.6272,80.9017 L -40.8539,78.5218 L -42.8784,77.051
 L -40.376,77.051 L -39.6027,74.6711 L -41.6272,73.2003 L -43.6516,74.6711 L -42.8783,72.2912 L -44.9028,70.8204
 L -42.4004,70.8204 L -41.6272,68.4405 L -40.8539,70.8204 L -38.3516,70.8204 L -37.5783,68.4405 L -39.6027,66.9697
 L -37.1004,66.9697 L -36.3271,64.5898 L -38.3516,63.119 L -40.376,64.5898 L -39.6027,62.2099 L -37.5783,60.7391
 L -38.3516,63.1189 L -36.3271,64.5898 L -34.3027,63.1189 L -35.0759,60.7391 L -33.0515,62.2099 L -32.2782,64.5898
 L -34.3027,63.1189 L -36.3271,64.5898 L -35.5538,66.9697 L -33.0515,66.9697 L -35.0759,68.4405 L -34.3027,70.8204
 L -31.8003,70.8204 L -31.0271,68.4405 L -30.2538,70.8204 L -27.7514,70.8204 L -29.7759,72.2912 L -29.0026,74.6711
 L -31.0271,73.2003 L -33.0515,74.6711 L -32.2782,77.051 L -29.7759,77.051 L -31.8003,78.5218 L -31.0271,80.9017
 L -28.5247,80.9017 L -27.7514,78.5218 L -26.9782,80.9017 L -24.4758,80.9017 L -23.7026,78.5218 L -25.727,77.051
 L -23.2247,77.051 L -22.4514,74.6711 L -21.6781,77.051 L -19.1758,77.051 L -21.2002,78.5218 L -20.427,80.9017
 L -17.9246,80.9017 L -17.1513,78.5218 L -16.3781,80.9017 L -13.8757,80.9017 L -13.1025,78.5218 L -15.1269,77.051
 L -12.6246,77.051 L -11.8513,74.6711 L -13.8757,73.2003 L -15.9002,74.6711 L -15.1269,72.2912 L -17.1513,70.8204
 L -19.1758,72.2912 L -18.4025,74.6711 L -20.427,73.2003 L -21.2002,70.8204 L -19.1758,72.2912 L -17.1513,70.8204
 L -14.649,70.8204 L -13.8757,68.4405 L -13.1024,70.8204 L -10.6001,70.8204 L -9.82684,68.4405 L -11.8513,66.9697
 L -9.34894,66.9697 L -8.57567,64.5898 L -10.6001,63.119 L -12.6246,64.5898 L -11.8513,62.2099 L -13.8757,60.7391
 L -15.9002,62.2099 L -15.1269,64.5898 L -17.1513,63.119 L -19.1758,64.5898 L -18.4025,62.2099 L -20.427,60.7391
 L -17.9246,60.7391 L -17.1513,58.3592 L -19.1758,56.8884 L -21.2002,58.3592 L -20.427,55.9793 L -22.4514,54.5085
 L -24.4758,55.9793 L -23.7026,58.3592 L -25.727,56.8884 L -27.7514,58.3592 L -26.9782,60.7391 L -24.4758,60.7391
 L -26.5003,62.2099 L -25.727,64.5898 L -27.7514,63.119 L -29.7759,64.5898 L -29.0026,62.2099 L -31.0271,60.7391
 L -31.8003,58.3592 L -34.3027,58.3592 L -32.2782,56.8884 L -33.0515,54.5085 L -31.0271,55.9793 L -29.0026,54.5085
 L -29.7759,56.8884 L -27.7514,58.3592 L -25.727,56.8884 L -26.5003,54.5085 L -24.4758,55.9793 L -22.4514,54.5085
 L -23.2247,52.1286 L -25.727,52.1286 L -23.7026,50.6578 L -24.4758,48.2779 L -26.9782,48.2779 L -27.7514,50.6578
 L -28.5247,48.2779 L -31.0271,48.2779 L -31.8003,50.6578 L -29.7759,52.1286 L -32.2782,52.1286 L -34.3027,50.6578
 L -31.8003,50.6578 L -31.0271,48.2779 L -29.0026,46.8071 L -29.7759,44.4272 L -27.7514,45.898 L -25.727,44.4272
 L -23.2247,44.4272 L -22.4514,42.0473 L -21.6781,44.4272 L -19.1758,44.4272 L -18.4025,42.0473 L -20.427,40.5765
 L -17.9246,40.5765 L -15.9002,42.0473 L -18.4025,42.0473 L -19.1758,44.4272 L -21.2002,45.898 L -20.427,48.2779
 L -22.4514,46.8071 L -24.4758,48.2779 L -23.7026,50.6578 L -21.2002,50.6578 L -23.2247,52.1286 L -22.4514,54.5085
 L -19.9491,54.5085 L -19.1758,52.1286 L -18.4025,54.5085 L -15.9002,54.5085 L -15.1269,52.1286 L -17.1513,50.6578
 L -14.649,50.6578 L -13.8757,48.2779 L -13.1024,50.6578 L -10.6001,50.6578 L -12.6245,52.1286 L -11.8513,54.5085
 L -9.34894,54.5085 L -8.57567,52.1286 L -7.8024,54.5085 L -5.30005,54.5085 L -4.52678,52.1286 L -6.55122,50.6578
 L -4.04889,50.6578 L -3.27562,48.2779 L -5.30006,46.8071 L -7.32449,48.2779 L -6.55122,45.898 L -8.57567,44.4272
 L -6.07332,44.4272 L -5.30005,42.0473 L -4.52679,44.4272 L -2.02444,44.4272 L -1.25117,42.0473 L -3.2756,40.5765
 L -0.77327,40.5765 L 0,38.1966 L 0.77327,40.5765 L 3.2756,40.5765 L 1.25117,42.0473 L 2.02444,44.4272
 L 4.52679,44.4272 L 5.30005,42.0473 L 6.07332,44.4272 L 8.57567,44.4272 L 6.55122,45.898 L 7.32449,48.2779
 L 5.30006,46.8071 L 3.27562,48.2779 L 4.04889,50.6578 L 6.55122,50.6578 L 4.52678,52.1286 L 5.30005,54.5085
 L 7.8024,54.5085 L 8.57567,52.1286 L 9.34894,54.5085 L 11.8513,54.5085 L 12.6245,52.1286 L 10.6001,50.6578
 L 13.1024,50.6578 L 13.8757,48.2779 L 14.649,50.6578 L 17.1513,50.6578 L 15.1269,52.1286 L 15.9002,54.5085
 L 18.4025,54.5085 L 19.1758,52.1286 L 19.9491,54.5085 L 22.4514,54.5085 L 23.2247,52.1286 L 21.2002,50.6578
 L 23.7026,50.6578 L 24.4758,48.2779 L 22.4514,46.8071 L 20.427,48.2779 L 21.2002,45.898 L 19.1758,44.4272
 L 18.4025,42.0473 L 15.9002,42.0473 L 17.9246,40.5765 L 20.427,40.5765 L 18.4025,42.0473 L 19.1758,44.4272
 L 21.6781,44.4272 L 22.4514,42.0473 L 23.2247,44.4272 L 25.727,44.4272 L 27.7514,45.898 L 29.7759,44.4272
 L 29.0026,46.8071 L 31.0271,48.2779 L 31.8003,50.6578 L 34.3027,50.6578 L 32.2782,52.1286 L 29.7759,52.1286
 L 31.8003,50.6578 L 31.0271,48.2779 L 28.5247,48.2779 L 27.7514,50.6578 L 26.9782,48.2779 L 24.4758,48.2779
 L 23.7026,50.6578 L 25.727,52.1286 L 23.2247,52.1286 L 22.4514,54.5085 L 24.4758,55.9793 L 26.5003,54.5085
 L 25.727,56.8884 L 27.7514,58.3592 L 29.7759,56.8884 L 29.0026,54.5085 L 31.0271,55.9793 L 33.0515,54.5085
 L 32.2782,56.8884 L 34.3027,58.3592 L 31.8003,58.3592 L 31.0271,60.7391 L 29.0026,62.2099 L 29.7759,64.5898
 L 27.7514,63.119 L 25.727,64.5898 L 26.5003,62.2099 L 24.4758,60.7391 L 26.9782,60.7391 L 27.7514,58.3592
 L 25.727,56.8884 L 23.7026,58.3592 L 24.4758,55.9793 L 22.4514,54.5085 L 20.427,55.9793 L 21.2002,58.3592
 L 19.1758,56.8884 L 17.1513,58.3592 L 17.9246,60.7391 L 20.427,60.7391 L 18.4025,62.2099 L 19.1758,64.5898
 L 17.1513,63.119 L 15.1269,64.5898 L 15.9002,62.2099 L 13.8757,60.7391 L 11.8513,62.2099 L 12.6246,64.5898
 L 10.6001,63.119 L 8.57567,64.5898 L 9.34894,66.9697 L 11.8513,66.9697 L 9.82684,68.4405 L 10.6001,70.8204
 L 13.1024,70.8204 L 13.8757,68.4405 L 14.649,70.8204 L 17.1513,70.8204 L 19.1758,72.2912 L 21.2002,70.8204
 L 20.427,73.2003 L 18.4025,74.6711 L 19.1758,72.2912 L 17.1513,70.8204 L 15.1269,72.2912 L 15.9002,74.6711
 L 13.8757,73.2003 L 11.8513,74.6711 L 12.6246,77.051 L 15.1269,77.051 L 13.1025,78.5218 L 13.8757,80.9017
 L 16.3781,80.9017 L 17.1513,78.5218 L 17.9246,80.9017 L 20.427,80.9017 L 21.2002,78.5218 L 19.1758,77.051
 L 21.6781,77.051 L 22.4514,74.6711 L 23.2247,77.051 L 25.727,77.051 L 23.7026,78.5218 L 24.4758,80.9017
 L 26.9782,80.9017 L 27.7514,78.5218 L 28.5247,80.9017 L 31.0271,80.9017 L 31.8003,78.5218 L 29.7759,77.051
 L 32.2782,77.051 L 33.0515,74.6711 L 31.0271,73.2003 L 29.0026,74.6711 L 29.7759,72.2912 L 27.7514,70.8204
 L 30.2538,70.8204 L 31.0271,68.4405 L 31.8003,70.8204 L 34.3027,70.8204 L 35.0759,68.4405 L 33.0515,66.9697
 L 35.5538,66.9697 L 36.3271,64.5898 L 34.3027,63.1189 L 32.2782,64.5898 L 33.0515,62.2099 L 35.0759,60.7391
 L 34.3027,63.1189 L 36.3271,64.5898 L 38.3516,63.1189 L 37.5783,60.7391 L 39.6027,62.2099 L 40.376,64.5898
 L 38.3516,63.119 L 36.3271,64.5898 L 37.1004,66.9697 L 39.6027,66.9697 L 37.5783,68.4405 L 38.3516,70.8204
 L 40.8539,70.8204 L 41.6272,68.4405 L 42.4004,70.8204 L 44.9028,70.8204 L 42.8783,72.2912 L 43.6516,74.6711
 L 41.6272,73.2003 L 39.6027,74.6711 L 40.376,77.051 L 42.8784,77.051 L 40.8539,78.5218 L 41.6272,80.9017
 L 44.1295,80.9017 L 44.9028,78.5218 L 45.6761,80.9017 L 48.1784,80.9017 L 48.9517,78.5218 L 46.9272,77.051
 L 49.4296,77.051 L 50.2029,74.6711 L 50.9761,77.051 L 53.4785,77.051 L 51.454,78.5218 L 52.2273,80.9017
 L 54.7296,80.9017 L 55.5029,78.5218 L 56.2762,80.9017 L 58.7785,80.9017 L 59.5518,78.5218 L 57.5273,77.051
 L 60.0297,77.051 L 60.8029,74.6711 L 58.7785,73.2003 L 56.7541,74.6711 L 57.5273,72.2912 L 55.5029,70.8204
 L 54.7296,68.4405 L 52.2273,68.4405 L 54.2517,66.9697 L 56.7541,66.9697 L 54.7296,68.4405 L 55.5029,70.8204
 L 58.0052,70.8204 L 58.7785,68.4405 L 59.5518,70.8204 L 62.0541,70.8204 L 62.8274,68.4405 L 60.8029,66.9697
 L 63.3053,66.9697 L 64.0786,64.5898 L 62.0541,63.119 L 60.0297,64.5898 L 60.8029,62.2099 L 58.7785,60.7391
 L 56.7541,62.2099 L 57.5273,64.5898 L 55.5029,63.119 L 53.4785,64.5898 L 54.2517,62.2099 L 52.2273,60.7391
 L 54.7296,60.7391 L 55.5029,58.3592 L 53.4785,56.8884 L 51.454,58.3592 L 52.2273,55.9793 L 50.2029,54.5085
 L 48.1784,55.9793 L 48.9517,58.3592 L 46.9272,56.8884 L 46.154,54.5085 L 48.1784,55.9793 L 50.2028,54.5085
 L 49.4296,52.1286 L 46.9272,52.1286 L 48.9517,50.6578 L 48.1784,48.2779 L 45.6761,48.2779 L 44.9028,50.6578
 L 44.1295,48.2779 L 41.6272,48.2779 L 43.6516,46.8071 L 42.8783,44.4272 L 44.9028,45.898 L 46.9272,44.4272
 L 49.4296,44.4272 L 50.2029,42.0473 L 50.9761,44.4272 L 53.4785,44.4272 L 54.2517,42.0473 L 52.2273,40.5765
 L 54.7296,40.5765 L 56.7541,42.0473 L 54.2517,42.0473 L 53.4785,44.4272 L 51.454,45.898 L 52.2273,48.2779
 L 50.2028,46.8071 L 48.1784,48.2779 L 48.9517,50.6578 L 51.454,50.6578 L 49.4296,52.1286 L 50.2029,54.5085
 L 52.7052,54.5085 L 53.4785,52.1286 L 54.2517,54.5085 L 56.7541,54.5085 L 57.5273,52.1286 L 55.5029,50.6578
 L 58.0052,50.6578 L 58.7785,48.2779 L 59.5518,50.6578 L 62.0541,50.6578 L 60.0297,52.1286 L 60.803,54.5085
 L 63.3053,54.5085 L 64.0786,52.1286 L 64.8518,54.5085 L 67.3542,54.5085 L 68.1274,52.1286 L 66.103,50.6578
 L 68.6054,50.6578 L 69.3786,48.2779 L 67.3542,46.8071 L 65.3297,48.2779 L 66.103,45.898 L 64.0786,44.4272
 L 66.5809,44.4272 L 67.3542,42.0473 L 68.1275,44.4272 L 70.6298,44.4272 L 71.4031,42.0473 L 69.3786,40.5765
 L 71.881,40.5765 L 72.6542,38.1966 L 70.6298,36.7258 L 68.6054,38.1966 L 69.3786,35.8167 L 67.3542,34.3459
 L 65.3297,35.8167 L 66.103,38.1966 L 64.0786,36.7258 L 62.0541,38.1966 L 62.8274,40.5765 L 65.3297,40.5765
 L 63.3053,42.0473 L 60.8029,42.0473 L 62.8274,40.5765 L 62.0541,38.1966 L 62.8274,35.8167 L 60.8029,34.3459
 L 63.3053,34.3459 L 64.0786,31.966 L 62.0541,30.4952 L 60.0297,31.966 L 60.803,29.5861 L 58.7785,28.1153
 L 56.7541,29.5861 L 57.5273,31.966 L 55.5029,30.4952 L 53.4785,31.966 L 54.2517,34.3459 L 56.7541,34.3459
 L 54.7296,35.8167 L 55.5029,38.1966 L 53.4785,36.7258 L 51.454,38.1966 L 52.2273,35.8167 L 50.2029,34.3459
 L 48.1784,35.8167 L 48.9517,38.1966 L 46.9272,36.7258 L 44.9028,38.1966 L 45.6761,40.5765 L 48.1784,40.5765
 L 46.154,42.0473 L 43.6516,42.0473 L 45.6761,40.5765 L 44.9028,38.1966 L 42.4004,38.1966 L 41.6272,40.5765
 L 40.8539,38.1966 L 41.6272,35.8167 L 42.4004,38.1966 L 44.9028,38.1966 L 45.6761,35.8167 L 43.6516,34.3459
 L 46.154,34.3459 L 46.9272,31.966 L 44.9028,30.4952 L 42.8783,31.966 L 43.6516,29.5861 L 41.6272,28.1153
 L 44.1295,28.1153 L 44.9028,25.7354 L 45.6761,28.1153 L 48.1784,28.1153 L 48.9517,25.7354 L 46.9272,24.2646
 L 49.4296,24.2646 L 50.2028,21.8847 L 48.1784,20.4139 L 46.154,21.8847 L 46.9272,19.5048 L 44.9028,18.034
 L 42.8783,19.5048 L 43.6516,21.8847 L 41.6272,20.4139 L 39.6027,21.8847 L 40.376,19.5048 L 38.3516,18.034
 L 40.8539,18.034 L 41.6272,15.6541 L 39.6027,14.1833 L 37.5783,15.6541 L 38.3516,13.2742 L 36.3271,11.8034
 L 38.8295,11.8034 L 39.6027,9.42351 L 40.376,11.8034 L 42.8783,11.8034 L 43.6516,9.42351 L 41.6272,7.95267
 L 44.1295,7.95267 L 44.9028,5.5728 L 46.9272,4.10196 L 46.154,1.72208 L 48.1784,3.19292 L 48.9517,5.5728
 L 46.9272,4.10196 L 44.9028,5.5728 L 45.6761,7.95267 L 48.1784,7.95267 L 46.154,9.42351 L 46.9272,11.8034
 L 49.4296,11.8034 L 50.2029,9.42351 L 50.9761,11.8034 L 53.4785,11.8034 L 54.2517,9.42351 L 52.2273,7.95267
 L 54.7296,7.95267 L 55.5029,5.5728 L 53.4785,4.10196 L 51.454,5.5728 L 52.2273,3.19293 L 50.2029,1.72208
 L 52.7052,1.72208 L 53.4785,-0.657776 L 54.2517,1.72208 L 56.7541,1.72208 L 57.5273,-0.657776 L 55.5029,-2.12862
 L 58.0052,-2.12862 L 58.7785,-4.5085 L 59.5518,-2.12862 L 62.0541,-2.12862 L 60.0297,-0.657776 L 60.803,1.72208
 L 63.3053,1.72208 L 64.0786,-0.657776 L 64.8519,1.72208 L 67.3542,1.72208 L 65.3297,3.19293 L 66.103,5.5728
 L 64.0786,4.10196 L 62.0541,5.5728 L 62.8274,7.95267 L 65.3297,7.95267 L 63.3053,9.42351 L 64.0786,11.8034
 L 66.5809,11.8034 L 67.3542,9.42351 L 68.1275,11.8034 L 70.6298,11.8034 L 71.4031,9.42352 L 69.3786,7.95267
 L 71.881,7.95267 L 72.6542,5.5728 L 73.4275,7.95267 L 75.9299,7.95267 L 73.9054,9.42351 L 74.6787,11.8034
 L 77.181,11.8034 L 77.9543,9.42351 L 78.7276,11.8034 L 81.2299,11.8034 L 82.0032,9.42352 L 79.9787,7.95267
 L 82.4811,7.95267 L 83.2543,5.5728 L 81.2299,4.10196 L 79.2055,5.5728 L 79.9787,3.19293 L 77.9543,1.72208
 L 80.4566,1.72209 L 81.2299,-0.657776 L 82.0032,1.72209 L 84.5055,1.72208 L 85.2788,-0.657776 L 83.2543,-2.12862
 L 85.7567,-2.12862 L 86.53,-4.50848 L 84.5055,-5.97934 L 82.4811,-4.50848 L 83.2543,-6.88837 L 81.2299,-8.35921
 L 79.2055,-6.88837 L 79.9787,-4.50848 L 77.9543,-5.97934 L 75.9299,-4.50848 L 76.7031,-6.88837 L 74.6787,-8.35921
 L 77.181,-8.35921 L 77.9543,-10.7391 L 75.9299,-12.2099 L 73.9054,-10.7391 L 74.6787,-13.119 L 72.6542,-14.5898
 L 71.881,-16.9697 L 69.3786,-16.9697 L 71.4031,-18.4405 L 70.6298,-20.8204 L 68.1275,-20.8204 L 67.3542,-18.4405
 L 66.5809,-20.8204 L 64.0786,-20.8204 L 66.103,-22.2912 L 65.3297,-24.6711 L 67.3542,-23.2003 L 69.3786,-24.6711
 L 71.881,-24.6711 L 72.6543,-27.051 L 73.4275,-24.6711 L 75.9299,-24.6711 L 73.9054,-23.2003 L 74.6787,-20.8204
 L 72.6542,-22.2912 L 70.6298,-20.8204 L 71.4031,-18.4405 L 73.9054,-18.4405 L 71.881,-16.9697 L 72.6543,-14.5898
 L 75.1566,-14.5898 L 75.9299,-16.9697 L 76.7031,-14.5898 L 79.2055,-14.5898 L 79.9787,-16.9697 L 77.9543,-18.4405
 L 80.4566,-18.4405 L 81.2299,-20.8204 L 82.0032,-18.4405 L 84.5055,-18.4405 L 82.4811,-16.9697 L 83.2543,-14.5898
 L 85.7567,-14.5898 L 86.53,-16.9697 L 87.3032,-14.5898 L 89.8056,-14.5898 L 90.5789,-16.9697 L 88.5544,-18.4405
 L 91.0567,-18.4405 L 91.83,-20.8204 L 89.8056,-22.2912 L 87.7811,-20.8204 L 88.5544,-23.2003 L 86.53,-24.6711
 L 84.5055,-23.2003 L 85.2788,-20.8204 L 83.2543,-22.2912 L 82.4811,-24.6711 L 84.5055,-23.2003 L 86.53,-24.6711
 L 89.0323,-24.6711 L 89.8056,-27.051 L 90.5789,-24.6711 L 93.0812,-24.6711 L 93.8545,-27.051 L 91.83,-28.5218
 L 94.3324,-28.5218 L 95.1056,-30.9017 L 93.0812,-32.3725 L 91.0568,-30.9017 L 91.83,-33.2816 L 89.8056,-34.7524
 L 87.7811,-33.2816 L 88.5544,-30.9017 L 86.53,-32.3725 L 84.5055,-30.9017 L 85.2788,-28.5218 L 87.7811,-28.5218
 L 85.7567,-27.051 L 83.2544,-27.051 z
M -76.7031,5.5728 L -75.9299,3.19293 L -73.9054,1.72208 L -74.6787,4.10196 z
M -79.2055,-22.2912 L -79.9787,-24.6711 L -77.9543,-23.2003 L -77.181,-20.8204 z
M -77.181,-0.657776 L -79.2055,-2.12862 L -76.7031,-2.12862 L -74.6787,-0.657776 z
M -74.6787,-28.5218 L -76.7031,-27.051 L -79.2055,-27.051 L -77.181,-28.5218 z
M -72.6542,-2.12862 L -73.4275,-4.50848 L -72.6542,-6.88837 L -71.881,-4.5085 z
M -70.6298,4.10196 L -71.4031,1.72208 L -69.3786,3.19292 L -68.6054,5.5728 z
M -68.6054,-27.051 L -70.6298,-28.5218 L -68.1275,-28.5218 L -66.103,-27.051 z
M -68.1275,-0.657776 L -70.6298,-0.657776 L -68.6054,-2.12862 L -66.103,-2.12862 z
M -62.8274,-16.9697 L -65.3297,-16.9697 L -63.3053,-18.4405 L -60.8029,-18.4405 z
M -63.3053,-43.3629 L -65.3297,-44.8337 L -62.8274,-44.8337 L -60.8029,-43.3629 z
M -52.2273,73.2003 L -54.2517,74.6711 L -53.4785,72.2912 L -51.454,70.8204 z
M -64.0786,-33.2816 L -63.3053,-30.9017 L -64.0786,-28.5218 L -64.8518,-30.9017 z
M -60.8029,46.8071 L -62.8274,48.2779 L -62.0541,45.898 L -60.0297,44.4272 z
M -62.0541,-22.2912 L -62.8274,-24.6711 L -60.803,-23.2003 L -60.0297,-20.8204 z
M -60.803,-38.6031 L -62.8274,-37.1323 L -62.0541,-39.5121 L -60.0297,-40.983 z
M -58.7785,40.5765 L -59.5518,38.1966 L -58.7785,35.8167 L -58.0052,38.1966 z
M -56.7541,46.8071 L -57.5273,44.4272 L -55.5029,45.898 L -54.7296,48.2779 z
M -54.7296,-16.9697 L -56.7541,-18.4405 L -54.2517,-18.4405 L -52.2273,-16.9697 z
M -54.2517,-43.3629 L -56.7541,-43.3629 L -54.7296,-44.8337 L -52.2273,-44.8337 z
M -48.1784,60.7391 L -45.6761,60.7391 L -44.9028,58.3592 L -42.8783,56.8884 L -43.6516,54.5085 L -41.6272,55.9793
 L -39.6027,54.5085 L -40.376,56.8884 L -38.3516,58.3592 L -40.8539,58.3592 L -41.6272,60.7391 L -43.6516,62.2099
 L -42.8783,64.5898 L -44.9028,63.1189 L -46.9272,64.5898 L -46.154,62.2099 z
M -49.4296,-0.657776 L -51.454,-2.12862 L -48.9517,-2.12862 L -46.9272,-0.657776 z
M -48.1784,73.2003 L -48.9517,70.8204 L -46.9272,72.2912 L -46.154,74.6711 z
M -50.2029,-18.4405 L -50.9761,-20.8204 L -53.4785,-20.8204 L -55.5029,-22.2912 L -57.5273,-20.8204 L -56.7541,-23.2003
 L -58.7785,-24.6711 L -59.5518,-27.051 L -62.0541,-27.051 L -60.0297,-28.5218 L -60.803,-30.9017 L -60.0297,-33.2816
 L -62.0541,-34.7524 L -59.5518,-34.7524 L -58.7785,-37.1323 L -58.0052,-34.7524 L -55.5029,-34.7524 L -57.5273,-33.2816
 L -56.7541,-30.9017 L -57.5273,-28.5218 L -55.5029,-27.051 L -58.0052,-27.051 L -58.7785,-24.6711 L -56.7541,-23.2003
 L -54.7296,-24.6711 L -55.5029,-22.2912 L -53.4785,-20.8204 L -51.454,-22.2912 L -52.2273,-24.6711 L -50.2029,-23.2003
 L -48.1784,-24.6711 L -48.9517,-27.051 L -51.454,-27.051 L -49.4296,-28.5218 L -46.9272,-28.5218 L -48.9517,-27.051
 L -48.1784,-24.6711 L -45.6761,-24.6711 L -44.9028,-27.051 L -44.1295,-24.6711 L -41.6272,-24.6711 L -43.6516,-23.2003
 L -42.8784,-20.8204 L -44.9028,-22.2912 L -46.9272,-20.8204 L -49.4296,-20.8204 z
M -42.8784,4.10196 L -43.6516,1.72208 L -41.6272,3.19293 L -40.8539,5.5728 z
M -40.8539,-27.051 L -42.8784,-28.5218 L -40.376,-28.5218 L -38.3516,-27.051 z
M -40.8539,25.7354 L -42.8783,24.2646 L -40.376,24.2646 L -38.3516,25.7354 z
M -40.376,52.1286 L -42.8783,52.1286 L -40.8539,50.6578 L -38.3515,50.6578 z
M -40.376,-0.657776 L -42.8784,-0.657776 L -40.8539,-2.12862 L -38.3516,-2.12862 z
M -38.3516,30.4952 L -40.376,31.966 L -39.6027,29.5861 L -37.5783,28.1153 z
M -37.5783,48.2779 L -39.6027,46.8071 L -40.376,44.4272 L -38.3516,45.898 z
M -35.5538,9.42352 L -37.5783,7.95267 L -35.0759,7.95267 L -33.0515,9.42352 z
M -36.3271,56.8884 L -37.1004,54.5085 L -36.3271,52.1286 L -35.5538,54.5085 z
M -33.0515,46.8071 L -35.0759,48.2779 L -34.3027,45.898 L -32.2782,44.4272 z
M -34.3027,30.4952 L -35.0759,28.1153 L -33.0515,29.5861 L -32.2782,31.966 z
M -30.2538,38.1966 L -31.0271,40.5765 L -31.8003,38.1966 L -31.0271,35.8167 z
M -26.9782,68.4405 L -29.0026,66.9697 L -26.5003,66.9697 L -24.4758,68.4405 z
M -22.4514,62.2099 L -21.6781,64.5898 L -22.4514,66.9697 L -23.2247,64.5898 z
M -25.727,4.10196 L -26.5003,1.72209 L -24.4758,3.19293 L -23.7026,5.5728 z
M -24.4758,73.2003 L -26.5003,74.6711 L -25.727,72.2912 L -23.7026,70.8204 z
M -22.4514,14.1833 L -23.2247,11.8034 L -22.4514,9.42351 L -21.6781,11.8034 z
M -18.4025,9.42351 L -20.427,7.95267 L -17.9246,7.95267 L -15.9002,9.42351 z
M -17.9246,68.4405 L -20.427,68.4405 L -18.4025,66.9697 L -15.9002,66.9697 z
M -15.9002,46.8071 L -17.9246,48.2779 L -17.1513,45.898 L -15.1269,44.4272 z
M -13.8757,-12.2099 L -14.649,-14.5898 L -13.8757,-16.9697 L -13.1024,-14.5898 z
M -13.1025,38.1966 L -13.8757,40.5765 L -14.649,38.1966 L -13.8757,35.8167 z
M -11.8513,46.8071 L -12.6246,44.4272 L -10.6001,45.898 L -9.82684,48.2779 z
M -11.8513,-5.97932 L -12.6245,-8.35921 L -10.6001,-6.88837 L -9.82683,-4.50848 z
M -15.9002,1.72208 L -13.8757,3.19293 L -11.8513,1.72209 L -12.6245,-0.657761 L -15.1269,-0.657761 L -13.1024,-2.12862
 L -10.6001,-2.12862 L -12.6245,-0.657761 L -11.8513,1.72208 L -9.34892,1.72208 L -8.57565,-0.657776 L -7.8024,1.72208
 L -5.30005,1.72208 L -4.52678,-0.657776 L -6.55122,-2.12862 L -4.04887,-2.12862 L -2.02443,-0.657761 L -4.52678,-0.657761
 L -5.30005,1.72208 L -7.32449,3.19293 L -6.55122,5.5728 L -8.57565,4.10196 L -10.6001,5.5728 L -13.1024,5.5728
 L -13.8757,7.95267 L -14.649,5.5728 L -17.1513,5.5728 L -15.1269,4.10196 z
M -3.2756,20.4138 L -4.04887,18.034 L -2.02443,19.5048 L -1.25116,21.8847 z
M -2.02443,4.10196 L -4.04887,5.5728 L -3.2756,3.19293 L -1.25116,1.72208 z
M 0,-2.12862 L -0.773254,-4.50848 L 0,-6.88837 L 0.773254,-4.50848 z
M 6.07332,11.8034 L 5.30005,14.1833 L 4.52678,11.8034 L 5.30005,9.42351 z
M 2.02443,4.10196 L 1.25116,1.72208 L 3.2756,3.19293 L 4.04887,5.5728 z
M 4.04887,25.7354 L 2.02443,24.2646 L 4.52678,24.2646 L 6.55122,25.7354 z
M 9.34894,42.0473 L 7.32449,40.5765 L 9.82684,40.5765 L 11.8513,42.0473 z
M 11.8513,-5.97932 L 9.82683,-4.50848 L 10.6001,-6.88837 L 12.6245,-8.35921 z
M 13.8757,-12.2099 L 13.1024,-14.5898 L 13.8757,-16.9697 L 14.649,-14.5898 z
M 14.649,38.1966 L 13.8757,40.5765 L 13.1025,38.1966 L 13.8757,35.8167 z
M 15.9002,46.8071 L 15.1269,44.4272 L 17.1513,45.898 L 17.9246,48.2779 z
M 17.9246,68.4405 L 15.9002,66.9697 L 18.4025,66.9697 L 20.427,68.4405 z
M 18.4025,9.42351 L 15.9002,9.42351 L 17.9246,7.95267 L 20.427,7.95267 z
M 22.4514,62.2099 L 23.2247,64.5898 L 22.4514,66.9697 L 21.6781,64.5898 z
M 22.4514,14.1833 L 21.6781,11.8034 L 22.4514,9.42351 L 23.2247,11.8034 z
M 31.8003,38.1966 L 31.0271,40.5765 L 30.2538,38.1966 L 31.0271,35.8167 z
M 25.727,4.10196 L 23.7026,5.5728 L 24.4758,3.19293 L 26.5003,1.72209 z
M 24.4758,73.2003 L 23.7026,70.8204 L 25.727,72.2912 L 26.5003,74.6711 z
M 26.9782,68.4405 L 24.4758,68.4405 L 26.5003,66.9697 L 29.0026,66.9697 z
M 42.8784,4.10196 L 40.8539,5.5728 L 41.6272,3.19293 L 43.6516,1.72208 z
M 33.0515,46.8071 L 32.2782,44.4272 L 34.3027,45.898 L 35.0759,48.2779 z
M 34.3027,30.4952 L 32.2782,31.966 L 33.0515,29.5861 L 35.0759,28.1153 z
M 36.3271,56.8884 L 35.5538,54.5085 L 36.3271,52.1286 L 37.1004,54.5085 z
M 38.3516,-22.2912 L 37.5783,-24.6711 L 39.6027,-23.2003 L 40.376,-20.8204 z
M 38.3516,30.4952 L 37.5783,28.1153 L 39.6027,29.5861 L 40.376,31.966 z
M 40.376,52.1286 L 38.3515,50.6578 L 40.8539,50.6578 L 42.8783,52.1286 z
M 40.8539,-27.051 L 38.3516,-27.051 L 40.376,-28.5218 L 42.8784,-28.5218 z
M 40.376,-0.657776 L 38.3516,-2.12862 L 40.8539,-2.12862 L 42.8784,-0.657776 z
M 48.1784,60.7391 L 46.154,62.2099 L 46.9272,64.5898 L 44.9028,63.1189 L 42.8783,64.5898 L 43.6516,62.2099
 L 41.6272,60.7391 L 40.8539,58.3592 L 38.3516,58.3592 L 40.376,56.8884 L 39.6027,54.5085 L 41.6272,55.9793
 L 43.6516,54.5085 L 42.8783,56.8884 L 44.9028,58.3592 L 45.6761,60.7391 z
M 45.6761,68.4405 L 43.6516,66.9697 L 46.154,66.9697 L 48.1784,68.4405 z
M 46.154,74.6711 L 46.9272,72.2912 L 48.9517,70.8204 L 48.1784,73.2003 z
M 48.9517,-27.051 L 48.1784,-24.6711 L 50.2029,-23.2003 L 52.2273,-24.6711 L 51.454,-22.2912 L 53.4785,-20.8204
 L 55.5029,-22.2912 L 54.7296,-24.6711 L 56.7541,-23.2003 L 58.7785,-24.6711 L 58.0052,-27.051 L 55.5029,-27.051
 L 57.5273,-28.5218 L 56.7541,-30.9017 L 57.5273,-33.2816 L 55.5029,-34.7524 L 58.0052,-34.7524 L 58.7785,-37.1323
 L 59.5518,-34.7524 L 62.0541,-34.7524 L 60.0297,-33.2816 L 60.803,-30.9017 L 60.0297,-28.5218 L 62.0541,-27.051
 L 59.5518,-27.051 L 58.7785,-24.6711 L 56.7541,-23.2003 L 57.5273,-20.8204 L 55.5029,-22.2912 L 53.4785,-20.8204
 L 50.9761,-20.8204 L 50.2029,-18.4405 L 49.4296,-20.8204 L 46.9272,-20.8204 L 44.9028,-22.2912 L 42.8784,-20.8204
 L 43.6516,-23.2003 L 41.6272,-24.6711 L 44.1295,-24.6711 L 44.9028,-27.051 L 45.6761,-24.6711 L 48.1784,-24.6711
 L 48.9517,-27.051 L 46.9272,-28.5218 L 49.4296,-28.5218 L 51.454,-27.051 z
M 49.4296,-0.657776 L 46.9272,-0.657776 L 48.9517,-2.12862 L 51.454,-2.12862 z
M 54.2517,-30.9017 L 53.4785,-28.5218 L 52.7052,-30.9017 L 53.4785,-33.2816 z
M 52.2273,73.2003 L 51.454,70.8204 L 53.4785,72.2912 L 54.2517,74.6711 z
M 54.2517,-43.3629 L 52.2273,-44.8337 L 54.7296,-44.8337 L 56.7541,-43.3629 z
M 54.7296,-16.9697 L 52.2273,-16.9697 L 54.2517,-18.4405 L 56.7541,-18.4405 z
M 56.7541,46.8071 L 54.7296,48.2779 L 55.5029,45.898 L 57.5273,44.4272 z
M 58.7785,40.5765 L 58.0052,38.1966 L 58.7785,35.8167 L 59.5518,38.1966 z
M 60.803,-38.6031 L 60.0297,-40.983 L 62.0541,-39.5121 L 62.8274,-37.1323 z
M 60.803,-5.97934 L 60.0297,-8.35921 L 62.0541,-6.88837 L 62.8274,-4.5085 z
M 62.0541,-22.2912 L 60.0297,-20.8204 L 60.803,-23.2003 L 62.8274,-24.6711 z
M 60.8029,46.8071 L 60.0297,44.4272 L 62.0541,45.898 L 62.8274,48.2779 z
M 62.8274,-16.9697 L 60.8029,-18.4405 L 63.3053,-18.4405 L 65.3297,-16.9697 z
M 63.3053,-43.3629 L 60.8029,-43.3629 L 62.8274,-44.8337 L 65.3297,-44.8337 z
M 68.6054,-27.051 L 66.103,-27.051 L 68.1275,-28.5218 L 70.6298,-28.5218 z
M 70.6298,4.10196 L 68.6054,5.5728 L 69.3786,3.19292 L 71.4031,1.72208 z
M 72.6542,-2.12862 L 71.881,-4.5085 L 72.6542,-6.88837 L 73.4275,-4.50848 z
M 74.6787,4.10196 L 73.9054,1.72208 L 75.9299,3.19293 L 76.7031,5.5728 z
M 79.2055,-27.051 L 76.7031,-27.051 L 74.6787,-28.5218 L 77.181,-28.5218 z
M 77.181,-0.657776 L 74.6787,-0.657776 L 76.7031,-2.12862 L 79.2055,-2.12862 z
M -80.4566,-30.9017 L -81.2299,-28.5218 L -82.0032,-30.9017 L -81.2299,-33.2816 z
M -65.3297,-4.50848 L -67.3542,-5.97934 L -69.3786,-4.5085 L -68.6054,-6.88837 L -70.6298,-8.35921 L -68.1275,-8.35921
 L -67.3542,-10.7391 L -69.3786,-12.2099 L -71.4031,-10.7391 L -70.6298,-13.119 L -68.6053,-14.5898 L -69.3786,-12.2099
 L -67.3542,-10.7391 L -65.3297,-12.2099 L -66.103,-14.5898 L -64.0786,-13.119 L -62.0541,-14.5898 L -62.8274,-12.2099
 L -60.803,-10.7391 L -63.3053,-10.7391 L -64.0786,-8.35921 L -66.103,-6.88837 z
M -60.803,-5.97934 L -62.8274,-4.5085 L -62.0541,-6.88837 L -60.0297,-8.35921 z
M -58.0052,-14.5898 L -58.7785,-12.2099 L -59.5518,-14.5898 L -58.7785,-16.9697 z
M -52.7052,-30.9017 L -53.4785,-28.5218 L -54.2517,-30.9017 L -53.4785,-33.2816 z
M -50.2028,66.9697 L -50.9761,64.5898 L -50.2028,62.2099 L -49.4296,64.5898 z
M -45.6761,68.4405 L -48.1784,68.4405 L -46.154,66.9697 L -43.6516,66.9697 z
M -38.3516,-22.2912 L -40.376,-20.8204 L -39.6027,-23.2003 L -37.5783,-24.6711 z
M -36.3271,-28.5218 L -37.1004,-30.9017 L -36.3271,-33.2816 L -35.5539,-30.9017 z
M -35.5538,21.8847 L -36.3271,24.2646 L -37.1004,21.8847 L -36.3271,19.5048 z
M -39.6027,34.3459 L -37.1004,34.3459 L -36.3271,31.966 L -35.5538,34.3459 L -33.0515,34.3459 L -35.0759,35.8167
 L -34.3027,38.1966 L -35.0759,40.5765 L -33.0515,42.0473 L -35.5538,42.0473 L -36.3271,44.4272 L -37.1004,42.0473
 L -39.6027,42.0473 L -37.5783,40.5765 L -38.3516,38.1966 L -37.5783,35.8167 z
M -9.34894,42.0473 L -11.8513,42.0473 L -9.82684,40.5765 L -7.32449,40.5765 z
M -4.52678,11.8034 L -5.30005,14.1833 L -6.07332,11.8034 L -5.30005,9.42351 z
M -6.55122,25.7354 L -4.52678,24.2646 L -2.02443,24.2646 L -4.04887,25.7354 z
M -11.8513,34.3459 L -9.34894,34.3459 L -8.57567,31.966 L -10.6001,30.4952 L -12.6246,31.966 L -11.8513,29.5861
 L -13.8757,28.1153 L -15.9002,29.5861 L -15.1269,31.966 L -17.1513,30.4952 L -19.1758,31.966 L -18.4025,34.3459
 L -15.9002,34.3459 L -17.9246,35.8167 L -17.1513,38.1966 L -19.1758,36.7258 L -21.2002,38.1966 L -20.427,35.8167
 L -22.4514,34.3459 L -24.4758,35.8167 L -23.7026,38.1966 L -25.727,36.7258 L -27.7514,38.1966 L -26.9782,40.5765
 L -24.4758,40.5765 L -26.5003,42.0473 L -29.0026,42.0473 L -26.9782,40.5765 L -27.7514,38.1966 L -26.9782,35.8167
 L -29.0026,34.3459 L -26.5003,34.3459 L -25.727,31.966 L -27.7514,30.4952 L -29.7759,31.966 L -29.0026,29.5861
 L -31.0271,28.1153 L -31.8003,25.7354 L -34.3027,25.7354 L -32.2782,24.2646 L -29.7759,24.2646 L -31.8003,25.7354
 L -31.0271,28.1153 L -28.5247,28.1153 L -27.7514,25.7354 L -26.9782,28.1153 L -24.4758,28.1153 L -23.7026,25.7354
 L -25.727,24.2646 L -23.2247,24.2646 L -22.4514,21.8847 L -24.4758,20.4139 L -26.5003,21.8847 L -25.727,19.5048
 L -27.7514,18.034 L -29.7759,19.5048 L -29.0026,21.8847 L -31.0271,20.4139 L -33.0515,21.8847 L -32.2782,19.5048
 L -34.3027,18.034 L -31.8003,18.034 L -31.0271,15.6541 L -33.0515,14.1833 L -35.0759,15.6541 L -34.3027,13.2742
 L -32.2782,11.8034 L -33.0515,14.1833 L -31.0271,15.6541 L -29.0026,14.1833 L -29.7759,11.8034 L -27.7514,13.2742
 L -25.727,11.8034 L -26.5003,14.1833 L -24.4758,15.6541 L -26.9782,15.6541 L -27.7514,18.034 L -25.727,19.5048
 L -23.7026,18.034 L -24.4758,20.4138 L -22.4514,21.8847 L -20.4269,20.4138 L -21.2002,18.034 L -19.1758,19.5048
 L -17.1513,18.034 L -17.9246,15.6541 L -20.427,15.6541 L -18.4025,14.1833 L -19.1758,11.8034 L -17.1513,13.2742
 L -15.1269,11.8034 L -15.9002,14.1833 L -13.8757,15.6541 L -11.8513,14.1833 L -12.6245,11.8034 L -10.6001,13.2742
 L -8.57567,11.8034 L -9.34892,9.42351 L -11.8513,9.42351 L -9.82683,7.95267 L -7.32448,7.95267 L -9.34892,9.42351
 L -8.57565,11.8034 L -9.34892,14.1833 L -7.32448,15.6541 L -9.82683,15.6541 L -10.6001,18.034 L -8.57565,19.5048
 L -6.55122,18.034 L -7.32449,20.4138 L -5.30005,21.8847 L -7.8024,21.8847 L -8.57565,24.2646 L -9.34892,21.8847
 L -11.8513,21.8847 L -12.6245,24.2646 L -10.6001,25.7354 L -13.1024,25.7354 L -13.8757,28.1153 L -11.8513,29.5861
 L -9.82683,28.1153 L -10.6001,30.4951 L -8.57565,31.966 L -6.55122,30.4951 L -7.32449,28.1153 L -5.30005,29.5861
 L -3.2756,28.1153 L -4.04887,30.4951 L -2.02443,31.966 L -4.52678,31.966 L -5.30005,34.3459 L -3.2756,35.8167
 L -1.25116,34.3459 L -2.02443,36.7258 L -4.04887,38.1966 L -3.27562,35.8167 L -5.30005,34.3459 L -7.32449,35.8167
 L -6.55122,38.1966 L -8.57567,36.7258 L -10.6001,38.1966 L -9.82684,35.8167 z
M 0.773254,28.1153 L 0,30.4951 L -0.773254,28.1153 L 0,25.7354 z
M 3.2756,20.4138 L 1.25116,21.8847 L 2.02443,19.5048 L 4.04887,18.034 z
M -3.2756,15.6541 L -1.25116,14.1833 L -2.02443,11.8034 L -1.25116,9.42351 L -3.2756,7.95267 L -0.773254,7.95267
 L 0,5.5728 L 0.773254,7.95267 L 3.2756,7.95267 L 1.25116,9.42351 L 2.02443,11.8034 L 1.25116,14.1833
 L 3.2756,15.6541 L 0.773254,15.6541 L 0,18.034 L -0.773254,15.6541 z
M 6.55122,-14.5898 L 8.57567,-13.119 L 10.6001,-14.5898 L 9.82683,-12.2099 L 11.8513,-10.7391 L 9.34892,-10.7391
 L 8.57565,-8.35921 L 6.55122,-6.88837 L 7.32449,-4.50848 L 5.30005,-5.97932 L 3.2756,-4.50848 L 4.04887,-6.88837
 L 2.02443,-8.35921 L 4.52678,-8.35921 L 5.30005,-10.7391 L 7.32449,-12.2099 z
M 11.8513,46.8071 L 9.82684,48.2779 L 10.6001,45.898 L 12.6246,44.4272 z
M 12.6245,-0.657761 L 11.8513,1.72209 L 13.8757,3.19293 L 15.9002,1.72208 L 15.1269,4.10196 L 17.1513,5.5728
 L 14.649,5.5728 L 13.8757,7.95267 L 13.1024,5.5728 L 10.6001,5.5728 L 8.57565,4.10196 L 6.55122,5.5728
 L 7.32449,3.19293 L 5.30005,1.72208 L 4.52678,-0.657761 L 2.02443,-0.657761 L 4.04887,-2.12862 L 6.55122,-2.12862
 L 4.52678,-0.657776 L 5.30005,1.72208 L 7.8024,1.72208 L 8.57565,-0.657776 L 9.34892,1.72208 L 11.8513,1.72208
 L 12.6245,-0.657761 L 10.6001,-2.12862 L 13.1024,-2.12862 L 15.1269,-0.657761 z
M 31.8003,25.7354 L 31.0271,28.1153 L 29.0026,29.5861 L 29.7759,31.966 L 27.7514,30.4952 L 25.727,31.966
 L 26.5003,34.3459 L 29.0026,34.3459 L 26.9782,35.8167 L 27.7514,38.1966 L 26.9782,40.5765 L 29.0026,42.0473
 L 26.5003,42.0473 L 24.4758,40.5765 L 26.9782,40.5765 L 27.7514,38.1966 L 25.727,36.7258 L 23.7026,38.1966
 L 24.4758,35.8167 L 22.4514,34.3459 L 20.427,35.8167 L 21.2002,38.1966 L 19.1758,36.7258 L 17.1513,38.1966
 L 17.9246,35.8167 L 15.9002,34.3459 L 18.4025,34.3459 L 19.1758,31.966 L 17.1513,30.4952 L 15.1269,31.966
 L 15.9002,29.5861 L 13.8757,28.1153 L 11.8513,29.5861 L 12.6246,31.966 L 10.6001,30.4952 L 8.57567,31.966
 L 9.34894,34.3459 L 11.8513,34.3459 L 9.82684,35.8167 L 10.6001,38.1966 L 8.57567,36.7258 L 6.55122,38.1966
 L 7.32449,35.8167 L 5.30005,34.3459 L 3.27562,35.8167 L 4.04887,38.1966 L 2.02443,36.7258 L 1.25116,34.3459
 L 3.2756,35.8167 L 5.30005,34.3459 L 4.52678,31.966 L 2.02443,31.966 L 4.04887,30.4951 L 3.2756,28.1153
 L 5.30005,29.5861 L 7.32449,28.1153 L 6.55122,30.4951 L 8.57565,31.966 L 10.6001,30.4951 L 9.82683,28.1153
 L 11.8513,29.5861 L 13.8757,28.1153 L 13.1024,25.7354 L 10.6001,25.7354 L 12.6245,24.2646 L 11.8513,21.8847
 L 9.34892,21.8847 L 8.57565,24.2646 L 7.8024,21.8847 L 5.30005,21.8847 L 7.32449,20.4138 L 6.55122,18.034
 L 8.57565,19.5048 L 10.6001,18.034 L 9.82683,15.6541 L 7.32448,15.6541 L 9.34892,14.1833 L 8.57565,11.8034
 L 9.34892,9.42351 L 7.32448,7.95267 L 9.82683,7.95267 L 11.8513,9.42351 L 9.34892,9.42351 L 8.57567,11.8034
 L 10.6001,13.2742 L 12.6245,11.8034 L 11.8513,14.1833 L 13.8757,15.6541 L 15.9002,14.1833 L 15.1269,11.8034
 L 17.1513,13.2742 L 19.1758,11.8034 L 18.4025,14.1833 L 20.427,15.6541 L 17.9246,15.6541 L 17.1513,18.034
 L 19.1758,19.5048 L 21.2002,18.034 L 20.4269,20.4138 L 22.4514,21.8847 L 24.4758,20.4138 L 23.7026,18.034
 L 25.727,19.5048 L 27.7514,18.034 L 26.9782,15.6541 L 24.4758,15.6541 L 26.5003,14.1833 L 25.727,11.8034
 L 27.7514,13.2742 L 29.7759,11.8034 L 29.0026,14.1833 L 31.0271,15.6541 L 33.0515,14.1833 L 32.2782,11.8034
 L 34.3027,13.2742 L 35.0759,15.6541 L 33.0515,14.1833 L 31.0271,15.6541 L 31.8003,18.034 L 34.3027,18.034
 L 32.2782,19.5048 L 33.0515,21.8847 L 31.0271,20.4139 L 29.0026,21.8847 L 29.7759,19.5048 L 27.7514,18.034
 L 25.727,19.5048 L 26.5003,21.8847 L 24.4758,20.4139 L 22.4514,21.8847 L 23.2247,24.2646 L 25.727,24.2646
 L 23.7026,25.7354 L 24.4758,28.1153 L 26.9782,28.1153 L 27.7514,25.7354 L 28.5247,28.1153 L 31.0271,28.1153
 L 31.8003,25.7354 L 29.7759,24.2646 L 32.2782,24.2646 L 34.3027,25.7354 z
M 37.1004,-30.9017 L 36.3271,-28.5218 L 35.5539,-30.9017 L 36.3271,-33.2816 z
M 35.5538,9.42352 L 33.0515,9.42352 L 35.0759,7.95267 L 37.5783,7.95267 z
M 37.1004,21.8847 L 36.3271,24.2646 L 35.5538,21.8847 L 36.3271,19.5048 z
M 40.376,44.4272 L 39.6027,46.8071 L 37.5783,48.2779 L 38.3516,45.898 z
M 33.0515,42.0473 L 35.0759,40.5765 L 34.3027,38.1966 L 35.0759,35.8167 L 33.0515,34.3459 L 35.5538,34.3459
 L 36.3271,31.966 L 37.1004,34.3459 L 39.6027,34.3459 L 37.5783,35.8167 L 38.3516,38.1966 L 37.5783,40.5765
 L 39.6027,42.0473 L 37.1004,42.0473 L 36.3271,44.4272 L 35.5538,42.0473 z
M 40.8539,25.7354 L 38.3516,25.7354 L 40.376,24.2646 L 42.8783,24.2646 z
M 50.9761,64.5898 L 50.2028,66.9697 L 49.4296,64.5898 L 50.2028,62.2099 z
M 59.5518,-14.5898 L 58.7785,-12.2099 L 58.0052,-14.5898 L 58.7785,-16.9697 z
M 69.3786,-12.2099 L 67.3542,-10.7391 L 68.1275,-8.35921 L 70.6298,-8.35921 L 68.6054,-6.88837 L 69.3786,-4.5085
 L 67.3542,-5.97934 L 65.3297,-4.50848 L 66.103,-6.88837 L 64.0786,-8.35921 L 63.3053,-10.7391 L 60.803,-10.7391
 L 62.8274,-12.2099 L 62.0541,-14.5898 L 64.0786,-13.119 L 66.103,-14.5898 L 65.3297,-12.2099 L 67.3542,-10.7391
 L 69.3786,-12.2099 L 68.6053,-14.5898 L 70.6298,-13.119 L 71.4031,-10.7391 z
M 64.0786,-33.2816 L 64.8518,-30.9017 L 64.0786,-28.5218 L 63.3053,-30.9017 z
M 68.1275,-0.657776 L 66.103,-2.12862 L 68.6054,-2.12862 L 70.6298,-0.657776 z
M 81.2299,-28.5218 L 80.4566,-30.9017 L 81.2299,-33.2816 L 82.0032,-30.9017 z
M 79.2055,-22.2912 L 77.181,-20.8204 L 77.9543,-23.2003 L 79.9787,-24.6711 z
M 2.02443,-93.7694 L 4.52678,-93.7694 L 5.30005,-96.1493 L 3.2756,-97.6201 L 1.25116,-96.1493 L 2.02443,-98.5291
 L 0,-100 L -2.02443,-98.5291 L -1.25116,-96.1493 L -3.2756,-97.6201 L -5.30005,-96.1493 L -4.52678,-93.7694
 L -2.02443,-93.7694 L -4.04887,-92.2986 L -3.2756,-89.9187 L -5.30005,-91.3895 L -7.32449,-89.9187 L -6.55122,-92.2986
 L -8.57565,-93.7694 L -10.6001,-92.2986 L -9.82683,-89.9187 L -11.8513,-91.3895 L -13.8757,-89.9187 L -13.1024,-87.5388
 L -10.6001,-87.5388 L -12.6245,-86.068 L -11.8513,-83.6881 L -9.34892,-83.6881 L -8.57565,-86.068 L -7.8024,-83.6881
 L -5.30005,-83.6881 L -7.32449,-82.2173 L -6.55122,-79.8374 L -8.57565,-81.3082 L -10.6001,-79.8374 L -9.82683,-77.4575
 L -7.32448,-77.4575 L -9.34892,-75.9867 L -8.57565,-73.6068 L -6.07332,-73.6068 L -5.30005,-75.9867 L -4.52678,-73.6068
 L -2.02443,-73.6068 L -1.25116,-75.9867 L -3.2756,-77.4575 L -0.773254,-77.4575 L 0,-79.8374 L -2.02443,-81.3082
 L -4.04887,-79.8374 L -3.2756,-82.2173 L -1.25116,-83.6881 L -2.02443,-81.3082 L 0,-79.8374 L 2.02443,-81.3082
 L 1.25116,-83.6881 L 3.2756,-82.2173 L 4.04887,-79.8374 L 2.02443,-81.3082 L 0,-79.8374 L 0.773254,-77.4575
 L 3.2756,-77.4575 L 1.25116,-75.9867 L 2.02443,-73.6068 L 4.52678,-73.6068 L 5.30005,-75.9867 L 6.07332,-73.6068
 L 8.57565,-73.6068 L 9.34892,-75.9867 L 7.32448,-77.4575 L 9.82683,-77.4575 L 10.6001,-79.8374 L 8.57565,-81.3082
 L 6.55122,-79.8374 L 7.32449,-82.2173 L 5.30005,-83.6881 L 7.8024,-83.6881 L 8.57565,-86.068 L 9.34892,-83.6881
 L 11.8513,-83.6881 L 12.6245,-86.068 L 10.6001,-87.5388 L 13.1024,-87.5388 L 13.8757,-89.9187 L 11.8513,-91.3895
 L 9.82683,-89.9187 L 10.6001,-92.2986 L 8.57565,-93.7694 L 6.55122,-92.2986 L 7.32449,-89.9187 L 5.30005,-91.3895
 L 3.2756,-89.9187 L 4.04887,-92.2986 z
M -4.52678,-86.068 L -6.55122,-87.5388 L -4.04887,-87.5388 L -2.02443,-86.068 z
M 0.773254,-89.9187 L 0,-87.5388 L -0.773254,-89.9187 L 0,-92.2986 z
M 4.52678,-86.068 L 2.02443,-86.068 L 4.04887,-87.5388 L 6.55122,-87.5388 z
M 8.57565,-61.1456 L 7.8024,-63.5255 L 5.30005,-63.5255 L 7.32449,-64.9963 L 6.55122,-67.3762 L 8.57565,-65.9053
 L 10.6001,-67.3762 L 13.1024,-67.3762 L 13.8757,-69.7561 L 14.649,-67.3762 L 17.1513,-67.3762 L 19.1758,-65.9054
 L 21.2002,-67.3762 L 20.427,-64.9963 L 22.4514,-63.5255 L 23.2247,-61.1456 L 25.727,-61.1456 L 23.7026,-59.6748
 L 24.4758,-57.2949 L 26.9782,-57.2949 L 27.7514,-59.6748 L 28.5247,-57.2949 L 31.0271,-57.2949 L 31.8003,-59.6748
 L 29.7759,-61.1456 L 32.2782,-61.1456 L 33.0515,-63.5255 L 31.0271,-64.9963 L 29.0026,-63.5255 L 29.7759,-65.9053
 L 27.7514,-67.3762 L 26.9782,-69.7561 L 24.4758,-69.7561 L 26.5003,-71.2269 L 29.0026,-71.2269 L 26.9782,-69.7561
 L 27.7514,-67.3762 L 30.2538,-67.3762 L 31.0271,-69.7561 L 31.8003,-67.3762 L 34.3027,-67.3762 L 35.0759,-69.7561
 L 33.0515,-71.2269 L 35.5538,-71.2269 L 36.3271,-73.6068 L 34.3027,-75.0776 L 32.2782,-73.6068 L 33.0515,-75.9867
 L 31.0271,-77.4575 L 29.0026,-75.9867 L 29.7759,-73.6068 L 27.7514,-75.0776 L 25.727,-73.6068 L 26.5003,-75.9867
 L 24.4758,-77.4575 L 26.9782,-77.4575 L 27.7514,-79.8374 L 25.727,-81.3082 L 23.7026,-79.8374 L 24.4758,-82.2172
 L 22.4514,-83.6881 L 20.4269,-82.2172 L 21.2002,-79.8374 L 19.1758,-81.3082 L 17.1513,-79.8374 L 17.9246,-77.4575
 L 20.427,-77.4575 L 18.4025,-75.9867 L 19.1758,-73.6068 L 17.1513,-75.0776 L 15.1269,-73.6068 L 15.9002,-75.9867
 L 13.8757,-77.4575 L 11.8513,-75.9867 L 12.6245,-73.6068 L 10.6001,-75.0776 L 8.57567,-73.6068 L 9.34892,-71.2269
 L 11.8513,-71.2269 L 9.82683,-69.7561 L 7.32448,-69.7561 L 9.34892,-71.2269 L 8.57565,-73.6068 L 6.07332,-73.6068
 L 5.30005,-71.2269 L 4.52678,-73.6068 L 2.02443,-73.6068 L 1.25116,-71.2269 L 3.2756,-69.7561 L 0.773254,-69.7561
 L 0,-67.3762 L -0.773254,-69.7561 L -3.2756,-69.7561 L -1.25116,-71.2269 L -2.02443,-73.6068 L -4.52678,-73.6068
 L -5.30005,-71.2269 L -6.07332,-73.6068 L -8.57565,-73.6068 L -9.34892,-71.2269 L -7.32448,-69.7561 L -9.82683,-69.7561
 L -11.8513,-71.2269 L -9.34892,-71.2269 L -8.57567,-73.6068 L -10.6001,-75.0776 L -12.6245,-73.6068 L -11.8513,-75.9867
 L -13.8757,-77.4575 L -15.9002,-75.9867 L -15.1269,-73.6068 L -17.1513,-75.0776 L -19.1758,-73.6068 L -18.4025,-75.9867
 L -20.427,-77.4575 L -17.9246,-77.4575 L -17.1513,-79.8374 L -19.1758,-81.3082 L -21.2002,-79.8374 L -20.4269,-82.2172
 L -22.4514,-83.6881 L -24.4758,-82.2172 L -23.7026,-79.8374 L -25.727,-81.3082 L -27.7514,-79.8374 L -26.9782,-77.4575
 L -24.4758,-77.4575 L -26.5003,-75.9867 L -25.727,-73.6068 L -27.7514,-75.0776 L -29.7759,-73.6068 L -29.0026,-75.9867
 L -31.0271,-77.4575 L -33.0515,-75.9867 L -32.2782,-73.6068 L -34.3027,-75.0776 L -36.3271,-73.6068 L -35.5538,-71.2269
 L -33.0515,-71.2269 L -35.0759,-69.7561 L -34.3027,-67.3762 L -31.8003,-67.3762 L -31.0271,-69.7561 L -30.2538,-67.3762
 L -27.7514,-67.3762 L -26.9782,-69.7561 L -29.0026,-71.2269 L -26.5003,-71.2269 L -24.4758,-69.7561 L -26.9782,-69.7561
 L -27.7514,-67.3762 L -29.7759,-65.9053 L -29.0026,-63.5255 L -31.0271,-64.9963 L -33.0515,-63.5255 L -32.2782,-61.1456
 L -29.7759,-61.1456 L -31.8003,-59.6748 L -31.0271,-57.2949 L -28.5247,-57.2949 L -27.7514,-59.6748 L -26.9782,-57.2949
 L -24.4758,-57.2949 L -23.7026,-59.6748 L -25.727,-61.1456 L -23.2247,-61.1456 L -22.4514,-63.5255 L -20.427,-64.9963
 L -21.2002,-67.3762 L -19.1758,-65.9054 L -17.1513,-67.3762 L -14.649,-67.3762 L -13.8757,-69.7561 L -13.1024,-67.3762
 L -10.6001,-67.3762 L -8.57565,-65.9053 L -6.55122,-67.3762 L -7.32449,-64.9963 L -5.30005,-63.5255 L -7.8024,-63.5255
 L -8.57565,-61.1456 L -9.34892,-63.5255 L -11.8513,-63.5255 L -13.8757,-64.9963 L -15.9002,-63.5255 L -15.1269,-65.9054
 L -17.1513,-67.3762 L -19.1758,-65.9053 L -18.4025,-63.5255 L -20.4269,-64.9963 L -22.4514,-63.5255 L -21.6781,-61.1456
 L -19.1758,-61.1456 L -21.2002,-59.6748 L -20.4269,-57.2949 L -17.9246,-57.2949 L -17.1513,-59.6748 L -16.3781,-57.2949
 L -13.8757,-57.2949 L -15.9002,-55.8241 L -15.1269,-53.4442 L -17.1513,-54.915 L -19.1758,-53.4442 L -18.4025,-51.0643
 L -15.9002,-51.0643 L -17.9246,-49.5935 L -17.1513,-47.2136 L -19.1758,-48.6844 L -21.2002,-47.2136 L -20.427,-49.5935
 L -22.4514,-51.0643 L -24.4758,-49.5935 L -23.7026,-47.2136 L -25.727,-48.6844 L -27.7514,-47.2136 L -26.9782,-44.8337
 L -24.4758,-44.8337 L -26.5003,-43.3629 L -25.727,-40.983 L -23.2247,-40.983 L -22.4514,-43.3629 L -21.6781,-40.983
 L -19.1758,-40.983 L -18.4025,-43.3629 L -20.4269,-44.8337 L -17.9246,-44.8337 L -15.9002,-43.3629 L -18.4025,-43.3629
 L -19.1758,-40.983 L -17.1513,-39.5122 L -15.1269,-40.983 L -15.9002,-38.6031 L -13.8757,-37.1323 L -11.8513,-38.6031
 L -12.6245,-40.983 L -10.6001,-39.5122 L -9.82683,-37.1323 L -11.8513,-38.6031 L -13.8757,-37.1323 L -13.1024,-34.7524
 L -10.6001,-34.7524 L -12.6245,-33.2816 L -11.8513,-30.9017 L -9.34892,-30.9017 L -8.57565,-33.2816 L -7.8024,-30.9017
 L -5.30005,-30.9017 L -4.52678,-33.2816 L -6.55122,-34.7524 L -4.04887,-34.7524 L -3.2756,-37.1323 L -5.30005,-38.6031
 L -7.32449,-37.1323 L -6.55122,-39.5122 L -8.57567,-40.983 L -9.34894,-43.3629 L -11.8513,-43.3629 L -9.82684,-44.8337
 L -7.32449,-44.8337 L -9.34892,-43.3629 L -8.57567,-40.983 L -6.07332,-40.983 L -5.30005,-43.3629 L -4.52678,-40.983
 L -2.02443,-40.983 L -1.25117,-43.3629 L -3.2756,-44.8337 L -0.773254,-44.8337 L 0,-47.2136 L 0.773254,-44.8337
 L 3.2756,-44.8337 L 1.25117,-43.3629 L 2.02443,-40.983 L 4.52678,-40.983 L 5.30005,-43.3629 L 6.07332,-40.983
 L 8.57567,-40.983 L 9.34892,-43.3629 L 7.32449,-44.8337 L 9.82683,-44.8337 L 11.8513,-43.3629 L 9.34894,-43.3629
 L 8.57567,-40.983 L 6.55122,-39.5122 L 7.32449,-37.1323 L 5.30005,-38.6031 L 3.2756,-37.1323 L 4.04887,-34.7524
 L 6.55122,-34.7524 L 4.52678,-33.2816 L 5.30005,-30.9017 L 7.8024,-30.9017 L 8.57565,-33.2816 L 9.34892,-30.9017
 L 11.8513,-30.9017 L 12.6245,-33.2816 L 10.6001,-34.7524 L 13.1024,-34.7524 L 13.8757,-37.1323 L 11.8513,-38.6031
 L 9.82683,-37.1323 L 10.6001,-39.5122 L 12.6245,-40.983 L 11.8513,-38.6031 L 13.8757,-37.1323 L 15.9002,-38.6031
 L 15.1269,-40.983 L 17.1513,-39.5122 L 19.1758,-40.983 L 18.4025,-43.3629 L 15.9002,-43.3629 L 17.9246,-44.8337
 L 20.4269,-44.8337 L 18.4025,-43.3629 L 19.1758,-40.983 L 21.6781,-40.983 L 22.4514,-43.3629 L 23.2247,-40.983
 L 25.727,-40.983 L 26.5003,-43.3629 L 24.4758,-44.8337 L 26.9782,-44.8337 L 27.7514,-47.2136 L 25.727,-48.6844
 L 23.7026,-47.2136 L 24.4758,-49.5935 L 22.4514,-51.0643 L 20.427,-49.5935 L 21.2002,-47.2136 L 19.1758,-48.6844
 L 17.1513,-47.2136 L 17.9246,-49.5935 L 15.9002,-51.0643 L 18.4025,-51.0643 L 19.1758,-53.4442 L 17.1513,-54.915
 L 15.1269,-53.4442 L 15.9002,-55.8241 L 13.8757,-57.2949 L 16.3781,-57.2949 L 17.1513,-59.6748 L 17.9246,-57.2949
 L 20.4269,-57.2949 L 21.2002,-59.6748 L 19.1758,-61.1456 L 21.6781,-61.1456 L 22.4514,-63.5255 L 20.4269,-64.9963
 L 18.4025,-63.5255 L 19.1758,-65.9053 L 17.1513,-67.3762 L 15.1269,-65.9054 L 15.9002,-63.5255 L 13.8757,-64.9963
 L 11.8513,-63.5255 L 9.34892,-63.5255 z
M -10.6001,-54.915 L -12.6245,-53.4442 L -11.8513,-55.8241 L -9.82683,-57.2949 z
M -24.4758,-64.9963 L -26.5003,-63.5255 L -25.727,-65.9053 L -23.7026,-67.3762 z
M -22.4514,-71.2269 L -23.2247,-73.6068 L -22.4514,-75.9867 L -21.6781,-73.6068 z
M -17.9246,-69.7561 L -20.427,-69.7561 L -18.4025,-71.2269 L -15.9002,-71.2269 z
M -13.1024,-59.6748 L -15.1269,-61.1456 L -12.6245,-61.1456 L -10.6001,-59.6748 z
M -13.8757,-44.8337 L -14.649,-47.2136 L -13.8757,-49.5935 L -13.1024,-47.2136 z
M -3.2756,-64.9963 L -4.04887,-67.3762 L -2.02443,-65.9053 L -1.25116,-63.5255 z
M 0,-54.915 L -0.773254,-57.2949 L 0,-59.6748 L 0.773254,-57.2949 z
M 3.2756,-64.9963 L 1.25116,-63.5255 L 2.02443,-65.9053 L 4.04887,-67.3762 z
M 7.32449,-57.2949 L 6.55122,-54.915 L 8.57565,-53.4442 L 9.34892,-51.0643 L 11.8513,-51.0643 L 9.82683,-49.5935
 L 10.6001,-47.2136 L 8.57567,-48.6844 L 6.55122,-47.2136 L 7.32449,-49.5935 L 5.30005,-51.0643 L 3.2756,-49.5935
 L 4.04887,-47.2136 L 2.02443,-48.6844 L 1.25116,-51.0643 L 3.2756,-49.5935 L 5.30005,-51.0643 L 4.52678,-53.4442
 L 2.02443,-53.4442 L 4.04887,-54.915 L 3.2756,-57.2949 L 5.30005,-55.8241 z
M 4.04887,-59.6748 L 2.02443,-61.1456 L 4.52678,-61.1456 L 6.55122,-59.6748 z
M 10.6001,-54.915 L 9.82683,-57.2949 L 11.8513,-55.8241 L 12.6245,-53.4442 z
M 13.1024,-59.6748 L 10.6001,-59.6748 L 12.6245,-61.1456 L 15.1269,-61.1456 z
M 13.8757,-44.8337 L 13.1024,-47.2136 L 13.8757,-49.5935 L 14.649,-47.2136 z
M 17.9246,-69.7561 L 15.9002,-71.2269 L 18.4025,-71.2269 L 20.427,-69.7561 z
M 22.4514,-71.2269 L 21.6781,-73.6068 L 22.4514,-75.9867 L 23.2247,-73.6068 z
M 24.4758,-64.9963 L 23.7026,-67.3762 L 25.727,-65.9053 L 26.5003,-63.5255 z
M -7.32449,-57.2949 L -5.30005,-55.8241 L -3.2756,-57.2949 L -4.04887,-54.915 L -2.02443,-53.4442 L -4.52678,-53.4442
 L -5.30005,-51.0643 L -3.2756,-49.5935 L -1.25116,-51.0643 L -2.02443,-48.6844 L -4.04887,-47.2136 L -3.2756,-49.5935
 L -5.30005,-51.0643 L -7.32449,-49.5935 L -6.55122,-47.2136 L -8.57567,-48.6844 L -10.6001,-47.2136 L -9.82683,-49.5935
 L -11.8513,-51.0643 L -9.34892,-51.0643 L -8.57565,-53.4442 L -6.55122,-54.915 z
M -4.52678,-61.1456 L -2.02443,-61.1456 L -4.04887,-59.6748 L -6.55122,-59.6748 z
" stroke="blue" fill="blue" stroke-width="none"/>
</svg>
