<?xml version="1.0" standalone="no"?>
<!DOCTYPE svg PUBLIC "-//W3C//DTD SVG 1.1//EN" "http://www.w3.org/Graphics/SVG/1.1/DTD/svg11.dtd">
<svg width="192mm" height="181mm" viewBox="-96 -100 192 181" xmlns="http://www.w3.org/2000/svg" version="1.1">
<title>OpenSCAD Model</title>
<path d="
M -36.3271,-40.983 L -50.2029,-30.9017 L -44.9028,-47.2136 L -58.7785,-57.2949 L -72.6542,-47.2136 L -67.3542,-30.9017
 L -81.2299,-40.983 L -95.1056,-30.9017 L -89.8056,-14.5898 L -72.6542,-14.5898 L -86.53,-4.50848 L -81.2299,11.8034
 L -64.0786,11.8034 L -58.7785,-4.5085 L -53.4785,11.8034 L -36.3271,11.8034 L -31.0271,-4.5085 L -44.9028,-14.5898
 L -27.7514,-14.5898 L -22.4514,-30.9017 z
M -13.8757,28.1153 L -27.7514,38.1966 L -22.4514,21.8847 L -36.3271,11.8034 L -50.2029,21.8847 L -44.9028,38.1966
 L -58.7785,28.1153 L -72.6542,38.1966 L -67.3542,54.5085 L -50.2028,54.5085 L -64.0786,64.5898 L -58.7785,80.9017
 L -41.6272,80.9017 L -36.3271,64.5898 L -31.0271,80.9017 L -13.8757,80.9017 L -8.57567,64.5898 L -22.4514,54.5085
 L -5.30005,54.5085 L 0,38.1966 z
M 22.4514,-83.6881 L 8.57565,-73.6068 L 13.8757,-89.9187 L 0,-100 L -13.8757,-89.9187 L -8.57565,-73.6068
 L -22.4514,-83.6881 L -36.3271,-73.6068 L -31.0271,-57.2949 L -13.8757,-57.2949 L -27.7514,-47.2136 L -22.4514,-30.9017
 L -5.30005,-30.9017 L 0,-47.2136 L 5.30005,-30.9017 L 22.4514,-30.9017 L 27.7514,-47.2136 L 13.8757,-57.2949
 L 31.0271,-57.2949 L 36.3271,-73.6068 z
M 31.0271,-4.50848 L 13.8757,-4.50848 L 27.7514,-14.5898 L 22.4514,-30.9017 L 5.30005,-30.9017 L 0,-14.5898
 L -5.30005,-30.9017 L -22.4514,-30.9017 L -27.7514,-14.5898 L -13.8757,-4.50848 L -31.0271,-4.50848 L -36.3271,11.8034
 L -22.4514,21.8847 L -8.57565,11.8034 L -13.8757,28.1153 L 0,38.1966 L 13.8757,28.1153 L 8.57565,11.8034
 L 22.4514,21.8847 L 36.3271,11.8034 z
M 58.7785,28.1153 L 44.9028,38.1966 L 50.2029,21.8847 L 36.3271,11.8034 L 22.4514,21.8847 L 27.7514,38.1966
 L 13.8757,28.1153 L 0,38.1966 L 5.30005,54.5085 L 22.4514,54.5085 L 8.57567,64.5898 L 13.8757,80.9017
 L 31.0271,80.9017 L 36.3271,64.5898 L 41.6272,80.9017 L 58.7785,80.9017 L 64.0786,64.5898 L 50.2028,54.5085
 L 67.3542,54.5085 L 72.6542,38.1966 z
M 81.2299,-40.983 L 67.3542,-30.9017 L 72.6542,-47.2136 L 58.7785,-57.2949 L 44.9028,-47.2136 L 50.2029,-30.9017
 L 36.3271,-40.983 L 22.4514,-30.9017 L 27.7514,-14.5898 L 44.9028,-14.5898 L 31.0271,-4.5085 L 36.3271,11.8034
 L 53.4785,11.8034 L 58.7785,-4.5085 L 64.0786,11.8034 L 81.2299,11.8034 L 86.53,-4.50848 L 72.6542,-14.5898
 L 89.8056,-14.5898 L 95.1056,-30.9017 z
" stroke="black" fill="blue" stroke-width="none"/>
</svg>
