<?xml version="1.0" standalone="no"?>
<!DOCTYPE svg PUBLIC "-//W3C//DTD SVG 1.1//EN" "http://www.w3.org/Graphics/SVG/1.1/DTD/svg11.dtd">
<svg width="192mm" height="181mm" viewBox="-96 -100 192 181" xmlns="http://www.w3.org/2000/svg" version="1.1">
<title>OpenSCAD Model</title>
<path d="
M 69.3305,48.4259 L 65.3438,48.4259 L 64.0952,44.583 L 67.3642,42.208 L 70.5895,44.5513 L 69.3575,40.7597
 L 72.5828,38.4164 L 68.5961,38.4164 L 67.3642,34.6248 L 66.1322,38.4164 L 62.0916,38.4164 L 60.8429,34.5735
 L 64.0682,32.2302 L 60.0815,32.2302 L 58.8496,28.4386 L 57.6176,32.2302 L 53.6309,32.2302 L 56.8562,34.5735
 L 55.6076,38.4164 L 51.5669,38.4164 L 50.3349,34.6248 L 49.103,38.4164 L 44.9742,38.4164 L 43.6983,34.4897
 L 46.9236,32.1464 L 42.937,32.1464 L 41.6883,28.3035 L 44.9573,25.9284 L 48.1826,28.2717 L 46.9506,24.4802
 L 50.1759,22.1368 L 46.1893,22.1368 L 44.9573,18.3453 L 43.7253,22.1368 L 39.6847,22.1368 L 38.436,18.2939
 L 41.6613,15.9506 L 37.6746,15.9506 L 36.3271,11.8034 L 39.8549,9.24026 L 43.0802,11.5836 L 41.8483,7.79202
 L 45.1173,5.41696 L 48.3863,7.79202 L 47.1543,11.5836 L 50.3796,9.24026 L 53.6049,11.5836 L 52.3729,7.79202
 L 55.5982,5.4487 L 51.6116,5.4487 L 50.3629,1.60579 L 53.6319,-0.769257 L 56.8572,1.57405 L 55.6252,-2.2175
 L 58.9655,-4.64435 L 62.3058,-2.2175 L 61.0738,1.57405 L 64.2991,-0.769257 L 67.5681,1.60579 L 66.3194,5.4487
 L 62.3328,5.4487 L 65.5581,7.79201 L 64.3261,11.5836 L 67.5514,9.24026 L 70.7767,11.5836 L 69.5447,7.79202
 L 72.8137,5.41696 L 76.0827,7.79202 L 74.8507,11.5836 L 78.076,9.24026 L 81.3013,11.5836 L 80.0694,7.79202
 L 83.2947,5.44872 L 79.308,5.44872 L 78.0593,1.60579 L 81.3283,-0.769257 L 84.5536,1.57405 L 83.3217,-2.2175
 L 86.547,-4.56081 L 82.5603,-4.56081 L 81.3283,-8.35237 L 80.0964,-4.56081 L 76.0557,-4.56081 L 74.8071,-8.40373
 L 78.0323,-10.747 L 74.0457,-10.747 L 72.7698,-14.6738 L 76.1101,-17.1006 L 79.3354,-14.7573 L 78.1034,-18.5488
 L 81.3724,-20.9239 L 84.6414,-18.5488 L 83.4094,-14.7573 L 86.6347,-17.1006 L 89.86,-14.7573 L 88.6281,-18.5488
 L 91.8533,-20.8922 L 87.8667,-20.8922 L 86.618,-24.7351 L 89.887,-27.1101 L 93.1123,-24.7668 L 91.8803,-28.5584
 L 95.1056,-30.9017 L 91.119,-30.9017 L 89.887,-34.6933 L 88.6551,-30.9017 L 84.6144,-30.9017 L 83.3657,-34.7446
 L 86.591,-37.0879 L 82.6043,-37.0879 L 81.3724,-40.8795 L 80.1404,-37.0879 L 76.1537,-37.0879 L 79.379,-34.7446
 L 78.1304,-30.9017 L 74.0897,-30.9017 L 72.8578,-34.6933 L 71.6258,-30.9017 L 67.497,-30.9017 L 66.2212,-34.8284
 L 69.4465,-37.1717 L 65.4598,-37.1717 L 64.2111,-41.0146 L 67.4801,-43.3897 L 70.7054,-41.0464 L 69.4734,-44.8379
 L 72.6987,-47.1812 L 68.7121,-47.1812 L 67.4801,-50.9728 L 66.2482,-47.1812 L 62.2075,-47.1812 L 60.9588,-51.0242
 L 64.1841,-53.3675 L 60.1974,-53.3675 L 58.9655,-57.159 L 57.7335,-53.3675 L 53.7469,-53.3675 L 56.9722,-51.0242
 L 55.7235,-47.1812 L 51.6828,-47.1812 L 50.4509,-50.9728 L 49.2189,-47.1812 L 45.2322,-47.1812 L 48.4576,-44.8379
 L 47.2256,-41.0464 L 50.4509,-43.3897 L 53.7199,-41.0146 L 52.4712,-37.1717 L 48.4845,-37.1717 L 51.7098,-34.8284
 L 50.434,-30.9017 L 46.3052,-30.9017 L 45.0732,-34.6933 L 43.8413,-30.9017 L 39.8006,-30.9017 L 38.552,-34.7446
 L 41.7772,-37.0879 L 37.7906,-37.0879 L 36.5586,-40.8795 L 35.3267,-37.0879 L 31.34,-37.0879 L 34.5653,-34.7446
 L 33.3166,-30.9017 L 29.2759,-30.9017 L 28.044,-34.6933 L 26.812,-30.9017 L 22.4514,-30.9017 L 21.1039,-35.0489
 L 24.3292,-37.3922 L 20.3425,-37.3922 L 19.0939,-41.2352 L 22.3628,-43.6102 L 25.5881,-41.2669 L 24.3562,-45.0585
 L 27.5815,-47.4018 L 23.5948,-47.4018 L 22.3628,-51.1933 L 21.1309,-47.4018 L 17.0902,-47.4018 L 15.8416,-51.2447
 L 19.0668,-53.588 L 15.0802,-53.588 L 13.8043,-57.5147 L 17.1446,-59.9415 L 20.3699,-57.5982 L 19.1379,-61.3898
 L 22.4069,-63.7648 L 25.6759,-61.3898 L 24.4439,-57.5982 L 27.6692,-59.9415 L 30.8945,-57.5982 L 29.6626,-61.3898
 L 32.8878,-63.7331 L 28.9012,-63.7331 L 27.6525,-67.576 L 30.9215,-69.9511 L 34.1468,-67.6078 L 32.9148,-71.3993
 L 36.1401,-73.7426 L 32.1535,-73.7426 L 30.9215,-77.5342 L 29.6895,-73.7426 L 25.6489,-73.7426 L 24.4002,-77.5856
 L 27.6255,-79.9289 L 23.6388,-79.9289 L 22.4069,-83.7204 L 21.1749,-79.9289 L 17.1882,-79.9289 L 20.4135,-77.5856
 L 19.1649,-73.7426 L 15.1242,-73.7426 L 13.8923,-77.5342 L 12.6603,-73.7426 L 8.53154,-73.7426 L 7.25566,-77.6694
 L 10.481,-80.0127 L 6.49428,-80.0126 L 5.24564,-83.8556 L 8.5146,-86.2306 L 11.7399,-83.8873 L 10.5079,-87.6789
 L 13.7332,-90.0222 L 9.74657,-90.0222 L 8.5146,-93.8138 L 7.28265,-90.0222 L 3.24199,-90.0222 L 1.99335,-93.8651
 L 5.21863,-96.2084 L 1.23196,-96.2084 L 0,-100 L -1.23196,-96.2084 L -5.21863,-96.2084 L -1.99335,-93.8651
 L -3.24199,-90.0222 L -7.28265,-90.0222 L -8.5146,-93.8138 L -9.74657,-90.0222 L -13.7332,-90.0222 L -10.5079,-87.6789
 L -11.7399,-83.8873 L -8.5146,-86.2306 L -5.24564,-83.8556 L -6.49428,-80.0126 L -10.481,-80.0127 L -7.25566,-77.6694
 L -8.53154,-73.7426 L -12.6603,-73.7426 L -13.8923,-77.5342 L -15.1242,-73.7426 L -19.1649,-73.7426 L -20.4135,-77.5856
 L -17.1882,-79.9289 L -21.1749,-79.9289 L -22.4069,-83.7204 L -23.6388,-79.9289 L -27.6255,-79.9289 L -24.4002,-77.5856
 L -25.6489,-73.7426 L -29.6895,-73.7426 L -30.9215,-77.5342 L -32.1535,-73.7426 L -36.1401,-73.7426 L -32.9148,-71.3993
 L -34.1468,-67.6078 L -30.9215,-69.9511 L -27.6525,-67.576 L -28.9012,-63.7331 L -32.8878,-63.7331 L -29.6626,-61.3898
 L -30.8945,-57.5982 L -27.6692,-59.9415 L -24.4439,-57.5982 L -25.6759,-61.3898 L -22.4069,-63.7648 L -19.1379,-61.3898
 L -20.3699,-57.5982 L -17.1446,-59.9415 L -13.8043,-57.5147 L -15.0802,-53.588 L -19.0668,-53.588 L -15.8416,-51.2447
 L -17.0902,-47.4017 L -21.1309,-47.4018 L -22.3628,-51.1933 L -23.5948,-47.4018 L -27.5815,-47.4018 L -24.3562,-45.0585
 L -25.5881,-41.2669 L -22.3628,-43.6102 L -19.0939,-41.2352 L -20.3425,-37.3922 L -24.3292,-37.3922 L -21.1039,-35.0489
 L -22.4514,-30.9017 L -26.812,-30.9017 L -28.044,-34.6933 L -29.2759,-30.9017 L -33.3166,-30.9017 L -34.5653,-34.7446
 L -31.34,-37.0879 L -35.3267,-37.0879 L -36.5586,-40.8795 L -37.7906,-37.0879 L -41.7772,-37.0879 L -38.552,-34.7446
 L -39.8006,-30.9017 L -43.8413,-30.9017 L -45.0732,-34.6933 L -46.3052,-30.9017 L -50.434,-30.9017 L -51.7098,-34.8284
 L -48.4845,-37.1717 L -52.4712,-37.1717 L -53.7199,-41.0146 L -50.4509,-43.3897 L -47.2256,-41.0464 L -48.4576,-44.8379
 L -45.2322,-47.1812 L -49.2189,-47.1812 L -50.4509,-50.9728 L -51.6828,-47.1812 L -55.7235,-47.1812 L -56.9722,-51.0242
 L -53.7469,-53.3675 L -57.7335,-53.3675 L -58.9655,-57.159 L -60.1974,-53.3675 L -64.1841,-53.3675 L -60.9588,-51.0242
 L -62.2075,-47.1812 L -66.2482,-47.1812 L -67.4801,-50.9728 L -68.7121,-47.1812 L -72.6987,-47.1812 L -69.4734,-44.8379
 L -70.7054,-41.0464 L -67.4801,-43.3897 L -64.2111,-41.0146 L -65.4598,-37.1717 L -69.4465,-37.1717 L -66.2212,-34.8284
 L -67.497,-30.9017 L -71.6258,-30.9017 L -72.8578,-34.6933 L -74.0897,-30.9017 L -78.1304,-30.9017 L -79.379,-34.7446
 L -76.1537,-37.0879 L -80.1404,-37.0879 L -81.3724,-40.8795 L -82.6043,-37.0879 L -86.591,-37.0879 L -83.3657,-34.7446
 L -84.6144,-30.9017 L -88.6551,-30.9017 L -89.887,-34.6933 L -91.119,-30.9017 L -95.1056,-30.9017 L -91.8803,-28.5584
 L -93.1123,-24.7668 L -89.887,-27.1101 L -86.618,-24.7351 L -87.8667,-20.8922 L -91.8533,-20.8922 L -88.6281,-18.5488
 L -89.86,-14.7573 L -86.6347,-17.1006 L -83.4094,-14.7573 L -84.6414,-18.5488 L -81.3724,-20.9239 L -78.1034,-18.5488
 L -79.3354,-14.7573 L -76.1101,-17.1006 L -72.7698,-14.6738 L -74.0457,-10.747 L -78.0323,-10.747 L -74.8071,-8.40373
 L -76.0557,-4.56081 L -80.0964,-4.56081 L -81.3283,-8.35237 L -82.5603,-4.56081 L -86.547,-4.56081 L -83.3217,-2.2175
 L -84.5536,1.57405 L -81.3283,-0.769257 L -78.0593,1.60579 L -79.308,5.44872 L -83.2947,5.44872 L -80.0694,7.79202
 L -81.3013,11.5836 L -78.076,9.24026 L -74.8507,11.5836 L -76.0827,7.79202 L -72.8137,5.41696 L -69.5447,7.79202
 L -70.7767,11.5836 L -67.5514,9.24026 L -64.3261,11.5836 L -65.5581,7.79201 L -62.3328,5.4487 L -66.3194,5.4487
 L -67.5681,1.60579 L -64.2991,-0.769257 L -61.0738,1.57405 L -62.3058,-2.2175 L -58.9655,-4.64435 L -55.6252,-2.2175
 L -56.8572,1.57405 L -53.6319,-0.769257 L -50.3629,1.60579 L -51.6116,5.4487 L -55.5982,5.4487 L -52.3729,7.79202
 L -53.6049,11.5836 L -50.3796,9.24026 L -47.1543,11.5836 L -48.3863,7.79202 L -45.1173,5.41696 L -41.8483,7.79202
 L -43.0802,11.5836 L -39.8549,9.24026 L -36.3271,11.8034 L -37.6746,15.9506 L -41.6613,15.9506 L -38.436,18.2939
 L -39.6847,22.1368 L -43.7253,22.1368 L -44.9573,18.3453 L -46.1893,22.1368 L -50.1759,22.1368 L -46.9506,24.4802
 L -48.1826,28.2717 L -44.9573,25.9284 L -41.6883,28.3035 L -42.937,32.1464 L -46.9236,32.1464 L -43.6983,34.4897
 L -44.9742,38.4164 L -49.103,38.4164 L -50.3349,34.6248 L -51.5669,38.4164 L -55.6076,38.4164 L -56.8562,34.5735
 L -53.6309,32.2302 L -57.6176,32.2302 L -58.8496,28.4386 L -60.0815,32.2302 L -64.0682,32.2302 L -60.8429,34.5735
 L -62.0916,38.4164 L -66.1322,38.4164 L -67.3642,34.6248 L -68.5961,38.4164 L -72.5828,38.4164 L -69.3575,40.7597
 L -70.5895,44.5513 L -67.3642,42.208 L -64.0952,44.583 L -65.3438,48.4259 L -69.3305,48.4259 L -66.1052,50.7692
 L -67.3372,54.5608 L -64.1119,52.2175 L -60.8866,54.5608 L -62.1185,50.7692 L -58.8496,48.3942 L -55.5806,50.7692
 L -56.8125,54.5608 L -53.5872,52.2175 L -50.247,54.6443 L -51.5229,58.571 L -55.5095,58.571 L -52.2842,60.9144
 L -53.5329,64.7573 L -57.5736,64.7573 L -58.8055,60.9657 L -60.0375,64.7573 L -64.0242,64.7573 L -60.7989,67.1006
 L -62.0308,70.8922 L -58.8055,68.5488 L -55.5365,70.9239 L -56.7852,74.7668 L -60.7719,74.7668 L -57.5466,77.1101
 L -58.7785,80.9017 L -55.5532,78.5584 L -52.3279,80.9017 L -53.5599,77.1101 L -50.2909,74.7351 L -47.0219,77.1101
 L -48.2539,80.9017 L -45.0286,78.5584 L -41.8033,80.9017 L -43.0352,77.1101 L -39.8099,74.7668 L -43.7966,74.7668
 L -45.0453,70.9239 L -41.7763,68.5488 L -38.551,70.8922 L -39.7829,67.1006 L -36.4427,64.6738 L -33.1024,67.1006
 L -34.3344,70.8922 L -31.1091,68.5488 L -27.8401,70.9239 L -29.0887,74.7668 L -33.0754,74.7668 L -29.8501,77.1101
 L -31.0821,80.9017 L -27.8568,78.5584 L -24.6315,80.9017 L -25.8634,77.1101 L -22.5945,74.7351 L -19.3255,77.1101
 L -20.5574,80.9017 L -17.3321,78.5584 L -14.1068,80.9017 L -15.3388,77.1101 L -12.1135,74.7668 L -16.1002,74.7668
 L -17.3488,70.9239 L -14.0798,68.5488 L -10.8545,70.8922 L -12.0865,67.1006 L -8.86121,64.7573 L -12.8479,64.7573
 L -14.0798,60.9657 L -15.3118,64.7573 L -19.3525,64.7573 L -20.6011,60.9144 L -17.3758,58.571 L -21.3625,58.571
 L -22.6384,54.6443 L -19.2981,52.2175 L -16.0728,54.5608 L -17.3048,50.7693 L -14.0358,48.3942 L -10.7668,50.7693
 L -11.9988,54.5608 L -8.77347,52.2175 L -5.54817,54.5608 L -6.78012,50.7693 L -3.55482,48.4259 L -7.54152,48.4259
 L -8.79016,44.583 L -5.52116,42.208 L -2.29588,44.5513 L -3.52783,40.7597 L 0,38.1966 L 3.52783,40.7597
 L 2.29588,44.5513 L 5.52116,42.208 L 8.79016,44.583 L 7.54152,48.4259 L 3.55482,48.4259 L 6.78012,50.7693
 L 5.54817,54.5608 L 8.77347,52.2175 L 11.9988,54.5608 L 10.7668,50.7693 L 14.0358,48.3942 L 17.3048,50.7693
 L 16.0728,54.5608 L 19.2981,52.2175 L 22.6384,54.6443 L 21.3625,58.571 L 17.3758,58.571 L 20.6011,60.9144
 L 19.3525,64.7573 L 15.3118,64.7573 L 14.0798,60.9657 L 12.8479,64.7573 L 8.86122,64.7573 L 12.0865,67.1006
 L 10.8545,70.8922 L 14.0798,68.5488 L 17.3488,70.9239 L 16.1002,74.7668 L 12.1135,74.7668 L 15.3388,77.1101
 L 14.1068,80.9017 L 17.3321,78.5584 L 20.5574,80.9017 L 19.3255,77.1101 L 22.5945,74.7351 L 25.8634,77.1101
 L 24.6315,80.9017 L 27.8568,78.5584 L 31.0821,80.9017 L 29.8501,77.1101 L 33.0754,74.7668 L 29.0887,74.7668
 L 27.8401,70.9239 L 31.1091,68.5488 L 34.3344,70.8922 L 33.1024,67.1006 L 36.4427,64.6738 L 39.7829,67.1006
 L 38.551,70.8922 L 41.7763,68.5488 L 45.0453,70.9239 L 43.7966,74.7668 L 39.8099,74.7668 L 43.0352,77.1101
 L 41.8033,80.9017 L 45.0286,78.5584 L 48.2539,80.9017 L 47.0219,77.1101 L 50.2909,74.7351 L 53.5599,77.1101
 L 52.3279,80.9017 L 55.5532,78.5584 L 58.7785,80.9017 L 57.5466,77.1101 L 60.7719,74.7668 L 56.7852,74.7668
 L 55.5365,70.9239 L 58.8055,68.5488 L 62.0308,70.8922 L 60.7989,67.1006 L 64.0242,64.7573 L 60.0375,64.7573
 L 58.8055,60.9657 L 57.5736,64.7573 L 53.5329,64.7573 L 52.2842,60.9144 L 55.5095,58.571 L 51.5229,58.571
 L 50.247,54.6443 L 53.5872,52.2175 L 56.8125,54.5608 L 55.5806,50.7692 L 58.8496,48.3942 L 62.1185,50.7692
 L 60.8866,54.5608 L 64.1119,52.2175 L 67.3372,54.5608 L 66.1052,50.7692 z
" stroke="yellow" fill="yellow" stroke-width="none"/>
</svg>
