<?xml version="1.0" encoding="UTF-8" standalone="no"?>
<svg
   width="96mm"
   height="91mm"
   viewBox="-48 -50 96 91"
   version="1.1"
   id="svg9"
   sodipodi:docname="starjolla.svg"
   inkscape:version="1.1.1 (3bf5ae0d25, 2021-09-20)"
   xmlns:inkscape="http://www.inkscape.org/namespaces/inkscape"
   xmlns:sodipodi="http://sodipodi.sourceforge.net/DTD/sodipodi-0.dtd"
   xmlns="http://www.w3.org/2000/svg"
   xmlns:svg="http://www.w3.org/2000/svg">
  <defs
     id="defs13" />
  <sodipodi:namedview
     id="namedview11"
     pagecolor="#ffffff"
     bordercolor="#666666"
     borderopacity="1.0"
     inkscape:pageshadow="2"
     inkscape:pageopacity="0.0"
     inkscape:pagecheckerboard="0"
     inkscape:document-units="mm"
     showgrid="false"
     inkscape:zoom="2.5382555"
     inkscape:cx="104.5994"
     inkscape:cy="266.32465"
     inkscape:window-width="3840"
     inkscape:window-height="2059"
     inkscape:window-x="0"
     inkscape:window-y="32"
     inkscape:window-maximized="1"
     inkscape:current-layer="svg9" />
  <title
     id="title2">OpenSCAD Model</title>
  <path
     d=" M 27.7514,2.78639 L 25.727,2.78639 L 25.1014,0.861038 L 26.7392,-0.328888 L 28.377,0.861038 L 27.7514,-1.0643  L 29.3893,-2.25424 L 31.0271,-1.0643 L 30.4015,0.861038 L 32.0393,-0.328888 L 33.6771,0.861053 L 33.0515,2.78639  L 31.0271,2.78639 L 32.6649,3.97632 L 32.0393,5.90169 L 33.6771,4.71175 L 35.3149,5.90169 L 34.6893,3.97633  L 36.3271,2.78639 L 37.9649,3.97633 L 37.3393,5.90169 L 38.9771,4.71176 L 40.6149,5.90169 L 39.9894,3.97633  L 41.6272,2.78639 L 39.6027,2.78639 L 38.9771,0.861038 L 40.6149,-0.328888 L 42.2528,0.861038 L 41.6272,-1.0643  L 43.265,-2.25424 L 41.2405,-2.25424 L 40.6149,-4.1796 L 39.9894,-2.25424 L 37.9649,-2.25424 L 37.3393,-4.1796  L 38.9771,-5.36954 L 36.9527,-5.36954 L 36.3271,-7.29489 L 37.9649,-8.48483 L 39.6027,-7.29489 L 38.9771,-9.22025  L 40.615,-10.4102 L 42.2528,-9.22026 L 41.6272,-7.29491 L 43.265,-8.48483 L 44.9028,-7.29491 L 44.2772,-9.22026  L 45.915,-10.4102 L 43.8906,-10.4102 L 43.265,-12.3355 L 44.9028,-13.5255 L 46.5406,-12.3356 L 45.915,-14.2609  L 47.5528,-15.4508 L 45.5284,-15.4509 L 44.9028,-17.3762 L 44.2772,-15.4508 L 42.2528,-15.4508 L 41.6272,-17.3762  L 43.265,-18.5661 L 41.2405,-18.5661 L 40.615,-20.4915 L 39.9894,-18.5661 L 37.9649,-18.5661 L 39.6027,-17.3762  L 38.9771,-15.4508 L 36.9527,-15.4508 L 36.3271,-17.3762 L 35.7015,-15.4508 L 33.6771,-15.4508 L 33.0515,-17.3762  L 34.6893,-18.5661 L 32.6649,-18.5661 L 32.0393,-20.4915 L 33.6771,-21.6814 L 35.3149,-20.4915 L 34.6893,-22.4168  L 36.3271,-23.6068 L 34.3027,-23.6068 L 33.6771,-25.5322 L 33.0515,-23.6068 L 31.0271,-23.6068 L 30.4015,-25.5321  L 32.0393,-26.7221 L 30.0148,-26.7221 L 29.3893,-28.6474 L 28.7637,-26.7221 L 26.7392,-26.7221 L 28.377,-25.5322  L 27.7514,-23.6068 L 25.727,-23.6068 L 25.1014,-25.5321 L 24.4758,-23.6068 L 22.4514,-23.6068 L 24.0892,-22.4168  L 23.4636,-20.4915 L 25.1014,-21.6814 L 26.7392,-20.4915 L 26.1136,-18.5661 L 24.0892,-18.5661 L 25.727,-17.3762  L 25.1014,-15.4508 L 23.077,-15.4508 L 22.4514,-17.3762 L 21.8258,-15.4508 L 19.8014,-15.4508 L 19.1758,-17.3762  L 20.8136,-18.5661 L 18.7891,-18.5661 L 18.1636,-20.4915 L 17.538,-18.5661 L 15.5135,-18.5661 L 17.1513,-17.3762  L 16.5258,-15.4508 L 14.5013,-15.4508 L 13.8757,-17.3762 L 13.2501,-15.4508 L 11.2257,-15.4508 L 10.6001,-17.3762  L 12.2379,-18.5661 L 10.2135,-18.5661 L 9.58789,-20.4915 L 11.2257,-21.6814 L 12.8635,-20.4915 L 12.2379,-22.4169  L 13.8757,-23.6068 L 11.8513,-23.6068 L 11.2257,-25.5322 L 10.6001,-23.6068 L 8.57567,-23.6068 L 7.95007,-25.5322  L 9.58788,-26.7221 L 7.56345,-26.7221 L 6.93787,-28.6474 L 8.57567,-29.8374 L 10.2135,-28.6474 L 9.58789,-30.5728  L 11.2257,-31.7627 L 12.8635,-30.5728 L 12.2379,-28.6474 L 13.8757,-29.8374 L 15.5135,-28.6474 L 14.8879,-30.5728  L 16.5257,-31.7627 L 14.5013,-31.7627 L 13.8757,-33.6881 L 15.5135,-34.878 L 17.1513,-33.6881 L 16.5257,-35.6134  L 18.1635,-36.8034 L 16.1391,-36.8034 L 15.5135,-38.7287 L 14.8879,-36.8034 L 12.8635,-36.8034 L 12.2379,-38.7287  L 13.8757,-39.9187 L 11.8513,-39.9187 L 11.2257,-41.844 L 10.6001,-39.9187 L 8.57567,-39.9187 L 10.2135,-38.7287  L 9.58789,-36.8034 L 7.56345,-36.8034 L 6.93785,-38.7287 L 6.31227,-36.8034 L 4.28784,-36.8034 L 3.66225,-38.7287  L 5.30005,-39.9187 L 3.27562,-39.9187 L 2.65002,-41.844 L 4.28783,-43.034 L 5.92563,-41.844 L 5.30005,-43.7694  L 6.93785,-44.9593 L 4.91341,-44.9593 L 4.28783,-46.8847 L 3.66225,-44.9593 L 1.63782,-44.9593 L 1.01222,-46.8847  L 2.65001,-48.0746 L 0.625595,-48.0746 L 0,-50 L -0.625595,-48.0746 L -2.65001,-48.0746 L -1.01222,-46.8847  L -1.63782,-44.9593 L -3.66225,-44.9593 L -4.28783,-46.8847 L -4.91341,-44.9593 L -6.93785,-44.9593 L -5.30005,-43.7694  L -5.92563,-41.844 L -4.28783,-43.034 L -2.65002,-41.844 L -3.27562,-39.9187 L -5.30005,-39.9187 L -3.66225,-38.7287  L -4.28784,-36.8034 L -6.31227,-36.8034 L -6.93785,-38.7287 L -7.56345,-36.8034 L -9.58789,-36.8034 L -10.2135,-38.7287  L -8.57567,-39.9187 L -10.6001,-39.9187 L -11.2257,-41.844 L -11.8513,-39.9187 L -13.8757,-39.9187 L -12.2379,-38.7287  L -12.8635,-36.8034 L -14.8879,-36.8034 L -15.5135,-38.7287 L -16.1391,-36.8034 L -18.1635,-36.8034 L -16.5257,-35.6134  L -17.1513,-33.6881 L -15.5135,-34.878 L -13.8757,-33.6881 L -14.5013,-31.7627 L -16.5257,-31.7627 L -14.8879,-30.5728  L -15.5135,-28.6474 L -13.8757,-29.8374 L -12.2379,-28.6474 L -12.8635,-30.5728 L -11.2257,-31.7627 L -9.58789,-30.5728  L -10.2135,-28.6474 L -8.57567,-29.8374 L -6.93787,-28.6474 L -7.56345,-26.7221 L -9.58788,-26.7221 L -7.95007,-25.5322  L -8.57567,-23.6068 L -10.6001,-23.6068 L -11.2257,-25.5322 L -11.8513,-23.6068 L -13.8757,-23.6068 L -12.2379,-22.4169  L -12.8635,-20.4915 L -11.2257,-21.6814 L -9.58789,-20.4915 L -10.2135,-18.5661 L -12.2379,-18.5661 L -10.6001,-17.3762  L -11.2257,-15.4508 L -13.2501,-15.4508 L -13.8757,-17.3762 L -14.5013,-15.4508 L -16.5258,-15.4508 L -17.1513,-17.3762  L -15.5135,-18.5661 L -17.538,-18.5661 L -18.1636,-20.4915 L -18.7891,-18.5661 L -20.8136,-18.5661 L -19.1758,-17.3762  L -19.8014,-15.4508 L -21.8258,-15.4508 L -22.4514,-17.3762 L -23.077,-15.4508 L -25.1014,-15.4508 L -25.727,-17.3762  L -24.0892,-18.5661 L -26.1136,-18.5661 L -26.7392,-20.4915 L -25.1014,-21.6814 L -23.4636,-20.4915 L -24.0892,-22.4168  L -22.4514,-23.6068 L -24.4758,-23.6068 L -25.1014,-25.5321 L -25.727,-23.6068 L -27.7514,-23.6068 L -28.377,-25.5322  L -26.7392,-26.7221 L -28.7637,-26.7221 L -29.3893,-28.6474 L -30.0148,-26.7221 L -32.0393,-26.7221 L -30.4015,-25.5321  L -31.0271,-23.6068 L -33.0515,-23.6068 L -33.6771,-25.5322 L -34.3027,-23.6068 L -36.3271,-23.6068 L -34.6893,-22.4168  L -35.3149,-20.4915 L -33.6771,-21.6814 L -32.0393,-20.4915 L -32.6649,-18.5661 L -34.6893,-18.5661 L -33.0515,-17.3762  L -33.6771,-15.4508 L -35.7015,-15.4508 L -36.3271,-17.3762 L -36.9527,-15.4508 L -38.9771,-15.4508 L -39.6027,-17.3762  L -37.9649,-18.5661 L -39.9894,-18.5661 L -40.615,-20.4915 L -41.2405,-18.5661 L -43.265,-18.5661 L -41.6272,-17.3762  L -42.2528,-15.4508 L -44.2772,-15.4508 L -44.9028,-17.3762 L -45.5284,-15.4509 L -47.5528,-15.4508 L -45.915,-14.2609  L -46.5406,-12.3356 L -44.9028,-13.5255 L -43.265,-12.3355 L -43.8906,-10.4102 L -45.915,-10.4102 L -44.2772,-9.22026  L -44.9028,-7.29491 L -43.265,-8.48483 L -41.6272,-7.29491 L -42.2528,-9.22026 L -40.615,-10.4102 L -38.9771,-9.22025  L -39.6027,-7.29489 L -37.9649,-8.48483 L -36.3271,-7.29489 L -36.9527,-5.36954 L -38.9771,-5.36954 L -37.3393,-4.1796  L -37.9649,-2.25424 L -39.9894,-2.25424 L -40.6149,-4.1796 L -41.2405,-2.25424 L -43.265,-2.25424 L -41.6272,-1.0643  L -42.2528,0.861038 L -40.6149,-0.328888 L -38.9771,0.861038 L -39.6027,2.78639 L -41.6272,2.78639 L -39.9894,3.97633  L -40.6149,5.90169 L -38.9771,4.71176 L -37.3393,5.90169 L -37.9649,3.97633 L -36.3271,2.78639 L -34.6893,3.97633  L -35.3149,5.90169 L -33.6771,4.71175 L -32.0393,5.90169 L -32.6649,3.97632 L -31.0271,2.78639 L -33.0515,2.78639  L -33.6771,0.861053 L -32.0393,-0.328888 L -30.4015,0.861038 L -31.0271,-1.0643 L -29.3893,-2.25424 L -27.7514,-1.0643  L -28.377,0.861038 L -26.7392,-0.328888 L -25.1014,0.861038 L -25.727,2.78639 L -27.7514,2.78639 L -26.1136,3.97633  L -26.7392,5.90169 L -25.1014,4.71175 L -23.4636,5.90169 L -24.0892,3.97633 L -22.4514,2.78639 L -20.8136,3.97633  L -21.4392,5.90169 L -19.8014,4.71175 L -18.1635,5.90169 L -18.7891,7.82706 L -20.8136,7.82706 L -19.1758,9.017  L -19.8014,10.9424 L -21.8258,10.9424 L -22.4514,9.017 L -23.077,10.9424 L -25.1014,10.9424 L -23.4636,12.1323  L -24.0892,14.0576 L -22.4514,12.8677 L -20.8136,14.0576 L -21.4392,15.983 L -23.4636,15.983 L -21.8258,17.1729  L -22.4514,19.0983 L -24.4758,19.0983 L -25.1014,17.1729 L -25.727,19.0983 L -27.7514,19.0983 L -28.377,17.1729  L -26.7392,15.983 L -28.7637,15.983 L -29.3893,14.0576 L -30.0148,15.983 L -32.0393,15.983 L -30.4015,17.1729  L -31.0271,19.0983 L -33.0515,19.0983 L -33.6771,17.1729 L -34.3027,19.0983 L -36.3271,19.0983 L -34.6893,20.2882  L -35.3149,22.2136 L -33.6771,21.0237 L -32.0393,22.2136 L -32.6649,24.1389 L -34.6893,24.1389 L -33.0515,25.3289  L -33.6771,27.2542 L -32.0393,26.0643 L -30.4015,27.2542 L -31.0271,25.3289 L -29.3893,24.1389 L -27.7514,25.3289  L -28.377,27.2542 L -26.7392,26.0643 L -25.1014,27.2542 L -25.727,29.1796 L -27.7514,29.1796 L -26.1136,30.3695  L -26.7392,32.2949 L -28.7637,32.2949 L -29.3893,30.3695 L -30.0148,32.2949 L -32.0393,32.2949 L -30.4015,33.4848  L -31.0271,35.4102 L -29.3893,34.2202 L -27.7514,35.4102 L -28.377,37.3355 L -30.4015,37.3355 L -28.7637,38.5255  L -29.3893,40.4508 L -27.7514,39.2609 L -26.1136,40.4508 L -26.7392,38.5255 L -25.1014,37.3355 L -23.4636,38.5255  L -24.0892,40.4508 L -22.4514,39.2609 L -20.8136,40.4508 L -21.4392,38.5255 L -19.8014,37.3355 L -21.8258,37.3355  L -22.4514,35.4102 L -20.8136,34.2202 L -19.1758,35.4102 L -19.8014,33.4848 L -18.1636,32.2949 L -16.5257,33.4848  L -17.1513,35.4102 L -15.5135,34.2202 L -13.8757,35.4102 L -14.5013,37.3355 L -16.5257,37.3355 L -14.8879,38.5255  L -15.5135,40.4508 L -13.8757,39.2609 L -12.2379,40.4508 L -12.8635,38.5255 L -11.2257,37.3355 L -9.58789,38.5255  L -10.2135,40.4508 L -8.57567,39.2609 L -6.93785,40.4508 L -7.56345,38.5255 L -5.92564,37.3355 L -7.95007,37.3355  L -8.57567,35.4102 L -6.93787,34.2202 L -5.30005,35.4102 L -5.92564,33.4848 L -4.28784,32.2949 L -6.31229,32.2949  L -6.93787,30.3695 L -7.56345,32.2949 L -9.58789,32.2949 L -10.2135,30.3695 L -8.57567,29.1796 L -10.6001,29.1796  L -11.2257,27.2542 L -9.58789,26.0643 L -7.95009,27.2542 L -8.57567,25.3289 L -6.93787,24.1389 L -5.30005,25.3289  L -5.92564,27.2542 L -4.28783,26.0643 L -2.65002,27.2542 L -3.27562,25.3289 L -1.6378,24.1389 L -3.66225,24.1389  L -4.28784,22.2136 L -2.65002,21.0237 L -1.01222,22.2136 L -1.6378,20.2882 L 0,19.0983 L 1.6378,20.2882  L 1.01222,22.2136 L 2.65002,21.0237 L 4.28784,22.2136 L 3.66225,24.1389 L 1.6378,24.1389 L 3.27562,25.3289  L 2.65002,27.2542 L 4.28783,26.0643 L 5.92564,27.2542 L 5.30005,25.3289 L 6.93787,24.1389 L 8.57567,25.3289  L 7.95009,27.2542 L 9.58789,26.0643 L 11.2257,27.2542 L 10.6001,29.1796 L 8.57567,29.1796 L 10.2135,30.3695  L 9.58789,32.2949 L 7.56345,32.2949 L 6.93787,30.3695 L 6.31229,32.2949 L 4.28784,32.2949 L 5.92564,33.4848  L 5.30005,35.4102 L 6.93787,34.2202 L 8.57567,35.4102 L 7.95007,37.3355 L 5.92564,37.3355 L 7.56345,38.5255  L 6.93785,40.4508 L 8.57567,39.2609 L 10.2135,40.4508 L 9.58789,38.5255 L 11.2257,37.3355 L 12.8635,38.5255  L 12.2379,40.4508 L 13.8757,39.2609 L 15.5135,40.4508 L 14.8879,38.5255 L 16.5257,37.3355 L 14.5013,37.3355  L 13.8757,35.4102 L 15.5135,34.2202 L 17.1513,35.4102 L 16.5257,33.4848 L 18.1636,32.2949 L 19.8014,33.4848  L 19.1758,35.4102 L 20.8136,34.2202 L 22.4514,35.4102 L 21.8258,37.3355 L 19.8014,37.3355 L 21.4392,38.5255  L 20.8136,40.4508 L 22.4514,39.2609 L 24.0892,40.4508 L 23.4636,38.5255 L 25.1014,37.3355 L 26.7392,38.5255  L 26.1136,40.4508 L 27.7514,39.2609 L 29.3893,40.4508 L 28.7637,38.5255 L 30.4015,37.3355 L 28.377,37.3355  L 27.7514,35.4102 L 29.3893,34.2202 L 31.0271,35.4102 L 30.4015,33.4848 L 32.0393,32.2949 L 30.0148,32.2949  L 29.3893,30.3695 L 28.7637,32.2949 L 26.7392,32.2949 L 26.1136,30.3695 L 27.7514,29.1796 L 25.727,29.1796  L 25.1014,27.2542 L 26.7392,26.0643 L 28.377,27.2542 L 27.7514,25.3289 L 29.3893,24.1389 L 31.0271,25.3289  L 30.4015,27.2542 L 32.0393,26.0643 L 33.6771,27.2542 L 33.0515,25.3289 L 34.6893,24.1389 L 32.6649,24.1389  L 32.0393,22.2136 L 33.6771,21.0237 L 35.3149,22.2136 L 34.6893,20.2882 L 36.3271,19.0983 L 34.3027,19.0983  L 33.6771,17.1729 L 33.0515,19.0983 L 31.0271,19.0983 L 30.4015,17.1729 L 32.0393,15.983 L 30.0148,15.983  L 29.3893,14.0576 L 28.7637,15.983 L 26.7392,15.983 L 28.377,17.1729 L 27.7514,19.0983 L 25.727,19.0983  L 25.1014,17.1729 L 24.4758,19.0983 L 22.4514,19.0983 L 21.8258,17.1729 L 23.4636,15.983 L 21.4392,15.983  L 20.8136,14.0576 L 22.4514,12.8677 L 24.0892,14.0576 L 23.4636,12.1323 L 25.1014,10.9424 L 23.077,10.9424  L 22.4514,9.017 L 21.8258,10.9424 L 19.8014,10.9424 L 19.1758,9.017 L 20.8136,7.82706 L 18.7891,7.82706  L 18.1636,5.90169 L 19.8014,4.71175 L 21.4392,5.90169 L 20.8136,3.97633 L 22.4514,2.78639 L 24.0892,3.97633  L 23.4636,5.90169 L 25.1014,4.71175 L 26.7392,5.90169 L 26.1136,3.97633 z "
     stroke="black"
     fill="red"
     stroke-width="0"
     id="path4" />
  <g
     transform="matrix(0.00232911,0,0,-0.00206885,-16.471862,17.124631)"
     fill="#000000"
     stroke="none"
     id="g6">
    <path
       d="m 7620,15004 c -6,-15 -8,-64 -4,-118 7,-98 -1,-131 -45,-170 -21,-19 -71,-16 -71,5 0,6 -22,32 -49,58 -37,36 -52,60 -65,104 -21,74 -39,74 -101,2 -46,-55 -48,-55 -71,-40 -33,21 -41,14 -60,-51 -13,-44 -23,-59 -53,-79 -40,-25 -51,-52 -51,-124 0,-45 -20,-66 -174,-180 -85,-64 -115,-81 -142,-81 -24,0 -42,-9 -64,-30 -17,-16 -36,-30 -43,-30 -57,0 -155,176 -191,343 -8,34 -39,36 -61,4 -8,-13 -19,-55 -24,-93 -5,-38 -15,-85 -24,-104 -20,-46 -89,-113 -113,-108 -10,2 -37,34 -60,72 -23,38 -49,73 -57,78 -9,5 -36,4 -64,-2 -36,-8 -59,-8 -91,1 -56,15 -62,7 -62,-82 0,-80 -23,-160 -89,-306 -26,-60 -53,-122 -60,-140 -22,-56 -37,-62 -151,-65 -104,-3 -105,-3 -108,-29 -2,-14 6,-47 18,-73 24,-56 25,-85 5,-92 -19,-8 -82,32 -102,65 -30,47 -56,71 -79,71 -29,0 -34,-17 -33,-113 1,-76 0,-83 -25,-104 -22,-18 -39,-23 -85,-23 -88,0 -211,41 -211,71 0,6 29,24 65,40 36,16 65,35 65,42 0,19 -38,34 -117,48 -37,6 -79,18 -91,26 -23,14 -23,15 -6,34 10,11 37,25 61,31 25,6 43,16 43,25 0,20 -73,116 -106,141 -16,11 -44,53 -64,93 -19,40 -40,75 -47,77 -16,4 -39,-42 -48,-95 -11,-66 -34,-57 -104,40 -23,31 -46,57 -50,57 -16,0 -21,-30 -14,-89 9,-87 -2,-123 -52,-179 -52,-58 -68,-94 -60,-134 4,-17 0,-46 -10,-73 -23,-59 -14,-94 25,-102 41,-8 45,-18 18,-43 -84,-80 -258,-92 -349,-25 -40,30 -63,31 -130,5 -36,-15 -55,-18 -63,-10 -14,14 -59,13 -74,-2 -7,-7 -12,-27 -12,-46 0,-29 10,-44 65,-97 63,-62 64,-63 43,-77 -21,-14 -21,-14 15,-55 21,-22 37,-45 37,-52 0,-12 -73,-81 -131,-124 -32,-23 -39,-35 -37,-56 5,-39 40,-51 153,-51 55,0 117,-5 138,-11 71,-19 91,-93 45,-164 -15,-22 -39,-70 -53,-108 -27,-67 -71,-117 -103,-117 -9,0 -28,12 -43,26 -35,34 -56,26 -64,-23 -17,-106 -37,-129 -123,-140 -60,-7 -56,-15 -57,112 0,89 0,90 -26,93 -18,2 -39,-8 -68,-32 -49,-41 -82,-45 -126,-16 -41,27 -60,25 -106,-12 -55,-44 -66,-29 -40,50 22,64 26,92 14,92 -5,0 -45,-20 -91,-45 -142,-76 -186,-79 -258,-15 -21,18 -46,30 -62,30 -33,0 -112,-45 -167,-94 l -40,-36 23,-19 c 29,-25 28,-56 -2,-86 -21,-21 -29,-23 -51,-15 -15,6 -59,10 -98,10 -53,0 -82,5 -110,20 -49,27 -71,25 -92,-6 -17,-26 -19,-27 -95,-20 -92,7 -110,-3 -110,-62 0,-29 9,-49 39,-85 78,-94 111,-170 91,-208 -12,-21 -16,-21 -122,-15 -124,8 -131,3 -61,-49 127,-94 175,-126 225,-150 96,-45 124,-94 88,-153 -34,-55 -112,-77 -169,-47 -31,15 -45,43 -61,120 -12,55 -30,79 -74,102 -27,14 -32,13 -100,-21 -39,-19 -87,-42 -107,-50 -22,-8 -47,-30 -65,-57 -16,-23 -35,-44 -42,-47 -7,-2 -22,19 -37,53 -29,65 -46,67 -58,8 -10,-50 -27,-66 -61,-57 -37,9 -46,25 -57,99 -15,104 -65,184 -107,171 -31,-10 -35,-29 -41,-183 -4,-78 -10,-146 -15,-150 -9,-9 -24,10 -69,87 -38,65 -53,70 -136,39 -42,-15 -70,-19 -93,-15 -87,18 -103,18 -121,-2 -10,-11 -21,-47 -26,-92 -12,-89 -25,-105 -111,-128 -87,-23 -91,-44 -16,-77 41,-18 57,-31 62,-50 7,-28 -10,-55 -34,-55 -8,0 -30,-16 -48,-36 l -34,-35 -21,35 c -12,20 -26,36 -33,36 -6,0 -26,-16 -45,-35 -26,-28 -40,-35 -70,-35 -20,0 -42,-5 -49,-12 -19,-19 -14,-62 12,-101 35,-51 39,-72 21,-106 -17,-34 -53,-55 -167,-96 -115,-41 -129,-74 -31,-75 81,0 118,-63 80,-137 -30,-56 -78,-114 -105,-124 -19,-8 -56,-7 -130,2 -56,6 -105,9 -109,5 -26,-25 67,-81 169,-102 40,-8 83,-16 95,-19 40,-9 57,-51 64,-153 9,-132 36,-156 80,-71 19,38 65,69 102,69 23,0 37,-47 43,-143 11,-179 35,-198 129,-107 59,56 83,70 123,70 38,0 77,-31 118,-97 33,-50 37,-53 77,-53 55,0 94,-37 136,-131 38,-85 70,-98 146,-62 42,20 48,15 65,-52 16,-65 33,-89 82,-115 62,-34 87,-58 104,-100 20,-46 57,-85 122,-127 48,-31 53,-37 50,-66 -4,-40 -31,-46 -85,-19 -21,11 -71,27 -112,36 -41,9 -93,28 -115,41 -24,14 -67,27 -101,31 -93,10 -120,25 -149,82 -14,28 -28,70 -32,94 -12,89 -48,137 -76,102 -59,-74 -100,-93 -128,-59 -7,8 -24,15 -37,15 -19,0 -28,-8 -40,-40 -11,-27 -24,-42 -40,-46 -34,-9 -49,0 -78,46 -14,22 -29,40 -35,40 -5,0 -20,-11 -34,-25 -14,-14 -35,-25 -48,-25 -13,0 -45,-12 -72,-26 -31,-17 -56,-24 -72,-20 -27,7 -60,56 -93,139 -13,31 -29,57 -36,57 -14,0 -25,-43 -25,-95 0,-18 -8,-43 -18,-55 -17,-21 -19,-21 -56,-6 -21,9 -51,27 -68,41 -54,46 -63,36 -71,-83 -3,-34 -12,-74 -21,-87 -9,-14 -51,-43 -94,-64 -91,-46 -110,-64 -92,-86 6,-8 20,-17 31,-20 45,-15 -4,-111 -81,-160 -56,-36 -53,-59 17,-136 103,-111 384,-310 463,-328 55,-12 84,-34 137,-102 108,-138 182,-186 364,-233 163,-42 311,-51 759,-47 788,8 899,7 973,-12 37,-9 95,-31 130,-49 l 62,-33 300,-6 c 268,-6 315,-9 440,-33 398,-76 954,-214 1186,-294 155,-54 313,-137 527,-278 242,-160 419,-293 436,-329 9,-18 32,-88 51,-155 19,-68 53,-159 74,-204 21,-44 149,-268 286,-496 328,-550 459,-779 602,-1055 66,-127 176,-330 246,-452 176,-307 245,-451 256,-535 21,-153 -35,-346 -162,-561 -68,-114 -123,-182 -294,-361 -167,-176 -197,-221 -237,-359 -57,-195 -70,-406 -52,-837 13,-325 -2,-389 -206,-880 C 6195,962 6111,781 5950,485 5838,278 5815,155 5878,99 c 35,-31 145,-63 293,-84 177,-25 608,-20 880,10 374,41 545,71 650,116 75,33 89,56 89,152 0,183 -57,439 -185,826 -175,534 -211,688 -202,871 14,281 179,1016 297,1325 23,61 88,241 145,400 127,358 154,430 217,573 83,191 77,288 -31,461 -97,155 -137,247 -187,433 -18,70 -45,150 -59,178 -14,28 -70,97 -123,153 -220,231 -435,562 -652,1002 -161,326 -220,500 -222,651 -1,111 20,154 130,268 48,50 161,172 252,271 90,99 228,248 305,330 246,262 427,476 524,617 96,140 168,187 284,188 76,0 98,-9 194,-77 119,-84 263,-134 292,-100 16,21 2,47 -45,83 -19,15 -42,40 -50,56 -14,27 -14,29 11,38 36,14 159,12 190,-2 17,-8 38,-35 60,-78 42,-84 72,-111 127,-117 37,-4 49,-1 75,21 17,14 36,26 42,26 20,0 53,-45 87,-117 25,-56 38,-73 53,-73 24,0 37,21 46,75 4,22 9,48 12,58 8,31 43,18 91,-35 98,-107 122,-130 134,-126 15,5 35,42 43,81 3,15 10,27 15,27 5,0 25,-27 45,-59 57,-92 105,-102 193,-39 69,48 106,48 195,-1 41,-22 86,-41 101,-41 40,0 35,45 -14,110 -44,59 -45,61 -28,78 15,15 -6,40 -47,58 l -30,12 50,7 c 79,10 100,19 103,44 8,54 -44,65 -129,27 -47,-22 -60,-24 -103,-15 -58,11 -84,26 -130,76 -47,51 -88,50 -167,-6 -32,-23 -65,-41 -74,-41 -8,0 -43,14 -76,30 l -60,31 -47,-27 c -40,-22 -51,-24 -75,-15 -29,11 -57,63 -60,110 -2,25 -1,26 64,26 45,0 74,6 92,18 35,23 49,22 81,-8 37,-34 60,-31 102,10 40,40 53,40 142,-2 51,-24 57,-25 113,-13 73,16 108,9 164,-31 56,-40 87,-35 113,19 14,32 22,37 54,40 50,4 111,-14 146,-43 33,-28 70,-33 78,-10 6,15 -85,195 -116,230 -9,11 -23,30 -29,43 -12,22 -45,30 -55,13 -8,-13 -42,-20 -56,-11 -17,10 8,55 57,102 67,64 172,108 387,162 72,18 132,38 133,43 6,18 -56,33 -133,33 -41,0 -74,3 -74,8 0,4 7,16 15,26 8,11 15,28 15,37 0,23 -44,57 -84,64 l -31,6 4,87 c 2,48 7,95 12,104 20,37 10,67 -31,93 -54,34 -63,56 -58,136 4,49 13,80 32,113 33,57 33,66 -3,66 -35,0 -83,-38 -117,-92 -13,-21 -31,-38 -39,-38 -8,0 -29,16 -48,35 -19,19 -41,35 -49,35 -9,0 -26,-21 -39,-47 -24,-47 -24,-48 -69,-45 -59,3 -126,-15 -173,-46 -33,-22 -44,-24 -95,-19 -69,7 -118,27 -162,64 l -33,27 -31,-19 c -71,-42 -95,-49 -172,-55 -69,-4 -85,-9 -114,-34 -30,-25 -40,-28 -90,-24 -112,8 -200,78 -200,158 0,45 14,59 171,169 114,79 119,82 275,127 137,39 166,44 209,38 28,-4 242,-8 477,-9 322,-1 430,-4 441,-14 9,-6 23,-47 32,-89 26,-120 72,-227 127,-298 32,-42 48,-73 46,-87 -2,-13 -30,-41 -72,-73 -71,-53 -94,-80 -80,-94 5,-4 45,-18 89,-30 120,-32 208,-76 245,-121 35,-44 62,-49 100,-19 36,28 82,26 114,-6 14,-15 26,-31 26,-36 0,-16 67,-38 114,-38 63,0 88,-14 116,-68 30,-57 49,-61 128,-32 106,40 294,20 426,-45 62,-30 78,-35 95,-25 26,13 28,55 4,105 -16,34 -16,36 4,63 28,37 60,52 116,52 51,0 78,10 113,41 17,16 25,17 50,7 38,-14 73,-6 107,26 39,36 37,80 -5,106 -18,11 -37,21 -43,23 -6,2 -5,14 2,30 17,36 47,35 143,-3 89,-35 130,-39 130,-12 0,24 -44,84 -100,137 -60,58 -64,68 -44,121 15,40 25,49 78,76 81,40 96,55 96,94 0,18 7,39 15,47 37,38 148,27 190,-19 21,-23 29,-24 103,-22 79,3 81,2 114,-29 61,-59 77,-37 28,40 -20,31 -47,56 -85,78 -98,55 -90,91 26,110 84,13 93,24 49,58 -85,65 -142,136 -92,116 9,-4 35,-9 57,-12 58,-6 103,21 140,84 41,71 48,76 103,83 45,5 47,7 50,39 4,43 -27,78 -84,92 -22,6 -53,22 -69,36 -35,33 -105,141 -105,163 0,47 80,54 156,14 l 48,-26 24,28 c 21,24 24,35 20,81 -6,65 -29,100 -83,122 -22,9 -62,29 -88,45 -40,24 -56,28 -93,23 -44,-5 -46,-3 -70,35 -23,37 -28,39 -59,34 -28,-6 -36,-2 -58,24 -14,16 -31,30 -37,30 -6,0 -28,-18 -49,-40 -21,-22 -46,-40 -57,-40 -29,0 -85,37 -124,82 -33,38 -37,39 -62,27 -16,-7 -28,-16 -28,-20 0,-14 -38,-29 -55,-23 -39,15 -60,103 -35,149 26,49 59,55 298,55 121,0 227,3 236,6 31,12 18,51 -30,91 -53,44 -74,79 -74,123 0,41 48,87 98,95 121,20 117,19 117,49 0,25 -8,34 -60,63 -88,48 -123,56 -195,41 l -61,-12 -97,48 c -149,73 -144,69 -126,113 15,35 15,38 -3,53 -19,15 -17,18 44,73 85,77 114,75 227,-14 48,-39 76,-49 76,-28 0,5 -18,45 -40,88 -22,43 -40,84 -40,93 0,22 21,36 66,46 79,16 44,56 -62,68 -55,7 -84,23 -84,49 0,7 17,31 38,53 20,22 46,52 57,67 15,19 37,31 84,43 35,10 66,23 69,30 6,18 -55,40 -145,53 -110,16 -118,23 -60,49 77,34 60,60 -39,60 -63,0 -63,6 -3,86 50,65 51,90 5,98 -46,9 -93,-12 -151,-66 -56,-50 -101,-57 -152,-20 -40,28 -65,28 -100,-2 -15,-13 -45,-31 -66,-39 -53,-22 -65,-54 -42,-112 9,-26 16,-48 14,-49 -2,-2 -23,-7 -46,-11 -39,-6 -46,-4 -73,23 -36,36 -37,61 -9,137 27,72 49,92 113,100 77,10 86,14 86,39 0,30 -39,68 -109,108 -31,18 -85,62 -121,100 -72,75 -99,84 -126,43 -9,-14 -24,-25 -33,-25 -10,0 -28,11 -41,25 -13,14 -27,25 -32,25 -4,0 -17,-18 -28,-39 -11,-22 -24,-42 -29,-46 -6,-3 -25,8 -43,24 l -33,29 v 109 c -1,107 -22,233 -48,273 -13,21 -75,50 -107,50 -23,0 -24,5 -9,49 23,66 82,68 173,6 71,-49 86,-54 86,-30 0,51 -65,117 -139,142 -65,22 -83,43 -58,71 23,25 21,47 -4,71 l -21,20 25,24 c 15,13 53,31 85,40 62,17 88,37 79,61 -8,19 -59,32 -177,46 -125,15 -160,32 -178,88 -17,51 -31,59 -82,43 -48,-14 -87,-46 -151,-123 -38,-46 -49,-67 -49,-94 0,-38 -8,-41 -55,-18 -48,22 -58,55 -50,163 l 8,91 h -28 c -27,0 -62,-30 -113,-99 -22,-28 -28,-31 -82,-31 -51,0 -60,-3 -74,-25 -17,-26 -50,-33 -62,-14 -17,29 -22,90 -12,171 15,131 -4,134 -43,5 -15,-50 -26,-71 -44,-79 -32,-14 -68,-4 -109,32 l -34,30 2,-96 c 2,-83 0,-97 -16,-105 -29,-16 -146,14 -163,41 -12,20 -40,9 -68,-25 -15,-19 -43,-42 -62,-50 -56,-23 -46,-64 24,-99 57,-29 79,-53 87,-94 5,-25 3,-33 -11,-38 -10,-4 -26,-2 -36,4 -33,21 -76,14 -112,-18 -19,-16 -38,-30 -42,-30 -4,0 -55,28 -114,61 -88,50 -113,70 -134,105 -23,37 -31,44 -59,44 -23,0 -38,-8 -53,-26 -21,-26 -21,-26 -55,-9 -18,10 -55,40 -81,69 -26,28 -57,60 -69,71 -99,95 -102,100 -77,127 6,8 17,23 23,33 10,18 38,40 89,70 30,18 23,48 -15,68 -30,15 -50,17 -130,12 -52,-4 -112,-6 -133,-7 -57,0 -159,54 -203,107 -40,49 -68,57 -77,23 -7,-26 8,-99 28,-139 38,-72 -8,-81 -88,-15 -29,24 -63,49 -75,55 -12,6 -29,26 -38,44 -24,48 -55,77 -80,77 -19,0 -25,-9 -38,-54 -15,-51 -52,-96 -79,-96 -6,0 -38,-27 -73,-60 -59,-57 -65,-60 -112,-60 -102,0 -122,27 -122,169 0,72 0,73 -22,65 -44,-15 -115,-10 -136,9 -30,27 -52,16 -140,-73 -76,-77 -117,-100 -179,-100 -39,0 -81,49 -139,163 -31,62 -63,120 -72,130 -22,25 -51,21 -62,-9 z m 2059,-2100 c 43,-49 50,-71 27,-80 -35,-13 -86,46 -86,101 0,36 13,31 59,-21 z m -10,-186 c 43,-33 55,-57 42,-84 -6,-13 -17,-24 -25,-24 -17,0 -94,78 -102,104 -13,39 37,42 85,4 z m 491,-223 c 46,-24 39,-52 -16,-75 -43,-19 -46,-22 -39,-48 12,-49 17,-112 8,-112 -33,0 -109,125 -101,167 4,20 83,83 104,83 8,0 28,-7 44,-15 z m 312,-62 c 22,-20 24,-61 3,-69 -26,-10 -75,16 -75,40 0,44 39,59 72,29 z m -2109,-17 c 39,-16 97,-79 97,-105 0,-25 -15,-36 -82,-56 -55,-18 -56,-18 -83,3 -15,12 -38,22 -51,22 -28,0 -57,39 -52,72 2,17 12,24 41,30 22,5 50,17 64,28 30,24 26,23 66,6 z m 1335,-136 c 64,-29 50,-81 -26,-96 -46,-9 -62,8 -62,67 0,44 2,49 23,49 12,0 41,-9 65,-20 z m 830,-66 c 16,-5 22,-14 22,-35 0,-34 -17,-37 -51,-11 -14,12 -20,25 -16,35 7,19 11,20 45,11 z m -2514,-100 c 3,-9 6,-26 6,-39 0,-35 41,-61 107,-69 63,-7 123,-37 123,-61 0,-32 -109,-61 -126,-34 -11,19 -87,49 -123,49 -28,0 -42,-8 -79,-47 -78,-84 -111,-96 -193,-71 -38,11 -39,12 -22,31 10,11 55,44 100,74 45,29 92,68 104,86 27,39 80,97 90,97 4,0 10,-7 13,-16 z m 430,-160 c 34,-13 5,-54 -38,-54 -19,0 -46,27 -46,46 0,15 53,20 84,8 z m 1182,-235 c 24,-33 50,-56 75,-66 47,-18 50,-42 9,-66 -55,-33 -27,-59 58,-55 24,1 41,-7 63,-28 29,-28 34,-29 114,-26 107,3 122,-8 135,-96 5,-35 16,-74 25,-88 9,-15 11,-24 4,-24 -22,0 -155,-64 -314,-151 -89,-49 -286,-147 -436,-218 -151,-71 -321,-155 -377,-185 -57,-31 -108,-56 -112,-56 -5,0 -18,14 -30,30 -12,17 -26,30 -32,30 -6,0 -33,-20 -59,-45 -26,-25 -56,-45 -65,-45 -30,0 -83,64 -90,109 -4,22 -9,41 -11,41 -3,0 -27,-20 -55,-45 -58,-52 -103,-68 -153,-54 -66,19 -96,9 -124,-40 -27,-46 -55,-70 -67,-58 -4,4 -3,17 3,29 14,31 247,346 283,382 l 28,29 35,-22 c 45,-28 54,-27 62,8 8,38 46,78 81,87 15,4 53,2 84,-4 86,-18 118,-15 152,13 44,37 64,32 121,-30 40,-45 56,-55 82,-55 39,0 65,27 89,92 33,88 92,118 239,118 95,0 177,21 254,67 75,44 53,97 -42,98 -87,1 -113,49 -48,90 42,26 37,39 -18,45 -35,4 -45,9 -47,26 -2,16 4,24 27,32 32,11 46,40 37,78 -9,33 -48,41 -105,20 -25,-9 -54,-16 -63,-16 -26,0 -58,36 -58,66 0,26 1,26 25,10 34,-22 103,-20 140,4 17,11 33,20 38,20 4,0 23,-23 43,-51 z m -1503,-92 c 35,-28 48,-100 24,-132 -15,-19 -16,-18 -37,30 -12,28 -31,60 -42,72 -23,25 -18,53 9,53 10,0 31,-10 46,-23 z m -1008,-14 c -14,-33 -17,-71 -6,-77 14,-9 14,-46 1,-46 -32,0 -150,69 -150,88 1,24 25,37 77,43 32,3 64,7 72,8 9,1 11,-5 6,-16 z m 1353,-2 c 16,-10 12,-53 -5,-58 -15,-5 -53,32 -53,52 0,16 36,20 58,6 z m 3409,-11 c 21,-11 47,-20 59,-20 23,0 44,-21 62,-62 6,-15 29,-36 51,-47 40,-21 71,-55 71,-78 0,-7 -9,-22 -20,-33 -16,-16 -28,-18 -69,-13 -46,5 -53,3 -86,-26 -20,-17 -44,-31 -55,-31 -55,0 -99,54 -85,102 4,13 23,37 42,55 27,25 33,37 28,55 -10,33 -19,40 -59,47 l -36,6 20,33 c 23,38 28,38 77,12 z m -2816,-118 c 24,-55 24,-79 2,-84 -31,-7 -67,11 -90,45 -29,42 -29,72 -2,91 32,22 67,1 90,-52 z m -1357,17 c 17,-14 26,-29 24,-43 -3,-19 -9,-21 -76,-20 -82,0 -107,14 -79,42 17,16 69,40 93,41 6,1 23,-9 38,-20 z m 1052,-23 c 23,-36 15,-71 -16,-71 -32,0 -56,45 -40,75 14,27 36,25 56,-4 z m -918,-220 c 35,-31 60,-86 77,-168 9,-40 27,-97 40,-127 27,-58 32,-109 14,-144 -20,-40 -62,-76 -98,-88 -76,-23 -92,-33 -126,-81 -20,-27 -46,-53 -58,-57 -35,-13 -76,7 -96,48 -11,20 -29,45 -41,56 -12,11 -33,45 -47,75 -25,58 -38,71 -60,63 -9,-3 -12,-22 -12,-59 2,-61 -18,-100 -55,-110 -46,-11 -69,0 -112,56 -34,44 -50,57 -84,65 -24,6 -48,18 -53,26 -26,42 37,129 93,129 20,0 44,10 64,27 52,43 105,63 176,63 75,0 110,18 110,55 0,19 -12,30 -59,55 -68,37 -77,50 -56,90 30,57 84,69 250,56 91,-7 114,-12 133,-30 z m 3697,-46 c 8,-26 -1,-40 -26,-40 -28,0 -37,30 -14,46 25,19 33,18 40,-6 z m -385,-75 c 0,-31 -21,-65 -40,-65 -4,0 -18,8 -30,18 -27,22 -20,43 25,72 36,23 45,18 45,-25 z m -222,-3 c 23,-30 11,-57 -27,-60 -79,-8 -102,18 -56,64 28,28 59,26 83,-4 z m -5430,-28 c 27,-18 28,-44 3,-75 -18,-23 -19,-23 -63,-6 -46,18 -88,50 -88,68 0,5 15,16 33,24 35,16 79,11 115,-11 z m 400,-6 c 24,-20 13,-30 -25,-23 -49,9 -75,23 -67,36 7,12 72,3 92,-13 z m -167,-4 c 11,-14 11,-18 -2,-28 -8,-6 -22,-23 -32,-38 -33,-52 -71,-25 -47,32 20,48 57,63 81,34 z m -526,-16 c 43,-29 54,-57 29,-75 -22,-16 -58,-10 -93,16 -34,24 -36,36 -12,60 26,26 33,26 76,-1 z m -169,-103 c 19,-15 19,-15 -1,-30 -26,-20 -89,-37 -109,-29 -27,10 -18,40 17,58 40,20 68,20 93,1 z m 5483,-68 c 16,-20 -5,-40 -61,-61 -61,-23 -63,-45 -5,-83 48,-33 54,-61 17,-81 -18,-9 -52,-12 -125,-7 -73,4 -115,1 -155,-10 -93,-25 -109,-22 -191,37 -22,15 -36,16 -150,6 -81,-8 -138,-8 -159,-2 l -32,9 44,32 c 73,52 142,74 254,82 86,5 106,10 142,33 37,25 84,41 152,51 14,3 77,5 141,6 86,1 119,-2 128,-12 z m -5213,-132 c 43,-40 44,-44 44,-102 0,-82 -5,-93 -45,-93 h -33 l 1,87 c 1,61 -2,88 -10,90 -28,10 -56,40 -50,56 9,24 44,10 93,-38 z m 5887,18 39,-27 48,17 c 79,28 94,24 158,-43 66,-68 105,-79 122,-36 15,39 54,59 102,53 59,-8 89,-35 118,-106 28,-68 48,-86 86,-77 17,5 26,16 31,36 7,37 15,37 79,0 53,-30 86,-64 116,-119 14,-25 23,-31 50,-31 18,0 44,9 58,20 37,29 83,25 154,-15 35,-19 90,-40 122,-46 32,-5 72,-15 87,-21 53,-21 74,-80 40,-113 -14,-15 -41,-16 -212,-14 l -196,3 -64,-33 c -36,-18 -67,-29 -72,-24 -5,5 -12,38 -15,73 -12,119 -48,138 -130,70 -59,-49 -87,-50 -145,-8 -59,43 -102,57 -174,58 -50,0 -69,6 -115,34 -30,18 -80,39 -110,45 -30,6 -82,28 -115,48 -53,33 -67,37 -135,39 -58,1 -95,9 -160,34 -75,29 -97,33 -187,34 l -102,1 -11,48 c -10,49 -13,87 -6,87 2,0 21,-7 42,-16 21,-9 76,-20 123,-24 49,-5 105,-17 131,-29 77,-35 130,-21 130,35 0,26 40,74 62,74 6,0 29,-12 51,-27 z m -4632,-168 c 113,-17 257,-54 329,-86 118,-52 170,-107 170,-178 0,-31 14,-49 65,-85 19,-13 24,-21 16,-29 -18,-18 -81,9 -141,59 -71,59 -113,78 -141,63 -17,-9 -19,-16 -14,-50 9,-51 -13,-79 -62,-79 -29,0 -33,-3 -33,-25 0,-30 -32,-65 -60,-65 -24,0 -40,-28 -40,-70 0,-47 -25,-99 -52,-105 -13,-2 -45,-6 -73,-7 l -50,-3 -9,-50 c -5,-27 -10,-51 -11,-53 -1,-1 -25,2 -53,8 -39,9 -60,21 -93,55 -55,57 -64,72 -49,90 15,18 73,35 119,35 21,0 44,9 63,25 16,14 50,30 74,36 50,13 70,38 55,68 -13,24 -32,31 -85,31 -30,0 -48,6 -61,20 -10,11 -26,20 -34,19 -81,-7 -111,18 -111,94 0,65 -20,88 -83,96 -42,6 -42,6 -45,50 -4,59 5,91 26,91 9,0 46,-14 80,-30 35,-17 70,-30 77,-30 17,0 26,26 20,53 -6,25 2,39 30,55 27,15 53,15 176,-3 z m -1162,-166 c 50,-121 1,-243 -54,-133 -11,22 -30,50 -42,62 -19,18 -21,26 -12,49 14,37 48,73 69,73 11,0 25,-18 39,-51 z m 5440,-15 c 243,-64 294,-92 294,-156 0,-25 -10,-41 -52,-80 -43,-39 -56,-46 -71,-38 -35,19 -49,11 -60,-30 -6,-23 -21,-47 -35,-56 -23,-15 -27,-15 -50,0 -32,21 -67,83 -122,214 -55,131 -57,138 -49,157 8,21 33,19 145,-11 z m -6570,-427 c 12,-14 19,-31 16,-39 -5,-14 23,-16 222,-22 125,-4 240,-9 256,-12 18,-4 38,-21 58,-50 16,-24 43,-51 59,-59 16,-8 114,-38 217,-66 203,-55 227,-65 259,-101 42,-45 150,-236 262,-463 63,-126 128,-250 145,-275 16,-25 105,-119 197,-210 212,-211 235,-249 234,-390 -1,-85 -6,-110 -48,-240 -38,-113 -155,-429 -214,-574 -7,-16 -17,-10 -80,47 -254,234 -577,442 -884,571 -242,101 -447,157 -1113,300 -543,117 -551,118 -664,114 -88,-3 -92,-2 -86,17 3,11 8,52 12,90 7,90 -19,199 -82,335 -71,156 -60,224 55,353 70,77 93,88 155,75 53,-11 137,1 170,26 26,19 11,50 -40,87 -25,18 -47,40 -50,51 -14,42 109,209 179,242 53,25 90,20 173,-24 81,-44 117,-46 156,-12 18,16 19,25 1,95 -14,57 61,91 102,46 51,-57 107,-43 192,46 69,73 102,83 141,42 z m 5689,-183 c 53,-26 31,-72 -28,-59 -40,9 -60,43 -34,62 22,16 24,16 62,-3 z m 410,-16 c 18,-18 16,-22 -37,-56 -37,-25 -60,-32 -96,-32 -29,0 -65,-9 -92,-22 -38,-19 -46,-20 -53,-8 -25,39 6,67 113,102 90,29 147,34 165,16 z m -4337,-88 c 63,-22 129,-40 147,-40 95,0 115,-55 60,-163 -45,-88 -47,-169 -13,-413 14,-106 25,-204 23,-219 -7,-62 -63,-58 -132,9 -64,63 -107,135 -195,325 -90,194 -127,254 -209,343 -77,82 -88,108 -61,142 27,34 97,54 190,55 63,1 94,-5 190,-39 z m 530,-36 c 9,-11 22,-14 42,-10 59,12 181,-76 193,-139 4,-23 -11,-82 -55,-216 -83,-257 -125,-410 -165,-604 -27,-128 -43,-184 -73,-243 l -38,-77 -3,82 c -1,45 11,308 27,585 42,686 39,662 72,622 z m 3462,-73 c 15,-15 0,-40 -35,-60 -21,-12 -33,-13 -66,-3 -56,17 -75,37 -61,64 10,19 18,20 81,16 38,-3 75,-11 81,-17 z M 2129,9385 c 12,-11 12,-17 1,-29 -7,-9 -19,-16 -27,-16 -10,0 -13,-9 -11,-32 3,-31 7,-34 83,-62 58,-21 96,-29 138,-27 54,1 62,-2 100,-34 46,-39 80,-44 117,-16 24,19 24,19 64,-15 22,-19 43,-34 47,-34 15,0 39,-83 39,-135 0,-31 -9,-81 -20,-112 -25,-72 -25,-94 0,-135 14,-23 20,-51 20,-89 0,-47 6,-65 41,-123 40,-67 48,-113 19,-109 -8,1 -40,9 -70,18 -32,9 -95,15 -155,15 -59,0 -142,8 -203,20 -125,24 -195,25 -298,4 -142,-29 -295,1 -310,61 -14,57 57,87 157,66 31,-6 64,-8 73,-5 22,8 46,56 46,91 1,40 33,106 65,131 15,12 52,29 82,39 64,20 103,53 103,86 0,29 -16,37 -74,37 -50,0 -66,13 -66,56 0,45 -19,93 -42,105 -30,16 -58,70 -58,112 0,45 23,103 53,135 23,25 59,24 86,-3 z m 5037,-147 c 50,-100 86,-116 104,-48 8,28 16,40 29,40 30,0 43,-25 52,-106 15,-140 63,-174 167,-119 41,21 55,24 71,15 48,-25 38,-74 -44,-240 -84,-168 -165,-279 -324,-446 -80,-84 -184,-193 -231,-242 -56,-59 -103,-99 -138,-116 -60,-31 -143,-50 -136,-32 2,6 44,164 94,351 81,302 140,493 223,720 14,39 30,104 36,147 20,141 52,166 97,76 z m 1791,-115 c 25,-40 33,-44 76,-37 47,7 77,-15 77,-57 0,-58 -91,-81 -133,-34 -12,14 -39,42 -59,63 -40,39 -46,60 -26,80 20,20 47,14 65,-15 z M 2876,8939 c 14,-28 38,-69 54,-91 33,-45 50,-113 50,-196 0,-53 -21,-166 -33,-178 -13,-13 -88,103 -131,202 -56,127 -62,190 -28,268 29,64 53,62 88,-5 z m 6365,-19 c 20,-11 27,-64 10,-74 -4,-3 -67,-3 -140,1 -94,4 -131,10 -131,18 0,20 30,27 95,20 56,-6 62,-5 84,19 26,28 50,32 82,16 z"
       id="path6" />
  </g>
</svg>
