<?xml version="1.0" standalone="no"?>
<!DOCTYPE svg PUBLIC "-//W3C//DTD SVG 1.1//EN" "http://www.w3.org/Graphics/SVG/1.1/DTD/svg11.dtd">
<svg width="192mm" height="181mm" viewBox="-96 -100 192 181" xmlns="http://www.w3.org/2000/svg" version="1.1">
<title>OpenSCAD Model</title>
<path d="
M 53.4785,56.8884 L 53.0006,58.3592 L 51.454,58.3592 L 50.9761,56.8884 L 52.2273,55.9793 L 50.6808,55.9793
 L 50.2029,54.5085 L 51.454,53.5995 L 52.7052,54.5085 L 52.2273,53.0376 L 53.4785,52.1286 L 54.7296,53.0376
 L 54.2517,54.5085 L 55.5029,53.5995 L 56.7541,54.5085 L 56.2762,53.0376 L 57.5273,52.1286 L 55.9808,52.1286
 L 55.5029,50.6578 L 56.7541,49.7487 L 58.0052,50.6578 L 57.5273,49.1869 L 58.7785,48.2779 L 60.0297,49.1869
 L 59.5518,50.6578 L 60.803,49.7487 L 62.0541,50.6578 L 61.5762,52.1286 L 60.0297,52.1286 L 61.2809,53.0376
 L 60.803,54.5085 L 62.0541,53.5995 L 63.3053,54.5085 L 62.8274,53.0376 L 64.0786,52.1286 L 65.3297,53.0376
 L 64.8518,54.5085 L 66.103,53.5995 L 67.3542,54.5085 L 66.8763,53.0376 L 68.1274,52.1286 L 66.5809,52.1286
 L 66.103,50.6578 L 67.3542,49.7487 L 68.6054,50.6578 L 68.1275,49.1869 L 69.3786,48.2779 L 67.8321,48.2779
 L 67.3542,46.8071 L 66.8763,48.2779 L 65.3297,48.2779 L 64.8518,46.8071 L 66.103,45.898 L 64.5565,45.898
 L 64.0786,44.4272 L 65.3297,43.5181 L 66.5809,44.4272 L 66.103,42.9563 L 67.3542,42.0473 L 68.6054,42.9563
 L 68.1275,44.4272 L 69.3786,43.5182 L 70.6298,44.4272 L 70.1519,42.9563 L 71.4031,42.0473 L 69.8565,42.0473
 L 69.3786,40.5765 L 70.6298,39.6674 L 71.881,40.5765 L 71.4031,39.1056 L 72.6542,38.1966 L 71.1077,38.1966
 L 70.6298,36.7258 L 70.1519,38.1966 L 68.6054,38.1966 L 68.1275,36.7258 L 69.3786,35.8167 L 67.8321,35.8167
 L 67.3542,34.3459 L 66.8763,35.8167 L 65.3297,35.8167 L 66.5809,36.7258 L 66.103,38.1966 L 64.5565,38.1966
 L 64.0786,36.7258 L 63.6007,38.1966 L 62.0541,38.1966 L 61.5762,36.7258 L 62.8274,35.8167 L 61.2809,35.8167
 L 60.8029,34.3459 L 62.0541,33.4368 L 63.3053,34.3459 L 62.8274,32.875 L 64.0786,31.966 L 62.532,31.966
 L 62.0541,30.4952 L 61.5762,31.966 L 60.0297,31.966 L 59.5518,30.4952 L 60.803,29.5861 L 59.2564,29.5861
 L 58.7785,28.1153 L 58.3006,29.5861 L 56.7541,29.5861 L 58.0052,30.4952 L 57.5273,31.966 L 55.9808,31.966
 L 55.5029,30.4952 L 55.025,31.966 L 53.4785,31.966 L 54.7296,32.875 L 54.2517,34.3459 L 55.5029,33.4369
 L 56.7541,34.3459 L 56.2762,35.8167 L 54.7296,35.8167 L 55.9808,36.7258 L 55.5029,38.1966 L 53.9564,38.1966
 L 53.4785,36.7258 L 53.0005,38.1966 L 51.454,38.1966 L 50.9761,36.7258 L 52.2273,35.8167 L 50.6808,35.8167
 L 50.2029,34.3459 L 49.7249,35.8167 L 48.1784,35.8167 L 49.4296,36.7258 L 48.9517,38.1966 L 47.4051,38.1966
 L 46.9272,36.7258 L 46.4493,38.1966 L 44.9028,38.1966 L 44.4249,36.7258 L 45.6761,35.8167 L 44.1295,35.8167
 L 43.6516,34.3459 L 44.9028,33.4368 L 46.154,34.3459 L 45.6761,32.875 L 46.9272,31.966 L 45.3807,31.966
 L 44.9028,30.4952 L 44.4249,31.966 L 42.8783,31.966 L 42.4004,30.4952 L 43.6516,29.5861 L 42.1051,29.5861
 L 41.6272,28.1153 L 42.8783,27.2063 L 44.1295,28.1153 L 43.6516,26.6445 L 44.9028,25.7354 L 46.154,26.6444
 L 45.6761,28.1153 L 46.9272,27.2063 L 48.1784,28.1153 L 47.7005,26.6445 L 48.9517,25.7354 L 47.4051,25.7354
 L 46.9272,24.2646 L 48.1784,23.3555 L 49.4296,24.2646 L 48.9517,22.7937 L 50.2028,21.8847 L 48.6563,21.8847
 L 48.1784,20.4139 L 47.7005,21.8847 L 46.154,21.8847 L 45.6761,20.4139 L 46.9272,19.5048 L 45.3807,19.5048
 L 44.9028,18.034 L 44.4249,19.5048 L 42.8784,19.5048 L 44.1295,20.4139 L 43.6516,21.8847 L 42.1051,21.8847
 L 41.6272,20.4139 L 41.1493,21.8847 L 39.6027,21.8847 L 39.1248,20.4139 L 40.376,19.5048 L 38.8295,19.5048
 L 38.3516,18.034 L 39.6027,17.125 L 40.8539,18.034 L 40.376,16.5631 L 41.6272,15.6541 L 40.0806,15.6541
 L 39.6027,14.1833 L 39.1248,15.6541 L 37.5783,15.6541 L 37.1004,14.1833 L 38.3516,13.2742 L 36.805,13.2742
 L 36.3271,11.8034 L 37.5783,10.8944 L 38.8295,11.8034 L 38.3516,10.3326 L 39.6027,9.42351 L 40.8539,10.3326
 L 40.376,11.8034 L 41.6272,10.8943 L 42.8783,11.8034 L 42.4004,10.3325 L 43.6516,9.42351 L 42.1051,9.42351
 L 41.6272,7.95267 L 42.8784,7.04364 L 44.1295,7.95267 L 43.6516,6.48184 L 44.9028,5.5728 L 46.154,6.48183
 L 45.6761,7.95267 L 46.9272,7.04364 L 48.1784,7.95267 L 47.7005,9.42352 L 46.154,9.42351 L 47.4051,10.3326
 L 46.9272,11.8034 L 48.1784,10.8943 L 49.4296,11.8034 L 48.9517,10.3326 L 50.2028,9.42351 L 51.454,10.3326
 L 50.9761,11.8034 L 52.2273,10.8943 L 53.4785,11.8034 L 53.0006,10.3326 L 54.2517,9.42351 L 52.7052,9.42351
 L 52.2273,7.95267 L 53.4785,7.04364 L 54.7296,7.95267 L 54.2517,6.48183 L 55.5029,5.5728 L 53.9564,5.5728
 L 53.4785,4.10196 L 53.0005,5.5728 L 51.454,5.5728 L 50.9761,4.10196 L 52.2273,3.19293 L 50.6808,3.19293
 L 50.2029,1.72208 L 51.454,0.813049 L 52.7052,1.72208 L 52.2273,0.251236 L 53.4785,-0.657776 L 54.7296,0.251251
 L 54.2517,1.72208 L 55.5029,0.813049 L 56.7541,1.72208 L 56.2762,0.251236 L 57.5273,-0.657776 L 55.9808,-0.657776
 L 55.5029,-2.12862 L 56.7541,-3.03764 L 58.0052,-2.12862 L 57.5273,-3.59946 L 58.7785,-4.5085 L 60.0297,-3.59946
 L 59.5518,-2.12862 L 60.803,-3.03764 L 62.0541,-2.12862 L 61.5762,-0.657776 L 60.0297,-0.657776 L 61.2809,0.251236
 L 60.803,1.72208 L 62.0541,0.813049 L 63.3053,1.72208 L 62.8274,0.251251 L 64.0786,-0.657776 L 65.3297,0.251236
 L 64.8519,1.72208 L 66.103,0.813049 L 67.3542,1.72209 L 66.8763,3.19293 L 65.3298,3.19293 L 66.5809,4.10196
 L 66.103,5.5728 L 64.5565,5.5728 L 64.0786,4.10196 L 63.6007,5.5728 L 62.0541,5.5728 L 63.3053,6.48183
 L 62.8274,7.95267 L 64.0786,7.04364 L 65.3297,7.95267 L 64.8518,9.42351 L 63.3053,9.42351 L 64.5565,10.3325
 L 64.0786,11.8034 L 65.3298,10.8943 L 66.5809,11.8034 L 66.103,10.3326 L 67.3542,9.42351 L 68.6054,10.3326
 L 68.1275,11.8034 L 69.3786,10.8943 L 70.6298,11.8034 L 70.1519,10.3326 L 71.4031,9.42351 L 69.8565,9.42352
 L 69.3786,7.95268 L 70.6298,7.04364 L 71.881,7.95267 L 71.4031,6.48183 L 72.6542,5.5728 L 73.9054,6.48183
 L 73.4275,7.95267 L 74.6787,7.04364 L 75.9299,7.95268 L 75.452,9.42351 L 73.9054,9.42351 L 75.1566,10.3326
 L 74.6787,11.8034 L 75.9299,10.8944 L 77.181,11.8034 L 76.7031,10.3326 L 77.9543,9.42352 L 79.2055,10.3326
 L 78.7276,11.8034 L 79.9787,10.8944 L 81.2299,11.8034 L 80.752,10.3326 L 82.0032,9.42352 L 80.4566,9.42352
 L 79.9787,7.95267 L 81.2299,7.04364 L 82.4811,7.95267 L 82.0032,6.48183 L 83.2543,5.5728 L 81.7078,5.5728
 L 81.2299,4.10196 L 80.752,5.5728 L 79.2055,5.5728 L 78.7276,4.10196 L 79.9787,3.19293 L 78.4322,3.19293
 L 77.9543,1.72208 L 79.2055,0.813049 L 80.4566,1.72209 L 79.9787,0.251251 L 81.2299,-0.657776 L 82.4811,0.251236
 L 82.0032,1.72208 L 83.2543,0.813049 L 84.5055,1.72208 L 84.0276,0.251236 L 85.2788,-0.657776 L 83.7323,-0.657776
 L 83.2543,-2.12862 L 84.5055,-3.03764 L 85.7567,-2.12862 L 85.2788,-3.59946 L 86.53,-4.50848 L 84.9834,-4.50848
 L 84.5055,-5.97934 L 84.0276,-4.5085 L 82.4811,-4.50848 L 82.0032,-5.97934 L 83.2543,-6.88837 L 81.7078,-6.88837
 L 81.2299,-8.35921 L 80.752,-6.88837 L 79.2055,-6.88837 L 80.4566,-5.97934 L 79.9787,-4.50848 L 78.4322,-4.50848
 L 77.9543,-5.97934 L 77.4764,-4.50848 L 75.9299,-4.50848 L 75.452,-5.97934 L 76.7031,-6.88837 L 75.1566,-6.88837
 L 74.6787,-8.35921 L 75.9299,-9.26823 L 77.181,-8.35921 L 76.7031,-9.83005 L 77.9543,-10.7391 L 76.4078,-10.7391
 L 75.9299,-12.2099 L 75.452,-10.7391 L 73.9054,-10.7391 L 73.4275,-12.2099 L 74.6787,-13.119 L 73.1322,-13.1189
 L 72.6543,-14.5898 L 73.9054,-15.4988 L 75.1566,-14.5898 L 74.6787,-16.0606 L 75.9299,-16.9697 L 77.181,-16.0606
 L 76.7031,-14.5898 L 77.9543,-15.4988 L 79.2055,-14.5898 L 78.7276,-16.0606 L 79.9787,-16.9697 L 78.4322,-16.9697
 L 77.9543,-18.4405 L 79.2055,-19.3495 L 80.4566,-18.4405 L 79.9787,-19.9114 L 81.2299,-20.8204 L 82.4811,-19.9114
 L 82.0032,-18.4405 L 83.2543,-19.3495 L 84.5055,-18.4405 L 84.0276,-16.9697 L 82.4811,-16.9697 L 83.7323,-16.0606
 L 83.2543,-14.5898 L 84.5055,-15.4988 L 85.7567,-14.5898 L 85.2788,-16.0606 L 86.53,-16.9697 L 87.7811,-16.0606
 L 87.3032,-14.5898 L 88.5544,-15.4988 L 89.8056,-14.5898 L 89.3277,-16.0607 L 90.5789,-16.9697 L 89.0323,-16.9697
 L 88.5544,-18.4405 L 89.8056,-19.3495 L 91.0567,-18.4405 L 90.5788,-19.9113 L 91.83,-20.8204 L 90.2835,-20.8204
 L 89.8056,-22.2912 L 89.3277,-20.8204 L 87.7811,-20.8204 L 87.3032,-22.2912 L 88.5544,-23.2003 L 87.0079,-23.2003
 L 86.53,-24.6711 L 87.7811,-25.5801 L 89.0323,-24.6711 L 88.5544,-26.1419 L 89.8056,-27.051 L 91.0567,-26.142
 L 90.5789,-24.6711 L 91.83,-25.5801 L 93.0812,-24.6711 L 92.6033,-26.142 L 93.8545,-27.051 L 92.3079,-27.051
 L 91.83,-28.5218 L 93.0812,-29.4308 L 94.3324,-28.5218 L 93.8545,-29.9927 L 95.1056,-30.9017 L 93.5591,-30.9017
 L 93.0812,-32.3725 L 92.6033,-30.9017 L 91.0568,-30.9017 L 90.5789,-32.3725 L 91.83,-33.2816 L 90.2835,-33.2816
 L 89.8056,-34.7524 L 89.3277,-33.2816 L 87.7811,-33.2816 L 89.0323,-32.3725 L 88.5544,-30.9017 L 87.0079,-30.9017
 L 86.53,-32.3725 L 86.0521,-30.9017 L 84.5055,-30.9017 L 84.0276,-32.3725 L 85.2788,-33.2816 L 83.7323,-33.2816
 L 83.2543,-34.7524 L 84.5055,-35.6614 L 85.7567,-34.7524 L 85.2788,-36.2232 L 86.53,-37.1323 L 84.9834,-37.1323
 L 84.5055,-38.6031 L 84.0276,-37.1323 L 82.4811,-37.1323 L 82.0032,-38.6031 L 83.2543,-39.5121 L 81.7078,-39.5121
 L 81.2299,-40.983 L 80.752,-39.5121 L 79.2055,-39.5121 L 80.4566,-38.6031 L 79.9787,-37.1323 L 78.4322,-37.1323
 L 77.9543,-38.6031 L 77.4764,-37.1323 L 75.9299,-37.1323 L 77.181,-36.2232 L 76.7031,-34.7524 L 77.9543,-35.6614
 L 79.2055,-34.7524 L 78.7276,-33.2816 L 77.181,-33.2816 L 78.4322,-32.3725 L 77.9543,-30.9017 L 76.4078,-30.9017
 L 75.9299,-32.3725 L 75.452,-30.9017 L 73.9054,-30.9017 L 73.4275,-32.3725 L 74.6787,-33.2816 L 73.1322,-33.2816
 L 72.6542,-34.7524 L 72.1763,-33.2816 L 70.6298,-33.2816 L 71.881,-32.3725 L 71.4031,-30.9017 L 69.8565,-30.9017
 L 69.3786,-32.3725 L 68.9007,-30.9017 L 67.3542,-30.9017 L 66.8763,-32.3725 L 68.1275,-33.2816 L 66.5809,-33.2816
 L 66.103,-34.7524 L 67.3542,-35.6614 L 68.6054,-34.7524 L 68.1275,-36.2233 L 69.3786,-37.1323 L 67.8321,-37.1323
 L 67.3542,-38.6031 L 66.8763,-37.1323 L 65.3297,-37.1323 L 64.8518,-38.6031 L 66.103,-39.5121 L 64.5565,-39.5121
 L 64.0786,-40.983 L 65.3297,-41.892 L 66.5809,-40.983 L 66.103,-42.4538 L 67.3542,-43.3629 L 68.6054,-42.4538
 L 68.1275,-40.983 L 69.3786,-41.892 L 70.6298,-40.983 L 70.1519,-42.4538 L 71.4031,-43.3629 L 69.8565,-43.3629
 L 69.3786,-44.8337 L 70.6298,-45.7427 L 71.881,-44.8337 L 71.4031,-46.3046 L 72.6542,-47.2136 L 71.1077,-47.2136
 L 70.6298,-48.6844 L 70.1519,-47.2136 L 68.6054,-47.2136 L 68.1275,-48.6844 L 69.3786,-49.5935 L 67.8321,-49.5935
 L 67.3542,-51.0643 L 66.8763,-49.5935 L 65.3297,-49.5935 L 66.5809,-48.6844 L 66.103,-47.2136 L 64.5565,-47.2136
 L 64.0786,-48.6844 L 63.6007,-47.2136 L 62.0541,-47.2136 L 61.5762,-48.6844 L 62.8274,-49.5935 L 61.2809,-49.5935
 L 60.803,-51.0643 L 62.0541,-51.9733 L 63.3053,-51.0643 L 62.8274,-52.5351 L 64.0786,-53.4442 L 62.532,-53.4442
 L 62.0541,-54.915 L 61.5762,-53.4442 L 60.0297,-53.4442 L 59.5518,-54.915 L 60.803,-55.8241 L 59.2564,-55.8241
 L 58.7785,-57.2949 L 58.3006,-55.8241 L 56.7541,-55.8241 L 58.0052,-54.915 L 57.5273,-53.4442 L 55.9808,-53.4442
 L 55.5029,-54.915 L 55.025,-53.4442 L 53.4785,-53.4442 L 54.7296,-52.5351 L 54.2517,-51.0643 L 55.5029,-51.9733
 L 56.7541,-51.0643 L 56.2762,-49.5935 L 54.7296,-49.5935 L 55.9808,-48.6844 L 55.5029,-47.2136 L 53.9564,-47.2136
 L 53.4785,-48.6844 L 53.0005,-47.2136 L 51.454,-47.2136 L 50.9761,-48.6844 L 52.2273,-49.5935 L 50.6808,-49.5935
 L 50.2029,-51.0643 L 49.7249,-49.5935 L 48.1784,-49.5935 L 49.4296,-48.6844 L 48.9517,-47.2136 L 47.4051,-47.2136
 L 46.9272,-48.6844 L 46.4493,-47.2136 L 44.9028,-47.2136 L 46.154,-46.3046 L 45.6761,-44.8337 L 46.9272,-45.7427
 L 48.1784,-44.8337 L 47.7005,-43.3629 L 46.154,-43.3629 L 47.4051,-42.4538 L 46.9272,-40.983 L 48.1784,-41.892
 L 49.4296,-40.983 L 48.9517,-42.4538 L 50.2029,-43.3629 L 51.454,-42.4538 L 50.9761,-40.983 L 52.2273,-41.892
 L 53.4785,-40.983 L 53.0005,-39.5121 L 51.454,-39.5121 L 52.7052,-38.6031 L 52.2273,-37.1323 L 50.6808,-37.1323
 L 50.2029,-38.6031 L 49.7249,-37.1323 L 48.1784,-37.1323 L 49.4296,-36.2233 L 48.9517,-34.7524 L 50.2029,-35.6614
 L 51.454,-34.7524 L 50.9761,-33.2816 L 49.4296,-33.2816 L 50.6808,-32.3725 L 50.2029,-30.9017 L 48.6563,-30.9017
 L 48.1784,-32.3725 L 47.7005,-30.9017 L 46.154,-30.9017 L 45.6761,-32.3725 L 46.9272,-33.2816 L 45.3807,-33.2816
 L 44.9028,-34.7524 L 44.4249,-33.2816 L 42.8783,-33.2816 L 44.1295,-32.3725 L 43.6516,-30.9017 L 42.1051,-30.9017
 L 41.6272,-32.3725 L 41.1493,-30.9017 L 39.6027,-30.9017 L 39.1248,-32.3725 L 40.376,-33.2816 L 38.8295,-33.2816
 L 38.3516,-34.7524 L 39.6027,-35.6614 L 40.8539,-34.7524 L 40.376,-36.2233 L 41.6272,-37.1323 L 40.0806,-37.1323
 L 39.6027,-38.6031 L 39.1248,-37.1323 L 37.5783,-37.1323 L 37.1004,-38.6031 L 38.3516,-39.5121 L 36.805,-39.5121
 L 36.3271,-40.983 L 35.8492,-39.5121 L 34.3027,-39.5121 L 35.5538,-38.6031 L 35.0759,-37.1323 L 33.5294,-37.1323
 L 33.0515,-38.6031 L 32.5736,-37.1323 L 31.0271,-37.1323 L 32.2782,-36.2233 L 31.8003,-34.7524 L 33.0515,-35.6614
 L 34.3027,-34.7524 L 33.8248,-33.2816 L 32.2782,-33.2816 L 33.5294,-32.3725 L 33.0515,-30.9017 L 31.505,-30.9017
 L 31.0271,-32.3725 L 30.5492,-30.9017 L 29.0026,-30.9017 L 28.5247,-32.3725 L 29.7759,-33.2816 L 28.2294,-33.2816
 L 27.7514,-34.7524 L 27.2735,-33.2816 L 25.727,-33.2816 L 26.9782,-32.3725 L 26.5003,-30.9017 L 24.9538,-30.9017
 L 24.4758,-32.3725 L 23.9979,-30.9017 L 22.4514,-30.9017 L 21.9735,-32.3725 L 23.2247,-33.2816 L 21.6781,-33.2816
 L 21.2002,-34.7524 L 22.4514,-35.6614 L 23.7026,-34.7524 L 23.2247,-36.2233 L 24.4758,-37.1323 L 22.9293,-37.1323
 L 22.4514,-38.6031 L 21.9735,-37.1323 L 20.427,-37.1323 L 19.9491,-38.6031 L 21.2002,-39.5122 L 19.6537,-39.5122
 L 19.1758,-40.983 L 20.4269,-41.892 L 21.6781,-40.983 L 21.2002,-42.4538 L 22.4514,-43.3629 L 23.7026,-42.4538
 L 23.2247,-40.983 L 24.4758,-41.892 L 25.727,-40.983 L 25.2491,-42.4538 L 26.5003,-43.3629 L 24.9537,-43.3629
 L 24.4758,-44.8337 L 25.727,-45.7428 L 26.9782,-44.8337 L 26.5003,-46.3046 L 27.7514,-47.2136 L 26.2049,-47.2136
 L 25.727,-48.6844 L 25.2491,-47.2136 L 23.7026,-47.2136 L 23.2247,-48.6844 L 24.4758,-49.5935 L 22.9293,-49.5935
 L 22.4514,-51.0643 L 21.9735,-49.5935 L 20.4269,-49.5935 L 21.6781,-48.6844 L 21.2002,-47.2136 L 19.6537,-47.2136
 L 19.1758,-48.6844 L 18.6979,-47.2136 L 17.1513,-47.2136 L 16.6734,-48.6844 L 17.9246,-49.5935 L 16.3781,-49.5935
 L 15.9002,-51.0643 L 17.1513,-51.9733 L 18.4025,-51.0643 L 17.9246,-52.5352 L 19.1758,-53.4442 L 17.6292,-53.4442
 L 17.1513,-54.915 L 16.6734,-53.4442 L 15.1269,-53.4442 L 14.649,-54.915 L 15.9002,-55.8241 L 14.3536,-55.8241
 L 13.8757,-57.2949 L 15.1269,-58.2039 L 16.3781,-57.2949 L 15.9002,-58.7657 L 17.1513,-59.6748 L 18.4025,-58.7657
 L 17.9246,-57.2949 L 19.1758,-58.2039 L 20.4269,-57.2949 L 19.9491,-58.7657 L 21.2002,-59.6748 L 19.6537,-59.6748
 L 19.1758,-61.1456 L 20.4269,-62.0546 L 21.6781,-61.1456 L 21.2002,-62.6164 L 22.4514,-63.5255 L 23.7026,-62.6165
 L 23.2247,-61.1456 L 24.4758,-62.0546 L 25.727,-61.1456 L 25.2491,-59.6748 L 23.7026,-59.6748 L 24.9537,-58.7657
 L 24.4758,-57.2949 L 25.727,-58.2039 L 26.9782,-57.2949 L 26.5003,-58.7657 L 27.7514,-59.6748 L 29.0026,-58.7657
 L 28.5247,-57.2949 L 29.7759,-58.2039 L 31.0271,-57.2949 L 30.5491,-58.7657 L 31.8003,-59.6748 L 30.2538,-59.6748
 L 29.7759,-61.1456 L 31.0271,-62.0546 L 32.2782,-61.1456 L 31.8003,-62.6165 L 33.0515,-63.5255 L 31.505,-63.5255
 L 31.0271,-64.9963 L 30.5491,-63.5255 L 29.0026,-63.5255 L 28.5247,-64.9963 L 29.7759,-65.9053 L 28.2294,-65.9053
 L 27.7514,-67.3762 L 29.0026,-68.2852 L 30.2538,-67.3762 L 29.7759,-68.847 L 31.0271,-69.7561 L 32.2782,-68.847
 L 31.8003,-67.3762 L 33.0515,-68.2852 L 34.3027,-67.3762 L 33.8248,-68.847 L 35.0759,-69.7561 L 33.5294,-69.7561
 L 33.0515,-71.2269 L 34.3027,-72.1359 L 35.5538,-71.2269 L 35.0759,-72.6978 L 36.3271,-73.6068 L 34.7806,-73.6068
 L 34.3027,-75.0776 L 33.8248,-73.6068 L 32.2782,-73.6068 L 31.8003,-75.0776 L 33.0515,-75.9867 L 31.505,-75.9867
 L 31.0271,-77.4575 L 30.5491,-75.9867 L 29.0026,-75.9867 L 30.2538,-75.0776 L 29.7759,-73.6068 L 28.2294,-73.6068
 L 27.7514,-75.0776 L 27.2735,-73.6068 L 25.727,-73.6068 L 25.2491,-75.0776 L 26.5003,-75.9867 L 24.9537,-75.9867
 L 24.4758,-77.4575 L 25.727,-78.3665 L 26.9782,-77.4575 L 26.5003,-78.9283 L 27.7514,-79.8374 L 26.2049,-79.8374
 L 25.727,-81.3082 L 25.2491,-79.8374 L 23.7026,-79.8374 L 23.2247,-81.3082 L 24.4758,-82.2172 L 22.9293,-82.2172
 L 22.4514,-83.6881 L 21.9735,-82.2172 L 20.4269,-82.2172 L 21.6781,-81.3082 L 21.2002,-79.8374 L 19.6537,-79.8374
 L 19.1758,-81.3082 L 18.6979,-79.8374 L 17.1513,-79.8374 L 18.4025,-78.9283 L 17.9246,-77.4575 L 19.1758,-78.3665
 L 20.427,-77.4575 L 19.9491,-75.9867 L 18.4025,-75.9867 L 19.6537,-75.0776 L 19.1758,-73.6068 L 17.6292,-73.6068
 L 17.1513,-75.0776 L 16.6734,-73.6068 L 15.1269,-73.6068 L 14.649,-75.0776 L 15.9002,-75.9867 L 14.3536,-75.9867
 L 13.8757,-77.4575 L 13.3978,-75.9867 L 11.8513,-75.9867 L 13.1024,-75.0776 L 12.6245,-73.6068 L 11.078,-73.6068
 L 10.6001,-75.0776 L 10.1222,-73.6068 L 8.57567,-73.6068 L 8.09776,-75.0776 L 9.34892,-75.9867 L 7.8024,-75.9867
 L 7.32449,-77.4575 L 8.57567,-78.3665 L 9.82683,-77.4575 L 9.34892,-78.9283 L 10.6001,-79.8374 L 9.05356,-79.8374
 L 8.57565,-81.3082 L 8.09775,-79.8374 L 6.55124,-79.8374 L 6.07333,-81.3082 L 7.32448,-82.2173 L 5.77797,-82.2173
 L 5.30005,-83.6881 L 6.55122,-84.5971 L 7.80238,-83.6881 L 7.32449,-85.1589 L 8.57565,-86.068 L 9.82683,-85.1589
 L 9.34892,-83.6881 L 10.6001,-84.5971 L 11.8513,-83.6881 L 11.3734,-85.1589 L 12.6245,-86.068 L 11.078,-86.068
 L 10.6001,-87.5388 L 11.8513,-88.4478 L 13.1024,-87.5388 L 12.6245,-89.0097 L 13.8757,-89.9187 L 12.3292,-89.9187
 L 11.8513,-91.3895 L 11.3734,-89.9187 L 9.82683,-89.9187 L 9.34892,-91.3895 L 10.6001,-92.2986 L 9.05356,-92.2986
 L 8.57565,-93.7694 L 8.09775,-92.2986 L 6.55122,-92.2986 L 7.8024,-91.3895 L 7.32449,-89.9187 L 5.77795,-89.9187
 L 5.30005,-91.3895 L 4.82214,-89.9187 L 3.27562,-89.9187 L 2.79771,-91.3895 L 4.04887,-92.2986 L 2.50235,-92.2986
 L 2.02444,-93.7694 L 3.2756,-94.6784 L 4.52678,-93.7694 L 4.04887,-95.2402 L 5.30005,-96.1493 L 3.75351,-96.1493
 L 3.2756,-97.6201 L 2.7977,-96.1493 L 1.25117,-96.1493 L 0.77327,-97.6201 L 2.02443,-98.5291 L 0.477905,-98.5291
 L 0,-100 L -0.477905,-98.5291 L -2.02443,-98.5291 L -0.77327,-97.6201 L -1.25117,-96.1493 L -2.7977,-96.1493
 L -3.2756,-97.6201 L -3.75351,-96.1493 L -5.30005,-96.1493 L -4.04887,-95.2402 L -4.52678,-93.7694 L -3.2756,-94.6784
 L -2.02444,-93.7694 L -2.50235,-92.2986 L -4.04887,-92.2986 L -2.79771,-91.3895 L -3.27562,-89.9187 L -4.82214,-89.9187
 L -5.30005,-91.3895 L -5.77795,-89.9187 L -7.32449,-89.9187 L -7.8024,-91.3895 L -6.55122,-92.2986 L -8.09775,-92.2986
 L -8.57565,-93.7694 L -9.05356,-92.2986 L -10.6001,-92.2986 L -9.34892,-91.3895 L -9.82683,-89.9187 L -11.3734,-89.9187
 L -11.8513,-91.3895 L -12.3292,-89.9187 L -13.8757,-89.9187 L -12.6245,-89.0097 L -13.1024,-87.5388 L -11.8513,-88.4478
 L -10.6001,-87.5388 L -11.078,-86.068 L -12.6245,-86.068 L -11.3734,-85.1589 L -11.8513,-83.6881 L -10.6001,-84.5971
 L -9.34892,-83.6881 L -9.82683,-85.1589 L -8.57565,-86.068 L -7.32449,-85.1589 L -7.80238,-83.6881 L -6.55122,-84.5971
 L -5.30005,-83.6881 L -5.77797,-82.2173 L -7.32448,-82.2173 L -6.07333,-81.3082 L -6.55124,-79.8374 L -8.09775,-79.8374
 L -8.57565,-81.3082 L -9.05356,-79.8374 L -10.6001,-79.8374 L -9.34892,-78.9283 L -9.82683,-77.4575 L -8.57567,-78.3665
 L -7.32449,-77.4575 L -7.8024,-75.9867 L -9.34892,-75.9867 L -8.09776,-75.0776 L -8.57567,-73.6068 L -10.1222,-73.6068
 L -10.6001,-75.0776 L -11.078,-73.6068 L -12.6245,-73.6068 L -13.1024,-75.0776 L -11.8513,-75.9867 L -13.3978,-75.9867
 L -13.8757,-77.4575 L -14.3536,-75.9867 L -15.9002,-75.9867 L -14.649,-75.0776 L -15.1269,-73.6068 L -16.6734,-73.6068
 L -17.1513,-75.0776 L -17.6292,-73.6068 L -19.1758,-73.6068 L -19.6537,-75.0776 L -18.4025,-75.9867 L -19.9491,-75.9867
 L -20.427,-77.4575 L -19.1758,-78.3665 L -17.9246,-77.4575 L -18.4025,-78.9283 L -17.1513,-79.8374 L -18.6979,-79.8374
 L -19.1758,-81.3082 L -19.6537,-79.8374 L -21.2002,-79.8374 L -21.6781,-81.3082 L -20.4269,-82.2172 L -21.9735,-82.2172
 L -22.4514,-83.6881 L -22.9293,-82.2172 L -24.4758,-82.2172 L -23.2247,-81.3082 L -23.7026,-79.8374 L -25.2491,-79.8374
 L -25.727,-81.3082 L -26.2049,-79.8374 L -27.7514,-79.8374 L -26.5003,-78.9283 L -26.9782,-77.4575 L -25.727,-78.3665
 L -24.4758,-77.4575 L -24.9537,-75.9867 L -26.5003,-75.9867 L -25.2491,-75.0776 L -25.727,-73.6068 L -27.2735,-73.6068
 L -27.7514,-75.0776 L -28.2294,-73.6068 L -29.7759,-73.6068 L -30.2538,-75.0776 L -29.0026,-75.9867 L -30.5491,-75.9867
 L -31.0271,-77.4575 L -31.505,-75.9867 L -33.0515,-75.9867 L -31.8003,-75.0776 L -32.2782,-73.6068 L -33.8248,-73.6068
 L -34.3027,-75.0776 L -34.7806,-73.6068 L -36.3271,-73.6068 L -35.0759,-72.6978 L -35.5538,-71.2269 L -34.3027,-72.1359
 L -33.0515,-71.2269 L -33.5294,-69.7561 L -35.0759,-69.7561 L -33.8248,-68.847 L -34.3027,-67.3762 L -33.0515,-68.2852
 L -31.8003,-67.3762 L -32.2782,-68.847 L -31.0271,-69.7561 L -29.7759,-68.847 L -30.2538,-67.3762 L -29.0026,-68.2852
 L -27.7514,-67.3762 L -28.2294,-65.9053 L -29.7759,-65.9053 L -28.5247,-64.9963 L -29.0026,-63.5255 L -30.5491,-63.5255
 L -31.0271,-64.9963 L -31.505,-63.5255 L -33.0515,-63.5255 L -31.8003,-62.6165 L -32.2782,-61.1456 L -31.0271,-62.0546
 L -29.7759,-61.1456 L -30.2538,-59.6748 L -31.8003,-59.6748 L -30.5491,-58.7657 L -31.0271,-57.2949 L -29.7759,-58.2039
 L -28.5247,-57.2949 L -29.0026,-58.7657 L -27.7514,-59.6748 L -26.5003,-58.7657 L -26.9782,-57.2949 L -25.727,-58.2039
 L -24.4758,-57.2949 L -24.9537,-58.7657 L -23.7026,-59.6748 L -25.2491,-59.6748 L -25.727,-61.1456 L -24.4758,-62.0546
 L -23.2247,-61.1456 L -23.7026,-62.6165 L -22.4514,-63.5255 L -21.2002,-62.6164 L -21.6781,-61.1456 L -20.4269,-62.0546
 L -19.1758,-61.1456 L -19.6537,-59.6748 L -21.2002,-59.6748 L -19.9491,-58.7657 L -20.4269,-57.2949 L -19.1758,-58.2039
 L -17.9246,-57.2949 L -18.4025,-58.7657 L -17.1513,-59.6748 L -15.9002,-58.7657 L -16.3781,-57.2949 L -15.1269,-58.2039
 L -13.8757,-57.2949 L -14.3536,-55.8241 L -15.9002,-55.8241 L -14.649,-54.915 L -15.1269,-53.4442 L -16.6734,-53.4442
 L -17.1513,-54.915 L -17.6292,-53.4442 L -19.1758,-53.4442 L -17.9246,-52.5352 L -18.4025,-51.0643 L -17.1513,-51.9733
 L -15.9002,-51.0643 L -16.3781,-49.5935 L -17.9246,-49.5935 L -16.6734,-48.6844 L -17.1513,-47.2136 L -18.6979,-47.2136
 L -19.1758,-48.6844 L -19.6537,-47.2136 L -21.2002,-47.2136 L -21.6781,-48.6844 L -20.4269,-49.5935 L -21.9735,-49.5935
 L -22.4514,-51.0643 L -22.9293,-49.5935 L -24.4758,-49.5935 L -23.2247,-48.6844 L -23.7026,-47.2136 L -25.2491,-47.2136
 L -25.727,-48.6844 L -26.2049,-47.2136 L -27.7514,-47.2136 L -26.5003,-46.3046 L -26.9782,-44.8337 L -25.727,-45.7428
 L -24.4758,-44.8337 L -24.9537,-43.3629 L -26.5003,-43.3629 L -25.2491,-42.4538 L -25.727,-40.983 L -24.4758,-41.892
 L -23.2247,-40.983 L -23.7026,-42.4538 L -22.4514,-43.3629 L -21.2002,-42.4538 L -21.6781,-40.983 L -20.4269,-41.892
 L -19.1758,-40.983 L -19.6537,-39.5122 L -21.2002,-39.5122 L -19.9491,-38.6031 L -20.427,-37.1323 L -21.9735,-37.1323
 L -22.4514,-38.6031 L -22.9293,-37.1323 L -24.4758,-37.1323 L -23.2247,-36.2233 L -23.7026,-34.7524 L -22.4514,-35.6614
 L -21.2002,-34.7524 L -21.6781,-33.2816 L -23.2247,-33.2816 L -21.9735,-32.3725 L -22.4514,-30.9017 L -23.9979,-30.9017
 L -24.4758,-32.3725 L -24.9538,-30.9017 L -26.5003,-30.9017 L -26.9782,-32.3725 L -25.727,-33.2816 L -27.2735,-33.2816
 L -27.7514,-34.7524 L -28.2294,-33.2816 L -29.7759,-33.2816 L -28.5247,-32.3725 L -29.0026,-30.9017 L -30.5492,-30.9017
 L -31.0271,-32.3725 L -31.505,-30.9017 L -33.0515,-30.9017 L -33.5294,-32.3725 L -32.2782,-33.2816 L -33.8248,-33.2816
 L -34.3027,-34.7524 L -33.0515,-35.6614 L -31.8003,-34.7524 L -32.2782,-36.2233 L -31.0271,-37.1323 L -32.5736,-37.1323
 L -33.0515,-38.6031 L -33.5294,-37.1323 L -35.0759,-37.1323 L -35.5538,-38.6031 L -34.3027,-39.5121 L -35.8492,-39.5121
 L -36.3271,-40.983 L -36.805,-39.5121 L -38.3516,-39.5121 L -37.1004,-38.6031 L -37.5783,-37.1323 L -39.1248,-37.1323
 L -39.6027,-38.6031 L -40.0806,-37.1323 L -41.6272,-37.1323 L -40.376,-36.2233 L -40.8539,-34.7524 L -39.6027,-35.6614
 L -38.3516,-34.7524 L -38.8295,-33.2816 L -40.376,-33.2816 L -39.1248,-32.3725 L -39.6027,-30.9017 L -41.1493,-30.9017
 L -41.6272,-32.3725 L -42.1051,-30.9017 L -43.6516,-30.9017 L -44.1295,-32.3725 L -42.8783,-33.2816 L -44.4249,-33.2816
 L -44.9028,-34.7524 L -45.3807,-33.2816 L -46.9272,-33.2816 L -45.6761,-32.3725 L -46.154,-30.9017 L -47.7005,-30.9017
 L -48.1784,-32.3725 L -48.6563,-30.9017 L -50.2029,-30.9017 L -50.6808,-32.3725 L -49.4296,-33.2816 L -50.9761,-33.2816
 L -51.454,-34.7524 L -50.2029,-35.6614 L -48.9517,-34.7524 L -49.4296,-36.2233 L -48.1784,-37.1323 L -49.7249,-37.1323
 L -50.2029,-38.6031 L -50.6808,-37.1323 L -52.2273,-37.1323 L -52.7052,-38.6031 L -51.454,-39.5121 L -53.0005,-39.5121
 L -53.4785,-40.983 L -52.2273,-41.892 L -50.9761,-40.983 L -51.454,-42.4538 L -50.2029,-43.3629 L -48.9517,-42.4538
 L -49.4296,-40.983 L -48.1784,-41.892 L -46.9272,-40.983 L -47.4051,-42.4538 L -46.154,-43.3629 L -47.7005,-43.3629
 L -48.1784,-44.8337 L -46.9272,-45.7427 L -45.6761,-44.8337 L -46.154,-46.3046 L -44.9028,-47.2136 L -46.4493,-47.2136
 L -46.9272,-48.6844 L -47.4051,-47.2136 L -48.9517,-47.2136 L -49.4296,-48.6844 L -48.1784,-49.5935 L -49.7249,-49.5935
 L -50.2029,-51.0643 L -50.6808,-49.5935 L -52.2273,-49.5935 L -50.9761,-48.6844 L -51.454,-47.2136 L -53.0005,-47.2136
 L -53.4785,-48.6844 L -53.9564,-47.2136 L -55.5029,-47.2136 L -55.9808,-48.6844 L -54.7296,-49.5935 L -56.2762,-49.5935
 L -56.7541,-51.0643 L -55.5029,-51.9733 L -54.2517,-51.0643 L -54.7296,-52.5351 L -53.4785,-53.4442 L -55.025,-53.4442
 L -55.5029,-54.915 L -55.9808,-53.4442 L -57.5273,-53.4442 L -58.0052,-54.915 L -56.7541,-55.8241 L -58.3006,-55.8241
 L -58.7785,-57.2949 L -59.2564,-55.8241 L -60.803,-55.8241 L -59.5518,-54.915 L -60.0297,-53.4442 L -61.5762,-53.4442
 L -62.0541,-54.915 L -62.532,-53.4442 L -64.0786,-53.4442 L -62.8274,-52.5351 L -63.3053,-51.0643 L -62.0541,-51.9733
 L -60.803,-51.0643 L -61.2809,-49.5935 L -62.8274,-49.5935 L -61.5762,-48.6844 L -62.0541,-47.2136 L -63.6007,-47.2136
 L -64.0786,-48.6844 L -64.5565,-47.2136 L -66.103,-47.2136 L -66.5809,-48.6844 L -65.3297,-49.5935 L -66.8763,-49.5935
 L -67.3542,-51.0643 L -67.8321,-49.5935 L -69.3786,-49.5935 L -68.1275,-48.6844 L -68.6054,-47.2136 L -70.1519,-47.2136
 L -70.6298,-48.6844 L -71.1077,-47.2136 L -72.6542,-47.2136 L -71.4031,-46.3046 L -71.881,-44.8337 L -70.6298,-45.7427
 L -69.3786,-44.8337 L -69.8565,-43.3629 L -71.4031,-43.3629 L -70.1519,-42.4538 L -70.6298,-40.983 L -69.3786,-41.892
 L -68.1275,-40.983 L -68.6054,-42.4538 L -67.3542,-43.3629 L -66.103,-42.4538 L -66.5809,-40.983 L -65.3297,-41.892
 L -64.0786,-40.983 L -64.5565,-39.5121 L -66.103,-39.5121 L -64.8518,-38.6031 L -65.3297,-37.1323 L -66.8763,-37.1323
 L -67.3542,-38.6031 L -67.8321,-37.1323 L -69.3786,-37.1323 L -68.1275,-36.2233 L -68.6054,-34.7524 L -67.3542,-35.6614
 L -66.103,-34.7524 L -66.5809,-33.2816 L -68.1275,-33.2816 L -66.8763,-32.3725 L -67.3542,-30.9017 L -68.9007,-30.9017
 L -69.3786,-32.3725 L -69.8565,-30.9017 L -71.4031,-30.9017 L -71.881,-32.3725 L -70.6298,-33.2816 L -72.1763,-33.2816
 L -72.6543,-34.7524 L -73.1322,-33.2816 L -74.6787,-33.2816 L -73.4275,-32.3725 L -73.9054,-30.9017 L -75.452,-30.9017
 L -75.9299,-32.3725 L -76.4078,-30.9017 L -77.9543,-30.9017 L -78.4322,-32.3725 L -77.181,-33.2816 L -78.7276,-33.2816
 L -79.2055,-34.7524 L -77.9543,-35.6614 L -76.7031,-34.7524 L -77.181,-36.2232 L -75.9299,-37.1323 L -77.4764,-37.1323
 L -77.9543,-38.6031 L -78.4322,-37.1323 L -79.9787,-37.1323 L -80.4566,-38.6031 L -79.2055,-39.5121 L -80.752,-39.5121
 L -81.2299,-40.983 L -81.7078,-39.5121 L -83.2543,-39.5121 L -82.0032,-38.6031 L -82.4811,-37.1323 L -84.0276,-37.1323
 L -84.5055,-38.6031 L -84.9834,-37.1323 L -86.53,-37.1323 L -85.2788,-36.2232 L -85.7567,-34.7524 L -84.5055,-35.6614
 L -83.2543,-34.7524 L -83.7323,-33.2816 L -85.2788,-33.2816 L -84.0276,-32.3725 L -84.5055,-30.9017 L -86.0521,-30.9017
 L -86.53,-32.3725 L -87.0079,-30.9017 L -88.5544,-30.9017 L -89.0323,-32.3725 L -87.7811,-33.2816 L -89.3277,-33.2816
 L -89.8056,-34.7524 L -90.2835,-33.2816 L -91.83,-33.2816 L -90.5789,-32.3725 L -91.0568,-30.9017 L -92.6033,-30.9017
 L -93.0812,-32.3725 L -93.5591,-30.9017 L -95.1056,-30.9017 L -93.8545,-29.9927 L -94.3324,-28.5218 L -93.0812,-29.4308
 L -91.83,-28.5218 L -92.3079,-27.051 L -93.8545,-27.051 L -92.6033,-26.142 L -93.0812,-24.6711 L -91.83,-25.5801
 L -90.5789,-24.6711 L -91.0567,-26.142 L -89.8056,-27.051 L -88.5544,-26.1419 L -89.0323,-24.6711 L -87.7811,-25.5801
 L -86.53,-24.6711 L -87.0079,-23.2003 L -88.5544,-23.2003 L -87.3032,-22.2912 L -87.7811,-20.8204 L -89.3277,-20.8204
 L -89.8056,-22.2912 L -90.2835,-20.8204 L -91.83,-20.8204 L -90.5788,-19.9113 L -91.0567,-18.4405 L -89.8056,-19.3495
 L -88.5544,-18.4405 L -89.0323,-16.9697 L -90.5789,-16.9697 L -89.3277,-16.0607 L -89.8056,-14.5898 L -88.5544,-15.4988
 L -87.3032,-14.5898 L -87.7811,-16.0606 L -86.53,-16.9697 L -85.2788,-16.0606 L -85.7567,-14.5898 L -84.5055,-15.4988
 L -83.2543,-14.5898 L -83.7323,-16.0606 L -82.4811,-16.9697 L -84.0276,-16.9697 L -84.5055,-18.4405 L -83.2543,-19.3495
 L -82.0032,-18.4405 L -82.4811,-19.9114 L -81.2299,-20.8204 L -79.9787,-19.9114 L -80.4566,-18.4405 L -79.2055,-19.3495
 L -77.9543,-18.4405 L -78.4322,-16.9697 L -79.9787,-16.9697 L -78.7276,-16.0606 L -79.2055,-14.5898 L -77.9543,-15.4988
 L -76.7031,-14.5898 L -77.181,-16.0606 L -75.9299,-16.9697 L -74.6787,-16.0606 L -75.1566,-14.5898 L -73.9054,-15.4988
 L -72.6542,-14.5898 L -73.1321,-13.1189 L -74.6787,-13.119 L -73.4275,-12.2099 L -73.9054,-10.7391 L -75.452,-10.7391
 L -75.9299,-12.2099 L -76.4078,-10.7391 L -77.9543,-10.7391 L -76.7031,-9.83005 L -77.181,-8.35921 L -75.9299,-9.26823
 L -74.6787,-8.35921 L -75.1566,-6.88837 L -76.7031,-6.88837 L -75.452,-5.97934 L -75.9299,-4.50848 L -77.4764,-4.50848
 L -77.9543,-5.97934 L -78.4322,-4.50848 L -79.9787,-4.50848 L -80.4566,-5.97934 L -79.2055,-6.88837 L -80.752,-6.88837
 L -81.2299,-8.35921 L -81.7078,-6.88837 L -83.2543,-6.88837 L -82.0032,-5.97934 L -82.4811,-4.50848 L -84.0276,-4.5085
 L -84.5055,-5.97934 L -84.9834,-4.50848 L -86.53,-4.50848 L -85.2788,-3.59946 L -85.7567,-2.12862 L -84.5055,-3.03764
 L -83.2543,-2.12862 L -83.7323,-0.657776 L -85.2788,-0.657776 L -84.0276,0.251236 L -84.5055,1.72208 L -83.2543,0.813049
 L -82.0032,1.72208 L -82.4811,0.251236 L -81.2299,-0.657776 L -79.9787,0.251251 L -80.4566,1.72209 L -79.2055,0.813049
 L -77.9543,1.72208 L -78.4322,3.19293 L -79.9787,3.19293 L -78.7276,4.10196 L -79.2055,5.5728 L -80.752,5.5728
 L -81.2299,4.10196 L -81.7078,5.5728 L -83.2543,5.5728 L -82.0032,6.48183 L -82.4811,7.95267 L -81.2299,7.04364
 L -79.9787,7.95267 L -80.4566,9.42352 L -82.0032,9.42352 L -80.752,10.3326 L -81.2299,11.8034 L -79.9787,10.8944
 L -78.7276,11.8034 L -79.2055,10.3326 L -77.9543,9.42352 L -76.7031,10.3326 L -77.181,11.8034 L -75.9299,10.8944
 L -74.6787,11.8034 L -75.1566,10.3326 L -73.9054,9.42351 L -75.452,9.42351 L -75.9299,7.95268 L -74.6787,7.04364
 L -73.4275,7.95267 L -73.9054,6.48183 L -72.6542,5.5728 L -71.4031,6.48183 L -71.881,7.95267 L -70.6298,7.04364
 L -69.3786,7.95268 L -69.8565,9.42352 L -71.4031,9.42351 L -70.1519,10.3326 L -70.6298,11.8034 L -69.3786,10.8943
 L -68.1275,11.8034 L -68.6054,10.3326 L -67.3542,9.42351 L -66.103,10.3326 L -66.5809,11.8034 L -65.3298,10.8943
 L -64.0786,11.8034 L -64.5565,10.3325 L -63.3053,9.42351 L -64.8518,9.42351 L -65.3297,7.95267 L -64.0786,7.04364
 L -62.8274,7.95267 L -63.3053,6.48183 L -62.0541,5.5728 L -63.6007,5.5728 L -64.0786,4.10196 L -64.5565,5.5728
 L -66.103,5.5728 L -66.5809,4.10196 L -65.3298,3.19293 L -66.8763,3.19293 L -67.3542,1.72209 L -66.103,0.813049
 L -64.8519,1.72208 L -65.3297,0.251236 L -64.0786,-0.657776 L -62.8274,0.251251 L -63.3053,1.72208 L -62.0541,0.813049
 L -60.803,1.72208 L -61.2809,0.251236 L -60.0297,-0.657776 L -61.5762,-0.657776 L -62.0541,-2.12862 L -60.803,-3.03764
 L -59.5518,-2.12862 L -60.0297,-3.59946 L -58.7785,-4.5085 L -57.5273,-3.59946 L -58.0052,-2.12862 L -56.7541,-3.03764
 L -55.5029,-2.12862 L -55.9808,-0.657776 L -57.5273,-0.657776 L -56.2762,0.251236 L -56.7541,1.72208 L -55.5029,0.813049
 L -54.2517,1.72208 L -54.7296,0.251251 L -53.4785,-0.657776 L -52.2273,0.251236 L -52.7052,1.72208 L -51.454,0.813049
 L -50.2029,1.72208 L -50.6808,3.19293 L -52.2273,3.19293 L -50.9761,4.10196 L -51.454,5.5728 L -53.0005,5.5728
 L -53.4785,4.10196 L -53.9564,5.5728 L -55.5029,5.5728 L -54.2517,6.48183 L -54.7296,7.95267 L -53.4785,7.04364
 L -52.2273,7.95267 L -52.7052,9.42351 L -54.2517,9.42351 L -53.0006,10.3326 L -53.4785,11.8034 L -52.2273,10.8943
 L -50.9761,11.8034 L -51.454,10.3326 L -50.2028,9.42351 L -48.9517,10.3326 L -49.4296,11.8034 L -48.1784,10.8943
 L -46.9272,11.8034 L -47.4051,10.3326 L -46.154,9.42351 L -47.7005,9.42352 L -48.1784,7.95267 L -46.9272,7.04364
 L -45.6761,7.95267 L -46.154,6.48183 L -44.9028,5.5728 L -43.6516,6.48184 L -44.1295,7.95267 L -42.8784,7.04364
 L -41.6272,7.95267 L -42.1051,9.42351 L -43.6516,9.42351 L -42.4004,10.3325 L -42.8783,11.8034 L -41.6272,10.8943
 L -40.376,11.8034 L -40.8539,10.3326 L -39.6027,9.42351 L -38.3516,10.3326 L -38.8295,11.8034 L -37.5783,10.8944
 L -36.3271,11.8034 L -36.805,13.2742 L -38.3516,13.2742 L -37.1004,14.1833 L -37.5783,15.6541 L -39.1248,15.6541
 L -39.6027,14.1833 L -40.0806,15.6541 L -41.6272,15.6541 L -40.376,16.5631 L -40.8539,18.034 L -39.6027,17.125
 L -38.3516,18.034 L -38.8295,19.5048 L -40.376,19.5048 L -39.1248,20.4139 L -39.6027,21.8847 L -41.1493,21.8847
 L -41.6272,20.4139 L -42.1051,21.8847 L -43.6516,21.8847 L -44.1295,20.4139 L -42.8784,19.5048 L -44.4249,19.5048
 L -44.9028,18.034 L -45.3807,19.5048 L -46.9272,19.5048 L -45.6761,20.4139 L -46.154,21.8847 L -47.7005,21.8847
 L -48.1784,20.4139 L -48.6563,21.8847 L -50.2028,21.8847 L -48.9517,22.7937 L -49.4296,24.2646 L -48.1784,23.3555
 L -46.9272,24.2646 L -47.4051,25.7354 L -48.9517,25.7354 L -47.7005,26.6445 L -48.1784,28.1153 L -46.9272,27.2063
 L -45.6761,28.1153 L -46.154,26.6444 L -44.9028,25.7354 L -43.6516,26.6445 L -44.1295,28.1153 L -42.8783,27.2063
 L -41.6272,28.1153 L -42.1051,29.5861 L -43.6516,29.5861 L -42.4004,30.4952 L -42.8783,31.966 L -44.4249,31.966
 L -44.9028,30.4952 L -45.3807,31.966 L -46.9272,31.966 L -45.6761,32.875 L -46.154,34.3459 L -44.9028,33.4368
 L -43.6516,34.3459 L -44.1295,35.8167 L -45.6761,35.8167 L -44.4249,36.7258 L -44.9028,38.1966 L -46.4493,38.1966
 L -46.9272,36.7258 L -47.4051,38.1966 L -48.9517,38.1966 L -49.4296,36.7258 L -48.1784,35.8167 L -49.7249,35.8167
 L -50.2029,34.3459 L -50.6808,35.8167 L -52.2273,35.8167 L -50.9761,36.7258 L -51.454,38.1966 L -53.0005,38.1966
 L -53.4785,36.7258 L -53.9564,38.1966 L -55.5029,38.1966 L -55.9808,36.7258 L -54.7296,35.8167 L -56.2762,35.8167
 L -56.7541,34.3459 L -55.5029,33.4369 L -54.2517,34.3459 L -54.7296,32.875 L -53.4785,31.966 L -55.025,31.966
 L -55.5029,30.4952 L -55.9808,31.966 L -57.5273,31.966 L -58.0052,30.4952 L -56.7541,29.5861 L -58.3006,29.5861
 L -58.7785,28.1153 L -59.2564,29.5861 L -60.803,29.5861 L -59.5518,30.4952 L -60.0297,31.966 L -61.5762,31.966
 L -62.0541,30.4952 L -62.532,31.966 L -64.0786,31.966 L -62.8274,32.875 L -63.3053,34.3459 L -62.0541,33.4368
 L -60.8029,34.3459 L -61.2809,35.8167 L -62.8274,35.8167 L -61.5762,36.7258 L -62.0541,38.1966 L -63.6007,38.1966
 L -64.0786,36.7258 L -64.5565,38.1966 L -66.103,38.1966 L -66.5809,36.7258 L -65.3297,35.8167 L -66.8763,35.8167
 L -67.3542,34.3459 L -67.8321,35.8167 L -69.3786,35.8167 L -68.1275,36.7258 L -68.6054,38.1966 L -70.1519,38.1966
 L -70.6298,36.7258 L -71.1077,38.1966 L -72.6542,38.1966 L -71.4031,39.1056 L -71.881,40.5765 L -70.6298,39.6674
 L -69.3786,40.5765 L -69.8565,42.0473 L -71.4031,42.0473 L -70.1519,42.9563 L -70.6298,44.4272 L -69.3786,43.5182
 L -68.1275,44.4272 L -68.6054,42.9563 L -67.3542,42.0473 L -66.103,42.9563 L -66.5809,44.4272 L -65.3297,43.5181
 L -64.0786,44.4272 L -64.5565,45.898 L -66.103,45.898 L -64.8518,46.8071 L -65.3297,48.2779 L -66.8763,48.2779
 L -67.3542,46.8071 L -67.8321,48.2779 L -69.3786,48.2779 L -68.1275,49.1869 L -68.6054,50.6578 L -67.3542,49.7487
 L -66.103,50.6578 L -66.5809,52.1286 L -68.1274,52.1286 L -66.8763,53.0376 L -67.3542,54.5085 L -66.103,53.5995
 L -64.8518,54.5085 L -65.3297,53.0376 L -64.0786,52.1286 L -62.8274,53.0376 L -63.3053,54.5085 L -62.0541,53.5995
 L -60.803,54.5085 L -61.2809,53.0376 L -60.0297,52.1286 L -61.5762,52.1286 L -62.0541,50.6578 L -60.803,49.7487
 L -59.5518,50.6578 L -60.0297,49.1869 L -58.7785,48.2779 L -57.5273,49.1869 L -58.0052,50.6578 L -56.7541,49.7487
 L -55.5029,50.6578 L -55.9808,52.1286 L -57.5273,52.1286 L -56.2762,53.0376 L -56.7541,54.5085 L -55.5029,53.5995
 L -54.2517,54.5085 L -54.7296,53.0376 L -53.4785,52.1286 L -52.2273,53.0377 L -52.7052,54.5085 L -51.454,53.5995
 L -50.2029,54.5085 L -50.6808,55.9793 L -52.2273,55.9793 L -50.9761,56.8884 L -51.454,58.3592 L -53.0006,58.3592
 L -53.4785,56.8884 L -53.9564,58.3592 L -55.5029,58.3592 L -54.2517,59.2682 L -54.7296,60.7391 L -53.4785,59.83
 L -52.2273,60.7391 L -52.7052,62.2099 L -54.2517,62.2099 L -53.0006,63.119 L -53.4785,64.5898 L -55.025,64.5898
 L -55.5029,63.119 L -55.9808,64.5898 L -57.5273,64.5898 L -58.0052,63.1189 L -56.7541,62.2099 L -58.3006,62.2099
 L -58.7785,60.7391 L -59.2564,62.2099 L -60.8029,62.2099 L -59.5518,63.119 L -60.0297,64.5898 L -61.5762,64.5898
 L -62.0541,63.119 L -62.532,64.5898 L -64.0786,64.5898 L -62.8274,65.4988 L -63.3053,66.9697 L -62.0541,66.0606
 L -60.8029,66.9697 L -61.2809,68.4405 L -62.8274,68.4405 L -61.5762,69.3495 L -62.0541,70.8204 L -60.8029,69.9113
 L -59.5518,70.8204 L -60.0297,69.3495 L -58.7785,68.4405 L -57.5273,69.3495 L -58.0052,70.8204 L -56.7541,69.9113
 L -55.5029,70.8204 L -55.9808,72.2912 L -57.5273,72.2912 L -56.2762,73.2003 L -56.7541,74.6711 L -58.3006,74.6711
 L -58.7785,73.2003 L -59.2564,74.6711 L -60.8029,74.6711 L -59.5518,75.5801 L -60.0297,77.051 L -58.7785,76.1419
 L -57.5273,77.051 L -58.0052,78.5218 L -59.5518,78.5218 L -58.3006,79.4308 L -58.7785,80.9017 L -57.5273,79.9927
 L -56.2762,80.9017 L -56.7541,79.4308 L -55.5029,78.5218 L -54.2517,79.4308 L -54.7296,80.9017 L -53.4785,79.9927
 L -52.2273,80.9017 L -52.7052,79.4308 L -51.454,78.5218 L -53.0005,78.5218 L -53.4785,77.051 L -52.2273,76.1419
 L -50.9761,77.051 L -51.454,75.5801 L -50.2029,74.6711 L -48.9517,75.5801 L -49.4296,77.051 L -48.1784,76.1419
 L -46.9272,77.051 L -47.4051,78.5218 L -48.9517,78.5218 L -47.7005,79.4308 L -48.1784,80.9017 L -46.9272,79.9927
 L -45.6761,80.9017 L -46.154,79.4308 L -44.9028,78.5218 L -43.6516,79.4308 L -44.1295,80.9017 L -42.8784,79.9926
 L -41.6272,80.9017 L -42.1051,79.4308 L -40.8539,78.5218 L -42.4004,78.5218 L -42.8783,77.051 L -41.6272,76.1419
 L -40.376,77.051 L -40.8539,75.5801 L -39.6027,74.6711 L -41.1493,74.6711 L -41.6272,73.2003 L -42.1051,74.6711
 L -43.6516,74.6711 L -44.1295,73.2003 L -42.8784,72.2912 L -44.4249,72.2912 L -44.9028,70.8204 L -43.6516,69.9113
 L -42.4005,70.8204 L -42.8783,69.3495 L -41.6272,68.4405 L -40.376,69.3495 L -40.8539,70.8204 L -39.6027,69.9113
 L -38.3516,70.8204 L -38.8295,69.3495 L -37.5783,68.4405 L -39.1248,68.4405 L -39.6027,66.9697 L -38.3516,66.0606
 L -37.1004,66.9697 L -37.5783,65.4988 L -36.3271,64.5898 L -35.0759,65.4988 L -35.5538,66.9697 L -34.3027,66.0606
 L -33.0515,66.9697 L -33.5294,68.4405 L -35.0759,68.4405 L -33.8248,69.3495 L -34.3027,70.8204 L -33.0515,69.9113
 L -31.8003,70.8204 L -32.2782,69.3495 L -31.0271,68.4405 L -29.7759,69.3495 L -30.2538,70.8204 L -29.0026,69.9113
 L -27.7514,70.8204 L -28.2294,72.2912 L -29.7759,72.2912 L -28.5247,73.2003 L -29.0026,74.6711 L -30.5491,74.6711
 L -31.0271,73.2003 L -31.505,74.6711 L -33.0515,74.6711 L -31.8003,75.5801 L -32.2782,77.051 L -31.0271,76.1419
 L -29.7759,77.051 L -30.2538,78.5218 L -31.8003,78.5218 L -30.5492,79.4308 L -31.0271,80.9017 L -29.7759,79.9927
 L -28.5247,80.9017 L -29.0026,79.4308 L -27.7514,78.5218 L -26.5003,79.4308 L -26.9782,80.9017 L -25.727,79.9927
 L -24.4758,80.9017 L -24.9537,79.4308 L -23.7026,78.5218 L -25.2491,78.5218 L -25.727,77.051 L -24.4758,76.1419
 L -23.2247,77.051 L -23.7026,75.5801 L -22.4514,74.6711 L -21.2002,75.5801 L -21.6781,77.051 L -20.427,76.1419
 L -19.1758,77.051 L -19.6537,78.5218 L -21.2002,78.5218 L -19.9491,79.4308 L -20.427,80.9017 L -19.1758,79.9927
 L -17.9246,80.9017 L -18.4025,79.4308 L -17.1513,78.5218 L -15.9002,79.4308 L -16.3781,80.9017 L -15.1269,79.9927
 L -13.8757,80.9017 L -14.3536,79.4308 L -13.1025,78.5218 L -14.649,78.5218 L -15.1269,77.051 L -13.8757,76.1419
 L -12.6246,77.051 L -13.1024,75.5801 L -11.8513,74.6711 L -13.3978,74.6711 L -13.8757,73.2003 L -14.3536,74.6711
 L -15.9002,74.6711 L -16.3781,73.2003 L -15.1269,72.2912 L -16.6734,72.2912 L -17.1513,70.8204 L -15.9002,69.9113
 L -14.649,70.8204 L -15.1269,69.3495 L -13.8757,68.4405 L -12.6245,69.3495 L -13.1025,70.8204 L -11.8513,69.9113
 L -10.6001,70.8204 L -11.078,69.3495 L -9.82684,68.4405 L -11.3734,68.4405 L -11.8513,66.9697 L -10.6001,66.0606
 L -9.34894,66.9697 L -9.82684,65.4988 L -8.57567,64.5898 L -10.1222,64.5898 L -10.6001,63.119 L -11.078,64.5898
 L -12.6246,64.5898 L -13.1025,63.1189 L -11.8513,62.2099 L -13.3978,62.2099 L -13.8757,60.7391 L -14.3536,62.2099
 L -15.9002,62.2099 L -14.649,63.119 L -15.1269,64.5898 L -16.6734,64.5898 L -17.1513,63.119 L -17.6292,64.5898
 L -19.1758,64.5898 L -19.6537,63.1189 L -18.4025,62.2099 L -19.9491,62.2099 L -20.427,60.7391 L -19.1758,59.83
 L -17.9246,60.7391 L -18.4025,59.2682 L -17.1513,58.3592 L -18.6979,58.3592 L -19.1758,56.8884 L -19.6537,58.3592
 L -21.2002,58.3592 L -21.6781,56.8884 L -20.427,55.9793 L -21.9735,55.9793 L -22.4514,54.5085 L -21.2002,53.5995
 L -19.9491,54.5085 L -20.427,53.0376 L -19.1758,52.1286 L -17.9246,53.0376 L -18.4025,54.5085 L -17.1513,53.5995
 L -15.9002,54.5085 L -16.3781,53.0376 L -15.1269,52.1286 L -16.6734,52.1286 L -17.1513,50.6578 L -15.9002,49.7487
 L -14.649,50.6578 L -15.1269,49.1869 L -13.8757,48.2779 L -12.6245,49.1869 L -13.1024,50.6578 L -11.8513,49.7487
 L -10.6001,50.6578 L -11.078,52.1286 L -12.6246,52.1286 L -11.3734,53.0376 L -11.8513,54.5085 L -10.6001,53.5995
 L -9.34894,54.5085 L -9.82684,53.0376 L -8.57567,52.1286 L -7.32449,53.0376 L -7.8024,54.5085 L -6.55122,53.5995
 L -5.30005,54.5085 L -5.77795,53.0376 L -4.52679,52.1286 L -6.07332,52.1286 L -6.55122,50.6578 L -5.30005,49.7487
 L -4.04889,50.6578 L -4.52679,49.1869 L -3.27562,48.2779 L -4.82214,48.2779 L -5.30005,46.8071 L -5.77795,48.2779
 L -7.32449,48.2779 L -7.8024,46.8071 L -6.55122,45.898 L -8.09776,45.898 L -8.57567,44.4272 L -7.32449,43.5182
 L -6.07332,44.4272 L -6.55122,42.9563 L -5.30005,42.0473 L -4.04887,42.9563 L -4.52679,44.4272 L -3.27562,43.5181
 L -2.02444,44.4272 L -2.50235,42.9563 L -1.25117,42.0473 L -2.79771,42.0473 L -3.27562,40.5765 L -2.02444,39.6674
 L -0.77327,40.5765 L -1.25117,39.1056 L 0,38.1966 L 1.25117,39.1056 L 0.77327,40.5765 L 2.02444,39.6674
 L 3.27562,40.5765 L 2.79771,42.0473 L 1.25117,42.0473 L 2.50235,42.9563 L 2.02444,44.4272 L 3.27562,43.5181
 L 4.52679,44.4272 L 4.04887,42.9563 L 5.30005,42.0473 L 6.55122,42.9563 L 6.07332,44.4272 L 7.32449,43.5182
 L 8.57567,44.4272 L 8.09776,45.898 L 6.55122,45.898 L 7.8024,46.8071 L 7.32449,48.2779 L 5.77795,48.2779
 L 5.30005,46.8071 L 4.82214,48.2779 L 3.27562,48.2779 L 4.52679,49.1869 L 4.04889,50.6578 L 5.30005,49.7487
 L 6.55122,50.6578 L 6.07332,52.1286 L 4.52679,52.1286 L 5.77795,53.0376 L 5.30005,54.5085 L 6.55122,53.5995
 L 7.8024,54.5085 L 7.32449,53.0376 L 8.57567,52.1286 L 9.82684,53.0376 L 9.34894,54.5085 L 10.6001,53.5995
 L 11.8513,54.5085 L 11.3734,53.0376 L 12.6246,52.1286 L 11.078,52.1286 L 10.6001,50.6578 L 11.8513,49.7487
 L 13.1024,50.6578 L 12.6245,49.1869 L 13.8757,48.2779 L 15.1269,49.1869 L 14.649,50.6578 L 15.9002,49.7487
 L 17.1513,50.6578 L 16.6734,52.1286 L 15.1269,52.1286 L 16.3781,53.0376 L 15.9002,54.5085 L 17.1513,53.5995
 L 18.4025,54.5085 L 17.9246,53.0376 L 19.1758,52.1286 L 20.427,53.0376 L 19.9491,54.5085 L 21.2002,53.5995
 L 22.4514,54.5085 L 21.9735,55.9793 L 20.427,55.9793 L 21.6781,56.8884 L 21.2002,58.3592 L 19.6537,58.3592
 L 19.1758,56.8884 L 18.6979,58.3592 L 17.1513,58.3592 L 18.4025,59.2682 L 17.9246,60.7391 L 19.1758,59.83
 L 20.427,60.7391 L 19.9491,62.2099 L 18.4025,62.2099 L 19.6537,63.1189 L 19.1758,64.5898 L 17.6292,64.5898
 L 17.1513,63.119 L 16.6734,64.5898 L 15.1269,64.5898 L 14.649,63.119 L 15.9002,62.2099 L 14.3536,62.2099
 L 13.8757,60.7391 L 13.3978,62.2099 L 11.8513,62.2099 L 13.1025,63.1189 L 12.6246,64.5898 L 11.078,64.5898
 L 10.6001,63.119 L 10.1222,64.5898 L 8.57567,64.5898 L 9.82684,65.4988 L 9.34894,66.9697 L 10.6001,66.0606
 L 11.8513,66.9697 L 11.3734,68.4405 L 9.82684,68.4405 L 11.078,69.3495 L 10.6001,70.8204 L 11.8513,69.9113
 L 13.1025,70.8204 L 12.6245,69.3495 L 13.8757,68.4405 L 15.1269,69.3495 L 14.649,70.8204 L 15.9002,69.9113
 L 17.1513,70.8204 L 16.6734,72.2912 L 15.1269,72.2912 L 16.3781,73.2003 L 15.9002,74.6711 L 14.3536,74.6711
 L 13.8757,73.2003 L 13.3978,74.6711 L 11.8513,74.6711 L 13.1024,75.5801 L 12.6246,77.051 L 13.8757,76.1419
 L 15.1269,77.051 L 14.649,78.5218 L 13.1025,78.5218 L 14.3536,79.4308 L 13.8757,80.9017 L 15.1269,79.9927
 L 16.3781,80.9017 L 15.9002,79.4308 L 17.1513,78.5218 L 18.4025,79.4308 L 17.9246,80.9017 L 19.1758,79.9927
 L 20.427,80.9017 L 19.9491,79.4308 L 21.2002,78.5218 L 19.6537,78.5218 L 19.1758,77.051 L 20.427,76.1419
 L 21.6781,77.051 L 21.2002,75.5801 L 22.4514,74.6711 L 23.7026,75.5801 L 23.2247,77.051 L 24.4758,76.1419
 L 25.727,77.051 L 25.2491,78.5218 L 23.7026,78.5218 L 24.9537,79.4308 L 24.4758,80.9017 L 25.727,79.9927
 L 26.9782,80.9017 L 26.5003,79.4308 L 27.7514,78.5218 L 29.0026,79.4308 L 28.5247,80.9017 L 29.7759,79.9927
 L 31.0271,80.9017 L 30.5492,79.4308 L 31.8003,78.5218 L 30.2538,78.5218 L 29.7759,77.051 L 31.0271,76.1419
 L 32.2782,77.051 L 31.8003,75.5801 L 33.0515,74.6711 L 31.505,74.6711 L 31.0271,73.2003 L 30.5491,74.6711
 L 29.0026,74.6711 L 28.5247,73.2003 L 29.7759,72.2912 L 28.2294,72.2912 L 27.7514,70.8204 L 29.0026,69.9113
 L 30.2538,70.8204 L 29.7759,69.3495 L 31.0271,68.4405 L 32.2782,69.3495 L 31.8003,70.8204 L 33.0515,69.9113
 L 34.3027,70.8204 L 33.8248,69.3495 L 35.0759,68.4405 L 33.5294,68.4405 L 33.0515,66.9697 L 34.3027,66.0606
 L 35.5538,66.9697 L 35.0759,65.4988 L 36.3271,64.5898 L 37.5783,65.4988 L 37.1004,66.9697 L 38.3516,66.0606
 L 39.6027,66.9697 L 39.1248,68.4405 L 37.5783,68.4405 L 38.8295,69.3495 L 38.3516,70.8204 L 39.6027,69.9113
 L 40.8539,70.8204 L 40.376,69.3495 L 41.6272,68.4405 L 42.8783,69.3495 L 42.4005,70.8204 L 43.6516,69.9113
 L 44.9028,70.8204 L 44.4249,72.2912 L 42.8784,72.2912 L 44.1295,73.2003 L 43.6516,74.6711 L 42.1051,74.6711
 L 41.6272,73.2003 L 41.1493,74.6711 L 39.6027,74.6711 L 40.8539,75.5801 L 40.376,77.051 L 41.6272,76.1419
 L 42.8783,77.051 L 42.4004,78.5218 L 40.8539,78.5218 L 42.1051,79.4308 L 41.6272,80.9017 L 42.8784,79.9926
 L 44.1295,80.9017 L 43.6516,79.4308 L 44.9028,78.5218 L 46.154,79.4308 L 45.6761,80.9017 L 46.9272,79.9927
 L 48.1784,80.9017 L 47.7005,79.4308 L 48.9517,78.5218 L 47.4051,78.5218 L 46.9272,77.051 L 48.1784,76.1419
 L 49.4296,77.051 L 48.9517,75.5801 L 50.2029,74.6711 L 51.454,75.5801 L 50.9761,77.051 L 52.2273,76.1419
 L 53.4785,77.051 L 53.0005,78.5218 L 51.454,78.5218 L 52.7052,79.4308 L 52.2273,80.9017 L 53.4785,79.9927
 L 54.7296,80.9017 L 54.2517,79.4308 L 55.5029,78.5218 L 56.7541,79.4308 L 56.2762,80.9017 L 57.5273,79.9927
 L 58.7785,80.9017 L 58.3006,79.4308 L 59.5518,78.5218 L 58.0052,78.5218 L 57.5273,77.051 L 58.7785,76.1419
 L 60.0297,77.051 L 59.5518,75.5801 L 60.8029,74.6711 L 59.2564,74.6711 L 58.7785,73.2003 L 58.3006,74.6711
 L 56.7541,74.6711 L 56.2762,73.2003 L 57.5273,72.2912 L 55.9808,72.2912 L 55.5029,70.8204 L 56.7541,69.9113
 L 58.0052,70.8204 L 57.5273,69.3495 L 58.7785,68.4405 L 60.0297,69.3495 L 59.5518,70.8204 L 60.8029,69.9113
 L 62.0541,70.8204 L 61.5762,69.3495 L 62.8274,68.4405 L 61.2809,68.4405 L 60.8029,66.9697 L 62.0541,66.0606
 L 63.3053,66.9697 L 62.8274,65.4988 L 64.0786,64.5898 L 62.532,64.5898 L 62.0541,63.119 L 61.5762,64.5898
 L 60.0297,64.5898 L 59.5518,63.119 L 60.8029,62.2099 L 59.2564,62.2099 L 58.7785,60.7391 L 58.3006,62.2099
 L 56.7541,62.2099 L 58.0052,63.1189 L 57.5273,64.5898 L 55.9808,64.5898 L 55.5029,63.119 L 55.025,64.5898
 L 53.4785,64.5898 L 53.0006,63.119 L 54.2517,62.2099 L 52.7052,62.2099 L 52.2273,60.7391 L 53.4785,59.83
 L 54.7296,60.7391 L 54.2517,59.2682 L 55.5029,58.3592 L 53.9564,58.3592 z
" stroke="black" fill="lightgray" stroke-width="0.5"/>
</svg>
